<?xml version="1.0" encoding="UTF-8" standalone="no"?>
<!DOCTYPE svg PUBLIC "-//W3C//DTD SVG 1.1//EN" "http://www.w3.org/Graphics/SVG/1.1/DTD/svg11.dtd">
<svg xmlns="http://www.w3.org/2000/svg" version="1.1" viewBox="0.00 0.00 1453.00 1300.00">
<g stroke-width="2.00" fill="none" stroke-linecap="butt">
<path stroke="#d2a8fb" vector-effect="non-scaling-stroke" d="
  M 1192.02 182.86
  Q 1189.08 180.56 1179.41 171.59
  Q 1155.42 149.35 1123.35 125.68
  C 1034.91 60.41 933.31 21.06 823.81 9.98
  Q 731.39 0.62 639.49 15.15
  Q 587.19 23.43 539.75 38.94
  C 420.98 77.76 318.11 150.69 243.96 251.48
  C 169.47 352.73 127.26 474.84 117.31 600.24"
/>
<path stroke="#ebcdfe" vector-effect="non-scaling-stroke" d="
  M 117.31 600.24
  Q 117.26 601.11 116.57 601.78"
/>
<path stroke="#d2a8fb" vector-effect="non-scaling-stroke" d="
  M 1224.29 215.84
  Q 1231.63 224.38 1239.19 232.67
  Q 1243.04 236.89 1247.72 242.85
  Q 1251.82 248.08 1256.22 253.05
  C 1263.13 260.84 1267.88 266.78 1274.99 270.11
  Q 1279.71 272.32 1287.02 271.19"
/>
<path stroke="#d2a8fb" vector-effect="non-scaling-stroke" d="
  M 1357.41 270.98
  Q 1364.99 271.98 1372.50 272.77
  Q 1373.99 272.92 1377.72 274.21
  Q 1380.17 275.06 1382.98 275.25
  Q 1388.89 275.63 1394.52 277.20"
/>
<path stroke="#bd75f9" vector-effect="non-scaling-stroke" d="
  M 1394.52 277.20
  Q 1398.85 279.59 1403.47 279.61"
/>
<path stroke="#d2a8fb" vector-effect="non-scaling-stroke" d="
  M 1403.47 279.61
  Q 1416.85 281.67 1427.89 288.08
  C 1464.75 309.46 1428.69 358.29 1411.18 378.44"
/>
<path stroke="#d2a8fb" vector-effect="non-scaling-stroke" d="
  M 1374.45 415.13
  Q 1353.42 431.23 1332.38 447.08
  Q 1198.37 548.07 1049.02 624.46
  C 1036.67 630.78 1027.96 635.09 1020.91 643.95
  C 1007.66 660.60 1008.36 681.57 1019.73 698.79
  C 1027.94 711.21 1041.00 720.25 1056.07 721.03
  C 1070.36 721.77 1086.15 715.31 1099.81 708.79
  Q 1227.12 648.01 1339.01 572.74
  Q 1346.39 567.77 1356.48 565.05
  C 1359.84 564.14 1363.18 564.56 1366.68 564.55
  C 1373.01 564.53 1376.93 565.36 1381.39 569.25
  C 1390.88 577.56 1389.63 594.11 1389.81 607.75
  C 1390.21 638.01 1389.42 668.61 1386.24 698.71
  Q 1385.58 704.94 1384.98 711.18
  C 1381.91 743.34 1376.39 775.08 1368.71 807.23
  C 1342.57 916.62 1288.38 1016.19 1208.94 1095.32
  Q 1165.55 1138.53 1119.98 1170.24
  C 988.54 1261.72 825.19 1302.78 665.25 1285.83
  Q 566.91 1275.41 479.31 1235.95
  Q 347.54 1176.59 260.57 1059.93
  Q 254.55 1051.86 253.13 1047.79
  C 249.21 1036.56 253.72 1023.57 263.89 1017.30"
/>
<path stroke="#bd75f9" vector-effect="non-scaling-stroke" d="
  M 263.89 1017.30
  L 276.60 1011.66"
/>
<path stroke="#bd75f9" vector-effect="non-scaling-stroke" d="
  M 280.83 1010.26
  Q 284.09 1010.82 286.69 1008.22"
/>
<path stroke="#bd75f9" vector-effect="non-scaling-stroke" d="
  M 417.82 964.50
  Q 420.91 964.89 423.73 962.50"
/>
<path stroke="#d2a8fb" vector-effect="non-scaling-stroke" d="
  M 427.50 961.45
  Q 439.25 957.72 450.75 954.01
  Q 453.89 953.00 455.25 953.53
  C 461.45 955.95 462.78 960.08 463.52 966.74
  Q 465.33 982.89 467.11 999.05
  Q 468.15 1008.57 470.07 1012.66
  C 477.54 1028.50 500.04 1028.56 508.23 1013.01
  Q 509.71 1010.21 510.87 1003.74
  C 518.27 962.67 542.16 929.91 584.42 920.16
  Q 602.22 916.05 620.50 916.04
  C 630.56 916.03 637.89 923.82 641.76 931.54
  Q 649.18 946.37 652.64 965.61
  C 659.45 1003.41 660.66 1041.92 662.27 1080.20
  C 662.47 1084.94 662.90 1092.10 664.43 1095.26
  Q 669.16 1104.96 679.73 1103.66
  Q 691.97 1102.16 708.31 1097.80
  C 724.01 1093.60 733.34 1084.98 739.55 1070.55
  Q 742.56 1063.57 743.68 1057.97
  C 750.76 1022.71 757.21 987.73 766.85 952.51
  Q 774.76 923.62 787.96 898.15
  Q 809.47 856.64 848.58 831.09
  C 856.50 825.92 867.70 819.93 878.06 815.07
  Q 889.97 809.49 908.02 800.79
  C 934.17 788.20 967.59 767.89 969.51 735.52
  C 970.02 727.00 969.98 721.10 963.63 715.65
  C 951.38 705.12 935.99 696.01 919.73 695.41
  C 913.63 695.18 904.49 696.65 898.99 697.72
  C 865.09 704.32 826.94 711.56 790.84 712.62
  Q 759.69 713.53 729.91 705.14
  C 708.22 699.03 689.51 686.20 671.47 672.24
  Q 651.14 656.50 630.93 640.58
  C 595.38 612.58 548.40 580.31 502.82 610.79
  C 497.63 614.26 493.51 616.45 497.79 622.98
  Q 541.99 690.36 586.17 757.75
  C 592.46 767.36 594.16 774.85 585.54 783.78
  Q 550.19 820.41 500.68 820.81
  C 489.27 820.90 479.69 820.25 470.80 814.68
  Q 449.45 801.31 428.07 787.93
  Q 423.01 784.77 419.80 784.39
  Q 413.76 783.68 410.06 788.39
  Q 407.95 791.07 407.23 796.13
  Q 402.70 827.73 421.25 852.97
  C 424.14 856.91 428.30 861.18 428.10 865.74
  C 427.80 872.28 423.58 874.58 417.49 876.37
  Q 392.64 883.66 367.36 889.97"
/>
<path stroke="#d2a8fb" vector-effect="non-scaling-stroke" d="
  M 362.50 891.34
  Q 355.95 892.99 349.37 894.16
  Q 346.17 894.73 341.31 896.27
  Q 336.37 897.83 331.21 898.38
  Q 327.83 898.74 324.97 899.70
  Q 316.05 902.69 306.67 903.76
  C 304.89 903.97 303.41 904.93 301.73 905.25
  Q 282.70 908.93 263.81 912.84"
/>
<path stroke="#d2a8fb" vector-effect="non-scaling-stroke" d="
  M 257.53 913.96
  L 242.52 917.01"
/>
<path stroke="#d2a8fb" vector-effect="non-scaling-stroke" d="
  M 232.97 918.35
  L 211.42 921.70"
/>
<path stroke="#d2a8fb" vector-effect="non-scaling-stroke" d="
  M 201.52 923.10
  L 179.21 926.12"
/>
<path stroke="#d2a8fb" vector-effect="non-scaling-stroke" d="
  M 163.64 927.90
  L 129.97 930.61"
/>
<path stroke="#d2a8fb" vector-effect="non-scaling-stroke" d="
  M 74.78 930.78
  L 78.16 930.71
  A 0.11 0.11 0.0 0 0 78.16 930.49
  C 61.78 929.13 44.61 926.32 29.49 919.70
  Q 6.27 909.54 4.07 886.24
  C 1.30 857.07 23.44 825.11 42.18 804.80
  Q 47.57 798.96 56.18 790.54
  Q 65.85 781.08 76.37 772.36"
/>
<path stroke="#d2a8fb" vector-effect="non-scaling-stroke" d="
  M 83.28 767.08
  Q 90.29 762.49 97.22 757.84
  Q 105.06 752.59 108.43 748.58
  Q 118.90 736.12 116.95 718.52
  Q 115.92 709.25 115.75 706.00
  Q 113.34 660.72 116.04 615.46"
/>
<path stroke="#bd75f9" vector-effect="non-scaling-stroke" d="
  M 116.04 615.46
  Q 117.52 607.77 117.31 600.24"
/>
<path stroke="#ebcdfe" vector-effect="non-scaling-stroke" d="
  M 116.04 615.46
  Q 116.25 613.90 115.78 612.67"
/>
<path stroke="#ebcdfe" vector-effect="non-scaling-stroke" d="
  M 1395.47 276.84
  Q 1395.17 277.18 1394.52 277.20"
/>
<path stroke="#d4d4d4" stroke-opacity="0.678" vector-effect="non-scaling-stroke" d="
  M 451.16 951.94
  Q 455.01 952.04 458.76 952.16
  Q 459.07 952.17 459.22 952.05
  Q 459.43 951.88 459.39 951.52
  Q 459.37 951.33 459.22 951.44
  L 458.77 951.78
  A 0.14 0.14 0.0 0 1 458.58 951.57
  Q 459.96 949.89 461.42 948.26
  C 464.18 945.17 465.38 941.97 465.14 937.82
  Q 465.11 937.33 465.32 936.90
  C 466.27 934.97 465.32 928.90 465.19 927.18
  Q 464.81 921.91 465.36 919.38
  Q 466.39 914.60 469.33 910.51
  Q 469.63 910.09 470.14 910.12
  Q 470.69 910.16 471.00 909.72
  Q 474.10 905.43 474.38 899.73
  Q 474.45 898.18 472.41 896.85
  A 1.10 1.08 13.2 0 1 471.91 896.06
  C 471.48 892.57 470.25 887.47 466.57 886.65
  Q 466.12 886.55 465.90 886.14
  Q 464.77 884.11 462.86 882.85
  Q 462.42 882.55 462.35 882.03
  Q 462.19 880.89 461.59 880.48
  Q 459.84 879.29 458.71 876.03
  Q 458.00 873.98 455.25 871.09
  Q 454.61 870.43 452.80 869.49
  C 450.54 868.31 449.59 865.50 448.44 864.34
  Q 446.12 862.01 442.84 860.74
  Q 442.38 860.56 442.00 860.89
  Q 439.86 862.73 437.05 863.11
  Q 436.65 863.16 436.36 863.43
  L 432.54 866.85
  Q 432.13 867.21 431.59 867.31
  Q 430.38 867.53 429.94 868.64
  Q 429.85 868.86 429.60 868.87
  Q 429.44 868.88 429.26 868.87
  Q 428.83 868.85 428.67 869.25
  L 426.97 873.53"
/>
<path stroke="#d4d4d4" stroke-opacity="0.678" vector-effect="non-scaling-stroke" d="
  M 1273.23 494.38
  L 1246.26 513.19
  Q 1245.83 513.48 1245.72 513.99
  Q 1245.24 516.21 1243.06 516.77
  Q 1242.49 516.91 1242.39 517.49
  Q 1242.14 519.05 1243.34 520.00
  A 1.10 1.08 -31.8 0 0 1244.27 520.21
  Q 1246.94 519.58 1248.89 521.31
  Q 1249.26 521.63 1249.73 521.70
  Q 1254.82 522.46 1255.61 517.31
  A 0.64 0.63 3.7 0 1 1256.23 516.77
  C 1258.97 516.73 1266.94 516.99 1269.14 515.37
  Q 1273.48 512.18 1278.53 514.55
  Q 1281.15 515.79 1280.13 518.25
  Q 1278.59 521.96 1277.08 525.65
  C 1276.43 527.24 1276.24 529.08 1277.60 530.17
  Q 1279.41 531.61 1281.80 532.35
  Q 1285.64 533.54 1286.24 533.80
  C 1288.76 534.93 1291.15 535.59 1292.73 538.02
  Q 1295.07 541.61 1296.19 545.72
  Q 1297.88 551.96 1297.95 552.16
  Q 1298.99 555.22 1299.99 558.27
  Q 1300.14 558.73 1300.51 559.05
  Q 1304.59 562.67 1309.25 563.11
  Q 1313.30 563.48 1319.57 562.48
  A 0.71 0.71 0.0 0 1 1320.33 562.88
  L 1321.86 566.11
  Q 1322.06 566.54 1322.50 566.74
  Q 1326.21 568.42 1328.99 565.47
  Q 1329.43 565.00 1329.91 565.44
  L 1331.16 566.57
  Q 1331.65 567.02 1331.07 567.34
  Q 1330.10 567.87 1329.63 568.79
  Q 1329.40 569.22 1328.96 569.41
  Q 1327.78 569.93 1327.62 571.21
  Q 1327.56 571.73 1327.15 572.05
  Q 1325.63 573.22 1323.37 573.86
  Q 1323.13 573.93 1323.13 574.19
  Q 1323.13 574.44 1323.29 574.26
  L 1323.51 574.01
  A 0.32 0.21 -81.8 0 1 1323.74 574.50
  C 1321.52 577.01 1318.61 578.15 1316.43 579.83
  Q 1314.66 581.18 1311.76 583.18
  Q 1311.00 583.70 1310.97 584.62
  Q 1310.95 585.21 1311.49 584.98
  Q 1314.95 583.51 1317.76 581.10
  C 1319.76 579.38 1321.79 578.67 1323.96 577.27
  C 1326.98 575.34 1330.18 574.50 1333.27 572.73
  Q 1334.62 571.95 1333.09 572.28
  L 1332.57 572.39
  A 0.58 0.58 0.0 0 1 1331.91 572.03
  Q 1331.55 571.07 1331.61 570.33
  Q 1331.62 570.21 1331.57 570.32
  Q 1331.31 570.93 1331.88 571.34
  Q 1332.37 571.69 1332.23 571.11
  Q 1331.79 569.20 1332.66 569.70"
/>
<path stroke="#d4d4d4" stroke-opacity="0.678" vector-effect="non-scaling-stroke" d="
  M 340.28 1154.78
  L 333.17 1149.91
  A 1.54 1.51 -27.2 0 0 332.30 1149.64
  C 330.03 1149.63 329.93 1147.86 328.81 1146.93
  Q 327.73 1146.05 326.33 1145.72
  A 0.18 0.18 0.0 0 0 326.22 1146.06
  L 327.14 1146.43
  Q 327.67 1146.64 327.11 1146.52
  Q 325.07 1146.09 323.59 1144.79
  Q 321.40 1142.90 320.58 1142.41
  C 315.59 1139.43 311.83 1135.09 307.54 1131.17
  C 305.78 1129.56 304.31 1126.71 301.29 1125.48
  Q 301.13 1125.41 301.13 1125.24
  Q 301.13 1125.11 301.11 1124.98
  Q 301.09 1124.80 300.93 1124.62
  Q 298.12 1121.35 295.40 1118.00
  Q 295.10 1117.63 294.98 1117.18
  C 294.64 1115.90 293.50 1115.59 292.90 1114.92
  Q 291.47 1113.34 290.75 1111.27
  A 1.28 1.27 5.1 0 0 290.14 1110.55
  C 288.49 1109.64 288.38 1107.87 287.67 1106.87
  C 286.35 1105.04 284.91 1103.76 284.02 1101.64
  Q 280.34 1092.89 274.21 1085.75"
/>
<path stroke="#ebcdfe" vector-effect="non-scaling-stroke" d="
  M 263.75 1016.79
  Q 263.96 1016.84 263.89 1017.30"
/>
<path stroke="#ebcdfe" vector-effect="non-scaling-stroke" d="
  M 1403.55 279.04
  Q 1403.72 279.31 1403.47 279.61"
/>
<path stroke="#bd75f9" vector-effect="non-scaling-stroke" d="
  M 596.5171 173.4183
  A 54.83 53.14 134.9 0 0 672.8612 172.0900
  A 54.83 53.14 134.9 0 0 673.9229 95.7417
  A 54.83 53.14 134.9 0 0 597.5788 97.0700
  A 54.83 53.14 134.9 0 0 596.5171 173.4183"
/>
<path stroke="#bd75f9" vector-effect="non-scaling-stroke" d="
  M 270.14 363.92
  Q 246.70 415.48 234.10 470.68
  C 228.57 494.90 258.53 486.08 268.75 479.99
  Q 281.60 472.33 291.88 458.13
  Q 313.67 428.00 335.18 397.67
  C 365.30 355.18 393.90 317.57 431.77 286.53
  C 459.34 263.93 490.18 246.94 523.70 233.32
  Q 532.10 229.91 535.79 227.13
  C 553.42 213.85 565.21 187.06 554.45 166.30
  Q 545.61 149.26 526.56 142.25
  Q 519.28 139.57 512.54 142.36
  Q 454.79 166.36 401.79 202.85
  C 377.18 219.79 355.96 241.71 336.45 264.68
  Q 310.75 294.94 285.20 325.34
  C 279.36 332.28 279.81 336.65 278.36 344.73
  C 277.21 351.16 272.87 357.90 270.14 363.92"
/>
</g>
<path fill="#ffffff" d="
  M 1192.02 182.86
  Q 1189.08 180.56 1179.41 171.59
  Q 1155.42 149.35 1123.35 125.68
  C 1034.91 60.41 933.31 21.06 823.81 9.98
  Q 731.39 0.62 639.49 15.15
  Q 587.19 23.43 539.75 38.94
  C 420.98 77.76 318.11 150.69 243.96 251.48
  C 169.47 352.73 127.26 474.84 117.31 600.24
  Q 117.26 601.11 116.57 601.78
  Q 116.63 589.09 116.80 576.36
  C 116.87 571.70 120.38 566.93 120.78 561.68
  Q 121.34 554.11 121.30 546.55
  C 121.29 544.43 121.69 541.46 122.59 539.55
  C 126.00 532.36 125.48 526.85 125.86 519.69
  C 126.03 516.48 127.04 514.71 128.62 512.10
  C 130.48 509.02 130.52 504.46 130.51 500.98
  C 130.49 496.40 131.39 494.10 133.24 490.33
  C 135.08 486.56 134.80 482.18 135.25 478.12
  C 135.70 474.03 138.79 471.84 139.10 467.53
  C 139.36 463.88 139.25 460.56 141.18 457.22
  Q 144.28 451.85 144.31 445.48
  A 1.75 1.74 -26.4 0 1 144.67 444.42
  Q 148.88 438.89 148.96 431.87
  A 1.93 1.87 -28.7 0 1 149.27 430.87
  C 151.24 427.86 152.42 425.87 152.96 421.99
  Q 153.49 418.14 155.42 414.79
  C 157.69 410.82 157.44 407.09 159.67 403.41
  Q 161.54 400.32 162.37 396.83
  C 163.24 393.14 165.56 391.09 166.29 387.84
  Q 167.19 383.89 169.06 380.34
  C 171.07 376.52 171.77 372.67 173.95 368.94
  Q 175.06 367.03 175.97 364.36
  C 177.01 361.32 179.17 359.26 180.05 356.30
  C 180.59 354.48 180.98 353.04 181.97 351.35
  Q 186.10 344.26 189.38 336.77
  Q 190.31 334.64 192.13 331.44
  C 193.49 329.04 194.32 326.75 195.97 324.39
  Q 197.64 322.01 198.65 319.29
  C 199.82 316.13 201.88 314.15 203.12 311.09
  Q 204.24 308.34 205.37 306.74
  C 208.83 301.87 211.73 296.68 215.08 291.72
  C 216.65 289.41 217.14 286.89 218.79 284.78
  Q 223.16 279.22 224.94 276.46
  C 226.01 274.81 226.13 272.72 227.68 271.03
  Q 231.38 267.01 234.30 262.45
  Q 238.02 256.67 239.52 254.77
  C 242.88 250.53 246.46 247.08 249.11 242.15
  C 253.40 234.15 262.83 227.01 266.13 221.63
  Q 270.24 214.93 273.41 211.66
  Q 308.85 174.98 332.57 152.82
  C 337.49 148.22 344.59 144.06 350.31 138.92
  Q 357.47 132.48 365.52 127.19
  C 370.33 124.02 374.87 119.80 379.99 116.63
  Q 383.94 114.18 386.25 112.41
  C 388.99 110.30 391.33 108.42 394.51 106.68
  C 399.37 104.04 403.46 100.43 408.44 97.99
  C 411.13 96.68 413.26 94.58 415.71 93.28
  Q 421.72 90.09 427.43 86.43
  Q 428.69 85.62 431.65 84.35
  C 434.30 83.22 436.06 81.06 438.58 80.11
  C 440.04 79.55 441.36 79.30 442.66 78.31
  Q 445.48 76.14 448.84 75.10
  C 452.15 74.08 454.22 71.83 457.51 70.66
  Q 459.69 69.89 461.58 68.64
  C 464.47 66.75 467.63 66.31 470.34 64.61
  C 471.96 63.59 473.09 62.62 475.03 62.09
  Q 478.69 61.08 481.92 59.10
  C 484.30 57.64 486.95 57.73 488.79 56.81
  Q 494.40 54.02 498.19 52.64
  Q 500.31 51.87 503.44 50.26
  C 506.27 48.80 509.53 48.35 512.00 47.36
  C 515.28 46.05 517.90 44.79 521.61 43.70
  Q 525.20 42.64 530.60 40.32
  C 532.93 39.31 536.48 39.04 539.48 37.67
  C 544.65 35.30 549.88 34.72 555.10 32.70
  C 560.50 30.60 566.00 30.49 571.23 28.40
  Q 576.86 26.14 582.86 25.25
  Q 585.99 24.79 589.01 23.70
  Q 595.66 21.30 602.72 20.87
  Q 605.30 20.71 607.73 19.80
  Q 615.40 16.91 623.56 16.51
  C 630.19 16.19 633.01 15.22 638.81 13.04
  C 643.08 11.43 650.55 12.06 655.28 11.90
  C 661.89 11.67 666.74 8.53 672.98 7.78
  C 681.12 6.81 689.52 7.10 697.72 7.04
  C 708.73 6.96 719.55 5.80 730.39 4.44
  Q 752.58 1.67 772.75 4.39
  Q 788.82 6.57 796.51 6.82
  Q 811.31 7.31 826.12 7.75
  Q 832.42 7.93 839.90 10.63
  C 844.41 12.26 850.65 11.96 855.45 12.14
  C 860.34 12.32 863.74 13.48 868.22 14.93
  C 875.91 17.41 883.44 15.59 891.02 19.11
  C 894.98 20.96 898.88 20.92 903.04 21.56
  Q 905.11 21.88 908.14 23.21
  Q 913.02 25.36 919.50 25.89
  Q 922.93 26.17 927.34 28.72
  Q 929.51 29.97 936.64 30.31
  Q 938.31 30.39 942.35 32.43
  Q 944.79 33.66 947.65 34.24
  Q 953.07 35.32 958.11 37.57
  Q 960.34 38.57 963.52 39.31
  C 967.21 40.18 970.33 42.35 973.62 43.27
  C 975.87 43.90 977.76 44.17 979.91 45.39
  Q 983.34 47.32 989.02 48.67
  Q 990.43 49.00 993.55 50.68
  C 996.72 52.38 1000.20 53.25 1003.46 55.01
  Q 1006.65 56.73 1008.73 57.55
  C 1015.50 60.21 1022.00 63.63 1028.58 66.62
  Q 1033.05 68.67 1037.39 71.00
  Q 1045.09 75.15 1048.49 76.89
  Q 1054.09 79.75 1059.54 82.90
  C 1078.56 93.89 1091.80 101.27 1107.14 112.38
  Q 1107.52 112.65 1116.03 118.37
  C 1120.03 121.06 1123.60 124.44 1127.50 126.99
  Q 1135.60 132.31 1142.82 138.77
  Q 1147.97 143.38 1151.69 146.13
  C 1166.28 156.92 1179.01 170.21 1192.02 182.86
  Z"
/>
<path fill="#a450f6" d="
  M 1192.02 182.86
  Q 1208.72 198.79 1224.29 215.84
  Q 1231.63 224.38 1239.19 232.67
  Q 1243.04 236.89 1247.72 242.85
  Q 1251.82 248.08 1256.22 253.05
  C 1263.13 260.84 1267.88 266.78 1274.99 270.11
  Q 1279.71 272.32 1287.02 271.19
  Q 1291.79 271.48 1294.50 271.37
  Q 1326.04 270.08 1357.41 270.98
  Q 1364.99 271.98 1372.50 272.77
  Q 1373.99 272.92 1377.72 274.21
  Q 1380.17 275.06 1382.98 275.25
  Q 1388.89 275.63 1394.52 277.20
  Q 1398.85 279.59 1403.47 279.61
  Q 1416.85 281.67 1427.89 288.08
  C 1464.75 309.46 1428.69 358.29 1411.18 378.44
  C 1403.98 386.60 1397.90 395.19 1388.78 402.53
  Q 1381.31 408.55 1374.45 415.13
  Q 1353.42 431.23 1332.38 447.08
  Q 1198.37 548.07 1049.02 624.46
  C 1036.67 630.78 1027.96 635.09 1020.91 643.95
  C 1007.66 660.60 1008.36 681.57 1019.73 698.79
  C 1027.94 711.21 1041.00 720.25 1056.07 721.03
  C 1070.36 721.77 1086.15 715.31 1099.81 708.79
  Q 1227.12 648.01 1339.01 572.74
  Q 1346.39 567.77 1356.48 565.05
  C 1359.84 564.14 1363.18 564.56 1366.68 564.55
  C 1373.01 564.53 1376.93 565.36 1381.39 569.25
  C 1390.88 577.56 1389.63 594.11 1389.81 607.75
  C 1390.21 638.01 1389.42 668.61 1386.24 698.71
  Q 1385.58 704.94 1384.98 711.18
  C 1381.91 743.34 1376.39 775.08 1368.71 807.23
  C 1342.57 916.62 1288.38 1016.19 1208.94 1095.32
  Q 1165.55 1138.53 1119.98 1170.24
  C 988.54 1261.72 825.19 1302.78 665.25 1285.83
  Q 566.91 1275.41 479.31 1235.95
  Q 347.54 1176.59 260.57 1059.93
  Q 254.55 1051.86 253.13 1047.79
  C 249.21 1036.56 253.72 1023.57 263.89 1017.30
  L 276.60 1011.66
  L 280.83 1010.26
  Q 284.09 1010.82 286.69 1008.22
  C 292.10 1007.23 297.02 1004.78 302.24 1003.34
  C 307.07 1002.01 311.16 999.93 316.17 998.72
  C 320.76 997.60 324.82 995.47 329.30 994.26
  C 333.66 993.08 337.57 990.92 341.83 989.89
  C 344.20 989.32 346.33 988.92 348.64 987.82
  C 353.14 985.68 358.09 984.90 362.33 983.27
  C 365.18 982.18 367.38 981.28 370.64 980.61
  C 374.80 979.75 378.35 977.56 382.09 976.58
  C 384.41 975.97 386.65 975.58 388.90 974.59
  C 393.87 972.40 398.91 971.59 403.89 969.31
  C 408.37 967.27 413.04 966.45 417.82 964.50
  Q 420.91 964.89 423.73 962.50
  Q 425.43 961.51 427.50 961.45
  Q 439.25 957.72 450.75 954.01
  Q 453.89 953.00 455.25 953.53
  C 461.45 955.95 462.78 960.08 463.52 966.74
  Q 465.33 982.89 467.11 999.05
  Q 468.15 1008.57 470.07 1012.66
  C 477.54 1028.50 500.04 1028.56 508.23 1013.01
  Q 509.71 1010.21 510.87 1003.74
  C 518.27 962.67 542.16 929.91 584.42 920.16
  Q 602.22 916.05 620.50 916.04
  C 630.56 916.03 637.89 923.82 641.76 931.54
  Q 649.18 946.37 652.64 965.61
  C 659.45 1003.41 660.66 1041.92 662.27 1080.20
  C 662.47 1084.94 662.90 1092.10 664.43 1095.26
  Q 669.16 1104.96 679.73 1103.66
  Q 691.97 1102.16 708.31 1097.80
  C 724.01 1093.60 733.34 1084.98 739.55 1070.55
  Q 742.56 1063.57 743.68 1057.97
  C 750.76 1022.71 757.21 987.73 766.85 952.51
  Q 774.76 923.62 787.96 898.15
  Q 809.47 856.64 848.58 831.09
  C 856.50 825.92 867.70 819.93 878.06 815.07
  Q 889.97 809.49 908.02 800.79
  C 934.17 788.20 967.59 767.89 969.51 735.52
  C 970.02 727.00 969.98 721.10 963.63 715.65
  C 951.38 705.12 935.99 696.01 919.73 695.41
  C 913.63 695.18 904.49 696.65 898.99 697.72
  C 865.09 704.32 826.94 711.56 790.84 712.62
  Q 759.69 713.53 729.91 705.14
  C 708.22 699.03 689.51 686.20 671.47 672.24
  Q 651.14 656.50 630.93 640.58
  C 595.38 612.58 548.40 580.31 502.82 610.79
  C 497.63 614.26 493.51 616.45 497.79 622.98
  Q 541.99 690.36 586.17 757.75
  C 592.46 767.36 594.16 774.85 585.54 783.78
  Q 550.19 820.41 500.68 820.81
  C 489.27 820.90 479.69 820.25 470.80 814.68
  Q 449.45 801.31 428.07 787.93
  Q 423.01 784.77 419.80 784.39
  Q 413.76 783.68 410.06 788.39
  Q 407.95 791.07 407.23 796.13
  Q 402.70 827.73 421.25 852.97
  C 424.14 856.91 428.30 861.18 428.10 865.74
  C 427.80 872.28 423.58 874.58 417.49 876.37
  Q 392.64 883.66 367.36 889.97
  L 362.50 891.34
  Q 355.95 892.99 349.37 894.16
  Q 346.17 894.73 341.31 896.27
  Q 336.37 897.83 331.21 898.38
  Q 327.83 898.74 324.97 899.70
  Q 316.05 902.69 306.67 903.76
  C 304.89 903.97 303.41 904.93 301.73 905.25
  Q 282.70 908.93 263.81 912.84
  L 257.53 913.96
  L 242.52 917.01
  L 232.97 918.35
  L 211.42 921.70
  L 201.52 923.10
  L 179.21 926.12
  Q 171.00 926.17 163.64 927.90
  L 129.97 930.61
  Q 102.50 931.67 74.78 930.78
  L 78.16 930.71
  A 0.11 0.11 0.0 0 0 78.16 930.49
  C 61.78 929.13 44.61 926.32 29.49 919.70
  Q 6.27 909.54 4.07 886.24
  C 1.30 857.07 23.44 825.11 42.18 804.80
  Q 47.57 798.96 56.18 790.54
  Q 65.85 781.08 76.37 772.36
  L 83.28 767.08
  Q 90.29 762.49 97.22 757.84
  Q 105.06 752.59 108.43 748.58
  Q 118.90 736.12 116.95 718.52
  Q 115.92 709.25 115.75 706.00
  Q 113.34 660.72 116.04 615.46
  Q 117.52 607.77 117.31 600.24
  C 127.26 474.84 169.47 352.73 243.96 251.48
  C 318.11 150.69 420.98 77.76 539.75 38.94
  Q 587.19 23.43 639.49 15.15
  Q 731.39 0.62 823.81 9.98
  C 933.31 21.06 1034.91 60.41 1123.35 125.68
  Q 1155.42 149.35 1179.41 171.59
  Q 1189.08 180.56 1192.02 182.86
  Z
  M 596.5171 173.4183
  A 54.83 53.14 134.9 0 0 672.8612 172.0900
  A 54.83 53.14 134.9 0 0 673.9229 95.7417
  A 54.83 53.14 134.9 0 0 597.5788 97.0700
  A 54.83 53.14 134.9 0 0 596.5171 173.4183
  Z
  M 270.14 363.92
  Q 246.70 415.48 234.10 470.68
  C 228.57 494.90 258.53 486.08 268.75 479.99
  Q 281.60 472.33 291.88 458.13
  Q 313.67 428.00 335.18 397.67
  C 365.30 355.18 393.90 317.57 431.77 286.53
  C 459.34 263.93 490.18 246.94 523.70 233.32
  Q 532.10 229.91 535.79 227.13
  C 553.42 213.85 565.21 187.06 554.45 166.30
  Q 545.61 149.26 526.56 142.25
  Q 519.28 139.57 512.54 142.36
  Q 454.79 166.36 401.79 202.85
  C 377.18 219.79 355.96 241.71 336.45 264.68
  Q 310.75 294.94 285.20 325.34
  C 279.36 332.28 279.81 336.65 278.36 344.73
  C 277.21 351.16 272.87 357.90 270.14 363.92
  Z"
/>
<ellipse fill="#d69afc" cx="0.00" cy="0.00" transform="translate(635.22,134.58) rotate(134.9)" rx="54.83" ry="53.14"/>
<path fill="#d69afc" d="
  M 270.14 363.92
  C 272.87 357.90 277.21 351.16 278.36 344.73
  C 279.81 336.65 279.36 332.28 285.20 325.34
  Q 310.75 294.94 336.45 264.68
  C 355.96 241.71 377.18 219.79 401.79 202.85
  Q 454.79 166.36 512.54 142.36
  Q 519.28 139.57 526.56 142.25
  Q 545.61 149.26 554.45 166.30
  C 565.21 187.06 553.42 213.85 535.79 227.13
  Q 532.10 229.91 523.70 233.32
  C 490.18 246.94 459.34 263.93 431.77 286.53
  C 393.90 317.57 365.30 355.18 335.18 397.67
  Q 313.67 428.00 291.88 458.13
  Q 281.60 472.33 268.75 479.99
  C 258.53 486.08 228.57 494.90 234.10 470.68
  Q 246.70 415.48 270.14 363.92
  Z"
/>
<path fill="#ffffff" d="
  M 1224.29 215.84
  Q 1234.01 225.09 1239.21 230.80
  C 1244.27 236.36 1248.81 243.55 1253.60 248.83
  C 1259.15 254.94 1265.87 262.97 1273.01 268.24
  C 1276.70 270.95 1282.59 270.95 1287.02 271.19
  Q 1279.71 272.32 1274.99 270.11
  C 1267.88 266.78 1263.13 260.84 1256.22 253.05
  Q 1251.82 248.08 1247.72 242.85
  Q 1243.04 236.89 1239.19 232.67
  Q 1231.63 224.38 1224.29 215.84
  Z"
/>
<path fill="#ffffff" d="
  M 1357.41 270.98
  Q 1367.81 269.93 1377.49 273.29
  C 1383.64 275.43 1389.69 274.16 1395.47 276.84
  Q 1395.17 277.18 1394.52 277.20
  Q 1388.89 275.63 1382.98 275.25
  Q 1380.17 275.06 1377.72 274.21
  Q 1373.99 272.92 1372.50 272.77
  Q 1364.99 271.98 1357.41 270.98
  Z"
/>
<path fill="#d69afc" d="
  M 1395.47 276.84
  Q 1399.24 278.72 1403.55 279.04
  Q 1403.72 279.31 1403.47 279.61
  Q 1398.85 279.59 1394.52 277.20
  Q 1395.17 277.18 1395.47 276.84
  Z"
/>
<path fill="#ffffff" d="
  M 1403.55 279.04
  C 1410.84 279.25 1416.67 282.35 1423.43 283.68
  Q 1424.98 283.98 1426.32 284.89
  C 1429.57 287.09 1433.26 288.85 1435.83 291.59
  Q 1448.39 304.94 1445.38 323.59
  Q 1445.06 325.63 1443.57 328.20
  C 1441.46 331.87 1440.79 335.72 1438.92 339.33
  C 1437.25 342.57 1436.28 345.87 1434.29 348.91
  C 1433.03 350.84 1431.96 352.87 1430.53 354.68
  C 1426.61 359.65 1423.27 365.97 1419.71 370.11
  Q 1415.84 374.59 1411.18 378.44
  C 1428.69 358.29 1464.75 309.46 1427.89 288.08
  Q 1416.85 281.67 1403.47 279.61
  Q 1403.72 279.31 1403.55 279.04
  Z"
/>
<path fill="#ffffff" d="
  M 1374.45 415.13
  Q 1368.58 421.34 1361.41 426.03
  C 1354.77 430.37 1349.09 437.07 1343.27 441.06
  C 1338.55 444.30 1335.00 447.33 1331.17 450.25
  C 1314.06 463.29 1292.32 478.95 1273.23 494.38
  L 1246.26 513.19
  Q 1245.83 513.48 1245.72 513.99
  Q 1245.24 516.21 1243.06 516.77
  Q 1242.49 516.91 1242.39 517.49
  Q 1242.14 519.05 1243.34 520.00
  A 1.10 1.08 -31.8 0 0 1244.27 520.21
  Q 1246.94 519.58 1248.89 521.31
  Q 1249.26 521.63 1249.73 521.70
  Q 1254.82 522.46 1255.61 517.31
  A 0.64 0.63 3.7 0 1 1256.23 516.77
  C 1258.97 516.73 1266.94 516.99 1269.14 515.37
  Q 1273.48 512.18 1278.53 514.55
  Q 1281.15 515.79 1280.13 518.25
  Q 1278.59 521.96 1277.08 525.65
  C 1276.43 527.24 1276.24 529.08 1277.60 530.17
  Q 1279.41 531.61 1281.80 532.35
  Q 1285.64 533.54 1286.24 533.80
  C 1288.76 534.93 1291.15 535.59 1292.73 538.02
  Q 1295.07 541.61 1296.19 545.72
  Q 1297.88 551.96 1297.95 552.16
  Q 1298.99 555.22 1299.99 558.27
  Q 1300.14 558.73 1300.51 559.05
  Q 1304.59 562.67 1309.25 563.11
  Q 1313.30 563.48 1319.57 562.48
  A 0.71 0.71 0.0 0 1 1320.33 562.88
  L 1321.86 566.11
  Q 1322.06 566.54 1322.50 566.74
  Q 1326.21 568.42 1328.99 565.47
  Q 1329.43 565.00 1329.91 565.44
  L 1331.16 566.57
  Q 1331.65 567.02 1331.07 567.34
  Q 1330.10 567.87 1329.63 568.79
  Q 1329.40 569.22 1328.96 569.41
  Q 1327.78 569.93 1327.62 571.21
  Q 1327.56 571.73 1327.15 572.05
  Q 1325.63 573.22 1323.37 573.86
  Q 1323.13 573.93 1323.13 574.19
  Q 1323.13 574.44 1323.29 574.26
  L 1323.51 574.01
  A 0.32 0.21 -81.8 0 1 1323.74 574.50
  C 1321.52 577.01 1318.61 578.15 1316.43 579.83
  Q 1314.66 581.18 1311.76 583.18
  Q 1311.00 583.70 1310.97 584.62
  Q 1310.95 585.21 1311.49 584.98
  Q 1314.95 583.51 1317.76 581.10
  C 1319.76 579.38 1321.79 578.67 1323.96 577.27
  C 1326.98 575.34 1330.18 574.50 1333.27 572.73
  Q 1334.62 571.95 1333.09 572.28
  L 1332.57 572.39
  A 0.58 0.58 0.0 0 1 1331.91 572.03
  Q 1331.55 571.07 1331.61 570.33
  Q 1331.62 570.21 1331.57 570.32
  Q 1331.31 570.93 1331.88 571.34
  Q 1332.37 571.69 1332.23 571.11
  Q 1331.79 569.20 1332.66 569.70
  Q 1332.32 571.75 1335.15 571.40
  Q 1336.21 571.27 1337.73 570.58
  Q 1343.90 567.79 1350.07 565.02
  Q 1352.48 563.94 1355.07 563.90
  Q 1362.48 563.78 1369.84 563.85
  C 1381.91 563.98 1386.46 570.81 1389.42 581.45
  Q 1390.56 585.54 1390.62 591.19
  Q 1391.05 632.91 1390.65 674.63
  Q 1390.57 683.11 1387.77 693.99
  C 1385.42 703.09 1386.19 714.82 1386.21 724.25
  Q 1386.23 729.35 1383.68 734.75
  C 1381.19 740.02 1381.72 748.02 1381.48 756.50
  C 1381.36 760.83 1378.43 765.89 1377.83 769.88
  C 1376.95 775.70 1378.12 781.87 1374.79 787.49
  C 1371.36 793.26 1373.61 800.64 1370.83 807.08
  C 1369.72 809.69 1368.54 811.79 1368.38 814.79
  Q 1368.01 821.48 1365.12 827.49
  Q 1364.17 829.47 1363.99 831.64
  Q 1363.50 837.38 1361.12 842.56
  C 1359.22 846.69 1359.30 850.60 1357.47 854.37
  Q 1355.20 859.08 1354.21 864.20
  C 1353.39 868.46 1351.24 871.85 1350.11 876.00
  Q 1349.43 878.51 1348.10 881.08
  Q 1345.92 885.27 1345.18 889.95
  C 1344.65 893.35 1342.70 895.51 1341.49 898.57
  C 1339.71 903.03 1337.19 906.38 1336.13 911.19
  C 1335.27 915.10 1333.24 917.68 1331.79 921.26
  Q 1330.66 924.08 1328.96 927.19
  C 1327.52 929.83 1326.60 932.68 1325.24 935.18
  C 1321.61 941.85 1318.49 949.15 1314.96 955.44
  Q 1311.12 962.29 1307.41 969.22
  Q 1304.73 974.23 1296.52 986.85
  C 1295.53 988.36 1295.04 990.58 1294.23 991.73
  Q 1290.83 996.52 1287.74 1001.52
  C 1284.62 1006.58 1280.19 1011.46 1277.05 1016.98
  Q 1275.33 1020.00 1273.18 1022.43
  Q 1268.17 1028.07 1264.18 1034.48
  Q 1262.23 1037.60 1259.76 1040.16
  Q 1252.31 1047.90 1246.53 1056.93
  Q 1244.18 1060.60 1241.57 1063.21
  C 1234.32 1070.48 1227.30 1077.43 1220.19 1085.28
  C 1205.13 1101.90 1188.84 1115.73 1173.17 1131.06
  C 1166.12 1137.98 1157.71 1142.97 1150.40 1149.74
  C 1144.25 1155.43 1138.15 1158.48 1132.18 1163.25
  C 1121.80 1171.55 1110.28 1178.49 1099.30 1185.98
  C 1096.21 1188.09 1092.79 1189.55 1089.72 1191.68
  C 1081.90 1197.10 1071.80 1202.40 1065.43 1206.06
  Q 1050.27 1214.76 1038.96 1220.24
  Q 1032.92 1223.17 1028.95 1225.14
  Q 1024.36 1227.43 1018.78 1229.63
  Q 1011.10 1232.65 1003.71 1236.36
  Q 1001.78 1237.33 998.78 1238.44
  C 995.57 1239.63 992.71 1241.45 989.50 1242.36
  C 987.44 1242.95 985.56 1243.41 983.60 1244.51
  C 979.41 1246.86 975.05 1247.60 970.71 1249.55
  C 966.81 1251.31 962.72 1251.53 959.02 1253.52
  C 956.79 1254.72 955.21 1255.66 952.51 1256.00
  Q 947.95 1256.57 943.95 1258.78
  C 939.65 1261.14 935.33 1260.41 930.94 1262.68
  C 928.91 1263.73 927.28 1264.66 924.92 1264.98
  C 921.04 1265.50 917.58 1265.52 913.95 1267.37
  C 911.81 1268.46 910.07 1269.44 907.56 1269.68
  C 903.57 1270.07 900.12 1270.10 896.36 1271.93
  C 894.14 1273.01 892.34 1274.04 889.76 1274.20
  C 885.38 1274.48 880.92 1274.25 876.77 1276.09
  Q 868.86 1279.60 860.08 1279.20
  C 858.12 1279.12 855.36 1279.76 853.97 1280.44
  Q 848.66 1283.02 846.11 1283.18
  Q 837.69 1283.72 829.24 1283.96
  C 824.12 1284.11 818.69 1287.90 812.99 1287.95
  C 796.01 1288.12 784.98 1287.15 772.51 1291.24
  Q 767.48 1292.89 756.75 1293.07
  Q 737.13 1293.41 717.50 1293.21
  Q 707.30 1293.10 701.23 1291.38
  Q 692.16 1288.79 686.99 1288.57
  Q 673.38 1287.98 659.75 1288.02
  C 654.43 1288.03 648.85 1284.25 644.01 1284.14
  Q 635.51 1283.95 627.05 1283.17
  Q 624.67 1282.95 622.17 1281.72
  C 614.70 1278.03 607.43 1280.24 599.93 1276.97
  Q 594.03 1274.41 587.54 1274.34
  Q 583.76 1274.30 582.02 1273.73
  C 579.57 1272.93 577.45 1271.31 575.14 1270.77
  Q 570.50 1269.68 565.71 1269.66
  A 1.90 1.87 60.0 0 1 564.74 1269.39
  Q 558.07 1265.32 550.23 1264.98
  C 548.43 1264.90 544.37 1261.95 541.81 1261.30
  C 538.91 1260.56 536.33 1260.39 533.54 1259.04
  Q 529.18 1256.94 524.47 1255.87
  C 520.35 1254.94 517.05 1252.80 513.02 1251.59
  Q 510.09 1250.71 507.20 1249.29
  C 503.48 1247.46 499.74 1246.82 495.99 1244.87
  C 492.64 1243.12 489.17 1242.40 485.82 1240.61
  C 482.27 1238.71 478.61 1237.84 475.11 1235.90
  C 471.95 1234.15 468.28 1232.91 465.43 1231.46
  C 454.13 1225.74 442.09 1220.17 431.59 1214.25
  Q 414.09 1204.38 397.04 1193.73
  C 388.43 1188.35 379.06 1181.42 369.94 1175.39
  C 360.38 1169.07 350.71 1161.04 340.28 1154.78
  L 333.17 1149.91
  A 1.54 1.51 -27.2 0 0 332.30 1149.64
  C 330.03 1149.63 329.93 1147.86 328.81 1146.93
  Q 327.73 1146.05 326.33 1145.72
  A 0.18 0.18 0.0 0 0 326.22 1146.06
  L 327.14 1146.43
  Q 327.67 1146.64 327.11 1146.52
  Q 325.07 1146.09 323.59 1144.79
  Q 321.40 1142.90 320.58 1142.41
  C 315.59 1139.43 311.83 1135.09 307.54 1131.17
  C 305.78 1129.56 304.31 1126.71 301.29 1125.48
  Q 301.13 1125.41 301.13 1125.24
  Q 301.13 1125.11 301.11 1124.98
  Q 301.09 1124.80 300.93 1124.62
  Q 298.12 1121.35 295.40 1118.00
  Q 295.10 1117.63 294.98 1117.18
  C 294.64 1115.90 293.50 1115.59 292.90 1114.92
  Q 291.47 1113.34 290.75 1111.27
  A 1.28 1.27 5.1 0 0 290.14 1110.55
  C 288.49 1109.64 288.38 1107.87 287.67 1106.87
  C 286.35 1105.04 284.91 1103.76 284.02 1101.64
  Q 280.34 1092.89 274.21 1085.75
  Q 265.77 1073.68 257.12 1061.68
  Q 253.60 1056.81 251.76 1052.83
  Q 249.04 1046.98 248.34 1042.99
  C 247.29 1037.05 250.89 1029.74 254.42 1024.82
  Q 258.05 1019.77 263.75 1016.79
  Q 263.96 1016.84 263.89 1017.30
  C 253.72 1023.57 249.21 1036.56 253.13 1047.79
  Q 254.55 1051.86 260.57 1059.93
  Q 347.54 1176.59 479.31 1235.95
  Q 566.91 1275.41 665.25 1285.83
  C 825.19 1302.78 988.54 1261.72 1119.98 1170.24
  Q 1165.55 1138.53 1208.94 1095.32
  C 1288.38 1016.19 1342.57 916.62 1368.71 807.23
  C 1376.39 775.08 1381.91 743.34 1384.98 711.18
  Q 1385.58 704.94 1386.24 698.71
  C 1389.42 668.61 1390.21 638.01 1389.81 607.75
  C 1389.63 594.11 1390.88 577.56 1381.39 569.25
  C 1376.93 565.36 1373.01 564.53 1366.68 564.55
  C 1363.18 564.56 1359.84 564.14 1356.48 565.05
  Q 1346.39 567.77 1339.01 572.74
  Q 1227.12 648.01 1099.81 708.79
  C 1086.15 715.31 1070.36 721.77 1056.07 721.03
  C 1041.00 720.25 1027.94 711.21 1019.73 698.79
  C 1008.36 681.57 1007.66 660.60 1020.91 643.95
  C 1027.96 635.09 1036.67 630.78 1049.02 624.46
  Q 1198.37 548.07 1332.38 447.08
  Q 1353.42 431.23 1374.45 415.13
  Z"
/>
<path fill="#5c5b5b" fill-opacity="0.357" d="
  M 1273.23 494.38
  Q 1272.94 495.85 1274.13 496.70
  A 1.11 1.09 14.6 0 1 1274.58 497.45
  Q 1275.00 500.68 1278.28 500.90
  Q 1278.83 500.94 1279.26 500.59
  Q 1283.56 497.12 1287.76 497.16
  Q 1295.64 497.24 1300.26 498.65
  Q 1303.27 499.56 1303.55 502.48
  Q 1303.55 502.50 1302.80 506.97
  Q 1302.35 509.68 1303.45 512.18
  Q 1304.03 513.52 1306.04 514.80
  C 1311.51 518.29 1312.90 524.05 1314.67 529.87
  Q 1315.26 531.81 1315.41 535.26
  Q 1315.57 539.20 1317.08 542.90
  Q 1317.27 543.37 1317.68 543.66
  Q 1319.01 544.65 1319.19 546.34
  A 1.75 1.73 21.1 0 0 1319.63 547.32
  Q 1321.04 548.91 1321.70 550.95
  Q 1321.85 551.44 1322.28 551.72
  Q 1324.52 553.17 1327.04 553.51
  C 1329.46 553.83 1331.34 555.02 1332.62 556.99
  Q 1334.33 559.62 1337.69 559.66
  A 1.63 1.63 0.0 0 1 1338.08 562.87
  Q 1335.74 563.48 1336.46 566.00
  A 1.17 1.17 0.0 0 1 1336.36 566.88
  Q 1335.24 569.00 1332.66 569.70
  Q 1331.79 569.20 1332.23 571.11
  Q 1332.37 571.69 1331.88 571.34
  Q 1331.31 570.93 1331.57 570.32
  Q 1331.62 570.21 1331.61 570.33
  Q 1331.55 571.07 1331.91 572.03
  A 0.58 0.58 0.0 0 0 1332.57 572.39
  L 1333.09 572.28
  Q 1334.62 571.95 1333.27 572.73
  C 1330.18 574.50 1326.98 575.34 1323.96 577.27
  C 1321.79 578.67 1319.76 579.38 1317.76 581.10
  Q 1314.95 583.51 1311.49 584.98
  Q 1310.95 585.21 1310.97 584.62
  Q 1311.00 583.70 1311.76 583.18
  Q 1314.66 581.18 1316.43 579.83
  C 1318.61 578.15 1321.52 577.01 1323.74 574.50
  A 0.32 0.21 -81.8 0 0 1323.51 574.01
  L 1323.29 574.26
  Q 1323.13 574.44 1323.13 574.19
  Q 1323.13 573.93 1323.37 573.86
  Q 1325.63 573.22 1327.15 572.05
  Q 1327.56 571.73 1327.62 571.21
  Q 1327.78 569.93 1328.96 569.41
  Q 1329.40 569.22 1329.63 568.79
  Q 1330.10 567.87 1331.07 567.34
  Q 1331.65 567.02 1331.16 566.57
  L 1329.91 565.44
  Q 1329.43 565.00 1328.99 565.47
  Q 1326.21 568.42 1322.50 566.74
  Q 1322.06 566.54 1321.86 566.11
  L 1320.33 562.88
  A 0.71 0.71 0.0 0 0 1319.57 562.48
  Q 1313.30 563.48 1309.25 563.11
  Q 1304.59 562.67 1300.51 559.05
  Q 1300.14 558.73 1299.99 558.27
  Q 1298.99 555.22 1297.95 552.16
  Q 1297.88 551.96 1296.19 545.72
  Q 1295.07 541.61 1292.73 538.02
  C 1291.15 535.59 1288.76 534.93 1286.24 533.80
  Q 1285.64 533.54 1281.80 532.35
  Q 1279.41 531.61 1277.60 530.17
  C 1276.24 529.08 1276.43 527.24 1277.08 525.65
  Q 1278.59 521.96 1280.13 518.25
  Q 1281.15 515.79 1278.53 514.55
  Q 1273.48 512.18 1269.14 515.37
  C 1266.94 516.99 1258.97 516.73 1256.23 516.77
  A 0.64 0.63 3.7 0 0 1255.61 517.31
  Q 1254.82 522.46 1249.73 521.70
  Q 1249.26 521.63 1248.89 521.31
  Q 1246.94 519.58 1244.27 520.21
  A 1.10 1.08 -31.8 0 1 1243.34 520.00
  Q 1242.14 519.05 1242.39 517.49
  Q 1242.49 516.91 1243.06 516.77
  Q 1245.24 516.21 1245.72 513.99
  Q 1245.83 513.48 1246.26 513.19
  L 1273.23 494.38
  Z"
/>
<path fill="#ffffff" d="
  M 427.50 961.45
  Q 431.19 959.21 435.21 957.72
  Q 438.69 956.43 442.55 954.69
  Q 446.74 952.80 451.16 951.94
  Q 455.01 952.04 458.76 952.16
  Q 459.07 952.17 459.22 952.05
  Q 459.43 951.88 459.39 951.52
  Q 459.37 951.33 459.22 951.44
  L 458.77 951.78
  A 0.14 0.14 0.0 0 1 458.58 951.57
  Q 459.96 949.89 461.42 948.26
  C 464.18 945.17 465.38 941.97 465.14 937.82
  Q 465.11 937.33 465.32 936.90
  C 466.27 934.97 465.32 928.90 465.19 927.18
  Q 464.81 921.91 465.36 919.38
  Q 466.39 914.60 469.33 910.51
  Q 469.63 910.09 470.14 910.12
  Q 470.69 910.16 471.00 909.72
  Q 474.10 905.43 474.38 899.73
  Q 474.45 898.18 472.41 896.85
  A 1.10 1.08 13.2 0 1 471.91 896.06
  C 471.48 892.57 470.25 887.47 466.57 886.65
  Q 466.12 886.55 465.90 886.14
  Q 464.77 884.11 462.86 882.85
  Q 462.42 882.55 462.35 882.03
  Q 462.19 880.89 461.59 880.48
  Q 459.84 879.29 458.71 876.03
  Q 458.00 873.98 455.25 871.09
  Q 454.61 870.43 452.80 869.49
  C 450.54 868.31 449.59 865.50 448.44 864.34
  Q 446.12 862.01 442.84 860.74
  Q 442.38 860.56 442.00 860.89
  Q 439.86 862.73 437.05 863.11
  Q 436.65 863.16 436.36 863.43
  L 432.54 866.85
  Q 432.13 867.21 431.59 867.31
  Q 430.38 867.53 429.94 868.64
  Q 429.85 868.86 429.60 868.87
  Q 429.44 868.88 429.26 868.87
  Q 428.83 868.85 428.67 869.25
  L 426.97 873.53
  Q 424.63 876.19 423.28 876.43
  Q 418.82 877.20 411.26 880.09
  C 406.57 881.88 401.26 880.66 396.00 883.75
  C 391.15 886.61 384.27 885.01 380.96 886.93
  Q 374.65 890.60 367.36 889.97
  Q 392.64 883.66 417.49 876.37
  C 423.58 874.58 427.80 872.28 428.10 865.74
  C 428.30 861.18 424.14 856.91 421.25 852.97
  Q 402.70 827.73 407.23 796.13
  Q 407.95 791.07 410.06 788.39
  Q 413.76 783.68 419.80 784.39
  Q 423.01 784.77 428.07 787.93
  Q 449.45 801.31 470.80 814.68
  C 479.69 820.25 489.27 820.90 500.68 820.81
  Q 550.19 820.41 585.54 783.78
  C 594.16 774.85 592.46 767.36 586.17 757.75
  Q 541.99 690.36 497.79 622.98
  C 493.51 616.45 497.63 614.26 502.82 610.79
  C 548.40 580.31 595.38 612.58 630.93 640.58
  Q 651.14 656.50 671.47 672.24
  C 689.51 686.20 708.22 699.03 729.91 705.14
  Q 759.69 713.53 790.84 712.62
  C 826.94 711.56 865.09 704.32 898.99 697.72
  C 904.49 696.65 913.63 695.18 919.73 695.41
  C 935.99 696.01 951.38 705.12 963.63 715.65
  C 969.98 721.10 970.02 727.00 969.51 735.52
  C 967.59 767.89 934.17 788.20 908.02 800.79
  Q 889.97 809.49 878.06 815.07
  C 867.70 819.93 856.50 825.92 848.58 831.09
  Q 809.47 856.64 787.96 898.15
  Q 774.76 923.62 766.85 952.51
  C 757.21 987.73 750.76 1022.71 743.68 1057.97
  Q 742.56 1063.57 739.55 1070.55
  C 733.34 1084.98 724.01 1093.60 708.31 1097.80
  Q 691.97 1102.16 679.73 1103.66
  Q 669.16 1104.96 664.43 1095.26
  C 662.90 1092.10 662.47 1084.94 662.27 1080.20
  C 660.66 1041.92 659.45 1003.41 652.64 965.61
  Q 649.18 946.37 641.76 931.54
  C 637.89 923.82 630.56 916.03 620.50 916.04
  Q 602.22 916.05 584.42 920.16
  C 542.16 929.91 518.27 962.67 510.87 1003.74
  Q 509.71 1010.21 508.23 1013.01
  C 500.04 1028.56 477.54 1028.50 470.07 1012.66
  Q 468.15 1008.57 467.11 999.05
  Q 465.33 982.89 463.52 966.74
  C 462.78 960.08 461.45 955.95 455.25 953.53
  Q 453.89 953.00 450.75 954.01
  Q 439.25 957.72 427.50 961.45
  Z"
/>
<path fill="#d69afc" d="
  M 117.31 600.24
  Q 117.52 607.77 116.04 615.46
  Q 116.25 613.90 115.78 612.67
  L 116.57 601.78
  Q 117.26 601.11 117.31 600.24
  Z"
/>
<path fill="#ffffff" d="
  M 115.78 612.67
  Q 116.25 613.90 116.04 615.46
  Q 113.34 660.72 115.75 706.00
  Q 115.92 709.25 116.95 718.52
  Q 118.90 736.12 108.43 748.58
  Q 105.06 752.59 97.22 757.84
  Q 90.29 762.49 83.28 767.08
  Q 87.73 762.87 92.99 759.86
  Q 96.98 757.57 99.17 755.63
  Q 106.70 748.95 110.86 743.84
  C 112.18 742.22 112.26 739.02 113.16 737.11
  C 114.21 734.90 115.81 732.88 116.12 730.45
  Q 117.30 721.24 115.98 713.00
  Q 113.20 695.67 112.26 682.25
  Q 111.57 672.36 112.28 639.94
  C 112.48 630.86 114.59 621.80 115.78 612.67
  Z"
/>
<path fill="#ffffff" d="
  M 76.37 772.36
  Q 65.85 781.08 56.18 790.54
  Q 47.57 798.96 42.18 804.80
  C 23.44 825.11 1.30 857.07 4.07 886.24
  Q 6.27 909.54 29.49 919.70
  C 44.61 926.32 61.78 929.13 78.16 930.49
  A 0.11 0.11 0.0 0 1 78.16 930.71
  L 74.78 930.78
  Q 66.34 931.27 58.02 930.18
  C 54.43 929.72 51.36 927.59 47.72 927.07
  C 43.51 926.48 39.40 926.47 35.47 924.49
  C 31.77 922.62 27.95 922.03 24.51 919.79
  C 21.99 918.15 19.14 916.85 16.98 915.15
  Q 12.73 911.81 9.44 907.56
  C 7.64 905.24 5.95 901.82 4.13 898.91
  C 2.14 895.74 1.44 891.50 1.55 888.00
  Q 2.06 872.93 2.72 867.99
  C 3.23 864.28 5.61 861.39 6.39 857.66
  Q 7.42 852.76 10.15 848.57
  Q 11.17 847.00 12.15 844.50
  C 13.03 842.24 14.73 840.38 15.73 838.59
  Q 20.40 830.19 26.38 822.68
  C 29.58 818.64 32.53 813.38 36.25 809.50
  C 43.76 801.69 53.17 792.72 62.57 783.21
  Q 68.78 776.93 76.37 772.36
  Z"
/>
<path fill="#5c5b5b" fill-opacity="0.357" d="
  M 451.16 951.94
  Q 452.85 950.43 453.94 950.13
  A 1.47 1.46 77.2 0 0 454.98 948.47
  Q 454.11 943.33 452.79 938.99
  C 451.79 935.72 448.72 933.10 451.61 929.01
  Q 453.83 925.85 453.86 925.80
  Q 455.57 922.55 456.63 919.01
  Q 456.78 918.53 456.50 918.10
  L 453.52 913.43
  Q 453.22 912.95 453.29 912.40
  Q 453.86 908.05 453.32 903.73
  Q 453.08 901.85 451.79 898.39
  Q 451.14 896.64 450.66 894.83
  Q 450.21 893.14 449.21 891.45
  Q 447.19 887.98 446.39 884.03
  Q 446.30 883.57 445.91 883.30
  Q 442.72 881.14 441.03 877.65
  A 0.52 0.52 0.0 0 0 440.78 877.40
  L 430.90 872.55
  Q 430.45 872.33 429.99 872.49
  L 426.97 873.53
  L 428.67 869.25
  Q 428.83 868.85 429.26 868.87
  Q 429.44 868.88 429.60 868.87
  Q 429.85 868.86 429.94 868.64
  Q 430.38 867.53 431.59 867.31
  Q 432.13 867.21 432.54 866.85
  L 436.36 863.43
  Q 436.65 863.16 437.05 863.11
  Q 439.86 862.73 442.00 860.89
  Q 442.38 860.56 442.84 860.74
  Q 446.12 862.01 448.44 864.34
  C 449.59 865.50 450.54 868.31 452.80 869.49
  Q 454.61 870.43 455.25 871.09
  Q 458.00 873.98 458.71 876.03
  Q 459.84 879.29 461.59 880.48
  Q 462.19 880.89 462.35 882.03
  Q 462.42 882.55 462.86 882.85
  Q 464.77 884.11 465.90 886.14
  Q 466.12 886.55 466.57 886.65
  C 470.25 887.47 471.48 892.57 471.91 896.06
  A 1.10 1.08 13.2 0 0 472.41 896.85
  Q 474.45 898.18 474.38 899.73
  Q 474.10 905.43 471.00 909.72
  Q 470.69 910.16 470.14 910.12
  Q 469.63 910.09 469.33 910.51
  Q 466.39 914.60 465.36 919.38
  Q 464.81 921.91 465.19 927.18
  C 465.32 928.90 466.27 934.97 465.32 936.90
  Q 465.11 937.33 465.14 937.82
  C 465.38 941.97 464.18 945.17 461.42 948.26
  Q 459.96 949.89 458.58 951.57
  A 0.14 0.14 0.0 0 0 458.77 951.78
  L 459.22 951.44
  Q 459.37 951.33 459.39 951.52
  Q 459.43 951.88 459.22 952.05
  Q 459.07 952.17 458.76 952.16
  Q 455.01 952.04 451.16 951.94
  Z"
/>
<path fill="#ffffff" d="
  M 362.50 891.34
  Q 357.06 894.72 350.54 894.93
  C 346.04 895.07 343.40 896.08 339.77 897.99
  C 335.93 900.01 328.83 898.14 324.38 900.66
  C 318.94 903.73 315.44 903.67 310.06 904.00
  C 305.79 904.27 302.90 905.81 298.98 907.15
  C 295.17 908.46 290.91 908.20 286.88 908.66
  Q 284.52 908.92 281.31 910.27
  Q 273.11 913.72 263.81 912.84
  Q 282.70 908.93 301.73 905.25
  C 303.41 904.93 304.89 903.97 306.67 903.76
  Q 316.05 902.69 324.97 899.70
  Q 327.83 898.74 331.21 898.38
  Q 336.37 897.83 341.31 896.27
  Q 346.17 894.73 349.37 894.16
  Q 355.95 892.99 362.50 891.34
  Z"
/>
<path fill="#ffffff" d="
  M 257.53 913.96
  Q 250.67 917.72 242.52 917.01
  L 257.53 913.96
  Z"
/>
<path fill="#ffffff" d="
  M 232.97 918.35
  C 226.48 922.54 219.15 922.06 211.42 921.70
  L 232.97 918.35
  Z"
/>
<path fill="#ffffff" d="
  M 201.52 923.10
  C 194.78 926.55 187.22 926.50 179.21 926.12
  L 201.52 923.10
  Z"
/>
<path fill="#ffffff" d="
  M 163.64 927.90
  Q 158.00 930.51 149.00 930.71
  Q 139.56 930.92 129.97 930.61
  L 163.64 927.90
  Z"
/>
<path fill="#d69afc" d="
  M 423.73 962.50
  Q 420.91 964.89 417.82 964.50
  Q 420.63 962.86 423.73 962.50
  Z"
/>
<path fill="#d69afc" d="
  M 286.69 1008.22
  Q 284.09 1010.82 280.83 1010.26
  L 286.69 1008.22
  Z"
/>
<path fill="#d69afc" d="
  M 276.60 1011.66
  L 263.89 1017.30
  Q 263.96 1016.84 263.75 1016.79
  Q 270.03 1012.96 276.60 1011.66
  Z"
/>
<path fill="#5c5b5b" fill-opacity="0.357" d="
  M 274.21 1085.75
  Q 280.34 1092.89 284.02 1101.64
  C 284.91 1103.76 286.35 1105.04 287.67 1106.87
  C 288.38 1107.87 288.49 1109.64 290.14 1110.55
  A 1.28 1.27 5.1 0 1 290.75 1111.27
  Q 291.47 1113.34 292.90 1114.92
  C 293.50 1115.59 294.64 1115.90 294.98 1117.18
  Q 295.10 1117.63 295.40 1118.00
  Q 298.12 1121.35 300.93 1124.62
  Q 301.09 1124.80 301.11 1124.98
  Q 301.13 1125.11 301.13 1125.24
  Q 301.13 1125.41 301.29 1125.48
  C 304.31 1126.71 305.78 1129.56 307.54 1131.17
  C 311.83 1135.09 315.59 1139.43 320.58 1142.41
  Q 321.40 1142.90 323.59 1144.79
  Q 325.07 1146.09 327.11 1146.52
  Q 327.67 1146.64 327.14 1146.43
  L 326.22 1146.06
  A 0.18 0.18 0.0 0 1 326.33 1145.72
  Q 327.73 1146.05 328.81 1146.93
  C 329.93 1147.86 330.03 1149.63 332.30 1149.64
  A 1.54 1.51 -27.2 0 1 333.17 1149.91
  L 340.28 1154.78
  Q 335.77 1154.41 332.12 1152.53
  Q 327.35 1150.09 327.25 1150.04
  Q 323.07 1148.19 319.17 1145.85
  A 1.57 1.56 60.3 0 0 318.37 1145.63
  L 316.17 1145.63
  Q 315.67 1145.63 315.26 1145.33
  L 301.90 1135.49
  Q 301.54 1135.22 301.29 1134.85
  Q 300.23 1133.27 298.73 1132.19
  Q 297.17 1131.05 296.48 1130.09
  Q 293.92 1126.55 291.03 1123.30
  Q 290.70 1122.93 290.54 1122.48
  L 289.87 1120.65
  Q 289.67 1120.10 289.13 1119.89
  Q 287.43 1119.23 287.07 1117.29
  A 1.36 1.34 50.2 0 1 287.13 1116.57
  C 288.19 1113.46 286.00 1112.70 284.90 1110.87
  Q 282.70 1107.24 282.09 1106.10
  Q 279.75 1101.76 279.06 1100.23
  L 274.80 1090.88
  Q 274.57 1090.37 274.99 1090.02
  Q 275.44 1089.64 275.54 1089.13
  Q 275.62 1088.67 275.23 1087.99
  Q 274.59 1086.90 274.21 1085.75
  Z"
/>
</svg>
