<?xml version="1.0" encoding="UTF-8" standalone="no"?>
<!DOCTYPE svg PUBLIC "-//W3C//DTD SVG 1.1//EN" "http://www.w3.org/Graphics/SVG/1.1/DTD/svg11.dtd">
<svg xmlns="http://www.w3.org/2000/svg" version="1.1" viewBox="0.00 0.00 1438.00 1444.00">
<g stroke-width="2.00" fill="none" stroke-linecap="butt">
<path stroke="#fda398" vector-effect="non-scaling-stroke" d="
  M 753.76 7.48
  L 715.02 7.58"
/>
<path stroke="#fc657b" vector-effect="non-scaling-stroke" d="
  M 775.33 7.79
  Q 777.51 8.96 781.08 8.32"
/>
<path stroke="#fda398" vector-effect="non-scaling-stroke" d="
  M 781.08 8.32
  Q 798.33 9.08 813.50 11.25
  Q 852.80 16.87 892.52 27.89"
/>
<path stroke="#f82d35" vector-effect="non-scaling-stroke" d="
  M 892.52 27.89
  Q 891.88 27.83 892.17 29.12
  Q 892.27 29.60 892.71 29.83
  Q 914.57 41.14 936.59 52.12
  Q 938.05 52.84 938.66 54.21
  Q 938.87 54.66 938.69 55.13
  Q 938.01 56.92 937.11 57.63
  Q 923.34 68.48 916.77 76.28
  Q 901.68 94.19 886.58 112.09
  C 882.77 116.61 877.89 121.27 873.46 125.06
  Q 769.63 213.66 666.61 303.21
  Q 662.46 306.82 659.16 310.58
  C 655.18 315.10 650.84 321.51 646.25 324.53
  C 640.93 328.04 633.83 327.98 627.98 327.66
  A 2.39 2.39 0.0 0 0 625.55 330.69
  Q 626.06 332.48 626.91 334.40
  Q 640.34 364.58 653.72 394.83
  Q 653.96 395.37 653.37 395.46
  Q 652.58 395.58 652.34 396.08"
/>
<path stroke="#fda398" vector-effect="non-scaling-stroke" d="
  M 652.34 396.08
  C 636.09 374.68 618.46 354.88 597.46 338.03
  C 572.53 318.03 540.54 303.68 508.58 301.21
  C 472.71 298.44 438.80 308.39 407.02 324.30
  C 358.95 348.38 328.93 389.05 311.85 439.06
  Q 303.79 462.64 302.01 483.51
  C 295.36 561.38 347.49 621.25 407.94 661.99"
/>
<path stroke="#f82d35" vector-effect="non-scaling-stroke" d="
  M 407.94 661.99
  Q 397.33 682.75 382.46 698.22
  Q 352.81 729.05 311.69 745.19
  Q 297.11 750.91 289.76 753.59
  C 286.71 754.69 283.56 756.75 281.75 759.00
  Q 280.01 761.15 274.67 770.00
  Q 261.88 791.20 238.20 798.95
  A 1.06 1.06 0.0 0 1 236.88 798.30
  L 234.27 791.15
  A 1.00 0.98 -8.3 0 0 233.38 790.50
  Q 231.34 790.41 230.06 792.59
  C 222.27 805.93 209.51 820.30 194.64 826.37
  Q 190.51 828.05 182.10 829.59
  C 163.90 832.92 145.22 839.00 138.15 858.19
  Q 136.33 863.14 131.26 864.47
  Q 105.22 871.31 87.59 890.76
  C 80.03 899.11 76.62 906.63 74.40 917.45
  Q 72.31 927.62 63.61 933.07
  C 52.04 940.33 50.53 925.07 49.36 917.97
  Q 20.22 741.12 9.23 673.75
  Q 9.03 672.51 7.47 672.98"
/>
<path stroke="#fda398" vector-effect="non-scaling-stroke" d="
  M 7.47 672.98
  C 14.30 558.93 46.75 448.71 107.76 352.51
  Q 132.43 313.61 160.89 277.40
  Q 206.25 219.72 261.96 171.99
  Q 357.88 89.80 477.46 48.74
  C 543.40 26.10 611.93 13.81 681.41 9.18
  Q 683.89 9.02 694.62 8.69
  Q 701.23 8.49 707.82 7.79"
/>
<path stroke="#fb899c" vector-effect="non-scaling-stroke" d="
  M 7.47 672.98
  Q 1.40 776.43 23.99 877.49
  C 53.43 1009.20 119.87 1128.86 215.59 1223.90
  Q 303.64 1311.33 417.40 1366.48"
/>
<path stroke="#f982d7" vector-effect="non-scaling-stroke" d="
  M 417.40 1366.48
  C 506.66 1406.72 602.61 1429.75 700.50 1432.94
  C 837.30 1437.39 973.90 1400.08 1090.43 1327.90
  C 1197.05 1261.85 1285.56 1168.44 1347.55 1059.57
  Q 1413.84 943.14 1428.80 806.75
  Q 1436.54 736.27 1430.69 664.25
  Q 1430.15 657.71 1429.47 653.86"
/>
<path stroke="#fa82c2" vector-effect="non-scaling-stroke" d="
  M 1429.47 653.86
  Q 1429.49 650.56 1429.13 647.27
  C 1420.27 565.86 1398.68 485.75 1362.68 412.05"
/>
<path stroke="#fb899c" vector-effect="non-scaling-stroke" d="
  M 1362.68 412.05
  C 1305.23 296.22 1221.97 196.69 1113.79 125.28
  C 1046.59 80.92 970.76 48.70 892.52 27.89"
/>
<path stroke="#ffc1e2" vector-effect="non-scaling-stroke" d="
  M 781.08 8.32
  Q 780.87 8.50 780.79 7.74"
/>
<path stroke="#f50c5e" vector-effect="non-scaling-stroke" d="
  M 1362.68 412.05
  L 1361.52 412.30
  Q 1361.05 412.41 1360.63 412.16
  Q 1347.61 404.51 1334.36 397.22
  Q 1328.78 394.16 1324.96 398.97
  Q 1315.09 411.38 1300.71 416.39
  C 1295.65 418.15 1289.61 418.78 1283.98 419.61
  C 1279.79 420.22 1277.03 421.66 1274.23 424.49
  Q 1255.64 443.29 1237.81 462.80
  C 1198.29 506.02 1163.98 553.17 1138.71 606.73
  C 1133.73 617.28 1124.14 633.78 1113.68 640.57
  Q 1102.56 647.78 1091.45 654.99
  Q 1020.68 700.92 959.04 758.50
  C 958.36 759.14 958.29 759.60 958.05 760.48"
/>
<path stroke="#fa4b7f" vector-effect="non-scaling-stroke" d="
  M 958.05 760.48
  C 914.74 765.51 867.11 778.87 832.10 806.03
  Q 782.44 844.55 770.29 907.78
  Q 762.50 948.32 767.00 990.37"
/>
<path stroke="#f50c74" vector-effect="non-scaling-stroke" d="
  M 767.00 990.37
  Q 765.80 990.26 766.15 990.58
  Q 726.03 1039.98 684.72 1088.39
  C 670.80 1104.70 656.55 1118.23 638.36 1129.83
  C 619.58 1141.81 598.22 1152.76 579.04 1167.56
  Q 571.13 1173.66 565.06 1180.63
  Q 561.97 1184.19 555.79 1193.99
  Q 529.39 1235.83 488.10 1263.47
  C 473.94 1272.95 456.56 1275.19 444.89 1288.90
  C 440.57 1293.97 437.85 1300.80 435.54 1307.25
  Q 425.92 1334.18 418.16 1361.71
  Q 417.51 1364.05 417.40 1366.48"
/>
<path stroke="#fb899c" vector-effect="non-scaling-stroke" d="
  M 407.94 661.99
  Q 442.31 674.20 479.51 676.11
  C 531.22 678.76 583.47 661.12 620.56 624.44
  C 679.36 566.31 686.77 480.65 658.64 405.58
  Q 657.30 401.97 652.34 396.08"
/>
<path stroke="#f4049a" vector-effect="non-scaling-stroke" d="
  M 1429.47 653.86
  Q 1429.73 650.99 1429.02 650.46
  Q 1427.50 649.30 1426.57 650.97
  Q 1422.76 657.79 1418.83 663.82
  C 1394.61 701.07 1365.92 734.08 1333.85 764.73
  Q 1324.72 773.45 1318.65 777.68
  C 1303.36 788.32 1281.90 794.69 1269.26 801.28
  C 1254.97 808.74 1244.24 817.48 1232.31 829.72
  Q 1209.71 852.91 1187.10 876.10
  Q 1169.16 894.49 1137.49 924.40"
/>
<path stroke="#f944a5" vector-effect="non-scaling-stroke" d="
  M 1137.49 924.40
  C 1121.40 862.37 1086.20 808.06 1026.72 780.67
  Q 1001.30 768.97 973.74 763.52
  Q 965.86 761.96 958.05 760.48"
/>
<path stroke="#f944ba" vector-effect="non-scaling-stroke" d="
  M 767.00 990.37
  Q 769.89 998.33 773.17 1006.55
  C 782.12 1028.96 794.21 1051.07 809.25 1069.95
  Q 858.21 1131.42 939.50 1134.77
  Q 1026.39 1138.36 1087.39 1080.25
  C 1113.83 1055.07 1130.30 1021.65 1135.90 985.47
  Q 1140.76 954.07 1137.49 924.40"
/>
<path stroke="#fb899c" vector-effect="non-scaling-stroke" d="
  M 1139.67 489.77
  A 187.44 187.44 0.0 0 0 952.23 302.33
  A 187.44 187.44 0.0 0 0 764.79 489.77
  A 187.44 187.44 0.0 0 0 952.23 677.21
  A 187.44 187.44 0.0 0 0 1139.67 489.77"
/>
<path stroke="#fb899c" vector-effect="non-scaling-stroke" d="
  M 677.21 951.06
  A 187.14 187.14 0.0 0 0 490.07 763.92
  A 187.14 187.14 0.0 0 0 302.93 951.06
  A 187.14 187.14 0.0 0 0 490.07 1138.20
  A 187.14 187.14 0.0 0 0 677.21 951.06"
/>
</g>
<path fill="#ffffff" d="
  M 753.76 7.48
  L 715.02 7.58
  Q 734.35 5.31 753.76 7.48
  Z"
/>
<path fill="#fa4631" d="
  M 753.76 7.48
  L 775.33 7.79
  Q 777.51 8.96 781.08 8.32
  Q 798.33 9.08 813.50 11.25
  Q 852.80 16.87 892.52 27.89
  Q 891.88 27.83 892.17 29.12
  Q 892.27 29.60 892.71 29.83
  Q 914.57 41.14 936.59 52.12
  Q 938.05 52.84 938.66 54.21
  Q 938.87 54.66 938.69 55.13
  Q 938.01 56.92 937.11 57.63
  Q 923.34 68.48 916.77 76.28
  Q 901.68 94.19 886.58 112.09
  C 882.77 116.61 877.89 121.27 873.46 125.06
  Q 769.63 213.66 666.61 303.21
  Q 662.46 306.82 659.16 310.58
  C 655.18 315.10 650.84 321.51 646.25 324.53
  C 640.93 328.04 633.83 327.98 627.98 327.66
  A 2.39 2.39 0.0 0 0 625.55 330.69
  Q 626.06 332.48 626.91 334.40
  Q 640.34 364.58 653.72 394.83
  Q 653.96 395.37 653.37 395.46
  Q 652.58 395.58 652.34 396.08
  C 636.09 374.68 618.46 354.88 597.46 338.03
  C 572.53 318.03 540.54 303.68 508.58 301.21
  C 472.71 298.44 438.80 308.39 407.02 324.30
  C 358.95 348.38 328.93 389.05 311.85 439.06
  Q 303.79 462.64 302.01 483.51
  C 295.36 561.38 347.49 621.25 407.94 661.99
  Q 397.33 682.75 382.46 698.22
  Q 352.81 729.05 311.69 745.19
  Q 297.11 750.91 289.76 753.59
  C 286.71 754.69 283.56 756.75 281.75 759.00
  Q 280.01 761.15 274.67 770.00
  Q 261.88 791.20 238.20 798.95
  A 1.06 1.06 0.0 0 1 236.88 798.30
  L 234.27 791.15
  A 1.00 0.98 -8.3 0 0 233.38 790.50
  Q 231.34 790.41 230.06 792.59
  C 222.27 805.93 209.51 820.30 194.64 826.37
  Q 190.51 828.05 182.10 829.59
  C 163.90 832.92 145.22 839.00 138.15 858.19
  Q 136.33 863.14 131.26 864.47
  Q 105.22 871.31 87.59 890.76
  C 80.03 899.11 76.62 906.63 74.40 917.45
  Q 72.31 927.62 63.61 933.07
  C 52.04 940.33 50.53 925.07 49.36 917.97
  Q 20.22 741.12 9.23 673.75
  Q 9.03 672.51 7.47 672.98
  C 14.30 558.93 46.75 448.71 107.76 352.51
  Q 132.43 313.61 160.89 277.40
  Q 206.25 219.72 261.96 171.99
  Q 357.88 89.80 477.46 48.74
  C 543.40 26.10 611.93 13.81 681.41 9.18
  Q 683.89 9.02 694.62 8.69
  Q 701.23 8.49 707.82 7.79
  L 715.02 7.58
  L 753.76 7.48
  Z"
/>
<path fill="#ffffff" d="
  M 707.82 7.79
  Q 701.23 8.49 694.62 8.69
  Q 683.89 9.02 681.41 9.18
  C 611.93 13.81 543.40 26.10 477.46 48.74
  Q 357.88 89.80 261.96 171.99
  Q 206.25 219.72 160.89 277.40
  Q 132.43 313.61 107.76 352.51
  C 46.75 448.71 14.30 558.93 7.47 672.98
  Q 1.40 776.43 23.99 877.49
  C 53.43 1009.20 119.87 1128.86 215.59 1223.90
  Q 303.64 1311.33 417.40 1366.48
  C 506.66 1406.72 602.61 1429.75 700.50 1432.94
  C 837.30 1437.39 973.90 1400.08 1090.43 1327.90
  C 1197.05 1261.85 1285.56 1168.44 1347.55 1059.57
  Q 1413.84 943.14 1428.80 806.75
  Q 1436.54 736.27 1430.69 664.25
  Q 1430.15 657.71 1429.47 653.86
  Q 1429.49 650.56 1429.13 647.27
  C 1420.27 565.86 1398.68 485.75 1362.68 412.05
  C 1305.23 296.22 1221.97 196.69 1113.79 125.28
  C 1046.59 80.92 970.76 48.70 892.52 27.89
  Q 852.80 16.87 813.50 11.25
  Q 798.33 9.08 781.08 8.32
  Q 780.87 8.50 780.79 7.74
  Q 797.52 8.02 814.25 8.02
  C 816.96 8.02 819.13 8.79 821.65 10.42
  C 827.60 14.24 837.37 13.10 844.25 13.27
  C 848.22 13.37 849.77 17.63 854.23 17.87
  C 859.78 18.18 866.10 17.25 870.84 20.59
  Q 874.13 22.91 877.99 23.06
  C 884.13 23.30 887.17 22.80 891.64 25.88
  C 895.58 28.58 901.35 28.54 905.93 28.45
  Q 906.43 28.44 906.84 28.72
  C 909.30 30.32 911.08 32.32 914.02 32.81
  C 917.05 33.31 920.38 33.03 923.05 34.11
  C 925.30 35.01 927.08 36.71 929.34 37.37
  C 932.12 38.19 934.82 38.15 937.59 38.87
  C 940.18 39.55 942.52 41.59 945.36 42.62
  Q 946.47 43.02 949.22 43.24
  Q 953.35 43.57 956.69 46.03
  C 960.99 49.21 965.60 47.12 969.59 50.39
  C 973.48 53.57 977.26 53.14 981.58 53.87
  A 0.76 0.73 67.9 0 1 981.94 54.03
  L 986.89 57.88
  A 0.76 0.74 63.2 0 0 987.39 58.05
  Q 992.46 57.97 996.32 60.83
  C 999.43 63.14 1002.53 63.47 1006.12 64.06
  Q 1006.61 64.14 1006.98 64.49
  Q 1008.75 66.21 1010.83 67.41
  C 1013.53 68.97 1016.33 67.58 1018.80 69.92
  Q 1020.46 71.50 1022.31 72.86
  A 1.49 1.49 0.0 0 0 1023.18 73.14
  C 1027.99 73.10 1029.14 75.16 1032.20 77.56
  A 1.71 1.65 -23.5 0 0 1033.14 77.91
  Q 1038.45 78.26 1041.95 82.27
  A 1.30 1.30 0.0 0 0 1042.83 82.71
  Q 1048.30 83.22 1051.87 87.37
  A 1.41 1.39 -18.8 0 0 1052.86 87.85
  Q 1058.37 88.19 1061.74 92.56
  A 1.13 1.12 71.3 0 0 1062.64 93.01
  Q 1068.04 93.02 1071.04 97.52
  A 0.81 0.79 79.3 0 0 1071.54 97.87
  L 1076.34 98.99
  Q 1076.82 99.10 1077.20 99.43
  Q 1083.43 104.87 1090.84 108.41
  C 1093.43 109.64 1094.91 111.14 1096.98 112.98
  A 1.67 1.66 67.7 0 0 1097.90 113.37
  C 1102.44 113.80 1104.32 116.72 1107.24 118.74
  C 1109.49 120.30 1111.33 122.42 1113.97 123.25
  C 1115.68 123.79 1116.78 123.92 1118.19 125.19
  Q 1121.90 128.54 1125.90 131.54
  C 1128.37 133.39 1131.20 133.51 1133.44 135.51
  C 1137.35 138.99 1140.61 142.46 1145.38 145.10
  Q 1154.34 150.05 1161.20 157.80
  Q 1163.34 160.22 1169.86 163.62
  Q 1172.49 165.00 1174.45 166.69
  C 1180.27 171.68 1185.46 177.29 1190.99 182.57
  Q 1195.19 186.58 1202.80 192.57
  Q 1220.03 206.15 1234.69 222.50
  C 1240.92 229.44 1246.44 237.95 1253.15 245.00
  C 1260.03 252.22 1268.69 259.68 1273.78 268.23
  Q 1276.66 273.06 1278.96 275.74
  Q 1282.81 280.22 1286.89 284.49
  Q 1288.74 286.42 1289.98 289.01
  Q 1292.62 294.54 1294.97 297.04
  Q 1299.53 301.87 1303.44 307.27
  C 1304.73 309.05 1304.40 310.95 1305.85 312.63
  Q 1312.56 320.37 1314.11 322.66
  C 1315.04 324.03 1314.74 326.03 1316.18 327.83
  Q 1319.65 332.19 1322.99 336.65
  Q 1323.88 337.84 1324.52 340.07
  Q 1325.50 343.52 1328.45 345.76
  A 1.87 1.82 8.2 0 1 1329.05 346.54
  Q 1332.60 355.40 1339.11 362.39
  A 1.27 1.25 -71.2 0 1 1339.43 363.05
  L 1340.09 367.24
  A 1.61 1.58 -72.0 0 0 1340.52 368.10
  L 1344.32 372.10
  A 1.40 1.38 -71.1 0 1 1344.70 372.89
  L 1345.26 377.04
  Q 1345.33 377.56 1345.71 377.92
  C 1347.68 379.84 1349.03 381.06 1349.96 383.88
  C 1350.99 386.99 1353.13 389.44 1354.52 392.06
  Q 1356.23 395.30 1358.66 398.06
  A 2.10 2.08 20.4 0 1 1359.15 399.12
  Q 1359.89 404.26 1364.00 407.48
  A 1.17 1.17 0.0 0 1 1364.46 408.41
  Q 1364.52 414.15 1368.66 418.08
  A 1.51 1.42 19.0 0 1 1369.11 418.94
  C 1369.65 422.50 1370.02 426.08 1372.36 429.00
  Q 1375.15 432.48 1375.19 437.08
  A 1.33 1.30 -65.9 0 0 1375.49 437.89
  L 1379.53 442.87
  A 1.40 1.37 27.7 0 1 1379.84 443.82
  C 1379.58 448.68 1381.49 450.13 1384.01 453.21
  A 1.88 1.83 22.4 0 1 1384.40 454.11
  C 1385.04 458.87 1384.75 461.94 1388.49 466.03
  C 1390.34 468.06 1389.56 472.00 1390.77 474.46
  C 1391.85 476.65 1393.68 478.16 1394.27 480.43
  C 1395.61 485.62 1394.16 488.58 1398.67 492.71
  A 1.70 1.63 -76.4 0 1 1399.16 493.55
  C 1399.96 496.91 1399.47 501.02 1400.55 503.87
  C 1401.70 506.90 1404.42 508.75 1404.61 512.19
  C 1404.83 516.14 1404.88 520.49 1407.22 523.86
  Q 1410.18 528.12 1410.12 533.35
  C 1410.07 537.97 1410.58 540.19 1412.91 543.61
  C 1415.25 547.06 1415.12 551.91 1415.14 555.88
  C 1415.16 560.38 1415.66 562.43 1418.20 565.72
  C 1421.26 569.65 1419.75 579.07 1420.22 582.76
  C 1420.72 586.62 1423.97 589.48 1424.72 593.56
  C 1425.78 599.31 1425.28 606.42 1425.23 612.31
  C 1425.20 616.77 1429.99 620.44 1430.06 625.00
  Q 1430.26 639.38 1430.29 653.75
  C 1430.31 660.09 1434.68 665.30 1435.17 671.69
  Q 1435.84 680.45 1435.94 694.75
  Q 1436.33 748.55 1435.62 778.25
  Q 1435.56 780.77 1434.60 784.48
  C 1433.63 788.19 1430.54 793.21 1430.49 797.25
  Q 1430.32 810.75 1429.88 824.24
  Q 1429.71 829.46 1427.85 833.27
  C 1426.01 837.03 1425.29 839.59 1425.22 844.05
  C 1425.11 849.96 1425.88 859.04 1422.66 864.17
  C 1418.83 870.27 1420.67 877.81 1419.24 882.77
  Q 1418.76 884.44 1415.75 889.76
  Q 1414.85 891.34 1414.86 898.00
  C 1414.87 900.40 1414.09 903.28 1412.62 905.66
  C 1408.88 911.73 1411.13 917.48 1407.89 923.52
  Q 1404.80 929.29 1404.54 935.98
  A 1.68 1.67 63.2 0 1 1404.26 936.84
  Q 1400.41 942.83 1399.66 949.80
  Q 1399.44 951.82 1398.47 953.56
  Q 1395.66 958.63 1394.75 964.30
  Q 1394.43 966.27 1393.36 968.02
  Q 1390.53 972.67 1389.71 978.05
  Q 1389.35 980.39 1388.35 982.27
  Q 1386.18 986.38 1384.81 990.77
  C 1383.80 993.99 1381.80 996.30 1380.89 999.31
  C 1379.37 1004.33 1376.37 1008.17 1374.76 1013.17
  C 1373.66 1016.61 1371.46 1019.43 1370.21 1022.93
  C 1368.82 1026.83 1366.70 1029.68 1365.15 1033.38
  Q 1363.70 1036.82 1362.47 1038.90
  C 1355.14 1051.28 1349.21 1064.35 1341.57 1076.58
  Q 1335.59 1086.15 1329.90 1095.89
  C 1328.71 1097.93 1326.64 1100.13 1325.30 1102.56
  Q 1322.32 1107.96 1317.65 1114.46
  C 1308.28 1127.47 1300.85 1137.49 1292.94 1148.59
  C 1288.49 1154.82 1282.83 1160.92 1278.64 1166.41
  Q 1268.85 1179.25 1261.87 1186.61
  Q 1228.86 1221.44 1219.46 1230.21
  Q 1202.67 1245.85 1186.83 1262.47
  C 1184.43 1264.99 1181.27 1267.62 1178.35 1269.57
  Q 1169.65 1275.38 1161.82 1282.32
  C 1156.01 1287.48 1149.72 1290.69 1144.05 1295.54
  C 1137.63 1301.04 1130.58 1305.25 1123.95 1310.44
  C 1118.88 1314.41 1113.75 1316.88 1109.05 1319.96
  C 1103.54 1323.56 1097.86 1326.92 1092.15 1330.20
  Q 1086.79 1333.28 1080.47 1337.62
  Q 1073.07 1342.72 1068.61 1344.84
  Q 1059.65 1349.09 1051.00 1353.93
  Q 1049.14 1354.97 1044.30 1357.03
  C 1041.22 1358.34 1038.42 1360.32 1035.57 1361.64
  C 1031.67 1363.44 1028.68 1365.16 1024.13 1366.89
  C 1021.31 1367.96 1018.66 1369.77 1016.21 1370.87
  C 1011.78 1372.87 1008.22 1374.89 1003.22 1376.75
  C 1000.17 1377.89 997.54 1379.62 994.49 1380.54
  Q 983.57 1383.82 973.29 1388.75
  C 968.96 1390.82 964.61 1391.21 960.26 1393.58
  C 955.25 1396.33 949.47 1396.48 944.17 1398.97
  Q 941.43 1400.26 938.91 1400.69
  Q 933.08 1401.71 931.55 1402.77
  Q 927.26 1405.77 925.25 1405.83
  Q 918.66 1406.04 913.00 1409.15
  C 907.39 1412.24 901.11 1410.01 895.62 1413.11
  C 893.54 1414.29 891.78 1415.50 889.30 1415.75
  C 884.89 1416.21 879.67 1415.76 875.67 1417.65
  C 873.36 1418.74 871.52 1420.21 868.94 1420.55
  Q 862.49 1421.41 856.00 1421.24
  C 854.11 1421.19 851.49 1422.09 849.51 1423.35
  C 841.92 1428.20 830.09 1425.57 823.24 1426.70
  C 818.69 1427.45 814.93 1431.35 809.12 1431.32
  C 798.46 1431.26 786.87 1430.74 776.36 1432.53
  C 771.07 1433.43 765.08 1436.61 759.00 1436.59
  Q 721.25 1436.45 683.50 1436.54
  Q 677.13 1436.55 670.28 1433.00
  Q 668.08 1431.86 661.50 1431.69
  Q 648.75 1431.35 636.00 1431.38
  Q 628.28 1431.40 624.07 1429.48
  Q 618.28 1426.85 614.75 1426.76
  Q 606.24 1426.56 597.77 1425.84
  Q 595.81 1425.67 593.94 1424.52
  C 587.22 1420.40 580.30 1421.19 573.13 1420.87
  C 568.34 1420.67 565.10 1416.36 560.26 1416.25
  C 554.20 1416.11 550.52 1416.44 545.40 1413.54
  C 540.60 1410.82 535.92 1411.67 531.07 1410.54
  Q 529.28 1410.13 525.65 1408.32
  C 520.12 1405.59 514.27 1407.03 508.88 1404.04
  Q 504.29 1401.50 499.03 1400.91
  C 494.38 1400.39 492.45 1398.30 488.53 1397.14
  C 484.98 1396.10 481.67 1395.89 478.33 1394.03
  Q 473.92 1391.57 468.97 1390.54
  Q 466.38 1390.01 464.20 1388.87
  C 459.91 1386.64 455.52 1385.80 451.30 1383.42
  C 447.97 1381.54 444.52 1381.05 441.30 1380.18
  Q 439.76 1379.77 436.93 1378.17
  C 433.38 1376.17 429.62 1375.40 426.24 1373.28
  Q 421.43 1370.27 416.33 1367.79
  Q 415.63 1367.44 410.52 1365.70
  C 407.45 1364.64 404.98 1362.60 402.55 1361.38
  C 398.43 1359.32 395.15 1357.40 390.37 1355.12
  C 387.96 1353.97 386.21 1352.33 383.66 1351.38
  Q 380.27 1350.12 377.45 1347.87
  C 374.60 1345.60 371.60 1346.05 369.21 1343.87
  Q 365.94 1340.88 361.54 1340.04
  A 1.86 1.86 0.0 0 1 360.64 1339.61
  Q 354.57 1334.33 347.53 1330.65
  Q 345.87 1329.78 342.21 1327.39
  C 338.16 1324.73 334.49 1322.97 329.56 1319.30
  Q 326.92 1317.34 322.23 1314.59
  C 315.53 1310.67 310.64 1305.50 303.31 1301.25
  C 297.37 1297.80 293.21 1292.81 287.30 1289.30
  C 280.80 1285.45 275.56 1280.19 269.95 1275.22
  Q 266.44 1272.10 261.82 1269.16
  Q 255.53 1265.15 253.56 1263.20
  Q 235.20 1244.99 216.48 1227.16
  Q 209.53 1220.54 202.49 1212.87
  Q 187.69 1196.75 172.24 1181.25
  C 168.81 1177.81 165.72 1173.65 163.48 1169.40
  C 159.23 1161.34 151.37 1156.57 147.26 1148.81
  C 143.99 1142.64 139.57 1138.37 135.33 1133.39
  C 133.25 1130.96 133.33 1128.40 131.52 1126.02
  Q 128.21 1121.66 124.64 1117.52
  C 123.08 1115.72 123.17 1113.89 121.94 1112.07
  Q 118.77 1107.38 115.12 1103.06
  C 113.13 1100.70 113.34 1098.35 111.66 1096.08
  Q 108.66 1092.04 105.72 1087.99
  Q 104.62 1086.47 103.19 1083.29
  C 101.80 1080.18 99.30 1078.17 98.33 1075.03
  C 97.71 1073.05 97.55 1071.61 96.07 1069.95
  C 93.53 1067.09 92.73 1063.47 91.06 1060.77
  Q 88.49 1056.64 85.97 1052.48
  Q 85.60 1051.86 82.82 1046.33
  C 81.40 1043.50 79.41 1041.71 78.47 1038.56
  Q 77.44 1035.11 75.32 1032.24
  C 72.84 1028.88 72.88 1025.02 70.33 1021.24
  C 67.59 1017.17 68.41 1013.23 65.39 1009.22
  Q 62.98 1006.03 62.62 1001.91
  Q 62.57 1001.35 62.23 1000.90
  L 58.74 996.31
  Q 58.46 995.95 58.42 995.50
  Q 57.99 990.83 55.25 987.21
  C 53.19 984.48 53.13 982.08 52.75 978.94
  C 52.35 975.53 50.74 973.73 48.74 971.23
  A 1.80 1.75 23.9 0 1 48.37 970.31
  Q 48.09 967.03 47.40 963.87
  C 46.53 959.90 43.36 957.65 43.13 953.37
  Q 42.81 947.68 39.38 943.04
  C 37.04 939.87 39.05 933.85 35.73 929.47
  Q 33.42 926.42 33.30 925.15
  C 32.87 920.47 33.55 915.96 29.87 912.06
  C 27.30 909.33 28.01 901.86 27.62 898.16
  C 27.29 894.94 25.40 893.02 23.57 890.56
  A 1.68 1.62 25.6 0 1 23.24 889.67
  C 22.76 882.07 23.76 876.03 18.97 869.65
  Q 18.67 869.25 18.61 868.75
  Q 17.77 861.49 17.66 854.25
  Q 17.59 849.60 14.36 843.86
  C 13.62 842.54 13.09 839.26 13.11 837.32
  Q 13.18 826.88 12.32 816.49
  A 1.82 1.82 0.0 0 0 11.97 815.55
  Q 8.08 810.26 8.03 802.76
  Q 7.94 786.00 7.65 775.76
  C 7.53 771.33 7.01 767.94 5.33 763.26
  Q 2.90 756.54 2.82 748.50
  Q 2.53 721.21 2.57 693.93
  C 2.59 682.29 2.60 675.74 5.75 666.49
  Q 7.78 660.55 7.70 653.49
  Q 7.54 640.35 8.12 627.21
  C 8.28 623.62 10.17 621.27 12.14 618.52
  A 1.87 1.81 65.8 0 0 12.47 617.60
  Q 13.37 606.41 13.20 595.25
  C 13.13 590.66 17.64 586.60 17.82 581.52
  Q 18.09 573.87 18.41 566.23
  C 18.53 563.32 22.30 560.29 22.61 556.86
  C 22.89 553.66 22.59 544.60 24.30 542.32
  C 26.28 539.70 27.48 538.37 27.77 534.96
  Q 28.19 529.98 28.27 525.00
  C 28.30 522.84 30.96 520.79 31.94 518.86
  C 33.23 516.30 33.06 512.69 33.23 509.80
  C 33.43 506.47 37.50 504.30 37.69 501.89
  C 37.92 499.00 37.58 493.26 39.54 491.06
  Q 42.97 487.21 43.10 482.12
  C 43.20 478.17 43.95 476.36 46.63 473.90
  A 1.88 1.87 75.2 0 0 47.18 472.95
  Q 48.20 468.54 48.29 464.01
  Q 48.31 463.41 48.68 462.95
  L 52.39 458.27
  A 1.13 1.05 69.6 0 0 52.61 457.74
  C 52.94 454.70 53.15 452.73 55.02 450.10
  C 57.92 446.03 57.92 442.88 58.85 438.15
  A 1.65 1.61 74.2 0 1 59.31 437.30
  Q 63.13 433.66 63.24 428.31
  A 1.27 1.27 0.0 0 1 63.53 427.53
  L 67.32 422.82
  A 1.44 1.40 -24.4 0 0 67.63 422.03
  Q 68.04 416.65 72.14 413.14
  A 1.40 1.39 70.9 0 0 72.63 412.12
  Q 72.82 406.69 77.03 403.29
  A 1.32 1.30 -17.5 0 0 77.52 402.36
  Q 77.87 396.67 82.16 392.95
  A 1.54 1.53 -20.5 0 0 82.69 391.79
  Q 82.70 386.89 86.57 384.01
  Q 86.94 383.73 87.16 383.32
  Q 88.33 381.12 88.54 378.61
  A 1.46 1.45 -22.9 0 1 88.87 377.81
  C 91.96 374.05 96.25 369.44 97.65 364.75
  Q 98.81 360.87 102.06 358.25
  A 1.84 1.79 -10.5 0 0 102.64 357.43
  C 103.34 355.33 103.63 353.63 104.98 351.84
  Q 108.21 347.51 111.57 343.31
  C 113.44 340.97 112.71 338.60 114.52 336.51
  Q 118.02 332.46 121.54 328.45
  C 123.43 326.30 123.12 324.07 124.72 322.04
  C 126.97 319.20 128.78 316.68 131.44 313.67
  Q 135.20 309.38 137.68 304.25
  C 139.54 300.39 142.34 298.03 145.13 295.01
  C 148.19 291.71 150.23 287.84 152.58 284.01
  C 155.80 278.78 160.88 274.33 165.05 269.80
  Q 167.26 267.41 169.40 263.73
  Q 173.80 256.20 179.68 250.43
  Q 191.95 238.39 202.30 226.92
  Q 213.15 214.90 215.84 212.21
  Q 224.25 203.76 236.63 192.63
  Q 241.69 188.07 260.57 169.32
  C 265.18 164.75 273.51 160.77 279.22 155.32
  Q 284.43 150.35 290.04 145.84
  C 291.93 144.33 294.27 143.94 295.81 142.83
  Q 298.73 140.75 305.96 134.21
  Q 307.45 132.87 313.01 129.89
  Q 315.84 128.38 318.99 125.80
  Q 323.79 121.86 329.35 119.07
  Q 331.23 118.13 333.30 116.28
  Q 336.01 113.86 339.82 112.05
  Q 345.34 109.43 351.11 104.28
  A 1.62 1.60 -68.0 0 1 352.01 103.89
  C 354.13 103.70 355.63 103.53 357.31 102.02
  C 359.04 100.47 360.08 99.29 362.49 98.58
  C 366.11 97.53 368.33 95.09 371.53 93.60
  Q 373.56 92.65 375.41 91.43
  C 378.71 89.25 382.15 88.19 385.36 85.80
  Q 386.86 84.68 388.85 84.10
  Q 393.08 82.84 396.35 79.80
  Q 396.72 79.45 397.22 79.36
  Q 401.87 78.54 405.56 75.82
  C 407.79 74.18 409.56 73.88 412.06 73.25
  C 415.98 72.24 418.30 69.51 422.20 68.77
  Q 427.03 67.86 430.50 64.24
  A 1.40 1.38 20.5 0 1 431.46 63.81
  Q 437.13 63.60 441.17 59.63
  A 1.46 1.43 -71.3 0 1 441.98 59.22
  Q 445.33 58.73 448.52 57.94
  C 452.25 57.02 454.31 53.72 458.27 53.55
  C 462.92 53.35 465.04 51.54 468.57 49.83
  Q 470.23 49.02 473.37 48.57
  Q 477.65 47.95 481.28 45.58
  C 484.31 43.60 487.48 43.61 490.83 43.00
  C 494.55 42.32 498.23 39.21 501.24 38.91
  C 504.70 38.56 509.16 38.52 512.18 36.74
  C 515.29 34.91 516.20 33.40 520.45 33.46
  Q 526.21 33.55 531.20 30.93
  Q 534.42 29.24 536.25 28.88
  C 542.97 27.54 548.26 28.96 554.33 24.59
  C 555.15 24.00 557.62 23.54 558.94 23.48
  C 565.30 23.18 571.07 23.68 577.04 20.23
  C 578.79 19.22 581.18 18.50 583.16 18.48
  C 588.27 18.45 599.90 19.14 604.02 16.28
  Q 608.31 13.31 612.88 13.22
  Q 624.07 12.98 635.26 12.80
  Q 637.98 12.75 644.09 9.29
  Q 646.23 8.07 653.25 7.99
  Q 680.40 7.70 707.82 7.79
  Z"
/>
<path fill="#fe83c5" d="
  M 775.33 7.79
  L 780.79 7.74
  Q 780.87 8.50 781.08 8.32
  Q 777.51 8.96 775.33 7.79
  Z"
/>
<path fill="#f61338" d="
  M 892.52 27.89
  C 970.76 48.70 1046.59 80.92 1113.79 125.28
  C 1221.97 196.69 1305.23 296.22 1362.68 412.05
  L 1361.52 412.30
  Q 1361.05 412.41 1360.63 412.16
  Q 1347.61 404.51 1334.36 397.22
  Q 1328.78 394.16 1324.96 398.97
  Q 1315.09 411.38 1300.71 416.39
  C 1295.65 418.15 1289.61 418.78 1283.98 419.61
  C 1279.79 420.22 1277.03 421.66 1274.23 424.49
  Q 1255.64 443.29 1237.81 462.80
  C 1198.29 506.02 1163.98 553.17 1138.71 606.73
  C 1133.73 617.28 1124.14 633.78 1113.68 640.57
  Q 1102.56 647.78 1091.45 654.99
  Q 1020.68 700.92 959.04 758.50
  C 958.36 759.14 958.29 759.60 958.05 760.48
  C 914.74 765.51 867.11 778.87 832.10 806.03
  Q 782.44 844.55 770.29 907.78
  Q 762.50 948.32 767.00 990.37
  Q 765.80 990.26 766.15 990.58
  Q 726.03 1039.98 684.72 1088.39
  C 670.80 1104.70 656.55 1118.23 638.36 1129.83
  C 619.58 1141.81 598.22 1152.76 579.04 1167.56
  Q 571.13 1173.66 565.06 1180.63
  Q 561.97 1184.19 555.79 1193.99
  Q 529.39 1235.83 488.10 1263.47
  C 473.94 1272.95 456.56 1275.19 444.89 1288.90
  C 440.57 1293.97 437.85 1300.80 435.54 1307.25
  Q 425.92 1334.18 418.16 1361.71
  Q 417.51 1364.05 417.40 1366.48
  Q 303.64 1311.33 215.59 1223.90
  C 119.87 1128.86 53.43 1009.20 23.99 877.49
  Q 1.40 776.43 7.47 672.98
  Q 9.03 672.51 9.23 673.75
  Q 20.22 741.12 49.36 917.97
  C 50.53 925.07 52.04 940.33 63.61 933.07
  Q 72.31 927.62 74.40 917.45
  C 76.62 906.63 80.03 899.11 87.59 890.76
  Q 105.22 871.31 131.26 864.47
  Q 136.33 863.14 138.15 858.19
  C 145.22 839.00 163.90 832.92 182.10 829.59
  Q 190.51 828.05 194.64 826.37
  C 209.51 820.30 222.27 805.93 230.06 792.59
  Q 231.34 790.41 233.38 790.50
  A 1.00 0.98 -8.3 0 1 234.27 791.15
  L 236.88 798.30
  A 1.06 1.06 0.0 0 0 238.20 798.95
  Q 261.88 791.20 274.67 770.00
  Q 280.01 761.15 281.75 759.00
  C 283.56 756.75 286.71 754.69 289.76 753.59
  Q 297.11 750.91 311.69 745.19
  Q 352.81 729.05 382.46 698.22
  Q 397.33 682.75 407.94 661.99
  Q 442.31 674.20 479.51 676.11
  C 531.22 678.76 583.47 661.12 620.56 624.44
  C 679.36 566.31 686.77 480.65 658.64 405.58
  Q 657.30 401.97 652.34 396.08
  Q 652.58 395.58 653.37 395.46
  Q 653.96 395.37 653.72 394.83
  Q 640.34 364.58 626.91 334.40
  Q 626.06 332.48 625.55 330.69
  A 2.39 2.39 0.0 0 1 627.98 327.66
  C 633.83 327.98 640.93 328.04 646.25 324.53
  C 650.84 321.51 655.18 315.10 659.16 310.58
  Q 662.46 306.82 666.61 303.21
  Q 769.63 213.66 873.46 125.06
  C 877.89 121.27 882.77 116.61 886.58 112.09
  Q 901.68 94.19 916.77 76.28
  Q 923.34 68.48 937.11 57.63
  Q 938.01 56.92 938.69 55.13
  Q 938.87 54.66 938.66 54.21
  Q 938.05 52.84 936.59 52.12
  Q 914.57 41.14 892.71 29.83
  Q 892.27 29.60 892.17 29.12
  Q 891.88 27.83 892.52 27.89
  Z
  M 1139.67 489.77
  A 187.44 187.44 0.0 0 0 952.23 302.33
  A 187.44 187.44 0.0 0 0 764.79 489.77
  A 187.44 187.44 0.0 0 0 952.23 677.21
  A 187.44 187.44 0.0 0 0 1139.67 489.77
  Z
  M 677.21 951.06
  A 187.14 187.14 0.0 0 0 490.07 763.92
  A 187.14 187.14 0.0 0 0 302.93 951.06
  A 187.14 187.14 0.0 0 0 490.07 1138.20
  A 187.14 187.14 0.0 0 0 677.21 951.06
  Z"
/>
<path fill="#ffffff" d="
  M 652.34 396.08
  Q 657.30 401.97 658.64 405.58
  C 686.77 480.65 679.36 566.31 620.56 624.44
  C 583.47 661.12 531.22 678.76 479.51 676.11
  Q 442.31 674.20 407.94 661.99
  C 347.49 621.25 295.36 561.38 302.01 483.51
  Q 303.79 462.64 311.85 439.06
  C 328.93 389.05 358.95 348.38 407.02 324.30
  C 438.80 308.39 472.71 298.44 508.58 301.21
  C 540.54 303.68 572.53 318.03 597.46 338.03
  C 618.46 354.88 636.09 374.68 652.34 396.08
  Z"
/>
<circle fill="#ffffff" cx="952.23" cy="489.77" r="187.44"/>
<path fill="#f40484" d="
  M 1362.68 412.05
  C 1398.68 485.75 1420.27 565.86 1429.13 647.27
  Q 1429.49 650.56 1429.47 653.86
  Q 1429.73 650.99 1429.02 650.46
  Q 1427.50 649.30 1426.57 650.97
  Q 1422.76 657.79 1418.83 663.82
  C 1394.61 701.07 1365.92 734.08 1333.85 764.73
  Q 1324.72 773.45 1318.65 777.68
  C 1303.36 788.32 1281.90 794.69 1269.26 801.28
  C 1254.97 808.74 1244.24 817.48 1232.31 829.72
  Q 1209.71 852.91 1187.10 876.10
  Q 1169.16 894.49 1137.49 924.40
  C 1121.40 862.37 1086.20 808.06 1026.72 780.67
  Q 1001.30 768.97 973.74 763.52
  Q 965.86 761.96 958.05 760.48
  C 958.29 759.60 958.36 759.14 959.04 758.50
  Q 1020.68 700.92 1091.45 654.99
  Q 1102.56 647.78 1113.68 640.57
  C 1124.14 633.78 1133.73 617.28 1138.71 606.73
  C 1163.98 553.17 1198.29 506.02 1237.81 462.80
  Q 1255.64 443.29 1274.23 424.49
  C 1277.03 421.66 1279.79 420.22 1283.98 419.61
  C 1289.61 418.78 1295.65 418.15 1300.71 416.39
  Q 1315.09 411.38 1324.96 398.97
  Q 1328.78 394.16 1334.36 397.22
  Q 1347.61 404.51 1360.63 412.16
  Q 1361.05 412.41 1361.52 412.30
  L 1362.68 412.05
  Z"
/>
<path fill="#f304af" d="
  M 1429.47 653.86
  Q 1430.15 657.71 1430.69 664.25
  Q 1436.54 736.27 1428.80 806.75
  Q 1413.84 943.14 1347.55 1059.57
  C 1285.56 1168.44 1197.05 1261.85 1090.43 1327.90
  C 973.90 1400.08 837.30 1437.39 700.50 1432.94
  C 602.61 1429.75 506.66 1406.72 417.40 1366.48
  Q 417.51 1364.05 418.16 1361.71
  Q 425.92 1334.18 435.54 1307.25
  C 437.85 1300.80 440.57 1293.97 444.89 1288.90
  C 456.56 1275.19 473.94 1272.95 488.10 1263.47
  Q 529.39 1235.83 555.79 1193.99
  Q 561.97 1184.19 565.06 1180.63
  Q 571.13 1173.66 579.04 1167.56
  C 598.22 1152.76 619.58 1141.81 638.36 1129.83
  C 656.55 1118.23 670.80 1104.70 684.72 1088.39
  Q 726.03 1039.98 766.15 990.58
  Q 765.80 990.26 767.00 990.37
  Q 769.89 998.33 773.17 1006.55
  C 782.12 1028.96 794.21 1051.07 809.25 1069.95
  Q 858.21 1131.42 939.50 1134.77
  Q 1026.39 1138.36 1087.39 1080.25
  C 1113.83 1055.07 1130.30 1021.65 1135.90 985.47
  Q 1140.76 954.07 1137.49 924.40
  Q 1169.16 894.49 1187.10 876.10
  Q 1209.71 852.91 1232.31 829.72
  C 1244.24 817.48 1254.97 808.74 1269.26 801.28
  C 1281.90 794.69 1303.36 788.32 1318.65 777.68
  Q 1324.72 773.45 1333.85 764.73
  C 1365.92 734.08 1394.61 701.07 1418.83 663.82
  Q 1422.76 657.79 1426.57 650.97
  Q 1427.50 649.30 1429.02 650.46
  Q 1429.73 650.99 1429.47 653.86
  Z"
/>
<path fill="#fe83c5" d="
  M 958.05 760.48
  Q 965.86 761.96 973.74 763.52
  Q 1001.30 768.97 1026.72 780.67
  C 1086.20 808.06 1121.40 862.37 1137.49 924.40
  Q 1140.76 954.07 1135.90 985.47
  C 1130.30 1021.65 1113.83 1055.07 1087.39 1080.25
  Q 1026.39 1138.36 939.50 1134.77
  Q 858.21 1131.42 809.25 1069.95
  C 794.21 1051.07 782.12 1028.96 773.17 1006.55
  Q 769.89 998.33 767.00 990.37
  Q 762.50 948.32 770.29 907.78
  Q 782.44 844.55 832.10 806.03
  C 867.11 778.87 914.74 765.51 958.05 760.48
  Z"
/>
<circle fill="#ffffff" cx="490.07" cy="951.06" r="187.14"/>
</svg>
