<?xml version="1.0" encoding="UTF-8" standalone="no"?>
<svg
   version="1.1"
   viewBox="0.00 0.00 75.00 72.00"
   id="svg22"
   sodipodi:docname="关注店铺.svg"
   inkscape:version="1.2.2 (732a01da63, 2022-12-09)"
   xmlns:inkscape="http://www.inkscape.org/namespaces/inkscape"
   xmlns:sodipodi="http://sodipodi.sourceforge.net/DTD/sodipodi-0.dtd"
   xmlns="http://www.w3.org/2000/svg"
   xmlns:svg="http://www.w3.org/2000/svg">
  <defs
     id="defs26" />
  <sodipodi:namedview
     id="namedview24"
     pagecolor="#ffffff"
     bordercolor="#000000"
     borderopacity="0.25"
     inkscape:showpageshadow="2"
     inkscape:pageopacity="0.0"
     inkscape:pagecheckerboard="0"
     inkscape:deskcolor="#d1d1d1"
     showgrid="false"
     inkscape:zoom="14.263889"
     inkscape:cx="37.542356"
     inkscape:cy="36"
     inkscape:window-width="3840"
     inkscape:window-height="2071"
     inkscape:window-x="-9"
     inkscape:window-y="-9"
     inkscape:window-maximized="1"
     inkscape:current-layer="svg22" />
  <path
     fill="#1c1720"
     d="m 15.998929,40.661607 c -3.98,-3.65 -3.65,-7.17 -1.52,-12.05 q 2.46,-5.65 4.86,-11.26 1.53,-3.58 6.47,-3.52 13.74,0.17 27.5,0.26 c 4.42,0.03 8.61,12.83 10.16,16.5 1.98,4.66 0,6.84 -2.54,10.64 a 1.58,1.58 0 0 0 -0.26,0.9 c 0.12,4.68 0.85,11.57 -1.28,15.27 -2.23,3.87 -5.65,4.4 -10.19,4.41 q -10.86,0.05 -21.7,-0.02 c -13.88,-0.08 -10.61,-10.95 -11.07,-20.2 a 1.39,1.39 0 0 0 -0.43,-0.93 z m 42.31,-11.74 a 0.33,0.33 0 0 0 0.3,-0.46 l -4.45,-10.73 a 0.33,0.33 0 0 0 -0.3,-0.2 l -30.37,0.01 a 0.33,0.33 0 0 0 -0.3,0.2 l -4.75,10.69 a 0.33,0.33 0 0 0 0.3,0.46 z m -13.53,7.37 c 3.5,-3.59 5.56,-1.77 8.72,0.67 3.18,2.45 5.96,1.91 7.21,-2.28 q 0.64,-2.14 -1.59,-2.14 l -41.09,-0.07 q -1.6,-0.01 -1.53,1.6 0.17,3.54 3.51,4.55 a 1.33,1.34 40.4 0 0 0.97,-0.08 c 2.37,-1.2 5.21,-4.17 7.82,-4.23 2.88,-0.06 3.85,3.05 6.35,3.99 q 5.61,2.13 9.63,-2.01 z m 11.71,5.96 c -3.36,-0.6 -4.85,-2.17 -7.41,-4.16 q -0.4,-0.31 -0.76,0.03 -9.97,9.24 -19.68,-0.2 a 0.45,0.46 42.5 0 0 -0.67,0.03 q -2.97,3.43 -7.39,4.36 -0.53,0.12 -0.53,0.67 0,5.03 0.01,10.07 c 0.01,3.26 2.63,5.01 5.84,5.06 q 12.65,0.17 25.32,0.03 c 3.38,-0.04 5.8,-1.67 5.81,-5.11 q 0.02,-4.98 0.02,-10.11 0,-0.57 -0.56,-0.67 z"
     id="path14" />
</svg>
