<?xml version="1.0" encoding="UTF-8" standalone="no"?>
<svg
   version="1.1"
   viewBox="0.00 0.00 98.00 88.00"
   id="svg26"
   sodipodi:docname="减肥助手.svg"
   inkscape:version="1.2.2 (732a01da63, 2022-12-09)"
   xmlns:inkscape="http://www.inkscape.org/namespaces/inkscape"
   xmlns:sodipodi="http://sodipodi.sourceforge.net/DTD/sodipodi-0.dtd"
   xmlns="http://www.w3.org/2000/svg"
   xmlns:svg="http://www.w3.org/2000/svg">
  <defs
     id="defs30" />
  <sodipodi:namedview
     id="namedview28"
     pagecolor="#ffffff"
     bordercolor="#000000"
     borderopacity="0.25"
     inkscape:showpageshadow="2"
     inkscape:pageopacity="0.0"
     inkscape:pagecheckerboard="0"
     inkscape:deskcolor="#d1d1d1"
     showgrid="false"
     inkscape:zoom="11.670455"
     inkscape:cx="49.141186"
     inkscape:cy="44.171371"
     inkscape:window-width="3840"
     inkscape:window-height="2071"
     inkscape:window-x="-9"
     inkscape:window-y="-9"
     inkscape:window-maximized="1"
     inkscape:current-layer="svg26" />
  <g
     stroke-width="2.00"
     fill="none"
     stroke-linecap="butt"
     id="g12">
    <path
       stroke="#fda98d"
       vector-effect="non-scaling-stroke"
       d="   M 93.15 47.52   A 39.76 39.76 0.0 0 0 53.39 7.76   A 39.76 39.76 0.0 0 0 13.63 47.52   A 39.76 39.76 0.0 0 0 53.39 87.28   A 39.76 39.76 0.0 0 0 93.15 47.52"
       id="path2" />
    <path
       stroke="#fda98d"
       vector-effect="non-scaling-stroke"
       d="   M 76.23 47.50   A 22.75 22.75 0.0 0 0 53.48 24.75   A 22.75 22.75 0.0 0 0 30.73 47.50   A 22.75 22.75 0.0 0 0 53.48 70.25   A 22.75 22.75 0.0 0 0 76.23 47.50"
       id="path4" />
    <path
       stroke="#fda98d"
       vector-effect="non-scaling-stroke"
       d="   M 46.41 41.36   L 49.78 45.67   Q 50.15 46.14 50.73 46.02   Q 56.04 44.91 59.91 48.68   A 1.88 1.87 52.2 0 0 62.16 48.97   L 68.72 45.21   A 1.56 1.56 0.0 0 0 69.19 42.92   C 60.94 31.99 46.13 31.94 37.89 43.01   A 1.45 1.45 0.0 0 0 38.24 45.07   Q 41.33 47.21 45.29 48.87   Q 46.57 49.40 46.86 49.26   A 2.45 2.09 66.0 0 0 47.76 46.23   L 45.84 41.69   A 0.33 0.33 0.0 0 1 46.41 41.36"
       id="path6" />
    <path
       stroke="#dd9887"
       vector-effect="non-scaling-stroke"
       d="   M 57.69 54.13   A 4.18 4.18 0.0 0 0 53.51 49.95   A 4.18 4.18 0.0 0 0 49.33 54.13   A 4.18 4.18 0.0 0 0 53.51 58.31   A 4.18 4.18 0.0 0 0 57.69 54.13"
       id="path8" />
    <path
       stroke="#dd9887"
       vector-effect="non-scaling-stroke"
       d="   M 55.96 54.21   A 2.50 2.50 0.0 0 0 53.46 51.71   A 2.50 2.50 0.0 0 0 50.96 54.21   A 2.50 2.50 0.0 0 0 53.46 56.71   A 2.50 2.50 0.0 0 0 55.96 54.21"
       id="path10" />
  </g>
  <path
     fill="#fb531a"
     d="   M 93.15 47.52   A 39.76 39.76 0.0 0 1 53.39 87.28   A 39.76 39.76 0.0 0 1 13.63 47.52   A 39.76 39.76 0.0 0 1 53.39 7.76   A 39.76 39.76 0.0 0 1 93.15 47.52   Z   M 76.23 47.50   A 22.75 22.75 0.0 0 0 53.48 24.75   A 22.75 22.75 0.0 0 0 30.73 47.50   A 22.75 22.75 0.0 0 0 53.48 70.25   A 22.75 22.75 0.0 0 0 76.23 47.50   Z"
     id="path16" />
  <path
     fill="#ffffff"
     d="   M 76.23 47.50   A 22.75 22.75 0.0 0 1 53.48 70.25   A 22.75 22.75 0.0 0 1 30.73 47.50   A 22.75 22.75 0.0 0 1 53.48 24.75   A 22.75 22.75 0.0 0 1 76.23 47.50   Z   M 46.41 41.36   L 49.78 45.67   Q 50.15 46.14 50.73 46.02   Q 56.04 44.91 59.91 48.68   A 1.88 1.87 52.2 0 0 62.16 48.97   L 68.72 45.21   A 1.56 1.56 0.0 0 0 69.19 42.92   C 60.94 31.99 46.13 31.94 37.89 43.01   A 1.45 1.45 0.0 0 0 38.24 45.07   Q 41.33 47.21 45.29 48.87   Q 46.57 49.40 46.86 49.26   A 2.45 2.09 66.0 0 0 47.76 46.23   L 45.84 41.69   A 0.33 0.33 0.0 0 1 46.41 41.36   Z   M 57.69 54.13   A 4.18 4.18 0.0 0 0 53.51 49.95   A 4.18 4.18 0.0 0 0 49.33 54.13   A 4.18 4.18 0.0 0 0 53.51 58.31   A 4.18 4.18 0.0 0 0 57.69 54.13   Z"
     id="path18" />
  <path
     fill="#fb531a"
     d="   M 45.84 41.69   L 47.76 46.23   A 2.45 2.09 66.0 0 1 46.86 49.26   Q 46.57 49.40 45.29 48.87   Q 41.33 47.21 38.24 45.07   A 1.45 1.45 0.0 0 1 37.89 43.01   C 46.13 31.94 60.94 31.99 69.19 42.92   A 1.56 1.56 0.0 0 1 68.72 45.21   L 62.16 48.97   A 1.88 1.87 52.2 0 1 59.91 48.68   Q 56.04 44.91 50.73 46.02   Q 50.15 46.14 49.78 45.67   L 46.41 41.36   A 0.33 0.33 0.0 0 0 45.84 41.69   Z"
     id="path20" />
  <path
     fill="#ba300e"
     d="   M 57.69 54.13   A 4.18 4.18 0.0 0 1 53.51 58.31   A 4.18 4.18 0.0 0 1 49.33 54.13   A 4.18 4.18 0.0 0 1 53.51 49.95   A 4.18 4.18 0.0 0 1 57.69 54.13   Z   M 55.96 54.21   A 2.50 2.50 0.0 0 0 53.46 51.71   A 2.50 2.50 0.0 0 0 50.96 54.21   A 2.50 2.50 0.0 0 0 53.46 56.71   A 2.50 2.50 0.0 0 0 55.96 54.21   Z"
     id="path22" />
</svg>
