<?xml version="1.0" encoding="UTF-8" standalone="no"?>
<!DOCTYPE svg PUBLIC "-//W3C//DTD SVG 1.1//EN" "http://www.w3.org/Graphics/SVG/1.1/DTD/svg11.dtd">
<svg xmlns="http://www.w3.org/2000/svg" version="1.1" viewBox="0.00 0.00 947.00 931.00">
<g stroke-width="2.00" fill="none" stroke-linecap="butt">
<path stroke="#fce5fe" vector-effect="non-scaling-stroke" d="
  M 826.28 192.47
  Q 826.19 193.36 825.90 193.40"
/>
<path stroke="#f1a7da" vector-effect="non-scaling-stroke" d="
  M 825.90 193.40
  C 817.71 184.22 809.78 174.55 801.02 165.91
  C 793.64 158.64 785.67 150.60 778.76 144.36
  Q 722.39 93.47 654.62 65.37
  Q 607.02 45.63 554.01 37.43
  Q 544.61 35.97 537.78 35.49
  Q 533.85 35.21 530.75 34.82
  Q 527.25 34.39 523.74 34.10
  Q 488.19 31.20 452.66 34.29
  C 451.75 34.37 450.94 35.06 449.88 35.08
  Q 441.14 35.25 437.26 35.86
  Q 423.35 38.04 409.19 40.11"
/>
<path stroke="#ed8dd8" vector-effect="non-scaling-stroke" d="
  M 825.90 193.40
  Q 833.96 203.71 841.81 214.13
  Q 866.79 247.28 885.15 284.70"
/>
<path stroke="#ed8dd8" vector-effect="non-scaling-stroke" d="
  M 886.96 288.30
  Q 897.74 312.76 906.02 337.94"
/>
<path stroke="#f1a7da" vector-effect="non-scaling-stroke" d="
  M 906.02 337.94
  Q 922.85 391.69 924.88 447.94
  Q 924.91 448.76 925.10 447.96
  L 925.33 447.02"
/>
<path stroke="#f1a7da" vector-effect="non-scaling-stroke" d="
  M 924.84 491.50
  Q 924.45 512.51 920.78 533.57"
/>
<path stroke="#ca2cbd" vector-effect="non-scaling-stroke" d="
  M 920.78 533.57
  Q 918.06 526.16 915.73 514.77
  Q 913.24 502.57 905.50 489.50"
/>
<path stroke="#da2db4" vector-effect="non-scaling-stroke" d="
  M 905.50 489.50
  C 904.03 487.74 903.17 486.43 903.23 483.98
  Q 904.80 414.15 866.32 355.94
  C 847.57 327.57 829.25 296.24 811.54 267.51
  C 810.23 265.39 810.12 263.38 809.85 261.01
  C 809.48 257.73 808.78 256.58 806.67 254.33
  Q 759.16 203.62 703.45 165.44
  C 671.14 143.31 634.68 127.07 596.89 117.02
  Q 593.90 116.23 577.39 112.63
  Q 560.66 108.98 544.49 103.34
  Q 532.30 99.09 527.24 98.04
  Q 513.22 95.13 498.50 95.80
  Q 444.85 98.25 396.76 101.82
  Q 394.13 102.02 391.37 101.40
  A 0.37 0.37 0.0 0 1 391.28 100.71
  L 401.77 95.39
  A 0.85 0.85 0.0 0 0 401.79 93.89
  Q 401.04 93.49 399.74 93.31
  C 376.13 90.10 352.46 92.84 331.89 105.38
  Q 307.43 120.30 301.00 123.94
  Q 275.86 138.17 245.08 148.80"
/>
<path stroke="#ca2cbd" vector-effect="non-scaling-stroke" d="
  M 245.08 148.80
  Q 241.50 141.00 248.36 135.56
  Q 253.11 131.79 259.20 129.03
  Q 259.44 128.92 259.54 128.75
  Q 259.66 128.55 259.65 128.37
  Q 259.64 127.83 259.14 128.03
  Q 256.01 129.24 252.68 128.68
  Q 252.08 128.58 252.11 127.97
  C 252.20 126.23 253.49 125.65 254.36 124.69
  Q 261.40 116.91 267.53 112.53
  Q 275.09 107.13 285.59 102.79
  Q 289.45 101.20 291.73 99.22
  Q 295.95 95.54 298.21 91.64
  Q 300.26 88.10 297.25 90.87
  Q 291.78 95.88 286.32 90.03
  Q 284.53 88.11 282.75 86.07
  Q 282.52 85.81 282.25 85.72
  Q 281.68 85.53 281.59 85.78"
/>
<path stroke="#ed8dd8" vector-effect="non-scaling-stroke" d="
  M 281.59 85.78
  Q 340.66 54.01 406.49 40.93"
/>
<path stroke="#c20bbd" vector-effect="non-scaling-stroke" d="
  M 245.08 148.80
  Q 236.32 156.29 227.46 163.68
  Q 226.11 164.81 227.38 165.68
  A 1.04 1.04 0.0 0 0 228.38 165.79
  L 241.32 160.46
  A 1.85 1.84 52.2 0 1 243.13 160.69
  Q 244.60 161.79 244.05 163.39
  C 243.12 166.14 238.19 165.50 237.66 169.58
  A 2.00 2.00 0.0 0 0 239.94 171.82
  Q 240.72 171.71 241.59 171.06
  Q 251.97 163.39 264.43 159.79
  A 0.79 0.79 0.0 0 1 265.43 160.42
  Q 265.47 160.70 265.07 161.17
  Q 249.21 179.25 233.31 197.29
  C 225.05 206.65 249.90 207.46 253.39 207.57
  C 262.14 207.86 273.01 206.33 282.74 205.39
  C 299.48 203.76 312.27 207.78 326.79 216.60
  Q 348.72 229.92 370.75 243.07
  Q 372.26 243.97 373.63 243.82
  A 0.82 0.81 -0.8 0 0 374.36 243.07
  Q 374.55 240.45 376.74 241.44
  Q 391.96 248.35 406.69 255.65
  A 1.16 1.16 0.0 0 1 406.78 257.69
  L 404.65 258.96
  A 0.89 0.89 0.0 0 0 405.00 260.60
  L 426.05 263.25
  A 0.58 0.57 39.9 0 1 426.15 264.37
  C 423.49 265.19 422.10 269.64 426.00 269.90
  Q 462.59 272.31 494.74 273.36
  Q 555.61 275.34 616.50 275.68
  Q 623.83 275.72 626.52 276.87
  C 630.84 278.73 631.83 282.18 633.64 285.82
  C 634.19 286.93 635.64 287.66 635.30 289.21"
/>
<path stroke="#d985e3" vector-effect="non-scaling-stroke" d="
  M 635.30 289.21
  Q 479.76 289.19 324.26 287.27
  Q 308.34 287.08 301.57 299.77
  Q 292.97 315.87 303.49 331.70
  Q 306.32 335.96 312.66 336.84
  C 321.19 338.03 329.52 339.45 338.18 339.47
  Q 363.34 339.53 388.42 339.49"
/>
<path stroke="#c20bbd" vector-effect="non-scaling-stroke" d="
  M 388.42 339.49
  Q 389.22 340.88 391.96 340.58
  A 0.10 0.09 27.7 0 1 392.02 340.76
  L 391.79 340.88
  Q 391.16 341.22 391.86 341.35
  Q 395.64 342.05 397.00 342.10
  Q 461.37 344.63 525.75 347.11
  Q 530.17 347.28 531.49 347.58
  C 534.11 348.19 534.90 351.42 533.93 353.49
  Q 533.36 354.72 531.33 355.69
  Q 526.46 358.03 521.57 360.32
  C 519.39 361.33 517.20 362.13 516.18 364.28
  A 3.26 3.24 40.7 0 0 516.43 367.49
  Q 518.91 371.17 521.47 375.26
  C 531.53 391.37 528.24 406.82 517.41 421.20
  A 1.08 1.07 27.0 0 0 517.96 422.87
  C 521.09 423.81 524.57 422.63 523.80 427.80
  A 1.02 1.02 0.0 0 0 524.89 428.97
  C 548.97 427.22 574.18 427.25 598.15 430.95
  Q 616.06 433.72 633.74 437.75
  Q 639.00 438.95 644.05 440.85
  Q 644.52 441.03 644.75 441.48
  L 645.21 442.36"
/>
<path stroke="#d985e3" vector-effect="non-scaling-stroke" d="
  M 645.21 442.36
  Q 485.62 445.86 326.00 444.46
  Q 319.83 444.40 314.04 446.34
  C 291.26 453.93 292.08 484.22 313.64 491.86
  Q 317.89 493.36 326.07 493.54
  Q 338.03 493.79 350.00 493.91
  Q 514.28 495.47 678.56 491.47"
/>
<path stroke="#c20bbd" vector-effect="non-scaling-stroke" d="
  M 678.56 491.47
  Q 693.82 506.05 708.34 521.41
  Q 718.86 532.54 722.73 536.02
  Q 734.67 546.78 751.66 551.86
  Q 760.06 554.37 791.30 565.41
  Q 805.59 570.45 818.67 577.95
  C 833.03 586.17 845.22 598.23 857.06 609.72
  C 859.48 612.06 861.22 614.82 860.24 617.96
  Q 851.95 644.75 843.14 671.48
  A 0.50 0.50 0.0 0 0 843.94 672.02
  Q 844.83 671.26 845.38 669.99
  Q 853.05 652.44 859.97 634.60
  Q 885.45 568.88 894.16 498.92
  C 894.43 496.74 895.08 494.99 896.91 493.99
  A 0.80 0.80 0.0 0 1 898.09 494.69
  L 898.16 514.08
  A 0.92 0.92 0.0 0 0 899.90 514.51
  Q 906.38 502.44 903.31 488.94
  A 0.33 0.33 0.0 0 1 903.67 488.53
  Q 904.49 488.63 905.50 489.50"
/>
<path stroke="#d985e3" vector-effect="non-scaling-stroke" d="
  M 920.78 533.57
  Q 920.78 535.72 920.64 538.52
  Q 920.53 540.92 920.02 543.43
  Q 911.87 583.86 897.63 622.52"
/>
<path stroke="#d56be1" vector-effect="non-scaling-stroke" d="
  M 897.63 622.52
  C 893.53 632.31 889.43 643.02 885.35 651.87
  Q 866.08 693.61 838.74 730.64"
/>
<path stroke="#d985e3" vector-effect="non-scaling-stroke" d="
  M 838.74 730.64
  C 794.63 788.95 738.10 833.05 672.77 865.65"
/>
<path stroke="#a608d0" vector-effect="non-scaling-stroke" d="
  M 672.77 865.65
  C 671.28 860.01 670.67 854.25 663.25 853.77
  C 660.96 853.62 658.27 854.35 656.34 853.48
  C 652.75 851.85 653.43 847.31 656.70 845.61
  Q 688.94 828.93 713.33 802.09
  Q 715.83 799.34 713.99 796.74
  Q 692.26 766.04 663.11 737.32
  C 654.63 728.97 643.68 719.61 634.03 710.67
  C 625.18 702.47 617.66 692.73 609.79 683.46
  C 605.80 678.75 601.52 674.45 597.22 670.08
  C 595.23 668.06 594.14 666.20 594.40 663.50
  Q 595.17 655.64 601.34 648.27"
/>
<path stroke="#d56be1" vector-effect="non-scaling-stroke" d="
  M 601.34 648.27
  Q 629.15 648.03 657.75 647.66
  C 679.55 647.38 689.46 622.66 674.90 607.07
  C 669.09 600.83 659.90 597.76 651.48 597.76
  Q 493.00 597.83 336.22 597.76"
/>
<path stroke="#a608d0" vector-effect="non-scaling-stroke" d="
  M 336.22 597.76
  Q 314.74 562.66 280.85 539.26
  A 1.55 1.45 -15.9 0 0 280.48 539.07
  Q 278.27 538.26 277.90 540.09
  C 277.44 542.29 280.92 545.69 280.85 548.28
  Q 280.79 550.41 278.54 550.28
  A 2.41 2.41 0.0 0 1 276.98 549.59
  Q 254.01 526.78 230.58 504.88
  Q 229.00 503.41 226.13 502.30
  C 223.03 501.10 218.49 501.75 215.74 499.01
  C 190.98 474.34 163.61 455.26 130.57 443.37
  C 128.11 442.49 125.25 442.03 123.13 443.11
  Q 114.73 447.39 110.97 456.19
  A 0.35 0.35 0.0 0 1 110.29 456.03
  Q 111.25 439.76 111.41 423.29
  C 111.49 415.56 111.87 407.47 113.46 401.22
  Q 120.10 375.21 129.43 333.75
  Q 129.94 331.49 129.52 329.78
  A 0.74 0.73 81.0 0 0 128.76 329.22
  L 124.02 329.55
  A 1.08 1.07 -20.5 0 1 123.09 329.13
  Q 122.27 328.04 122.34 326.62
  A 1.95 1.95 0.0 0 0 120.90 324.64
  L 114.38 322.87
  A 3.02 3.02 0.0 0 0 110.68 324.99
  Q 104.36 348.11 98.14 371.59
  C 94.32 386.03 89.82 400.01 85.45 414.18
  Q 81.53 426.88 80.07 433.45
  C 75.71 453.18 74.57 473.37 77.08 493.45
  Q 78.48 504.67 81.04 518.25
  Q 84.81 538.29 85.99 563.54
  C 86.09 565.88 86.19 569.42 84.88 570.82
  C 82.02 573.89 78.57 576.71 76.68 580.29
  Q 72.72 587.82 71.87 596.82"
/>
<path stroke="#d985e3" vector-effect="non-scaling-stroke" d="
  M 71.87 596.82
  Q 63.38 569.04 59.10 540.47
  C 57.86 532.24 56.44 524.13 55.77 515.79
  Q 55.17 508.19 54.48 500.59
  C 52.44 477.96 52.98 454.84 54.81 432.20"
/>
<path stroke="#fce5fe" vector-effect="non-scaling-stroke" d="
  M 898.50 622.95
  Q 897.61 622.94 897.63 622.52"
/>
<path stroke="#fce5fe" vector-effect="non-scaling-stroke" d="
  M 906.38 337.78
  Q 905.86 337.86 906.02 337.94"
/>
<path stroke="#e985da" vector-effect="non-scaling-stroke" d="
  M 678.56 491.47
  C 680.65 480.44 681.82 466.93 678.92 456.00
  C 677.15 449.32 673.16 448.84 666.23 446.81
  C 659.28 444.78 652.83 442.30 645.21 442.36"
/>
<path stroke="#e985da" vector-effect="non-scaling-stroke" d="
  M 388.42 339.49
  Q 520.47 339.15 652.44 339.22
  C 662.46 339.23 670.15 338.42 676.15 331.14
  C 682.76 323.10 682.65 311.12 678.81 301.62
  C 677.00 297.14 675.52 293.75 670.76 293.01
  C 662.04 291.65 647.47 289.13 635.30 289.21"
/>
<path stroke="#d56be1" vector-effect="non-scaling-stroke" d="
  M 281.59 85.78
  Q 239.28 109.46 203.85 140.09
  Q 138.38 196.70 98.91 274.68
  Q 61.88 347.84 54.81 432.20"
/>
<path stroke="#fce5fe" vector-effect="non-scaling-stroke" d="
  M 54.81 432.20
  L 54.62 431.52"
/>
<path stroke="#fce5fe" vector-effect="non-scaling-stroke" d="
  M 838.74 730.64
  Q 839.22 730.72 839.25 732.29"
/>
<path stroke="#c969eb" vector-effect="non-scaling-stroke" d="
  M 336.22 597.76
  C 319.53 596.52 300.97 599.52 297.96 618.56
  C 294.91 637.79 309.18 648.80 327.00 648.72
  Q 463.78 648.13 601.34 648.27"
/>
<path stroke="#cc83ed" vector-effect="non-scaling-stroke" d="
  M 672.77 865.65
  Q 572.36 909.65 462.99 904.62
  Q 454.22 904.22 443.06 902.97
  Q 427.65 901.23 422.24 900.39
  C 295.20 880.65 186.45 806.58 118.96 697.31
  Q 89.57 649.72 71.87 596.82"
/>
</g>
<path fill="#ffffff" d="
  M 826.28 192.47
  Q 826.19 193.36 825.90 193.40
  C 817.71 184.22 809.78 174.55 801.02 165.91
  C 793.64 158.64 785.67 150.60 778.76 144.36
  Q 722.39 93.47 654.62 65.37
  Q 607.02 45.63 554.01 37.43
  Q 544.61 35.97 537.78 35.49
  Q 533.85 35.21 530.75 34.82
  Q 527.25 34.39 523.74 34.10
  Q 488.19 31.20 452.66 34.29
  C 451.75 34.37 450.94 35.06 449.88 35.08
  Q 441.14 35.25 437.26 35.86
  Q 423.35 38.04 409.19 40.11
  Q 414.24 38.24 419.71 37.79
  Q 424.26 37.42 427.24 36.77
  C 436.48 34.77 445.67 34.91 454.75 33.56
  Q 468.55 31.50 482.50 31.43
  C 498.33 31.34 513.69 31.31 529.22 33.73
  C 537.79 35.06 546.42 34.77 555.14 36.71
  C 560.90 37.98 566.50 37.77 572.09 39.55
  Q 576.69 41.02 581.53 41.40
  Q 584.00 41.60 586.38 42.49
  Q 590.68 44.12 595.23 44.66
  C 599.47 45.17 602.92 47.17 607.24 47.75
  C 611.18 48.28 614.25 50.15 618.12 50.99
  Q 620.24 51.45 622.69 52.60
  C 625.70 54.03 628.61 53.94 631.55 55.49
  Q 634.03 56.79 636.76 57.42
  Q 638.96 57.93 640.97 58.98
  C 644.08 60.61 647.03 60.71 650.19 62.41
  Q 652.80 63.81 655.72 64.31
  A 1.85 1.77 68.4 0 1 656.55 64.69
  Q 658.61 66.40 659.50 66.62
  Q 663.84 67.69 666.12 69.47
  Q 666.51 69.78 667.01 69.89
  C 670.25 70.56 672.13 72.47 675.21 73.52
  Q 677.56 74.33 679.48 75.95
  A 1.88 1.83 -19.1 0 0 680.33 76.35
  Q 683.42 76.90 685.73 79.06
  Q 686.12 79.42 686.64 79.54
  C 690.16 80.31 691.77 82.75 695.23 83.52
  A 1.88 1.88 0.0 0 1 696.09 83.97
  Q 697.75 85.51 700.75 86.78
  Q 703.45 87.92 707.84 91.02
  Q 708.79 91.69 711.46 92.96
  C 713.22 93.79 714.49 95.18 716.12 96.02
  Q 720.03 98.03 723.55 100.62
  C 726.21 102.58 729.39 104.11 731.51 105.73
  C 736.41 109.48 741.40 112.57 745.67 115.96
  C 749.75 119.20 754.34 122.14 758.12 125.39
  C 772.17 137.47 784.95 147.44 799.30 162.32
  C 807.61 170.93 816.89 182.72 826.28 192.47
  Z"
/>
<path fill="#e24eb4" d="
  M 825.90 193.40
  Q 833.96 203.71 841.81 214.13
  Q 866.79 247.28 885.15 284.70
  Q 886.80 286.20 886.96 288.30
  Q 897.74 312.76 906.02 337.94
  Q 922.85 391.69 924.88 447.94
  Q 924.91 448.76 925.10 447.96
  L 925.33 447.02
  Q 926.63 469.30 924.84 491.50
  Q 924.45 512.51 920.78 533.57
  Q 918.06 526.16 915.73 514.77
  Q 913.24 502.57 905.50 489.50
  C 904.03 487.74 903.17 486.43 903.23 483.98
  Q 904.80 414.15 866.32 355.94
  C 847.57 327.57 829.25 296.24 811.54 267.51
  C 810.23 265.39 810.12 263.38 809.85 261.01
  C 809.48 257.73 808.78 256.58 806.67 254.33
  Q 759.16 203.62 703.45 165.44
  C 671.14 143.31 634.68 127.07 596.89 117.02
  Q 593.90 116.23 577.39 112.63
  Q 560.66 108.98 544.49 103.34
  Q 532.30 99.09 527.24 98.04
  Q 513.22 95.13 498.50 95.80
  Q 444.85 98.25 396.76 101.82
  Q 394.13 102.02 391.37 101.40
  A 0.37 0.37 0.0 0 1 391.28 100.71
  L 401.77 95.39
  A 0.85 0.85 0.0 0 0 401.79 93.89
  Q 401.04 93.49 399.74 93.31
  C 376.13 90.10 352.46 92.84 331.89 105.38
  Q 307.43 120.30 301.00 123.94
  Q 275.86 138.17 245.08 148.80
  Q 241.50 141.00 248.36 135.56
  Q 253.11 131.79 259.20 129.03
  Q 259.44 128.92 259.54 128.75
  Q 259.66 128.55 259.65 128.37
  Q 259.64 127.83 259.14 128.03
  Q 256.01 129.24 252.68 128.68
  Q 252.08 128.58 252.11 127.97
  C 252.20 126.23 253.49 125.65 254.36 124.69
  Q 261.40 116.91 267.53 112.53
  Q 275.09 107.13 285.59 102.79
  Q 289.45 101.20 291.73 99.22
  Q 295.95 95.54 298.21 91.64
  Q 300.26 88.10 297.25 90.87
  Q 291.78 95.88 286.32 90.03
  Q 284.53 88.11 282.75 86.07
  Q 282.52 85.81 282.25 85.72
  Q 281.68 85.53 281.59 85.78
  Q 340.66 54.01 406.49 40.93
  Q 407.82 40.10 409.19 40.11
  Q 423.35 38.04 437.26 35.86
  Q 441.14 35.25 449.88 35.08
  C 450.94 35.06 451.75 34.37 452.66 34.29
  Q 488.19 31.20 523.74 34.10
  Q 527.25 34.39 530.75 34.82
  Q 533.85 35.21 537.78 35.49
  Q 544.61 35.97 554.01 37.43
  Q 607.02 45.63 654.62 65.37
  Q 722.39 93.47 778.76 144.36
  C 785.67 150.60 793.64 158.64 801.02 165.91
  C 809.78 174.55 817.71 184.22 825.90 193.40
  Z"
/>
<path fill="#f8cbfc" d="
  M 406.49 40.93
  Q 340.66 54.01 281.59 85.78
  Q 239.28 109.46 203.85 140.09
  Q 138.38 196.70 98.91 274.68
  Q 61.88 347.84 54.81 432.20
  L 54.62 431.52
  Q 54.66 421.86 55.16 412.15
  C 55.40 407.28 58.22 402.56 58.29 398.00
  Q 58.38 391.29 59.68 386.39
  Q 61.07 381.17 61.28 379.51
  C 61.75 375.84 61.78 372.95 63.09 369.28
  C 64.71 364.79 64.80 360.38 66.71 356.00
  C 68.29 352.39 67.98 348.79 69.57 345.28
  C 71.21 341.67 71.62 337.94 73.10 334.35
  Q 74.33 331.35 75.04 328.18
  C 75.71 325.20 77.37 322.82 78.07 319.76
  C 78.76 316.75 80.42 314.79 81.20 311.87
  Q 81.96 309.05 82.53 307.76
  Q 85.30 301.54 87.73 295.19
  C 88.66 292.77 90.25 290.30 91.16 287.64
  Q 91.80 285.77 92.99 283.74
  C 94.01 281.99 94.63 279.96 95.38 278.42
  Q 113.08 242.23 137.09 209.86
  C 137.51 209.29 137.69 208.58 138.07 208.13
  C 144.38 200.89 150.38 192.67 156.39 185.99
  C 165.29 176.09 174.01 165.91 183.51 156.57
  Q 187.40 152.75 194.73 146.69
  C 203.02 139.83 210.61 132.28 219.30 125.84
  Q 223.88 122.44 228.22 118.74
  Q 230.51 116.78 234.31 114.46
  C 237.57 112.46 240.46 109.76 243.52 107.87
  Q 248.60 104.73 253.48 101.26
  Q 254.19 100.75 256.98 99.41
  C 258.71 98.58 259.80 97.11 261.39 96.28
  Q 266.08 93.83 270.39 90.77
  Q 271.20 90.20 273.36 89.33
  C 274.74 88.78 275.92 87.54 277.20 86.91
  Q 286.48 82.27 295.67 77.47
  Q 300.34 75.03 305.21 73.04
  Q 305.64 72.87 309.09 71.10
  C 310.92 70.17 312.73 70.01 314.51 68.93
  C 317.12 67.32 319.78 66.96 322.46 65.46
  C 324.84 64.12 327.57 63.67 329.75 62.64
  C 331.34 61.89 332.68 61.14 334.49 60.75
  C 337.81 60.04 340.52 58.33 343.72 57.49
  C 346.86 56.67 349.59 55.02 352.58 54.36
  C 354.52 53.93 356.14 53.72 358.02 52.78
  C 361.34 51.11 365.16 50.76 368.16 49.67
  C 370.40 48.87 372.22 48.09 374.70 47.70
  C 378.92 47.03 382.46 45.12 386.64 44.56
  C 391.39 43.92 395.89 41.96 400.31 41.45
  Q 403.39 41.10 406.49 40.93
  Z"
/>
<path fill="#b20ac6" d="
  M 281.59 85.78
  Q 281.68 85.53 282.25 85.72
  Q 282.52 85.81 282.75 86.07
  Q 284.53 88.11 286.32 90.03
  Q 291.78 95.88 297.25 90.87
  Q 300.26 88.10 298.21 91.64
  Q 295.95 95.54 291.73 99.22
  Q 289.45 101.20 285.59 102.79
  Q 275.09 107.13 267.53 112.53
  Q 261.40 116.91 254.36 124.69
  C 253.49 125.65 252.20 126.23 252.11 127.97
  Q 252.08 128.58 252.68 128.68
  Q 256.01 129.24 259.14 128.03
  Q 259.64 127.83 259.65 128.37
  Q 259.66 128.55 259.54 128.75
  Q 259.44 128.92 259.20 129.03
  Q 253.11 131.79 248.36 135.56
  Q 241.50 141.00 245.08 148.80
  Q 236.32 156.29 227.46 163.68
  Q 226.11 164.81 227.38 165.68
  A 1.04 1.04 0.0 0 0 228.38 165.79
  L 241.32 160.46
  A 1.85 1.84 52.2 0 1 243.13 160.69
  Q 244.60 161.79 244.05 163.39
  C 243.12 166.14 238.19 165.50 237.66 169.58
  A 2.00 2.00 0.0 0 0 239.94 171.82
  Q 240.72 171.71 241.59 171.06
  Q 251.97 163.39 264.43 159.79
  A 0.79 0.79 0.0 0 1 265.43 160.42
  Q 265.47 160.70 265.07 161.17
  Q 249.21 179.25 233.31 197.29
  C 225.05 206.65 249.90 207.46 253.39 207.57
  C 262.14 207.86 273.01 206.33 282.74 205.39
  C 299.48 203.76 312.27 207.78 326.79 216.60
  Q 348.72 229.92 370.75 243.07
  Q 372.26 243.97 373.63 243.82
  A 0.82 0.81 -0.8 0 0 374.36 243.07
  Q 374.55 240.45 376.74 241.44
  Q 391.96 248.35 406.69 255.65
  A 1.16 1.16 0.0 0 1 406.78 257.69
  L 404.65 258.96
  A 0.89 0.89 0.0 0 0 405.00 260.60
  L 426.05 263.25
  A 0.58 0.57 39.9 0 1 426.15 264.37
  C 423.49 265.19 422.10 269.64 426.00 269.90
  Q 462.59 272.31 494.74 273.36
  Q 555.61 275.34 616.50 275.68
  Q 623.83 275.72 626.52 276.87
  C 630.84 278.73 631.83 282.18 633.64 285.82
  C 634.19 286.93 635.64 287.66 635.30 289.21
  Q 479.76 289.19 324.26 287.27
  Q 308.34 287.08 301.57 299.77
  Q 292.97 315.87 303.49 331.70
  Q 306.32 335.96 312.66 336.84
  C 321.19 338.03 329.52 339.45 338.18 339.47
  Q 363.34 339.53 388.42 339.49
  Q 389.22 340.88 391.96 340.58
  A 0.10 0.09 27.7 0 1 392.02 340.76
  L 391.79 340.88
  Q 391.16 341.22 391.86 341.35
  Q 395.64 342.05 397.00 342.10
  Q 461.37 344.63 525.75 347.11
  Q 530.17 347.28 531.49 347.58
  C 534.11 348.19 534.90 351.42 533.93 353.49
  Q 533.36 354.72 531.33 355.69
  Q 526.46 358.03 521.57 360.32
  C 519.39 361.33 517.20 362.13 516.18 364.28
  A 3.26 3.24 40.7 0 0 516.43 367.49
  Q 518.91 371.17 521.47 375.26
  C 531.53 391.37 528.24 406.82 517.41 421.20
  A 1.08 1.07 27.0 0 0 517.96 422.87
  C 521.09 423.81 524.57 422.63 523.80 427.80
  A 1.02 1.02 0.0 0 0 524.89 428.97
  C 548.97 427.22 574.18 427.25 598.15 430.95
  Q 616.06 433.72 633.74 437.75
  Q 639.00 438.95 644.05 440.85
  Q 644.52 441.03 644.75 441.48
  L 645.21 442.36
  Q 485.62 445.86 326.00 444.46
  Q 319.83 444.40 314.04 446.34
  C 291.26 453.93 292.08 484.22 313.64 491.86
  Q 317.89 493.36 326.07 493.54
  Q 338.03 493.79 350.00 493.91
  Q 514.28 495.47 678.56 491.47
  Q 693.82 506.05 708.34 521.41
  Q 718.86 532.54 722.73 536.02
  Q 734.67 546.78 751.66 551.86
  Q 760.06 554.37 791.30 565.41
  Q 805.59 570.45 818.67 577.95
  C 833.03 586.17 845.22 598.23 857.06 609.72
  C 859.48 612.06 861.22 614.82 860.24 617.96
  Q 851.95 644.75 843.14 671.48
  A 0.50 0.50 0.0 0 0 843.94 672.02
  Q 844.83 671.26 845.38 669.99
  Q 853.05 652.44 859.97 634.60
  Q 885.45 568.88 894.16 498.92
  C 894.43 496.74 895.08 494.99 896.91 493.99
  A 0.80 0.80 0.0 0 1 898.09 494.69
  L 898.16 514.08
  A 0.92 0.92 0.0 0 0 899.90 514.51
  Q 906.38 502.44 903.31 488.94
  A 0.33 0.33 0.0 0 1 903.67 488.53
  Q 904.49 488.63 905.50 489.50
  Q 913.24 502.57 915.73 514.77
  Q 918.06 526.16 920.78 533.57
  Q 920.78 535.72 920.64 538.52
  Q 920.53 540.92 920.02 543.43
  Q 911.87 583.86 897.63 622.52
  C 893.53 632.31 889.43 643.02 885.35 651.87
  Q 866.08 693.61 838.74 730.64
  C 794.63 788.95 738.10 833.05 672.77 865.65
  C 671.28 860.01 670.67 854.25 663.25 853.77
  C 660.96 853.62 658.27 854.35 656.34 853.48
  C 652.75 851.85 653.43 847.31 656.70 845.61
  Q 688.94 828.93 713.33 802.09
  Q 715.83 799.34 713.99 796.74
  Q 692.26 766.04 663.11 737.32
  C 654.63 728.97 643.68 719.61 634.03 710.67
  C 625.18 702.47 617.66 692.73 609.79 683.46
  C 605.80 678.75 601.52 674.45 597.22 670.08
  C 595.23 668.06 594.14 666.20 594.40 663.50
  Q 595.17 655.64 601.34 648.27
  Q 629.15 648.03 657.75 647.66
  C 679.55 647.38 689.46 622.66 674.90 607.07
  C 669.09 600.83 659.90 597.76 651.48 597.76
  Q 493.00 597.83 336.22 597.76
  Q 314.74 562.66 280.85 539.26
  A 1.55 1.45 -15.9 0 0 280.48 539.07
  Q 278.27 538.26 277.90 540.09
  C 277.44 542.29 280.92 545.69 280.85 548.28
  Q 280.79 550.41 278.54 550.28
  A 2.41 2.41 0.0 0 1 276.98 549.59
  Q 254.01 526.78 230.58 504.88
  Q 229.00 503.41 226.13 502.30
  C 223.03 501.10 218.49 501.75 215.74 499.01
  C 190.98 474.34 163.61 455.26 130.57 443.37
  C 128.11 442.49 125.25 442.03 123.13 443.11
  Q 114.73 447.39 110.97 456.19
  A 0.35 0.35 0.0 0 1 110.29 456.03
  Q 111.25 439.76 111.41 423.29
  C 111.49 415.56 111.87 407.47 113.46 401.22
  Q 120.10 375.21 129.43 333.75
  Q 129.94 331.49 129.52 329.78
  A 0.74 0.73 81.0 0 0 128.76 329.22
  L 124.02 329.55
  A 1.08 1.07 -20.5 0 1 123.09 329.13
  Q 122.27 328.04 122.34 326.62
  A 1.95 1.95 0.0 0 0 120.90 324.64
  L 114.38 322.87
  A 3.02 3.02 0.0 0 0 110.68 324.99
  Q 104.36 348.11 98.14 371.59
  C 94.32 386.03 89.82 400.01 85.45 414.18
  Q 81.53 426.88 80.07 433.45
  C 75.71 453.18 74.57 473.37 77.08 493.45
  Q 78.48 504.67 81.04 518.25
  Q 84.81 538.29 85.99 563.54
  C 86.09 565.88 86.19 569.42 84.88 570.82
  C 82.02 573.89 78.57 576.71 76.68 580.29
  Q 72.72 587.82 71.87 596.82
  Q 63.38 569.04 59.10 540.47
  C 57.86 532.24 56.44 524.13 55.77 515.79
  Q 55.17 508.19 54.48 500.59
  C 52.44 477.96 52.98 454.84 54.81 432.20
  Q 61.88 347.84 98.91 274.68
  Q 138.38 196.70 203.85 140.09
  Q 239.28 109.46 281.59 85.78
  Z"
/>
<path fill="#d20bb4" d="
  M 905.50 489.50
  Q 904.49 488.63 903.67 488.53
  A 0.33 0.33 0.0 0 0 903.31 488.94
  Q 906.38 502.44 899.90 514.51
  A 0.92 0.92 0.0 0 1 898.16 514.08
  L 898.09 494.69
  A 0.80 0.80 0.0 0 0 896.91 493.99
  C 895.08 494.99 894.43 496.74 894.16 498.92
  Q 885.45 568.88 859.97 634.60
  Q 853.05 652.44 845.38 669.99
  Q 844.83 671.26 843.94 672.02
  A 0.50 0.50 0.0 0 1 843.14 671.48
  Q 851.95 644.75 860.24 617.96
  C 861.22 614.82 859.48 612.06 857.06 609.72
  C 845.22 598.23 833.03 586.17 818.67 577.95
  Q 805.59 570.45 791.30 565.41
  Q 760.06 554.37 751.66 551.86
  Q 734.67 546.78 722.73 536.02
  Q 718.86 532.54 708.34 521.41
  Q 693.82 506.05 678.56 491.47
  C 680.65 480.44 681.82 466.93 678.92 456.00
  C 677.15 449.32 673.16 448.84 666.23 446.81
  C 659.28 444.78 652.83 442.30 645.21 442.36
  L 644.75 441.48
  Q 644.52 441.03 644.05 440.85
  Q 639.00 438.95 633.74 437.75
  Q 616.06 433.72 598.15 430.95
  C 574.18 427.25 548.97 427.22 524.89 428.97
  A 1.02 1.02 0.0 0 1 523.80 427.80
  C 524.57 422.63 521.09 423.81 517.96 422.87
  A 1.08 1.07 27.0 0 1 517.41 421.20
  C 528.24 406.82 531.53 391.37 521.47 375.26
  Q 518.91 371.17 516.43 367.49
  A 3.26 3.24 40.7 0 1 516.18 364.28
  C 517.20 362.13 519.39 361.33 521.57 360.32
  Q 526.46 358.03 531.33 355.69
  Q 533.36 354.72 533.93 353.49
  C 534.90 351.42 534.11 348.19 531.49 347.58
  Q 530.17 347.28 525.75 347.11
  Q 461.37 344.63 397.00 342.10
  Q 395.64 342.05 391.86 341.35
  Q 391.16 341.22 391.79 340.88
  L 392.02 340.76
  A 0.10 0.09 27.7 0 0 391.96 340.58
  Q 389.22 340.88 388.42 339.49
  Q 520.47 339.15 652.44 339.22
  C 662.46 339.23 670.15 338.42 676.15 331.14
  C 682.76 323.10 682.65 311.12 678.81 301.62
  C 677.00 297.14 675.52 293.75 670.76 293.01
  C 662.04 291.65 647.47 289.13 635.30 289.21
  C 635.64 287.66 634.19 286.93 633.64 285.82
  C 631.83 282.18 630.84 278.73 626.52 276.87
  Q 623.83 275.72 616.50 275.68
  Q 555.61 275.34 494.74 273.36
  Q 462.59 272.31 426.00 269.90
  C 422.10 269.64 423.49 265.19 426.15 264.37
  A 0.58 0.57 39.9 0 0 426.05 263.25
  L 405.00 260.60
  A 0.89 0.89 0.0 0 1 404.65 258.96
  L 406.78 257.69
  A 1.16 1.16 0.0 0 0 406.69 255.65
  Q 391.96 248.35 376.74 241.44
  Q 374.55 240.45 374.36 243.07
  A 0.82 0.81 -0.8 0 1 373.63 243.82
  Q 372.26 243.97 370.75 243.07
  Q 348.72 229.92 326.79 216.60
  C 312.27 207.78 299.48 203.76 282.74 205.39
  C 273.01 206.33 262.14 207.86 253.39 207.57
  C 249.90 207.46 225.05 206.65 233.31 197.29
  Q 249.21 179.25 265.07 161.17
  Q 265.47 160.70 265.43 160.42
  A 0.79 0.79 0.0 0 0 264.43 159.79
  Q 251.97 163.39 241.59 171.06
  Q 240.72 171.71 239.94 171.82
  A 2.00 2.00 0.0 0 1 237.66 169.58
  C 238.19 165.50 243.12 166.14 244.05 163.39
  Q 244.60 161.79 243.13 160.69
  A 1.85 1.84 52.2 0 0 241.32 160.46
  L 228.38 165.79
  A 1.04 1.04 0.0 0 1 227.38 165.68
  Q 226.11 164.81 227.46 163.68
  Q 236.32 156.29 245.08 148.80
  Q 275.86 138.17 301.00 123.94
  Q 307.43 120.30 331.89 105.38
  C 352.46 92.84 376.13 90.10 399.74 93.31
  Q 401.04 93.49 401.79 93.89
  A 0.85 0.85 0.0 0 1 401.77 95.39
  L 391.28 100.71
  A 0.37 0.37 0.0 0 0 391.37 101.40
  Q 394.13 102.02 396.76 101.82
  Q 444.85 98.25 498.50 95.80
  Q 513.22 95.13 527.24 98.04
  Q 532.30 99.09 544.49 103.34
  Q 560.66 108.98 577.39 112.63
  Q 593.90 116.23 596.89 117.02
  C 634.68 127.07 671.14 143.31 703.45 165.44
  Q 759.16 203.62 806.67 254.33
  C 808.78 256.58 809.48 257.73 809.85 261.01
  C 810.12 263.38 810.23 265.39 811.54 267.51
  C 829.25 296.24 847.57 327.57 866.32 355.94
  Q 904.80 414.15 903.23 483.98
  C 903.17 486.43 904.03 487.74 905.50 489.50
  Z"
/>
<path fill="#f8cbfc" d="
  M 826.28 192.47
  Q 830.45 198.18 834.92 203.60
  Q 840.23 210.04 843.55 214.74
  Q 847.59 220.43 851.65 226.10
  Q 855.99 232.17 859.45 237.64
  Q 867.41 250.24 872.00 258.24
  C 874.46 262.53 878.04 269.70 881.46 275.83
  Q 883.83 280.07 885.15 284.70
  Q 866.79 247.28 841.81 214.13
  Q 833.96 203.71 825.90 193.40
  Q 826.19 193.36 826.28 192.47
  Z"
/>
<path fill="#ffffff" d="
  M 635.30 289.21
  C 647.47 289.13 662.04 291.65 670.76 293.01
  C 675.52 293.75 677.00 297.14 678.81 301.62
  C 682.65 311.12 682.76 323.10 676.15 331.14
  C 670.15 338.42 662.46 339.23 652.44 339.22
  Q 520.47 339.15 388.42 339.49
  Q 363.34 339.53 338.18 339.47
  C 329.52 339.45 321.19 338.03 312.66 336.84
  Q 306.32 335.96 303.49 331.70
  Q 292.97 315.87 301.57 299.77
  Q 308.34 287.08 324.26 287.27
  Q 479.76 289.19 635.30 289.21
  Z"
/>
<path fill="#f8cbfc" d="
  M 886.96 288.30
  Q 892.67 298.92 896.78 310.22
  Q 898.12 313.88 901.97 323.84
  Q 904.62 330.66 906.38 337.78
  Q 905.86 337.86 906.02 337.94
  Q 897.74 312.76 886.96 288.30
  Z"
/>
<path fill="#9906da" d="
  M 336.22 597.76
  C 319.53 596.52 300.97 599.52 297.96 618.56
  C 294.91 637.79 309.18 648.80 327.00 648.72
  Q 463.78 648.13 601.34 648.27
  Q 595.17 655.64 594.40 663.50
  C 594.14 666.20 595.23 668.06 597.22 670.08
  C 601.52 674.45 605.80 678.75 609.79 683.46
  C 617.66 692.73 625.18 702.47 634.03 710.67
  C 643.68 719.61 654.63 728.97 663.11 737.32
  Q 692.26 766.04 713.99 796.74
  Q 715.83 799.34 713.33 802.09
  Q 688.94 828.93 656.70 845.61
  C 653.43 847.31 652.75 851.85 656.34 853.48
  C 658.27 854.35 660.96 853.62 663.25 853.77
  C 670.67 854.25 671.28 860.01 672.77 865.65
  Q 572.36 909.65 462.99 904.62
  Q 454.22 904.22 443.06 902.97
  Q 427.65 901.23 422.24 900.39
  C 295.20 880.65 186.45 806.58 118.96 697.31
  Q 89.57 649.72 71.87 596.82
  Q 72.72 587.82 76.68 580.29
  C 78.57 576.71 82.02 573.89 84.88 570.82
  C 86.19 569.42 86.09 565.88 85.99 563.54
  Q 84.81 538.29 81.04 518.25
  Q 78.48 504.67 77.08 493.45
  C 74.57 473.37 75.71 453.18 80.07 433.45
  Q 81.53 426.88 85.45 414.18
  C 89.82 400.01 94.32 386.03 98.14 371.59
  Q 104.36 348.11 110.68 324.99
  A 3.02 3.02 0.0 0 1 114.38 322.87
  L 120.90 324.64
  A 1.95 1.95 0.0 0 1 122.34 326.62
  Q 122.27 328.04 123.09 329.13
  A 1.08 1.07 -20.5 0 0 124.02 329.55
  L 128.76 329.22
  A 0.74 0.73 81.0 0 1 129.52 329.78
  Q 129.94 331.49 129.43 333.75
  Q 120.10 375.21 113.46 401.22
  C 111.87 407.47 111.49 415.56 111.41 423.29
  Q 111.25 439.76 110.29 456.03
  A 0.35 0.35 0.0 0 0 110.97 456.19
  Q 114.73 447.39 123.13 443.11
  C 125.25 442.03 128.11 442.49 130.57 443.37
  C 163.61 455.26 190.98 474.34 215.74 499.01
  C 218.49 501.75 223.03 501.10 226.13 502.30
  Q 229.00 503.41 230.58 504.88
  Q 254.01 526.78 276.98 549.59
  A 2.41 2.41 0.0 0 0 278.54 550.28
  Q 280.79 550.41 280.85 548.28
  C 280.92 545.69 277.44 542.29 277.90 540.09
  Q 278.27 538.26 280.48 539.07
  A 1.55 1.45 -15.9 0 1 280.85 539.26
  Q 314.74 562.66 336.22 597.76
  Z"
/>
<path fill="#ffffff" d="
  M 906.38 337.78
  C 908.24 341.29 908.39 344.91 909.85 348.50
  Q 911.12 351.60 911.47 353.71
  C 911.90 356.28 912.01 358.28 913.11 360.81
  Q 914.92 364.98 915.24 369.55
  Q 915.39 371.70 916.20 373.84
  Q 918.00 378.59 918.31 385.38
  C 918.52 389.85 921.24 394.86 921.36 399.81
  Q 921.59 408.74 923.62 417.39
  Q 924.64 421.68 924.73 425.22
  Q 925.01 436.14 925.33 447.02
  L 925.10 447.96
  Q 924.91 448.76 924.88 447.94
  Q 922.85 391.69 906.02 337.94
  Q 905.86 337.86 906.38 337.78
  Z"
/>
<path fill="#ffffff" d="
  M 54.62 431.52
  L 54.81 432.20
  C 52.98 454.84 52.44 477.96 54.48 500.59
  Q 55.17 508.19 55.77 515.79
  C 56.44 524.13 57.86 532.24 59.10 540.47
  Q 63.38 569.04 71.87 596.82
  Q 89.57 649.72 118.96 697.31
  C 186.45 806.58 295.20 880.65 422.24 900.39
  Q 427.65 901.23 443.06 902.97
  Q 454.22 904.22 462.99 904.62
  Q 572.36 909.65 672.77 865.65
  C 738.10 833.05 794.63 788.95 838.74 730.64
  Q 839.22 730.72 839.25 732.29
  Q 821.46 755.04 807.09 770.10
  C 795.58 782.15 784.54 791.39 773.16 801.79
  Q 767.70 806.78 762.79 810.61
  C 758.00 814.34 753.27 818.37 748.41 821.74
  Q 727.86 835.99 721.47 839.90
  Q 691.94 858.02 674.68 866.18
  Q 661.87 872.23 634.05 882.07
  C 631.54 882.96 628.44 883.47 625.72 884.48
  C 621.91 885.88 619.41 886.46 615.96 887.27
  C 613.16 887.93 610.46 889.41 607.35 889.96
  Q 604.21 890.50 602.75 891.03
  C 600.70 891.77 598.96 892.62 596.72 892.86
  Q 591.56 893.40 586.71 895.17
  Q 584.27 896.06 581.68 896.24
  Q 576.08 896.64 570.82 898.54
  Q 568.46 899.40 566.08 899.47
  Q 559.29 899.65 552.79 901.43
  C 543.80 903.88 534.74 902.17 525.67 904.50
  Q 519.49 906.08 511.75 906.12
  Q 484.06 906.23 456.37 906.14
  C 451.64 906.12 446.63 903.68 441.66 903.37
  C 434.62 902.93 427.14 903.20 420.38 901.11
  Q 417.81 900.31 414.51 900.07
  Q 408.14 899.60 399.75 897.21
  C 396.38 896.25 392.05 896.51 387.74 894.96
  C 383.51 893.44 379.19 893.52 375.17 891.71
  C 371.48 890.04 367.78 890.17 364.27 888.80
  C 362.21 888.00 360.58 887.24 358.27 886.88
  C 354.57 886.30 350.92 884.48 347.90 883.56
  Q 341.64 881.64 331.97 877.75
  Q 309.94 868.87 303.38 865.83
  Q 269.83 850.31 242.20 831.78
  Q 225.13 820.32 208.08 805.05
  C 195.64 793.91 184.94 784.24 174.51 772.50
  Q 165.63 762.51 156.68 752.58
  C 151.92 747.30 146.74 739.78 143.79 735.91
  Q 125.54 711.96 110.68 685.75
  Q 108.51 681.93 103.04 671.93
  Q 99.25 665.01 95.88 657.84
  Q 90.21 645.80 87.80 640.51
  Q 84.69 633.69 81.54 625.52
  Q 81.39 625.13 79.22 620.53
  C 78.13 618.22 77.76 615.77 76.77 613.55
  Q 75.17 609.95 74.21 606.13
  C 73.65 603.91 72.00 601.76 71.63 599.87
  Q 70.91 596.15 69.62 592.60
  C 68.31 589.03 68.26 585.25 66.86 581.62
  Q 65.64 578.49 65.25 576.19
  C 64.35 570.87 62.54 565.74 61.85 560.63
  Q 61.05 554.67 60.59 552.88
  Q 58.18 543.40 57.64 536.12
  Q 57.42 533.09 56.52 529.97
  C 53.80 520.52 55.18 510.17 53.87 500.52
  C 51.32 481.77 51.39 462.33 52.32 444.25
  Q 52.61 438.56 54.62 431.52
  Z"
/>
<path fill="#ffffff" d="
  M 645.21 442.36
  C 652.83 442.30 659.28 444.78 666.23 446.81
  C 673.16 448.84 677.15 449.32 678.92 456.00
  C 681.82 466.93 680.65 480.44 678.56 491.47
  Q 514.28 495.47 350.00 493.91
  Q 338.03 493.79 326.07 493.54
  Q 317.89 493.36 313.64 491.86
  C 292.08 484.22 291.26 453.93 314.04 446.34
  Q 319.83 444.40 326.00 444.46
  Q 485.62 445.86 645.21 442.36
  Z"
/>
<path fill="#ffffff" d="
  M 924.84 491.50
  Q 925.09 503.92 924.57 516.29
  Q 924.45 519.31 923.37 523.60
  C 921.87 529.58 921.81 534.96 921.43 541.03
  Q 921.27 543.68 920.14 547.10
  C 918.52 552.03 918.68 556.87 917.00 561.66
  Q 915.40 566.23 914.81 571.05
  Q 914.56 573.09 913.55 575.27
  C 911.82 578.99 912.00 582.60 910.51 586.28
  Q 908.95 590.12 908.32 594.21
  C 907.86 597.20 906.30 599.35 905.68 602.17
  Q 905.03 605.11 903.90 607.90
  Q 902.56 611.18 901.90 613.52
  Q 900.54 618.32 898.50 622.95
  Q 897.61 622.94 897.63 622.52
  Q 911.87 583.86 920.02 543.43
  Q 920.53 540.92 920.64 538.52
  Q 920.78 535.72 920.78 533.57
  Q 924.45 512.51 924.84 491.50
  Z"
/>
<path fill="#f8cbfc" d="
  M 336.22 597.76
  Q 493.00 597.83 651.48 597.76
  C 659.90 597.76 669.09 600.83 674.90 607.07
  C 689.46 622.66 679.55 647.38 657.75 647.66
  Q 629.15 648.03 601.34 648.27
  Q 463.78 648.13 327.00 648.72
  C 309.18 648.80 294.91 637.79 297.96 618.56
  C 300.97 599.52 319.53 596.52 336.22 597.76
  Z"
/>
<path fill="#f8cbfc" d="
  M 897.63 622.52
  Q 897.61 622.94 898.50 622.95
  Q 896.16 629.66 893.26 636.07
  C 892.54 637.66 892.01 639.59 891.18 641.47
  Q 884.37 656.98 878.44 668.71
  Q 861.56 702.18 839.25 732.29
  Q 839.22 730.72 838.74 730.64
  Q 866.08 693.61 885.35 651.87
  C 889.43 643.02 893.53 632.31 897.63 622.52
  Z"
/>
</svg>
