<?xml version="1.0" encoding="UTF-8" standalone="no"?>
<!DOCTYPE svg PUBLIC "-//W3C//DTD SVG 1.1//EN" "http://www.w3.org/Graphics/SVG/1.1/DTD/svg11.dtd">
<svg xmlns="http://www.w3.org/2000/svg" version="1.1" viewBox="0.00 0.00 85.00 91.00">
<g stroke-width="2.00" fill="none" stroke-linecap="butt">
<path stroke="#cbdde1" vector-effect="non-scaling-stroke" d="
  M 83.46 47.76
  A 39.92 39.92 0.0 0 0 43.54 7.84
  A 39.92 39.92 0.0 0 0 3.62 47.76
  A 39.92 39.92 0.0 0 0 43.54 87.68
  A 39.92 39.92 0.0 0 0 83.46 47.76"
/>
<path stroke="#c8d8d8" vector-effect="non-scaling-stroke" d="
  M 20.08 71.73
  L 20.68 73.13
  Q 20.89 73.63 21.43 73.63
  L 37.04 73.59"
/>
<path stroke="#576666" vector-effect="non-scaling-stroke" d="
  M 37.04 73.59
  Q 38.17 73.88 38.83 73.18"
/>
<path stroke="#beb78c" vector-effect="non-scaling-stroke" d="
  M 38.83 73.18
  L 50.52 74.14
  Q 50.98 74.18 51.35 73.92
  Q 52.13 73.37 53.13 73.25"
/>
<path stroke="#576666" vector-effect="non-scaling-stroke" d="
  M 53.13 73.25
  Q 53.65 73.57 53.94 73.37"
/>
<path stroke="#c8d8d8" vector-effect="non-scaling-stroke" d="
  M 53.94 73.37
  Q 56.55 74.16 59.38 73.34"
/>
<path stroke="#576666" vector-effect="non-scaling-stroke" d="
  M 59.38 73.34
  Q 60.15 73.77 60.96 73.82"
/>
<path stroke="#c8d8d8" vector-effect="non-scaling-stroke" d="
  M 60.96 73.82
  Q 63.19 74.23 65.26 73.53"
/>
<path stroke="#576666" vector-effect="non-scaling-stroke" d="
  M 65.26 73.53
  Q 66.66 73.40 66.01 70.62
  C 65.04 66.41 65.88 60.73 65.72 56.23
  Q 65.70 55.71 66.17 55.48
  C 71.13 53.07 68.67 50.12 69.60 46.21"
/>
<path stroke="#c8d8d8" vector-effect="non-scaling-stroke" d="
  M 69.60 46.21
  Q 72.00 38.56 66.39 37.38"
/>
<path stroke="#576666" vector-effect="non-scaling-stroke" d="
  M 66.39 37.38
  Q 67.04 35.42 65.00 34.53
  Q 64.04 34.11 63.58 35.18"
/>
<path stroke="#c8d8d8" vector-effect="non-scaling-stroke" d="
  M 63.58 35.18
  Q 60.22 28.70 52.34 30.62"
/>
<path stroke="#576666" vector-effect="non-scaling-stroke" d="
  M 52.34 30.62
  Q 50.68 28.49 48.37 31.13"
/>
<path stroke="#c8d8d8" vector-effect="non-scaling-stroke" d="
  M 48.37 31.13
  Q 44.03 30.90 40.60 27.39"
/>
<path stroke="#576666" vector-effect="non-scaling-stroke" d="
  M 40.60 27.39
  Q 41.53 25.88 43.35 24.68
  C 45.64 23.15 46.46 21.72 47.96 19.68
  Q 48.16 19.42 47.81 19.25
  A 0.35 0.34 -55.9 0 0 47.42 19.33
  Q 43.40 23.88 38.56 27.62
  Q 38.10 27.98 37.77 27.50
  Q 36.22 25.29 33.60 26.51
  Q 33.09 26.75 32.61 26.46
  Q 27.43 23.27 23.82 27.99
  A 0.80 0.79 49.8 0 0 23.75 28.86
  L 24.71 30.60
  Q 24.95 31.04 24.60 31.41
  C 23.32 32.78 21.27 33.37 20.58 34.98
  C 19.71 37.02 21.05 40.87 21.61 43.07
  A 1.31 1.28 53.5 0 1 21.48 44.01
  C 16.92 52.00 18.21 63.93 19.32 72.88
  A 0.43 0.43 0.0 0 0 20.00 73.17
  Q 20.43 72.84 20.08 71.73"
/>
<path stroke="#89837c" vector-effect="non-scaling-stroke" d="
  M 40.60 27.39
  Q 38.78 29.36 39.24 32.96
  A 1.18 1.18 0.0 0 0 40.81 33.92
  C 42.95 33.14 44.40 34.13 46.11 35.26
  Q 49.47 37.47 53.52 34.67"
/>
<path stroke="#5b544b" vector-effect="non-scaling-stroke" d="
  M 53.52 34.67
  Q 53.69 34.74 53.78 34.84
  Q 54.07 35.13 53.74 35.39
  Q 51.13 37.41 47.78 36.86
  A 0.82 0.81 -68.9 0 0 46.96 37.23
  C 45.35 39.84 42.95 40.24 40.50 38.54
  C 37.13 36.21 34.00 38.16 30.39 38.95
  A 1.01 1.00 62.0 0 1 29.45 38.66
  L 27.22 36.32
  A 0.97 0.94 -20.9 0 0 26.52 36.02
  Q 24.92 36.03 23.81 34.65
  A 1.64 1.64 0.0 0 0 20.96 36.16
  Q 22.76 42.08 21.53 46.60"
/>
<path stroke="#89837c" vector-effect="non-scaling-stroke" d="
  M 21.53 46.60
  C 17.93 54.43 19.41 64.36 20.08 71.73"
/>
<path stroke="#5b544b" vector-effect="non-scaling-stroke" d="
  M 60.09 36.07
  Q 59.62 38.90 59.83 41.21
  C 60.04 43.64 61.65 45.22 62.94 47.30"
/>
<path stroke="#cdc7bd" vector-effect="non-scaling-stroke" d="
  M 62.94 47.30
  Q 56.83 49.51 50.74 46.22"
/>
<path stroke="#5b544b" vector-effect="non-scaling-stroke" d="
  M 50.74 46.22
  Q 52.53 46.23 51.23 44.72
  Q 50.89 44.33 50.38 44.40
  Q 49.13 44.57 48.50 45.63"
/>
<path stroke="#cdc7bd" vector-effect="non-scaling-stroke" d="
  M 48.50 45.63
  Q 46.62 44.07 44.84 45.28"
/>
<path stroke="#5b544b" vector-effect="non-scaling-stroke" d="
  M 44.84 45.28
  Q 44.82 45.07 44.76 44.90
  Q 44.59 44.46 44.13 44.55
  L 43.39 44.69"
/>
<path stroke="#cdc7bd" vector-effect="non-scaling-stroke" d="
  M 43.39 44.69
  Q 44.23 43.45 43.34 42.54
  Q 42.97 42.17 42.45 42.23
  Q 39.03 42.65 38.39 45.07"
/>
<path stroke="#5b544b" vector-effect="non-scaling-stroke" d="
  M 38.39 45.07
  Q 34.46 43.35 35.04 46.58"
/>
<path stroke="#cdc7bd" vector-effect="non-scaling-stroke" d="
  M 35.04 46.58
  L 29.66 48.42"
/>
<path stroke="#787168" vector-effect="non-scaling-stroke" d="
  M 29.66 48.42
  L 27.49 47.30
  Q 26.98 47.04 26.97 47.61
  L 26.94 48.69
  A 0.35 0.35 0.0 0 1 26.36 48.95
  Q 25.60 48.28 25.98 47.28
  Q 26.17 46.77 26.00 46.26
  L 25.74 45.48
  A 0.38 0.38 0.0 0 0 25.01 45.52
  Q 24.59 47.42 23.15 47.97"
/>
<path stroke="#cdc7bd" vector-effect="non-scaling-stroke" d="
  M 23.15 47.97
  Q 22.21 47.53 21.53 46.60"
/>
<path stroke="#89837c" vector-effect="non-scaling-stroke" d="
  M 43.39 44.69
  Q 42.25 45.72 43.13 47.88
  A 0.88 0.87 54.9 0 1 42.98 48.78
  Q 41.59 50.34 39.52 50.26
  Q 39.08 50.24 39.24 50.66
  Q 40.83 54.80 44.76 53.24
  Q 45.70 52.87 47.93 50.70
  Q 48.29 50.34 47.79 50.23
  L 44.34 49.51
  A 0.63 0.63 0.0 0 1 43.86 48.72
  L 44.84 45.28"
/>
<path stroke="#89837c" vector-effect="non-scaling-stroke" d="
  M 48.50 45.63
  Q 49.19 46.59 50.74 46.22"
/>
<path stroke="#89837c" vector-effect="non-scaling-stroke" d="
  M 60.96 73.82
  Q 59.68 71.43 57.55 69.88
  Q 57.17 69.60 57.18 69.14
  L 57.30 64.77
  A 1.30 1.29 67.0 0 1 57.64 63.92
  L 59.14 62.29
  A 0.93 0.92 -37.5 0 0 59.28 61.26
  Q 56.30 55.23 50.23 54.46
  Q 48.61 54.26 47.66 56.11
  A 1.48 1.46 -85.5 0 1 46.85 56.81
  Q 40.80 59.00 38.67 65.03
  A 0.86 0.86 0.0 0 1 37.93 65.61
  C 33.50 66.01 33.01 70.47 27.62 68.29
  A 0.43 0.43 0.0 0 0 27.05 68.55
  Q 26.99 68.76 27.07 68.97
  Q 27.18 69.24 27.59 69.42
  Q 32.11 71.35 35.41 67.70
  Q 36.67 66.31 38.67 67.03
  A 0.87 0.85 3.8 0 1 39.23 67.66
  Q 39.90 70.77 37.04 73.59"
/>
<path stroke="#a59f99" vector-effect="non-scaling-stroke" d="
  M 23.15 47.97
  L 26.49 50.49
  Q 26.95 50.84 27.26 50.35
  Q 28.09 49.06 29.66 48.42"
/>
<path stroke="#89837c" vector-effect="non-scaling-stroke" d="
  M 35.04 46.58
  Q 38.96 47.59 38.39 45.07"
/>
<path stroke="#89837c" vector-effect="non-scaling-stroke" d="
  M 48.37 31.13
  Q 48.86 32.72 49.75 32.72
  Q 51.37 32.71 52.34 30.62"
/>
<path stroke="#89837c" vector-effect="non-scaling-stroke" d="
  M 63.58 35.18
  Q 63.18 36.17 63.41 36.95
  Q 63.68 37.85 64.62 37.87
  Q 65.39 37.88 66.39 37.38"
/>
<path stroke="#89837c" vector-effect="non-scaling-stroke" d="
  M 69.60 46.21
  L 66.08 44.96
  A 0.35 0.35 0.0 0 0 65.63 45.17
  L 65.52 45.47
  Q 65.31 46.03 65.90 46.13
  Q 67.42 46.38 68.02 47.69
  A 0.65 0.65 0.0 0 1 67.55 48.60
  C 64.97 49.07 62.38 44.60 60.94 42.81
  Q 60.59 42.37 60.70 41.83
  Q 61.38 38.48 60.09 36.07"
/>
<path stroke="#cdc7bd" vector-effect="non-scaling-stroke" d="
  M 60.09 36.07
  Q 58.87 36.83 57.85 35.84
  Q 57.33 35.34 57.92 34.92
  L 59.31 33.94
  A 0.54 0.53 -38.9 0 0 59.40 33.15
  Q 58.36 32.01 56.70 32.43
  Q 56.24 32.55 56.29 33.03
  L 56.47 34.78
  A 0.61 0.61 0.0 0 1 55.91 35.45
  Q 55.04 35.52 54.53 34.80
  Q 54.30 34.49 53.92 34.47
  Q 53.50 34.46 53.52 34.67"
/>
<path stroke="#89837c" vector-effect="non-scaling-stroke" d="
  M 65.26 73.53
  Q 64.15 66.33 64.97 58.99
  C 65.35 55.54 63.21 55.90 61.96 53.96
  Q 61.17 52.73 61.75 51.49
  Q 63.23 48.33 62.94 47.30"
/>
<path stroke="#89837c" vector-effect="non-scaling-stroke" d="
  M 59.38 73.34
  Q 58.32 71.53 56.77 70.69
  Q 56.32 70.45 55.83 70.61
  Q 53.97 71.23 53.94 73.37"
/>
<path stroke="#7e6230" vector-effect="non-scaling-stroke" d="
  M 53.13 73.25
  Q 53.08 70.80 55.76 69.22
  A 0.98 0.97 71.6 0 0 56.23 68.27
  Q 55.88 65.02 56.83 62.56"
/>
<path stroke="#817040" vector-effect="non-scaling-stroke" d="
  M 56.83 62.56
  Q 58.91 61.72 57.69 60.31
  Q 55.11 57.32 51.08 55.70
  A 1.84 1.83 -68.2 0 0 48.69 56.73
  Q 48.51 57.18 48.81 57.40"
/>
<path stroke="#7e6230" vector-effect="non-scaling-stroke" d="
  M 48.81 57.40
  Q 41.83 58.94 39.48 65.42
  Q 39.31 65.91 39.56 66.36
  Q 41.67 70.25 38.83 73.18"
/>
<path stroke="#7e6230" vector-effect="non-scaling-stroke" d="
  M 49.59 58.02
  L 55.13 61.94
  Q 55.45 62.17 55.75 61.91
  Q 55.96 61.73 55.90 61.55"
/>
<path stroke="#e8c265" vector-effect="non-scaling-stroke" d="
  M 56.83 62.56
  L 55.90 61.55"
/>
<path stroke="#817040" vector-effect="non-scaling-stroke" d="
  M 55.90 61.55
  Q 53.18 58.76 49.59 58.02"
/>
<path stroke="#e8c265" vector-effect="non-scaling-stroke" d="
  M 49.59 58.02
  Q 49.25 57.93 48.81 57.40"
/>
<path stroke="#576666" vector-effect="non-scaling-stroke" d="
  M 63.88 25.87
  Q 67.26 26.37 69.56 23.08
  A 0.26 0.25 -0.3 0 0 69.20 22.73
  L 65.76 25.12
  A 0.81 0.79 39.3 0 1 64.97 25.19
  L 61.23 23.53
  Q 60.70 23.30 60.13 23.29
  Q 55.93 23.19 54.56 19.20
  A 0.38 0.37 -61.7 0 0 53.84 19.42
  Q 55.10 24.45 60.25 24.31
  Q 60.70 24.29 61.09 24.53
  Q 63.09 25.76 63.88 25.87"
/>
<path stroke="#576666" vector-effect="non-scaling-stroke" d="
  M 56.81 27.26
  Q 58.02 26.61 58.28 25.21
  A 0.39 0.39 0.0 0 0 57.58 24.91
  L 55.44 27.93
  A 0.40 0.40 0.0 0 0 56.03 28.46
  Q 56.26 28.25 56.31 27.95
  Q 56.39 27.48 56.81 27.26"
/>
<path stroke="#738283" vector-effect="non-scaling-stroke" d="
  M 61.62 28.71
  L 61.62 27.51
  Q 61.62 26.62 61.14 27.37
  Q 60.55 28.29 60.99 29.29
  A 0.65 0.65 0.0 0 0 61.94 29.58
  Q 62.68 29.10 62.59 28.29
  A 0.17 0.17 0.0 0 0 62.26 28.24
  L 62.00 28.80
  Q 61.62 29.62 61.62 28.71"
/>
<path stroke="#817040" vector-effect="non-scaling-stroke" d="
  M 27.10 35.41
  Q 28.52 35.68 29.66 37.38
  Q 30.03 37.92 30.64 37.70
  L 35.91 35.74
  A 1.89 1.71 53.4 0 0 36.21 32.64
  Q 35.50 32.04 35.82 30.74"
/>
<path stroke="#89837c" vector-effect="non-scaling-stroke" d="
  M 35.82 30.74
  L 36.66 29.06
  A 0.92 0.92 0.0 0 0 36.50 28.01
  Q 35.10 26.55 33.37 27.87
  A 0.75 0.75 0.0 0 1 32.39 27.82
  Q 28.85 24.40 25.39 27.64
  A 1.39 1.38 31.3 0 0 25.96 29.98
  Q 26.73 30.20 27.88 30.59
  Q 28.77 30.90 28.26 31.94
  Q 28.07 32.36 27.64 32.19
  Q 25.75 31.46 24.32 32.78
  Q 23.87 33.19 24.18 33.72
  Q 24.95 35.04 27.10 35.41"
/>
<path stroke="#f3e3b2" vector-effect="non-scaling-stroke" d="
  M 35.82 30.74
  Q 32.60 34.78 27.10 35.41"
/>
<path stroke="#342d27" vector-effect="non-scaling-stroke" d="
  M 37.32 30.15
  Q 36.34 31.17 37.34 32.10
  A 0.30 0.30 0.0 0 0 37.84 31.88
  L 37.84 30.36
  A 0.30 0.30 0.0 0 0 37.32 30.15"
/>
<path stroke="#89837c" vector-effect="non-scaling-stroke" d="
  M 39.26 35.52
  L 38.79 34.48
  Q 38.41 33.63 37.94 34.43
  L 37.34 35.43
  A 0.57 0.56 -81.7 0 0 37.96 36.27
  L 38.79 36.06
  Q 39.24 35.94 39.55 36.28
  C 41.12 38.00 44.33 39.99 45.76 37.13
  Q 45.97 36.70 45.61 36.38
  Q 43.03 34.15 39.94 35.76
  A 0.50 0.49 -25.4 0 1 39.26 35.52"
/>
<path stroke="#89837c" vector-effect="non-scaling-stroke" d="
  M 64.06 49.81
  Q 62.36 51.68 62.96 53.43
  A 1.98 1.98 0.0 0 0 65.79 54.52
  Q 68.64 52.94 68.41 49.85
  Q 68.37 49.27 67.82 49.45
  Q 66.72 49.80 66.30 50.81"
/>
<path stroke="#5b544b" vector-effect="non-scaling-stroke" d="
  M 66.30 50.81
  Q 65.87 50.65 65.86 50.50
  Q 65.83 50.08 65.92 49.98
  A 0.71 0.71 0.0 0 0 65.22 48.81
  Q 64.12 49.07 64.06 49.81"
/>
<path stroke="#cdc7bd" vector-effect="non-scaling-stroke" d="
  M 66.30 50.81
  Q 65.78 51.40 65.24 51.04
  Q 65.04 50.90 64.79 50.34
  Q 64.51 49.71 64.06 49.81"
/>
<path stroke="#a59f99" vector-effect="non-scaling-stroke" d="
  M 28.19 51.47
  A 0.31 0.31 0.0 0 0 27.65 51.63
  L 27.12 55.79
  A 0.31 0.31 0.0 0 0 27.25 56.08
  L 29.03 57.34
  A 0.31 0.31 0.0 0 0 29.43 57.30
  L 31.27 55.42
  A 0.31 0.31 0.0 0 0 31.28 54.99
  L 28.19 51.47"
/>
<path stroke="#89837c" vector-effect="non-scaling-stroke" d="
  M 45.0326 50.8968
  A 1.74 0.94 -13.4 0 0 43.1222 50.3856
  A 1.74 0.94 -13.4 0 0 41.6474 51.7032
  A 1.74 0.94 -13.4 0 0 43.5578 52.2144
  A 1.74 0.94 -13.4 0 0 45.0326 50.8968"
/>
<path stroke="#738283" vector-effect="non-scaling-stroke" d="
  M 29.2096 55.8029
  A 0.95 0.74 79.1 0 0 29.7566 54.7301
  A 0.95 0.74 79.1 0 0 28.8504 53.9371
  A 0.95 0.74 79.1 0 0 28.3034 55.0099
  A 0.95 0.74 79.1 0 0 29.2096 55.8029"
/>
<path stroke="#7e6230" vector-effect="non-scaling-stroke" d="
  M 49.10 61.60
  A 1.04 1.04 0.0 0 0 48.06 60.56
  A 1.04 1.04 0.0 0 0 47.02 61.60
  A 1.04 1.04 0.0 0 0 48.06 62.64
  A 1.04 1.04 0.0 0 0 49.10 61.60"
/>
<path stroke="#7e6230" vector-effect="non-scaling-stroke" d="
  M 50.07 71.46
  L 48.19 70.20
  Q 47.60 69.80 48.09 69.28
  L 49.40 67.89
  Q 49.73 67.54 49.28 67.38
  Q 47.65 66.77 47.27 68.48
  Q 46.54 71.77 50.32 72.47
  Q 50.70 72.54 50.94 72.24
  L 52.46 70.37
  Q 52.72 70.05 52.53 69.69
  L 52.36 69.38
  A 0.39 0.39 0.0 0 0 51.65 69.44
  L 51.10 71.11
  Q 50.81 71.96 50.07 71.46"
/>
</g>
<path fill="#ffffff" d="
  M 0.00 0.00
  L 85.00 0.00
  L 85.00 91.00
  L 0.00 91.00
  L 0.00 0.00
  Z
  M 83.46 47.76
  A 39.92 39.92 0.0 0 0 43.54 7.84
  A 39.92 39.92 0.0 0 0 3.62 47.76
  A 39.92 39.92 0.0 0 0 43.54 87.68
  A 39.92 39.92 0.0 0 0 83.46 47.76
  Z"
/>
<path fill="#96bbc2" d="
  M 83.46 47.76
  A 39.92 39.92 0.0 0 1 43.54 87.68
  A 39.92 39.92 0.0 0 1 3.62 47.76
  A 39.92 39.92 0.0 0 1 43.54 7.84
  A 39.92 39.92 0.0 0 1 83.46 47.76
  Z
  M 20.08 71.73
  L 20.68 73.13
  Q 20.89 73.63 21.43 73.63
  L 37.04 73.59
  Q 38.17 73.88 38.83 73.18
  L 50.52 74.14
  Q 50.98 74.18 51.35 73.92
  Q 52.13 73.37 53.13 73.25
  Q 53.65 73.57 53.94 73.37
  Q 56.55 74.16 59.38 73.34
  Q 60.15 73.77 60.96 73.82
  Q 63.19 74.23 65.26 73.53
  Q 66.66 73.40 66.01 70.62
  C 65.04 66.41 65.88 60.73 65.72 56.23
  Q 65.70 55.71 66.17 55.48
  C 71.13 53.07 68.67 50.12 69.60 46.21
  Q 72.00 38.56 66.39 37.38
  Q 67.04 35.42 65.00 34.53
  Q 64.04 34.11 63.58 35.18
  Q 60.22 28.70 52.34 30.62
  Q 50.68 28.49 48.37 31.13
  Q 44.03 30.90 40.60 27.39
  Q 41.53 25.88 43.35 24.68
  C 45.64 23.15 46.46 21.72 47.96 19.68
  Q 48.16 19.42 47.81 19.25
  A 0.35 0.34 -55.9 0 0 47.42 19.33
  Q 43.40 23.88 38.56 27.62
  Q 38.10 27.98 37.77 27.50
  Q 36.22 25.29 33.60 26.51
  Q 33.09 26.75 32.61 26.46
  Q 27.43 23.27 23.82 27.99
  A 0.80 0.79 49.8 0 0 23.75 28.86
  L 24.71 30.60
  Q 24.95 31.04 24.60 31.41
  C 23.32 32.78 21.27 33.37 20.58 34.98
  C 19.71 37.02 21.05 40.87 21.61 43.07
  A 1.31 1.28 53.5 0 1 21.48 44.01
  C 16.92 52.00 18.21 63.93 19.32 72.88
  A 0.43 0.43 0.0 0 0 20.00 73.17
  Q 20.43 72.84 20.08 71.73
  Z
  M 63.88 25.87
  Q 67.26 26.37 69.56 23.08
  A 0.26 0.25 -0.3 0 0 69.20 22.73
  L 65.76 25.12
  A 0.81 0.79 39.3 0 1 64.97 25.19
  L 61.23 23.53
  Q 60.70 23.30 60.13 23.29
  Q 55.93 23.19 54.56 19.20
  A 0.38 0.37 -61.7 0 0 53.84 19.42
  Q 55.10 24.45 60.25 24.31
  Q 60.70 24.29 61.09 24.53
  Q 63.09 25.76 63.88 25.87
  Z
  M 56.81 27.26
  Q 58.02 26.61 58.28 25.21
  A 0.39 0.39 0.0 0 0 57.58 24.91
  L 55.44 27.93
  A 0.40 0.40 0.0 0 0 56.03 28.46
  Q 56.26 28.25 56.31 27.95
  Q 56.39 27.48 56.81 27.26
  Z
  M 61.62 28.71
  L 61.62 27.51
  Q 61.62 26.62 61.14 27.37
  Q 60.55 28.29 60.99 29.29
  A 0.65 0.65 0.0 0 0 61.94 29.58
  Q 62.68 29.10 62.59 28.29
  A 0.17 0.17 0.0 0 0 62.26 28.24
  L 62.00 28.80
  Q 61.62 29.62 61.62 28.71
  Z"
/>
<path fill="#17100a" d="
  M 40.60 27.39
  Q 38.78 29.36 39.24 32.96
  A 1.18 1.18 0.0 0 0 40.81 33.92
  C 42.95 33.14 44.40 34.13 46.11 35.26
  Q 49.47 37.47 53.52 34.67
  Q 53.69 34.74 53.78 34.84
  Q 54.07 35.13 53.74 35.39
  Q 51.13 37.41 47.78 36.86
  A 0.82 0.81 -68.9 0 0 46.96 37.23
  C 45.35 39.84 42.95 40.24 40.50 38.54
  C 37.13 36.21 34.00 38.16 30.39 38.95
  A 1.01 1.00 62.0 0 1 29.45 38.66
  L 27.22 36.32
  A 0.97 0.94 -20.9 0 0 26.52 36.02
  Q 24.92 36.03 23.81 34.65
  A 1.64 1.64 0.0 0 0 20.96 36.16
  Q 22.76 42.08 21.53 46.60
  C 17.93 54.43 19.41 64.36 20.08 71.73
  Q 20.43 72.84 20.00 73.17
  A 0.43 0.43 0.0 0 1 19.32 72.88
  C 18.21 63.93 16.92 52.00 21.48 44.01
  A 1.31 1.28 53.5 0 0 21.61 43.07
  C 21.05 40.87 19.71 37.02 20.58 34.98
  C 21.27 33.37 23.32 32.78 24.60 31.41
  Q 24.95 31.04 24.71 30.60
  L 23.75 28.86
  A 0.80 0.79 49.8 0 1 23.82 27.99
  Q 27.43 23.27 32.61 26.46
  Q 33.09 26.75 33.60 26.51
  Q 36.22 25.29 37.77 27.50
  Q 38.10 27.98 38.56 27.62
  Q 43.40 23.88 47.42 19.33
  A 0.35 0.34 -55.9 0 1 47.81 19.25
  Q 48.16 19.42 47.96 19.68
  C 46.46 21.72 45.64 23.15 43.35 24.68
  Q 41.53 25.88 40.60 27.39
  Z
  M 27.10 35.41
  Q 28.52 35.68 29.66 37.38
  Q 30.03 37.92 30.64 37.70
  L 35.91 35.74
  A 1.89 1.71 53.4 0 0 36.21 32.64
  Q 35.50 32.04 35.82 30.74
  L 36.66 29.06
  A 0.92 0.92 0.0 0 0 36.50 28.01
  Q 35.10 26.55 33.37 27.87
  A 0.75 0.75 0.0 0 1 32.39 27.82
  Q 28.85 24.40 25.39 27.64
  A 1.39 1.38 31.3 0 0 25.96 29.98
  Q 26.73 30.20 27.88 30.59
  Q 28.77 30.90 28.26 31.94
  Q 28.07 32.36 27.64 32.19
  Q 25.75 31.46 24.32 32.78
  Q 23.87 33.19 24.18 33.72
  Q 24.95 35.04 27.10 35.41
  Z
  M 37.32 30.15
  Q 36.34 31.17 37.34 32.10
  A 0.30 0.30 0.0 0 0 37.84 31.88
  L 37.84 30.36
  A 0.30 0.30 0.0 0 0 37.32 30.15
  Z
  M 39.26 35.52
  L 38.79 34.48
  Q 38.41 33.63 37.94 34.43
  L 37.34 35.43
  A 0.57 0.56 -81.7 0 0 37.96 36.27
  L 38.79 36.06
  Q 39.24 35.94 39.55 36.28
  C 41.12 38.00 44.33 39.99 45.76 37.13
  Q 45.97 36.70 45.61 36.38
  Q 43.03 34.15 39.94 35.76
  A 0.50 0.49 -25.4 0 1 39.26 35.52
  Z"
/>
<path fill="#17100a" d="
  M 63.88 25.87
  Q 63.09 25.76 61.09 24.53
  Q 60.70 24.29 60.25 24.31
  Q 55.10 24.45 53.84 19.42
  A 0.38 0.37 -61.7 0 1 54.56 19.20
  Q 55.93 23.19 60.13 23.29
  Q 60.70 23.30 61.23 23.53
  L 64.97 25.19
  A 0.81 0.79 39.3 0 0 65.76 25.12
  L 69.20 22.73
  A 0.26 0.25 -0.3 0 1 69.56 23.08
  Q 67.26 26.37 63.88 25.87
  Z"
/>
<path fill="#17100a" d="
  M 56.31 27.95
  Q 56.26 28.25 56.03 28.46
  A 0.40 0.40 0.0 0 1 55.44 27.93
  L 57.58 24.91
  A 0.39 0.39 0.0 0 1 58.28 25.21
  Q 58.02 26.61 56.81 27.26
  Q 56.39 27.48 56.31 27.95
  Z"
/>
<path fill="#faf5ee" d="
  M 35.82 30.74
  Q 32.60 34.78 27.10 35.41
  Q 24.95 35.04 24.18 33.72
  Q 23.87 33.19 24.32 32.78
  Q 25.75 31.46 27.64 32.19
  Q 28.07 32.36 28.26 31.94
  Q 28.77 30.90 27.88 30.59
  Q 26.73 30.20 25.96 29.98
  A 1.39 1.38 31.3 0 1 25.39 27.64
  Q 28.85 24.40 32.39 27.82
  A 0.75 0.75 0.0 0 0 33.37 27.87
  Q 35.10 26.55 36.50 28.01
  A 0.92 0.92 0.0 0 1 36.66 29.06
  L 35.82 30.74
  Z"
/>
<path fill="#504944" d="
  M 62.00 28.80
  L 62.26 28.24
  A 0.17 0.17 0.0 0 1 62.59 28.29
  Q 62.68 29.10 61.94 29.58
  A 0.65 0.65 0.0 0 1 60.99 29.29
  Q 60.55 28.29 61.14 27.37
  Q 61.62 26.62 61.62 27.51
  L 61.62 28.71
  Q 61.62 29.62 62.00 28.80
  Z"
/>
<path fill="#faf5ee" d="
  M 40.60 27.39
  Q 44.03 30.90 48.37 31.13
  Q 48.86 32.72 49.75 32.72
  Q 51.37 32.71 52.34 30.62
  Q 60.22 28.70 63.58 35.18
  Q 63.18 36.17 63.41 36.95
  Q 63.68 37.85 64.62 37.87
  Q 65.39 37.88 66.39 37.38
  Q 72.00 38.56 69.60 46.21
  L 66.08 44.96
  A 0.35 0.35 0.0 0 0 65.63 45.17
  L 65.52 45.47
  Q 65.31 46.03 65.90 46.13
  Q 67.42 46.38 68.02 47.69
  A 0.65 0.65 0.0 0 1 67.55 48.60
  C 64.97 49.07 62.38 44.60 60.94 42.81
  Q 60.59 42.37 60.70 41.83
  Q 61.38 38.48 60.09 36.07
  Q 58.87 36.83 57.85 35.84
  Q 57.33 35.34 57.92 34.92
  L 59.31 33.94
  A 0.54 0.53 -38.9 0 0 59.40 33.15
  Q 58.36 32.01 56.70 32.43
  Q 56.24 32.55 56.29 33.03
  L 56.47 34.78
  A 0.61 0.61 0.0 0 1 55.91 35.45
  Q 55.04 35.52 54.53 34.80
  Q 54.30 34.49 53.92 34.47
  Q 53.50 34.46 53.52 34.67
  Q 49.47 37.47 46.11 35.26
  C 44.40 34.13 42.95 33.14 40.81 33.92
  A 1.18 1.18 0.0 0 1 39.24 32.96
  Q 38.78 29.36 40.60 27.39
  Z"
/>
<path fill="#17100a" d="
  M 52.34 30.62
  Q 51.37 32.71 49.75 32.72
  Q 48.86 32.72 48.37 31.13
  Q 50.68 28.49 52.34 30.62
  Z"
/>
<path fill="#504944" d="
  M 37.84 30.36
  L 37.84 31.88
  A 0.30 0.30 0.0 0 1 37.34 32.10
  Q 36.34 31.17 37.32 30.15
  A 0.30 0.30 0.0 0 1 37.84 30.36
  Z"
/>
<path fill="#ebd075" d="
  M 35.82 30.74
  Q 35.50 32.04 36.21 32.64
  A 1.89 1.71 53.4 0 1 35.91 35.74
  L 30.64 37.70
  Q 30.03 37.92 29.66 37.38
  Q 28.52 35.68 27.10 35.41
  Q 32.60 34.78 35.82 30.74
  Z"
/>
<path fill="#9f988c" d="
  M 60.09 36.07
  Q 59.62 38.90 59.83 41.21
  C 60.04 43.64 61.65 45.22 62.94 47.30
  Q 56.83 49.51 50.74 46.22
  Q 52.53 46.23 51.23 44.72
  Q 50.89 44.33 50.38 44.40
  Q 49.13 44.57 48.50 45.63
  Q 46.62 44.07 44.84 45.28
  Q 44.82 45.07 44.76 44.90
  Q 44.59 44.46 44.13 44.55
  L 43.39 44.69
  Q 44.23 43.45 43.34 42.54
  Q 42.97 42.17 42.45 42.23
  Q 39.03 42.65 38.39 45.07
  Q 34.46 43.35 35.04 46.58
  L 29.66 48.42
  L 27.49 47.30
  Q 26.98 47.04 26.97 47.61
  L 26.94 48.69
  A 0.35 0.35 0.0 0 1 26.36 48.95
  Q 25.60 48.28 25.98 47.28
  Q 26.17 46.77 26.00 46.26
  L 25.74 45.48
  A 0.38 0.38 0.0 0 0 25.01 45.52
  Q 24.59 47.42 23.15 47.97
  Q 22.21 47.53 21.53 46.60
  Q 22.76 42.08 20.96 36.16
  A 1.64 1.64 0.0 0 1 23.81 34.65
  Q 24.92 36.03 26.52 36.02
  A 0.97 0.94 -20.9 0 1 27.22 36.32
  L 29.45 38.66
  A 1.01 1.00 62.0 0 0 30.39 38.95
  C 34.00 38.16 37.13 36.21 40.50 38.54
  C 42.95 40.24 45.35 39.84 46.96 37.23
  A 0.82 0.81 -68.9 0 1 47.78 36.86
  Q 51.13 37.41 53.74 35.39
  Q 54.07 35.13 53.78 34.84
  Q 53.69 34.74 53.52 34.67
  Q 53.50 34.46 53.92 34.47
  Q 54.30 34.49 54.53 34.80
  Q 55.04 35.52 55.91 35.45
  A 0.61 0.61 0.0 0 0 56.47 34.78
  L 56.29 33.03
  Q 56.24 32.55 56.70 32.43
  Q 58.36 32.01 59.40 33.15
  A 0.54 0.53 -38.9 0 1 59.31 33.94
  L 57.92 34.92
  Q 57.33 35.34 57.85 35.84
  Q 58.87 36.83 60.09 36.07
  Z"
/>
<path fill="#faf5ee" d="
  M 39.94 35.76
  Q 43.03 34.15 45.61 36.38
  Q 45.97 36.70 45.76 37.13
  C 44.33 39.99 41.12 38.00 39.55 36.28
  Q 39.24 35.94 38.79 36.06
  L 37.96 36.27
  A 0.57 0.56 -81.7 0 1 37.34 35.43
  L 37.94 34.43
  Q 38.41 33.63 38.79 34.48
  L 39.26 35.52
  A 0.50 0.49 -25.4 0 0 39.94 35.76
  Z"
/>
<path fill="#17100a" d="
  M 66.39 37.38
  Q 65.39 37.88 64.62 37.87
  Q 63.68 37.85 63.41 36.95
  Q 63.18 36.17 63.58 35.18
  Q 64.04 34.11 65.00 34.53
  Q 67.04 35.42 66.39 37.38
  Z"
/>
<path fill="#17100a" d="
  M 60.09 36.07
  Q 61.38 38.48 60.70 41.83
  Q 60.59 42.37 60.94 42.81
  C 62.38 44.60 64.97 49.07 67.55 48.60
  A 0.65 0.65 0.0 0 0 68.02 47.69
  Q 67.42 46.38 65.90 46.13
  Q 65.31 46.03 65.52 45.47
  L 65.63 45.17
  A 0.35 0.35 0.0 0 1 66.08 44.96
  L 69.60 46.21
  C 68.67 50.12 71.13 53.07 66.17 55.48
  Q 65.70 55.71 65.72 56.23
  C 65.88 60.73 65.04 66.41 66.01 70.62
  Q 66.66 73.40 65.26 73.53
  Q 64.15 66.33 64.97 58.99
  C 65.35 55.54 63.21 55.90 61.96 53.96
  Q 61.17 52.73 61.75 51.49
  Q 63.23 48.33 62.94 47.30
  C 61.65 45.22 60.04 43.64 59.83 41.21
  Q 59.62 38.90 60.09 36.07
  Z
  M 64.06 49.81
  Q 62.36 51.68 62.96 53.43
  A 1.98 1.98 0.0 0 0 65.79 54.52
  Q 68.64 52.94 68.41 49.85
  Q 68.37 49.27 67.82 49.45
  Q 66.72 49.80 66.30 50.81
  Q 65.87 50.65 65.86 50.50
  Q 65.83 50.08 65.92 49.98
  A 0.71 0.71 0.0 0 0 65.22 48.81
  Q 64.12 49.07 64.06 49.81
  Z"
/>
<path fill="#faf5ee" d="
  M 43.39 44.69
  Q 42.25 45.72 43.13 47.88
  A 0.88 0.87 54.9 0 1 42.98 48.78
  Q 41.59 50.34 39.52 50.26
  Q 39.08 50.24 39.24 50.66
  Q 40.83 54.80 44.76 53.24
  Q 45.70 52.87 47.93 50.70
  Q 48.29 50.34 47.79 50.23
  L 44.34 49.51
  A 0.63 0.63 0.0 0 1 43.86 48.72
  L 44.84 45.28
  Q 46.62 44.07 48.50 45.63
  Q 49.19 46.59 50.74 46.22
  Q 56.83 49.51 62.94 47.30
  Q 63.23 48.33 61.75 51.49
  Q 61.17 52.73 61.96 53.96
  C 63.21 55.90 65.35 55.54 64.97 58.99
  Q 64.15 66.33 65.26 73.53
  Q 63.19 74.23 60.96 73.82
  Q 59.68 71.43 57.55 69.88
  Q 57.17 69.60 57.18 69.14
  L 57.30 64.77
  A 1.30 1.29 67.0 0 1 57.64 63.92
  L 59.14 62.29
  A 0.93 0.92 -37.5 0 0 59.28 61.26
  Q 56.30 55.23 50.23 54.46
  Q 48.61 54.26 47.66 56.11
  A 1.48 1.46 -85.5 0 1 46.85 56.81
  Q 40.80 59.00 38.67 65.03
  A 0.86 0.86 0.0 0 1 37.93 65.61
  C 33.50 66.01 33.01 70.47 27.62 68.29
  A 0.43 0.43 0.0 0 0 27.05 68.55
  Q 26.99 68.76 27.07 68.97
  Q 27.18 69.24 27.59 69.42
  Q 32.11 71.35 35.41 67.70
  Q 36.67 66.31 38.67 67.03
  A 0.87 0.85 3.8 0 1 39.23 67.66
  Q 39.90 70.77 37.04 73.59
  L 21.43 73.63
  Q 20.89 73.63 20.68 73.13
  L 20.08 71.73
  C 19.41 64.36 17.93 54.43 21.53 46.60
  Q 22.21 47.53 23.15 47.97
  L 26.49 50.49
  Q 26.95 50.84 27.26 50.35
  Q 28.09 49.06 29.66 48.42
  L 35.04 46.58
  Q 38.96 47.59 38.39 45.07
  Q 39.03 42.65 42.45 42.23
  Q 42.97 42.17 43.34 42.54
  Q 44.23 43.45 43.39 44.69
  Z
  M 28.19 51.47
  A 0.31 0.31 0.0 0 0 27.65 51.63
  L 27.12 55.79
  A 0.31 0.31 0.0 0 0 27.25 56.08
  L 29.03 57.34
  A 0.31 0.31 0.0 0 0 29.43 57.30
  L 31.27 55.42
  A 0.31 0.31 0.0 0 0 31.28 54.99
  L 28.19 51.47
  Z"
/>
<path fill="#17100a" d="
  M 38.39 45.07
  Q 38.96 47.59 35.04 46.58
  Q 34.46 43.35 38.39 45.07
  Z"
/>
<path fill="#17100a" d="
  M 44.84 45.28
  L 43.86 48.72
  A 0.63 0.63 0.0 0 0 44.34 49.51
  L 47.79 50.23
  Q 48.29 50.34 47.93 50.70
  Q 45.70 52.87 44.76 53.24
  Q 40.83 54.80 39.24 50.66
  Q 39.08 50.24 39.52 50.26
  Q 41.59 50.34 42.98 48.78
  A 0.88 0.87 54.9 0 0 43.13 47.88
  Q 42.25 45.72 43.39 44.69
  L 44.13 44.55
  Q 44.59 44.46 44.76 44.90
  Q 44.82 45.07 44.84 45.28
  Z
  M 45.0326 50.8968
  A 1.74 0.94 -13.4 0 0 43.1222 50.3856
  A 1.74 0.94 -13.4 0 0 41.6474 51.7032
  A 1.74 0.94 -13.4 0 0 43.5578 52.2144
  A 1.74 0.94 -13.4 0 0 45.0326 50.8968
  Z"
/>
<path fill="#17100a" d="
  M 50.74 46.22
  Q 49.19 46.59 48.50 45.63
  Q 49.13 44.57 50.38 44.40
  Q 50.89 44.33 51.23 44.72
  Q 52.53 46.23 50.74 46.22
  Z"
/>
<path fill="#504944" d="
  M 29.66 48.42
  Q 28.09 49.06 27.26 50.35
  Q 26.95 50.84 26.49 50.49
  L 23.15 47.97
  Q 24.59 47.42 25.01 45.52
  A 0.38 0.38 0.0 0 1 25.74 45.48
  L 26.00 46.26
  Q 26.17 46.77 25.98 47.28
  Q 25.60 48.28 26.36 48.95
  A 0.35 0.35 0.0 0 0 26.94 48.69
  L 26.97 47.61
  Q 26.98 47.04 27.49 47.30
  L 29.66 48.42
  Z"
/>
<path fill="#9f988c" d="
  M 66.30 50.81
  Q 65.78 51.40 65.24 51.04
  Q 65.04 50.90 64.79 50.34
  Q 64.51 49.71 64.06 49.81
  Q 64.12 49.07 65.22 48.81
  A 0.71 0.71 0.0 0 1 65.92 49.98
  Q 65.83 50.08 65.86 50.50
  Q 65.87 50.65 66.30 50.81
  Z"
/>
<path fill="#faf5ee" d="
  M 64.06 49.81
  Q 64.51 49.71 64.79 50.34
  Q 65.04 50.90 65.24 51.04
  Q 65.78 51.40 66.30 50.81
  Q 66.72 49.80 67.82 49.45
  Q 68.37 49.27 68.41 49.85
  Q 68.64 52.94 65.79 54.52
  A 1.98 1.98 0.0 0 1 62.96 53.43
  Q 62.36 51.68 64.06 49.81
  Z"
/>
<ellipse fill="#faf5ee" cx="0.00" cy="0.00" transform="translate(43.34,51.30) rotate(-13.4)" rx="1.74" ry="0.94"/>
<path fill="#504944" d="
  M 28.19 51.47
  L 31.28 54.99
  A 0.31 0.31 0.0 0 1 31.27 55.42
  L 29.43 57.30
  A 0.31 0.31 0.0 0 1 29.03 57.34
  L 27.25 56.08
  A 0.31 0.31 0.0 0 1 27.12 55.79
  L 27.65 51.63
  A 0.31 0.31 0.0 0 1 28.19 51.47
  Z
  M 29.2096 55.8029
  A 0.95 0.74 79.1 0 0 29.7566 54.7301
  A 0.95 0.74 79.1 0 0 28.8504 53.9371
  A 0.95 0.74 79.1 0 0 28.3034 55.0099
  A 0.95 0.74 79.1 0 0 29.2096 55.8029
  Z"
/>
<ellipse fill="#96bbc2" cx="0.00" cy="0.00" transform="translate(29.03,54.87) rotate(79.1)" rx="0.95" ry="0.74"/>
<path fill="#17100a" d="
  M 60.96 73.82
  Q 60.15 73.77 59.38 73.34
  Q 58.32 71.53 56.77 70.69
  Q 56.32 70.45 55.83 70.61
  Q 53.97 71.23 53.94 73.37
  Q 53.65 73.57 53.13 73.25
  Q 53.08 70.80 55.76 69.22
  A 0.98 0.97 71.6 0 0 56.23 68.27
  Q 55.88 65.02 56.83 62.56
  Q 58.91 61.72 57.69 60.31
  Q 55.11 57.32 51.08 55.70
  A 1.84 1.83 -68.2 0 0 48.69 56.73
  Q 48.51 57.18 48.81 57.40
  Q 41.83 58.94 39.48 65.42
  Q 39.31 65.91 39.56 66.36
  Q 41.67 70.25 38.83 73.18
  Q 38.17 73.88 37.04 73.59
  Q 39.90 70.77 39.23 67.66
  A 0.87 0.85 3.8 0 0 38.67 67.03
  Q 36.67 66.31 35.41 67.70
  Q 32.11 71.35 27.59 69.42
  Q 27.18 69.24 27.07 68.97
  Q 26.99 68.76 27.05 68.55
  A 0.43 0.43 0.0 0 1 27.62 68.29
  C 33.01 70.47 33.50 66.01 37.93 65.61
  A 0.86 0.86 0.0 0 0 38.67 65.03
  Q 40.80 59.00 46.85 56.81
  A 1.48 1.46 -85.5 0 0 47.66 56.11
  Q 48.61 54.26 50.23 54.46
  Q 56.30 55.23 59.28 61.26
  A 0.93 0.92 -37.5 0 1 59.14 62.29
  L 57.64 63.92
  A 1.30 1.29 67.0 0 0 57.30 64.77
  L 57.18 69.14
  Q 57.17 69.60 57.55 69.88
  Q 59.68 71.43 60.96 73.82
  Z"
/>
<path fill="#ebd075" d="
  M 56.83 62.56
  L 55.90 61.55
  Q 53.18 58.76 49.59 58.02
  Q 49.25 57.93 48.81 57.40
  Q 48.51 57.18 48.69 56.73
  A 1.84 1.83 -68.2 0 1 51.08 55.70
  Q 55.11 57.32 57.69 60.31
  Q 58.91 61.72 56.83 62.56
  Z"
/>
<path fill="#e5b355" d="
  M 48.81 57.40
  Q 49.25 57.93 49.59 58.02
  L 55.13 61.94
  Q 55.45 62.17 55.75 61.91
  Q 55.96 61.73 55.90 61.55
  L 56.83 62.56
  Q 55.88 65.02 56.23 68.27
  A 0.98 0.97 71.6 0 1 55.76 69.22
  Q 53.08 70.80 53.13 73.25
  Q 52.13 73.37 51.35 73.92
  Q 50.98 74.18 50.52 74.14
  L 38.83 73.18
  Q 41.67 70.25 39.56 66.36
  Q 39.31 65.91 39.48 65.42
  Q 41.83 58.94 48.81 57.40
  Z
  M 49.10 61.60
  A 1.04 1.04 0.0 0 0 48.06 60.56
  A 1.04 1.04 0.0 0 0 47.02 61.60
  A 1.04 1.04 0.0 0 0 48.06 62.64
  A 1.04 1.04 0.0 0 0 49.10 61.60
  Z
  M 50.07 71.46
  L 48.19 70.20
  Q 47.60 69.80 48.09 69.28
  L 49.40 67.89
  Q 49.73 67.54 49.28 67.38
  Q 47.65 66.77 47.27 68.48
  Q 46.54 71.77 50.32 72.47
  Q 50.70 72.54 50.94 72.24
  L 52.46 70.37
  Q 52.72 70.05 52.53 69.69
  L 52.36 69.38
  A 0.39 0.39 0.0 0 0 51.65 69.44
  L 51.10 71.11
  Q 50.81 71.96 50.07 71.46
  Z"
/>
<path fill="#17100a" d="
  M 49.59 58.02
  Q 53.18 58.76 55.90 61.55
  Q 55.96 61.73 55.75 61.91
  Q 55.45 62.17 55.13 61.94
  L 49.59 58.02
  Z"
/>
<circle fill="#17100a" cx="48.06" cy="61.60" r="1.04"/>
<path fill="#17100a" d="
  M 51.10 71.11
  L 51.65 69.44
  A 0.39 0.39 0.0 0 1 52.36 69.38
  L 52.53 69.69
  Q 52.72 70.05 52.46 70.37
  L 50.94 72.24
  Q 50.70 72.54 50.32 72.47
  Q 46.54 71.77 47.27 68.48
  Q 47.65 66.77 49.28 67.38
  Q 49.73 67.54 49.40 67.89
  L 48.09 69.28
  Q 47.60 69.80 48.19 70.20
  L 50.07 71.46
  Q 50.81 71.96 51.10 71.11
  Z"
/>
<path fill="#faf5ee" d="
  M 59.38 73.34
  Q 56.55 74.16 53.94 73.37
  Q 53.97 71.23 55.83 70.61
  Q 56.32 70.45 56.77 70.69
  Q 58.32 71.53 59.38 73.34
  Z"
/>
</svg>
