<?xml version="1.0" encoding="UTF-8" standalone="no"?>
<svg
   version="1.1"
   viewBox="0.00 0.00 92.00 87.00"
   id="svg42"
   sodipodi:docname="地狗好屋.svg"
   inkscape:version="1.2.2 (732a01da63, 2022-12-09)"
   xmlns:inkscape="http://www.inkscape.org/namespaces/inkscape"
   xmlns:sodipodi="http://sodipodi.sourceforge.net/DTD/sodipodi-0.dtd"
   xmlns="http://www.w3.org/2000/svg"
   xmlns:svg="http://www.w3.org/2000/svg">
  <defs
     id="defs46" />
  <sodipodi:namedview
     id="namedview44"
     pagecolor="#ffffff"
     bordercolor="#000000"
     borderopacity="0.25"
     inkscape:showpageshadow="2"
     inkscape:pageopacity="0.0"
     inkscape:pagecheckerboard="0"
     inkscape:deskcolor="#d1d1d1"
     showgrid="false"
     inkscape:zoom="11.804598"
     inkscape:cx="46.041383"
     inkscape:cy="43.5"
     inkscape:window-width="3840"
     inkscape:window-height="2071"
     inkscape:window-x="-9"
     inkscape:window-y="-9"
     inkscape:window-maximized="1"
     inkscape:current-layer="svg42" />
  <g
     stroke-width="2.00"
     fill="none"
     stroke-linecap="butt"
     id="g26">
    <path
       stroke="#f88f99"
       vector-effect="non-scaling-stroke"
       d="   M 92.00 30.51   Q 91.68 28.57 89.62 27.38   Q 71.89 17.07 54.08 6.93   Q 50.78 5.05 48.52 5.87"
       id="path2" />
    <path
       stroke="#c79193"
       vector-effect="non-scaling-stroke"
       d="   M 48.52 5.87   Q 30.02 16.26 11.83 27.00   Q 9.09 28.62 8.46 30.28   C 7.13 33.77 10.12 36.62 13.92 36.41   Q 14.51 36.37 14.51 36.96   Q 14.60 60.82 14.51 70.50   Q 14.44 77.94 19.68 80.51   Q 22.24 81.76 29.52 81.77   Q 54.40 81.79 78.91 81.65"
       id="path4" />
    <path
       stroke="#f88f99"
       vector-effect="non-scaling-stroke"
       d="   M 78.91 81.65   Q 86.21 78.91 86.22 72.99   Q 86.27 55.08 86.28 37.06   Q 86.28 36.54 86.80 36.54   Q 90.94 36.59 92.00 33.28"
       id="path6" />
    <path
       stroke="#c0212d"
       vector-effect="non-scaling-stroke"
       d="   M 78.91 81.65   Q 79.39 80.67 78.75 80.67   Q 53.44 80.59 28.13 80.67   Q 22.56 80.69 20.44 79.91   Q 15.54 78.12 15.89 72.53"
       id="path8" />
    <path
       stroke="#f62c3e"
       vector-effect="non-scaling-stroke"
       d="   M 15.89 72.53   Q 17.66 74.78 21.00 74.13   Q 25.11 73.33 29.16 72.78"
       id="path10" />
    <path
       stroke="#f88995"
       vector-effect="non-scaling-stroke"
       d="   M 29.16 72.78   C 36.58 63.72 35.11 54.44 35.29 43.44   Q 35.30 42.87 35.88 42.86   Q 48.98 42.74 62.10 42.79   C 70.76 42.82 70.26 37.32 70.20 30.51"
       id="path12" />
    <path
       stroke="#f62c3e"
       vector-effect="non-scaling-stroke"
       d="   M 70.20 30.51   Q 71.00 29.55 70.75 28.94   Q 70.60 28.57 70.85 28.25   Q 73.88 24.40 73.05 19.50   Q 72.97 19.00 72.54 18.73   Q 61.70 11.97 52.26 7.10   Q 50.41 6.15 48.29 6.98"
       id="path14" />
    <path
       stroke="#c0212d"
       vector-effect="non-scaling-stroke"
       d="   M 48.29 6.98   Q 48.81 6.56 48.52 5.87"
       id="path16" />
    <path
       stroke="#f8818c"
       vector-effect="non-scaling-stroke"
       d="   M 50.32 47.20   L 38.56 47.18   Q 38.07 47.18 37.94 47.65   Q 37.10 50.55 39.61 51.35   Q 40.07 51.49 40.14 51.97   Q 41.66 61.99 36.86 70.72   Q 36.55 71.30 37.14 71.57   L 39.74 72.75   Q 40.28 73.00 40.56 72.48   Q 43.68 66.85 44.62 60.49   A 0.85 0.85 0.0 0 1 45.45 59.77   L 64.26 59.71   A 0.52 0.52 0.0 0 1 64.78 60.17   C 65.13 63.21 65.25 68.13 60.99 68.29   Q 55.53 68.49 53.23 68.41   Q 52.59 68.39 52.56 69.03   L 52.40 71.94   Q 52.37 72.61 53.04 72.62   C 59.84 72.67 66.94 73.55 68.73 65.99   Q 69.23 63.88 68.90 55.89   Q 68.88 55.58 68.57 55.58   L 45.43 55.65   A 0.73 0.72 0.4 0 1 44.70 54.92   L 44.74 51.89   A 0.63 0.62 -89.5 0 1 45.36 51.27   L 68.89 51.28   Q 69.57 51.28 69.53 50.60   L 69.37 47.77   Q 69.34 47.20 68.77 47.20   L 56.42 47.22   Q 55.85 47.22 55.72 46.67   L 55.37 45.31   Q 55.26 44.87 54.81 44.84   L 52.42 44.72   A 0.62 0.61 13.3 0 0 51.83 45.08   L 51.09 46.70   Q 50.86 47.20 50.32 47.20"
       id="path18" />
    <path
       stroke="#c52e37"
       vector-effect="non-scaling-stroke"
       d="   M 48.29 6.98   Q 31.02 16.77 13.92 26.81   C 10.99 28.53 8.02 29.38 9.41 33.63   Q 9.57 34.12 9.99 34.41   Q 11.79 35.69 13.96 35.35   A 1.45 1.45 0.0 0 1 15.64 36.77   L 15.89 72.53"
       id="path20" />
    <path
       stroke="#fd979f"
       vector-effect="non-scaling-stroke"
       d="   M 70.20 30.51   Q 70.31 30.36 70.32 30.21   Q 70.37 29.63 69.78 29.63   L 54.03 29.71   A 1.07 1.05 -15.8 0 1 53.13 29.22   L 52.58 28.36   A 1.23 1.20 -10.1 0 0 51.77 27.81   Q 49.63 27.40 48.46 29.05   A 1.00 0.99 -72.0 0 1 47.65 29.47   L 31.31 29.68   Q 30.80 29.68 30.81 30.19   Q 30.98 39.13 30.98 48.04   C 30.96 58.05 31.38 63.34 26.19 70.19   Q 25.90 70.57 26.22 70.91   Q 27.43 72.19 29.16 72.78"
       id="path22" />
    <path
       stroke="#ed979d"
       vector-effect="non-scaling-stroke"
       d="   M 36.50 33.75   A 1.22 1.22 0.0 0 0 35.28 34.94   L 35.23 37.40   A 1.22 1.22 0.0 0 0 36.45 38.64   L 64.53 38.51   A 1.22 1.22 0.0 0 0 65.72 37.50   L 66.12 35.22   A 1.22 1.22 0.0 0 0 64.92 33.79   L 36.50 33.75"
       id="path24" />
  </g>
  <path
     fill="#ffffff"
     d="   M 0.00 0.00   L 92.00 0.00   L 92.00 30.51   Q 91.68 28.57 89.62 27.38   Q 71.89 17.07 54.08 6.93   Q 50.78 5.05 48.52 5.87   Q 30.02 16.26 11.83 27.00   Q 9.09 28.62 8.46 30.28   C 7.13 33.77 10.12 36.62 13.92 36.41   Q 14.51 36.37 14.51 36.96   Q 14.60 60.82 14.51 70.50   Q 14.44 77.94 19.68 80.51   Q 22.24 81.76 29.52 81.77   Q 54.40 81.79 78.91 81.65   Q 86.21 78.91 86.22 72.99   Q 86.27 55.08 86.28 37.06   Q 86.28 36.54 86.80 36.54   Q 90.94 36.59 92.00 33.28   L 92.00 87.00   L 0.00 87.00   L 0.00 0.00   Z"
     id="path28" />
  <path
     fill="#f11e33"
     d="   M 92.00 30.51   L 92.00 33.28   Q 90.94 36.59 86.80 36.54   Q 86.28 36.54 86.28 37.06   Q 86.27 55.08 86.22 72.99   Q 86.21 78.91 78.91 81.65   Q 79.39 80.67 78.75 80.67   Q 53.44 80.59 28.13 80.67   Q 22.56 80.69 20.44 79.91   Q 15.54 78.12 15.89 72.53   Q 17.66 74.78 21.00 74.13   Q 25.11 73.33 29.16 72.78   C 36.58 63.72 35.11 54.44 35.29 43.44   Q 35.30 42.87 35.88 42.86   Q 48.98 42.74 62.10 42.79   C 70.76 42.82 70.26 37.32 70.20 30.51   Q 71.00 29.55 70.75 28.94   Q 70.60 28.57 70.85 28.25   Q 73.88 24.40 73.05 19.50   Q 72.97 19.00 72.54 18.73   Q 61.70 11.97 52.26 7.10   Q 50.41 6.15 48.29 6.98   Q 48.81 6.56 48.52 5.87   Q 50.78 5.05 54.08 6.93   Q 71.89 17.07 89.62 27.38   Q 91.68 28.57 92.00 30.51   Z   M 50.32 47.20   L 38.56 47.18   Q 38.07 47.18 37.94 47.65   Q 37.10 50.55 39.61 51.35   Q 40.07 51.49 40.14 51.97   Q 41.66 61.99 36.86 70.72   Q 36.55 71.30 37.14 71.57   L 39.74 72.75   Q 40.28 73.00 40.56 72.48   Q 43.68 66.85 44.62 60.49   A 0.85 0.85 0.0 0 1 45.45 59.77   L 64.26 59.71   A 0.52 0.52 0.0 0 1 64.78 60.17   C 65.13 63.21 65.25 68.13 60.99 68.29   Q 55.53 68.49 53.23 68.41   Q 52.59 68.39 52.56 69.03   L 52.40 71.94   Q 52.37 72.61 53.04 72.62   C 59.84 72.67 66.94 73.55 68.73 65.99   Q 69.23 63.88 68.90 55.89   Q 68.88 55.58 68.57 55.58   L 45.43 55.65   A 0.73 0.72 0.4 0 1 44.70 54.92   L 44.74 51.89   A 0.63 0.62 -89.5 0 1 45.36 51.27   L 68.89 51.28   Q 69.57 51.28 69.53 50.60   L 69.37 47.77   Q 69.34 47.20 68.77 47.20   L 56.42 47.22   Q 55.85 47.22 55.72 46.67   L 55.37 45.31   Q 55.26 44.87 54.81 44.84   L 52.42 44.72   A 0.62 0.61 13.3 0 0 51.83 45.08   L 51.09 46.70   Q 50.86 47.20 50.32 47.20   Z"
     id="path30"
     style="fill:#916f6f" />
  <path
     fill="#8f2326"
     d="   M 48.52 5.87   Q 48.81 6.56 48.29 6.98   Q 31.02 16.77 13.92 26.81   C 10.99 28.53 8.02 29.38 9.41 33.63   Q 9.57 34.12 9.99 34.41   Q 11.79 35.69 13.96 35.35   A 1.45 1.45 0.0 0 1 15.64 36.77   L 15.89 72.53   Q 15.54 78.12 20.44 79.91   Q 22.56 80.69 28.13 80.67   Q 53.44 80.59 78.75 80.67   Q 79.39 80.67 78.91 81.65   Q 54.40 81.79 29.52 81.77   Q 22.24 81.76 19.68 80.51   Q 14.44 77.94 14.51 70.50   Q 14.60 60.82 14.51 36.96   Q 14.51 36.37 13.92 36.41   C 10.12 36.62 7.13 33.77 8.46 30.28   Q 9.09 28.62 11.83 27.00   Q 30.02 16.26 48.52 5.87   Z"
     id="path32"
     style="fill:#de8787" />
  <path
     fill="#fa3948"
     d="   M 70.20 30.51   Q 70.31 30.36 70.32 30.21   Q 70.37 29.63 69.78 29.63   L 54.03 29.71   A 1.07 1.05 -15.8 0 1 53.13 29.22   L 52.58 28.36   A 1.23 1.20 -10.1 0 0 51.77 27.81   Q 49.63 27.40 48.46 29.05   A 1.00 0.99 -72.0 0 1 47.65 29.47   L 31.31 29.68   Q 30.80 29.68 30.81 30.19   Q 30.98 39.13 30.98 48.04   C 30.96 58.05 31.38 63.34 26.19 70.19   Q 25.90 70.57 26.22 70.91   Q 27.43 72.19 29.16 72.78   Q 25.11 73.33 21.00 74.13   Q 17.66 74.78 15.89 72.53   L 15.64 36.77   A 1.45 1.45 0.0 0 0 13.96 35.35   Q 11.79 35.69 9.99 34.41   Q 9.57 34.12 9.41 33.63   C 8.02 29.38 10.99 28.53 13.92 26.81   Q 31.02 16.77 48.29 6.98   Q 50.41 6.15 52.26 7.10   Q 61.70 11.97 72.54 18.73   Q 72.97 19.00 73.05 19.50   Q 73.88 24.40 70.85 28.25   Q 70.60 28.57 70.75 28.94   Q 71.00 29.55 70.20 30.51   Z"
     id="path34"
     style="fill:#483737" />
  <path
     fill="#fff4f6"
     d="   M 70.20 30.51   C 70.26 37.32 70.76 42.82 62.10 42.79   Q 48.98 42.74 35.88 42.86   Q 35.30 42.87 35.29 43.44   C 35.11 54.44 36.58 63.72 29.16 72.78   Q 27.43 72.19 26.22 70.91   Q 25.90 70.57 26.19 70.19   C 31.38 63.34 30.96 58.05 30.98 48.04   Q 30.98 39.13 30.81 30.19   Q 30.80 29.68 31.31 29.68   L 47.65 29.47   A 1.00 0.99 -72.0 0 0 48.46 29.05   Q 49.63 27.40 51.77 27.81   A 1.23 1.20 -10.1 0 1 52.58 28.36   L 53.13 29.22   A 1.07 1.05 -15.8 0 0 54.03 29.71   L 69.78 29.63   Q 70.37 29.63 70.32 30.21   Q 70.31 30.36 70.20 30.51   Z   M 36.50 33.75   A 1.22 1.22 0.0 0 0 35.28 34.94   L 35.23 37.40   A 1.22 1.22 0.0 0 0 36.45 38.64   L 64.53 38.51   A 1.22 1.22 0.0 0 0 65.72 37.50   L 66.12 35.22   A 1.22 1.22 0.0 0 0 64.92 33.79   L 36.50 33.75   Z"
     id="path36" />
  <path
     fill="#db3a44"
     d="   M 36.50 33.75   L 64.92 33.79   A 1.22 1.22 0.0 0 1 66.12 35.22   L 65.72 37.50   A 1.22 1.22 0.0 0 1 64.53 38.51   L 36.45 38.64   A 1.22 1.22 0.0 0 1 35.23 37.40   L 35.28 34.94   A 1.22 1.22 0.0 0 1 36.50 33.75   Z"
     id="path38"
     style="fill:#552200" />
  <path
     fill="#ffe4e4"
     d="   M 51.09 46.70   L 51.83 45.08   A 0.62 0.61 13.3 0 1 52.42 44.72   L 54.81 44.84   Q 55.26 44.87 55.37 45.31   L 55.72 46.67   Q 55.85 47.22 56.42 47.22   L 68.77 47.20   Q 69.34 47.20 69.37 47.77   L 69.53 50.60   Q 69.57 51.28 68.89 51.28   L 45.36 51.27   A 0.63 0.62 -89.5 0 0 44.74 51.89   L 44.70 54.92   A 0.73 0.72 0.4 0 0 45.43 55.65   L 68.57 55.58   Q 68.88 55.58 68.90 55.89   Q 69.23 63.88 68.73 65.99   C 66.94 73.55 59.84 72.67 53.04 72.62   Q 52.37 72.61 52.40 71.94   L 52.56 69.03   Q 52.59 68.39 53.23 68.41   Q 55.53 68.49 60.99 68.29   C 65.25 68.13 65.13 63.21 64.78 60.17   A 0.52 0.52 0.0 0 0 64.26 59.71   L 45.45 59.77   A 0.85 0.85 0.0 0 0 44.62 60.49   Q 43.68 66.85 40.56 72.48   Q 40.28 73.00 39.74 72.75   L 37.14 71.57   Q 36.55 71.30 36.86 70.72   Q 41.66 61.99 40.14 51.97   Q 40.07 51.49 39.61 51.35   Q 37.10 50.55 37.94 47.65   Q 38.07 47.18 38.56 47.18   L 50.32 47.20   Q 50.86 47.20 51.09 46.70   Z"
     id="path40" />
</svg>
