<?xml version="1.0" encoding="UTF-8" standalone="no"?>
<svg
   version="1.1"
   viewBox="0.00 0.00 102.00 112.00"
   id="svg98"
   sodipodi:docname="小美庭院.svg"
   inkscape:version="1.2.2 (732a01da63, 2022-12-09)"
   xmlns:inkscape="http://www.inkscape.org/namespaces/inkscape"
   xmlns:sodipodi="http://sodipodi.sourceforge.net/DTD/sodipodi-0.dtd"
   xmlns="http://www.w3.org/2000/svg"
   xmlns:svg="http://www.w3.org/2000/svg">
  <defs
     id="defs102" />
  <sodipodi:namedview
     id="namedview100"
     pagecolor="#ffffff"
     bordercolor="#000000"
     borderopacity="0.25"
     inkscape:showpageshadow="2"
     inkscape:pageopacity="0.0"
     inkscape:pagecheckerboard="0"
     inkscape:deskcolor="#d1d1d1"
     showgrid="false"
     inkscape:zoom="12.967833"
     inkscape:cx="26.10305"
     inkscape:cy="58.028198"
     inkscape:window-width="3840"
     inkscape:window-height="2071"
     inkscape:window-x="-9"
     inkscape:window-y="-9"
     inkscape:window-maximized="1"
     inkscape:current-layer="svg98" />
  <g
     stroke-width="2.00"
     fill="none"
     stroke-linecap="butt"
     id="g62">
    <path
       stroke="#fec59b"
       vector-effect="non-scaling-stroke"
       d="   M 41.02 30.88   Q 30.00 34.28 23.47 43.70   Q 22.27 45.42 20.47 46.72   C 12.61 52.38 7.54 63.13 12.40 72.42"
       id="path2" />
    <path
       stroke="#fbb590"
       vector-effect="non-scaling-stroke"
       d="   M 12.40 72.42   Q 15.30 79.10 21.19 82.60   Q 21.61 82.85 21.44 83.30   C 20.48 85.85 19.05 88.70 19.26 91.28   C 19.88 98.91 30.19 101.51 36.51 102.41   C 53.24 104.78 75.54 101.55 88.53 90.33   Q 92.54 86.87 91.34 82.26   Q 91.00 80.96 88.90 78.30   Q 84.14 72.28 87.36 63.99"
       id="path4" />
    <path
       stroke="#fec59b"
       vector-effect="non-scaling-stroke"
       d="   M 87.36 63.99   C 89.99 59.67 91.51 51.85 87.37 47.79   Q 84.52 44.99 81.74 42.46"
       id="path6" />
    <path
       stroke="#ed9891"
       vector-effect="non-scaling-stroke"
       d="   M 81.74 42.46   Q 86.06 34.16 83.47 26.04   A 0.90 0.90 0.0 0 0 82.72 25.41   C 75.56 24.57 70.02 24.65 63.88 27.35   Q 63.36 27.58 62.93 27.21   C 57.28 22.46 52.11 19.76 44.23 20.64   Q 43.75 20.69 43.51 21.11   Q 40.91 25.67 41.02 30.88"
       id="path8" />
    <path
       stroke="#ec5d2c"
       vector-effect="non-scaling-stroke"
       d="   M 81.74 42.46   Q 76.65 36.80 73.06 34.19   C 63.42 27.21 52.94 28.37 41.02 30.88"
       id="path10" />
    <path
       stroke="#fa7b2b"
       vector-effect="non-scaling-stroke"
       d="   M 87.36 63.99   Q 88.50 61.51 87.25 59.66   A 1.26 1.23 -6.6 0 0 86.62 59.17   L 82.30 57.74   A 0.90 0.89 14.1 0 0 81.14 58.43   L 80.62 61.30   Q 80.54 61.73 80.11 61.81   Q 74.10 62.83 68.03 63.27   C 66.30 63.39 64.71 63.01 63.06 62.61   Q 62.53 62.48 62.10 62.14   Q 60.64 60.99 58.70 61.41   A 0.72 0.70 -89.2 0 0 58.15 61.96   L 57.10 67.09"
       id="path12" />
    <path
       stroke="#f9b582"
       vector-effect="non-scaling-stroke"
       d="   M 57.10 67.09   L 56.06 66.77"
       id="path14" />
    <path
       stroke="#c86832"
       vector-effect="non-scaling-stroke"
       d="   M 56.06 66.77   Q 56.23 65.22 54.57 64.73"
       id="path16" />
    <path
       stroke="#f9b582"
       vector-effect="non-scaling-stroke"
       d="   M 54.57 64.73   L 51.77 55.60   Q 51.08 53.34 48.92 54.28   C 46.00 55.56 44.04 56.28 40.67 55.52   Q 37.47 54.80 34.21 55.86   Q 33.68 56.04 33.67 56.59   Q 33.37 65.73 27.07 71.38"
       id="path18" />
    <path
       stroke="#fa7b2b"
       vector-effect="non-scaling-stroke"
       d="   M 27.07 71.38   Q 25.42 70.90 23.70 70.39   C 20.46 69.43 17.49 69.80 14.63 71.47   Q 14.33 71.65 14.33 72.00   L 14.33 72.53   A 0.34 0.33 38.0 0 1 13.67 72.61   L 13.29 71.04   A 0.40 0.40 0.0 0 0 12.57 70.91   Q 12.17 71.51 12.40 72.42"
       id="path20" />
    <path
       stroke="#c4937e"
       vector-effect="non-scaling-stroke"
       d="   M 54.57 64.73   Q 52.36 65.62 52.77 66.92   Q 53.28 68.56 56.06 66.77"
       id="path22" />
    <path
       stroke="#f6a577"
       vector-effect="non-scaling-stroke"
       d="   M 57.10 67.09   Q 59.97 68.69 60.44 70.77"
       id="path24" />
    <path
       stroke="#92c796"
       vector-effect="non-scaling-stroke"
       d="   M 60.44 70.77   Q 56.40 71.06 53.28 74.47   A 1.00 1.00 0.0 0 0 54.61 75.95   L 57.36 73.95   Q 57.45 73.88 57.56 73.88   Q 57.68 73.88 57.81 73.88   Q 58.49 73.86 58.10 74.41   Q 53.07 81.48 60.88 86.05"
       id="path26" />
    <path
       stroke="#f4cbbc"
       vector-effect="non-scaling-stroke"
       d="   M 60.88 86.05   Q 56.95 89.26 63.10 91.29   Q 64.93 91.90 66.47 91.19   C 68.44 90.29 70.72 88.40 69.87 85.85   Q 69.09 83.52 66.35 83.29"
       id="path28" />
    <path
       stroke="#92c796"
       vector-effect="non-scaling-stroke"
       d="   M 66.35 83.29   Q 67.77 78.77 65.27 75.30   A 0.29 0.29 0.0 0 1 65.69 74.91   L 67.15 76.17   A 0.61 0.60 -64.4 0 0 68.14 75.82   Q 68.46 74.01 67.99 72.83"
       id="path30" />
    <path
       stroke="#f6a577"
       vector-effect="non-scaling-stroke"
       d="   M 67.99 72.83   Q 67.82 72.04 68.19 71.59   A 0.64 0.63 -51.7 0 1 69.06 71.48   Q 73.39 74.64 69.96 78.98   A 0.63 0.63 0.0 0 0 70.53 79.99   Q 74.93 79.46 78.74 77.27   A 1.36 1.34 -6.2 0 0 79.35 76.52   L 80.71 72.24   A 0.84 0.84 0.0 0 1 82.29 72.17   Q 85.05 78.77 78.70 82.69   Q 75.85 84.46 73.68 88.17   Q 71.85 91.32 67.60 94.01   Q 52.93 103.31 36.09 98.59   Q 26.22 95.82 29.01 86.29   Q 29.36 85.06 27.78 83.64   Q 27.36 83.26 27.65 82.77   C 29.20 80.12 27.19 79.02 26.74 77.02   Q 26.15 74.39 27.07 71.38"
       id="path32" />
    <path
       stroke="#928d40"
       vector-effect="non-scaling-stroke"
       d="   M 67.99 72.83   L 60.44 70.77"
       id="path34" />
    <path
       stroke="#90b385"
       vector-effect="non-scaling-stroke"
       d="   M 66.35 83.29   Q 65.11 85.72 60.88 86.05"
       id="path36" />
    <path
       stroke="#ed9891"
       vector-effect="non-scaling-stroke"
       d="   M 22.54 30.84   C 19.32 29.07 15.68 27.85 14.76 32.89   Q 14.66 33.42 14.95 33.87   Q 17.43 37.82 21.75 39.67   Q 22.23 39.87 22.67 39.60   C 24.90 38.22 29.98 34.59 29.13 31.51   Q 28.99 31.01 28.51 30.79   Q 26.02 29.65 23.53 30.86   A 1.07 1.06 46.1 0 1 22.54 30.84"
       id="path38" />
    <path
       stroke="#ed9891"
       vector-effect="non-scaling-stroke"
       d="   M 17.85 41.32   L 13.00 43.31   A 0.79 0.79 0.0 0 0 12.57 44.34   L 12.62 44.46   A 3.68 3.37 67.6 0 0 17.14 46.58   L 17.21 46.55   A 3.68 3.37 67.6 0 0 18.93 41.86   L 18.88 41.74   A 0.79 0.79 0.0 0 0 17.85 41.32"
       id="path40" />
    <path
       stroke="#c4937e"
       vector-effect="non-scaling-stroke"
       d="   M 33.27 69.38   L 39.61 69.40   A 0.10 0.10 0.0 0 0 39.71 69.30   L 39.71 69.24   A 3.07 2.08 0.2 0 0 36.64 67.15   L 36.24 67.15   A 3.07 2.08 0.2 0 0 33.17 69.22   L 33.17 69.28   A 0.10 0.10 0.0 0 0 33.27 69.38"
       id="path42" />
    <path
       stroke="#91ae89"
       vector-effect="non-scaling-stroke"
       d="   M 37.13 77.38   Q 29.98 80.07 34.28 87.12"
       id="path44" />
    <path
       stroke="#f4cbbc"
       vector-effect="non-scaling-stroke"
       d="   M 34.28 87.12   Q 34.53 88.26 32.85 88.12   Q 32.33 88.08 31.96 88.45   C 27.95 92.54 34.27 97.26 38.56 94.62   Q 41.63 92.73 38.73 89.15"
       id="path46" />
    <path
       stroke="#91ae89"
       vector-effect="non-scaling-stroke"
       d="   M 38.73 89.15   Q 44.47 85.63 41.49 79.44"
       id="path48" />
    <path
       stroke="#c4937e"
       vector-effect="non-scaling-stroke"
       d="   M 41.49 79.44   Q 43.55 78.20 42.41 77.07   Q 38.21 72.94 32.41 75.26   A 0.54 0.54 0.0 0 1 32.01 75.26   L 30.03 74.38   A 0.62 0.61 1.2 0 0 29.21 75.16   Q 30.06 77.37 28.93 79.48   A 0.64 0.64 0.0 0 0 29.71 80.38   C 31.27 79.82 32.38 78.14 33.57 77.60   Q 35.47 76.73 37.13 77.38"
       id="path50" />
    <path
       stroke="#60613a"
       vector-effect="non-scaling-stroke"
       d="   M 41.49 79.44   Q 39.85 77.78 37.13 77.38"
       id="path52" />
    <path
       stroke="#8f9a78"
       vector-effect="non-scaling-stroke"
       d="   M 38.73 89.15   Q 36.29 88.88 34.28 87.12"
       id="path54" />
    <path
       stroke="#c4937e"
       vector-effect="non-scaling-stroke"
       d="   M 46.8448 88.2044   A 0.92 0.70 41.9 0 0 46.6275 87.0690   A 0.92 0.70 41.9 0 0 45.4752 86.9756   A 0.92 0.70 41.9 0 0 45.6925 88.1110   A 0.92 0.70 41.9 0 0 46.8448 88.2044"
       id="path56" />
    <path
       stroke="#c4937e"
       vector-effect="non-scaling-stroke"
       d="   M 53.97 90.76   Q 49.30 94.33 43.72 92.39   A 0.31 0.31 0.0 0 0 43.36 92.86   C 45.07 95.42 53.35 94.15 54.54 91.20   A 0.37 0.37 0.0 0 0 53.97 90.76"
       id="path58" />
    <path
       stroke="#2d9652"
       vector-effect="non-scaling-stroke"
       d="   M 37.9137 87.8468   A 4.48 3.57 85.6 0 0 41.1295 83.1061   A 4.48 3.57 85.6 0 0 37.2263 78.9132   A 4.48 3.57 85.6 0 0 34.0105 83.6539   A 4.48 3.57 85.6 0 0 37.9137 87.8468"
       id="path60" />
  </g>
  <path
     fill="#da3022"
     d="   M 81.74 42.46   Q 76.65 36.80 73.06 34.19   C 63.42 27.21 52.94 28.37 41.02 30.88   Q 40.91 25.67 43.51 21.11   Q 43.75 20.69 44.23 20.64   C 52.11 19.76 57.28 22.46 62.93 27.21   Q 63.36 27.58 63.88 27.35   C 70.02 24.65 75.56 24.57 82.72 25.41   A 0.90 0.90 0.0 0 1 83.47 26.04   Q 86.06 34.16 81.74 42.46   Z"
     id="path66" />
  <path
     fill="#fd8a36"
     d="   M 81.74 42.46   Q 84.52 44.99 87.37 47.79   C 91.51 51.85 89.99 59.67 87.36 63.99   Q 88.50 61.51 87.25 59.66   A 1.26 1.23 -6.6 0 0 86.62 59.17   L 82.30 57.74   A 0.90 0.89 14.1 0 0 81.14 58.43   L 80.62 61.30   Q 80.54 61.73 80.11 61.81   Q 74.10 62.83 68.03 63.27   C 66.30 63.39 64.71 63.01 63.06 62.61   Q 62.53 62.48 62.10 62.14   Q 60.64 60.99 58.70 61.41   A 0.72 0.70 -89.2 0 0 58.15 61.96   L 57.10 67.09   L 56.06 66.77   Q 56.23 65.22 54.57 64.73   L 51.77 55.60   Q 51.08 53.34 48.92 54.28   C 46.00 55.56 44.04 56.28 40.67 55.52   Q 37.47 54.80 34.21 55.86   Q 33.68 56.04 33.67 56.59   Q 33.37 65.73 27.07 71.38   Q 25.42 70.90 23.70 70.39   C 20.46 69.43 17.49 69.80 14.63 71.47   Q 14.33 71.65 14.33 72.00   L 14.33 72.53   A 0.34 0.33 38.0 0 1 13.67 72.61   L 13.29 71.04   A 0.40 0.40 0.0 0 0 12.57 70.91   Q 12.17 71.51 12.40 72.42   C 7.54 63.13 12.61 52.38 20.47 46.72   Q 22.27 45.42 23.47 43.70   Q 30.00 34.28 41.02 30.88   C 52.94 28.37 63.42 27.21 73.06 34.19   Q 76.65 36.80 81.74 42.46   Z"
     id="path68" />
  <path
     fill="#da3022"
     d="   M 23.53 30.86   Q 26.02 29.65 28.51 30.79   Q 28.99 31.01 29.13 31.51   C 29.98 34.59 24.90 38.22 22.67 39.60   Q 22.23 39.87 21.75 39.67   Q 17.43 37.82 14.95 33.87   Q 14.66 33.42 14.76 32.89   C 15.68 27.85 19.32 29.07 22.54 30.84   A 1.07 1.06 46.1 0 0 23.53 30.86   Z"
     id="path70" />
  <path
     fill="#da3022"
     d="   M 17.85 41.32   A 0.79 0.79 0.0 0 1 18.88 41.74   L 18.93 41.86   A 3.68 3.37 67.6 0 1 17.21 46.55   L 17.14 46.58   A 3.68 3.37 67.6 0 1 12.62 44.46   L 12.57 44.34   A 0.79 0.79 0.0 0 1 13.00 43.31   L 17.85 41.32   Z"
     id="path72" />
  <path
     fill="#f5dfcd"
     d="   M 54.57 64.73   Q 52.36 65.62 52.77 66.92   Q 53.28 68.56 56.06 66.77   L 57.10 67.09   Q 59.97 68.69 60.44 70.77   Q 56.40 71.06 53.28 74.47   A 1.00 1.00 0.0 0 0 54.61 75.95   L 57.36 73.95   Q 57.45 73.88 57.56 73.88   Q 57.68 73.88 57.81 73.88   Q 58.49 73.86 58.10 74.41   Q 53.07 81.48 60.88 86.05   Q 56.95 89.26 63.10 91.29   Q 64.93 91.90 66.47 91.19   C 68.44 90.29 70.72 88.40 69.87 85.85   Q 69.09 83.52 66.35 83.29   Q 67.77 78.77 65.27 75.30   A 0.29 0.29 0.0 0 1 65.69 74.91   L 67.15 76.17   A 0.61 0.60 -64.4 0 0 68.14 75.82   Q 68.46 74.01 67.99 72.83   Q 67.82 72.04 68.19 71.59   A 0.64 0.63 -51.7 0 1 69.06 71.48   Q 73.39 74.64 69.96 78.98   A 0.63 0.63 0.0 0 0 70.53 79.99   Q 74.93 79.46 78.74 77.27   A 1.36 1.34 -6.2 0 0 79.35 76.52   L 80.71 72.24   A 0.84 0.84 0.0 0 1 82.29 72.17   Q 85.05 78.77 78.70 82.69   Q 75.85 84.46 73.68 88.17   Q 71.85 91.32 67.60 94.01   Q 52.93 103.31 36.09 98.59   Q 26.22 95.82 29.01 86.29   Q 29.36 85.06 27.78 83.64   Q 27.36 83.26 27.65 82.77   C 29.20 80.12 27.19 79.02 26.74 77.02   Q 26.15 74.39 27.07 71.38   Q 33.37 65.73 33.67 56.59   Q 33.68 56.04 34.21 55.86   Q 37.47 54.80 40.67 55.52   C 44.04 56.28 46.00 55.56 48.92 54.28   Q 51.08 53.34 51.77 55.60   L 54.57 64.73   Z   M 33.27 69.38   L 39.61 69.40   A 0.10 0.10 0.0 0 0 39.71 69.30   L 39.71 69.24   A 3.07 2.08 0.2 0 0 36.64 67.15   L 36.24 67.15   A 3.07 2.08 0.2 0 0 33.17 69.22   L 33.17 69.28   A 0.10 0.10 0.0 0 0 33.27 69.38   Z   M 37.13 77.38   Q 29.98 80.07 34.28 87.12   Q 34.53 88.26 32.85 88.12   Q 32.33 88.08 31.96 88.45   C 27.95 92.54 34.27 97.26 38.56 94.62   Q 41.63 92.73 38.73 89.15   Q 44.47 85.63 41.49 79.44   Q 43.55 78.20 42.41 77.07   Q 38.21 72.94 32.41 75.26   A 0.54 0.54 0.0 0 1 32.01 75.26   L 30.03 74.38   A 0.62 0.61 1.2 0 0 29.21 75.16   Q 30.06 77.37 28.93 79.48   A 0.64 0.64 0.0 0 0 29.71 80.38   C 31.27 79.82 32.38 78.14 33.57 77.60   Q 35.47 76.73 37.13 77.38   Z   M 46.8448 88.2044   A 0.92 0.70 41.9 0 0 46.6275 87.0690   A 0.92 0.70 41.9 0 0 45.4752 86.9756   A 0.92 0.70 41.9 0 0 45.6925 88.1110   A 0.92 0.70 41.9 0 0 46.8448 88.2044   Z   M 53.97 90.76   Q 49.30 94.33 43.72 92.39   A 0.31 0.31 0.0 0 0 43.36 92.86   C 45.07 95.42 53.35 94.15 54.54 91.20   A 0.37 0.37 0.0 0 0 53.97 90.76   Z"
     id="path74" />
  <path
     fill="#f66b20"
     d="   M 87.36 63.99   Q 84.14 72.28 88.90 78.30   Q 91.00 80.96 91.34 82.26   Q 92.54 86.87 88.53 90.33   C 75.54 101.55 53.24 104.78 36.51 102.41   C 30.19 101.51 19.88 98.91 19.26 91.28   C 19.05 88.70 20.48 85.85 21.44 83.30   Q 21.61 82.85 21.19 82.60   Q 15.30 79.10 12.40 72.42   Q 12.17 71.51 12.57 70.91   A 0.40 0.40 0.0 0 1 13.29 71.04   L 13.67 72.61   A 0.34 0.33 38.0 0 0 14.33 72.53   L 14.33 72.00   Q 14.33 71.65 14.63 71.47   C 17.49 69.80 20.46 69.43 23.70 70.39   Q 25.42 70.90 27.07 71.38   Q 26.15 74.39 26.74 77.02   C 27.19 79.02 29.20 80.12 27.65 82.77   Q 27.36 83.26 27.78 83.64   Q 29.36 85.06 29.01 86.29   Q 26.22 95.82 36.09 98.59   Q 52.93 103.31 67.60 94.01   Q 71.85 91.32 73.68 88.17   Q 75.85 84.46 78.70 82.69   Q 85.05 78.77 82.29 72.17   A 0.84 0.84 0.0 0 0 80.71 72.24   L 79.35 76.52   A 1.36 1.34 -6.2 0 1 78.74 77.27   Q 74.93 79.46 70.53 79.99   A 0.63 0.63 0.0 0 1 69.96 78.98   Q 73.39 74.64 69.06 71.48   A 0.64 0.63 -51.7 0 0 68.19 71.59   Q 67.82 72.04 67.99 72.83   L 60.44 70.77   Q 59.97 68.69 57.10 67.09   L 58.15 61.96   A 0.72 0.70 -89.2 0 1 58.70 61.41   Q 60.64 60.99 62.10 62.14   Q 62.53 62.48 63.06 62.61   C 64.71 63.01 66.30 63.39 68.03 63.27   Q 74.10 62.83 80.11 61.81   Q 80.54 61.73 80.62 61.30   L 81.14 58.43   A 0.90 0.89 14.1 0 1 82.30 57.74   L 86.62 59.17   A 1.26 1.23 -6.6 0 1 87.25 59.66   Q 88.50 61.51 87.36 63.99   Z"
     id="path76" />
  <path
     fill="#93462e"
     d="   M 54.57 64.73   Q 56.23 65.22 56.06 66.77   Q 53.28 68.56 52.77 66.92   Q 52.36 65.62 54.57 64.73   Z"
     id="path78" />
  <path
     fill="#93462e"
     d="   M 33.27 69.38   A 0.10 0.10 0.0 0 1 33.17 69.28   L 33.17 69.22   A 3.07 2.08 0.2 0 1 36.24 67.15   L 36.64 67.15   A 3.07 2.08 0.2 0 1 39.71 69.24   L 39.71 69.30   A 0.10 0.10 0.0 0 1 39.61 69.40   L 33.27 69.38   Z"
     id="path80" />
  <path
     fill="#2eaf5f"
     d="   M 60.44 70.77   L 67.99 72.83   Q 68.46 74.01 68.14 75.82   A 0.61 0.60 -64.4 0 1 67.15 76.17   L 65.69 74.91   A 0.29 0.29 0.0 0 0 65.27 75.30   Q 67.77 78.77 66.35 83.29   Q 65.11 85.72 60.88 86.05   Q 53.07 81.48 58.10 74.41   Q 58.49 73.86 57.81 73.88   Q 57.68 73.88 57.56 73.88   Q 57.45 73.88 57.36 73.95   L 54.61 75.95   A 1.00 1.00 0.0 0 1 53.28 74.47   Q 56.40 71.06 60.44 70.77   Z"
     id="path82" />
  <path
     fill="#93462e"
     d="   M 41.49 79.44   Q 39.85 77.78 37.13 77.38   Q 35.47 76.73 33.57 77.60   C 32.38 78.14 31.27 79.82 29.71 80.38   A 0.64 0.64 0.0 0 1 28.93 79.48   Q 30.06 77.37 29.21 75.16   A 0.62 0.61 1.2 0 1 30.03 74.38   L 32.01 75.26   A 0.54 0.54 0.0 0 0 32.41 75.26   Q 38.21 72.94 42.41 77.07   Q 43.55 78.20 41.49 79.44   Z"
     id="path84" />
  <path
     fill="#2c7c45"
     d="   M 37.13 77.38   Q 39.85 77.78 41.49 79.44   Q 44.47 85.63 38.73 89.15   Q 36.29 88.88 34.28 87.12   Q 29.98 80.07 37.13 77.38   Z   M 37.9137 87.8468   A 4.48 3.57 85.6 0 0 41.1295 83.1061   A 4.48 3.57 85.6 0 0 37.2263 78.9132   A 4.48 3.57 85.6 0 0 34.0105 83.6539   A 4.48 3.57 85.6 0 0 37.9137 87.8468   Z"
     id="path86" />
  <path
     fill="#2c7c45"
     d="m 61.047498,74.390555 q 3.02898,0.407862 4.855277,2.100489 3.318516,6.311667 -3.073524,9.900853 -2.717174,-0.275306 -4.955501,-2.0699 -4.788462,-7.18857 3.173748,-9.931442 z m 0.872724,10.672528 a 4.5719317,3.9721665 82.810766 0 0 3.581102,-4.833881 4.5719317,3.9721665 82.810766 0 0 -4.346587,-4.275312 4.5719317,3.9721665 82.810766 0 0 -3.581102,4.83388 4.5719317,3.9721665 82.810766 0 0 4.346587,4.275313 z"
     id="path86-9"
     style="stroke-width:1.06559" />
  <ellipse
     fill="#2eaf5f"
     cx="0.00"
     cy="0.00"
     transform="translate(37.57,83.38) rotate(85.6)"
     rx="4.48"
     ry="3.57"
     id="ellipse88" />
  <path
     fill="#f2b7aa"
     d="   M 66.35 83.29   Q 69.09 83.52 69.87 85.85   C 70.72 88.40 68.44 90.29 66.47 91.19   Q 64.93 91.90 63.10 91.29   Q 56.95 89.26 60.88 86.05   Q 65.11 85.72 66.35 83.29   Z"
     id="path90" />
  <ellipse
     fill="#93462e"
     cx="0.00"
     cy="0.00"
     transform="translate(46.16,87.59) rotate(41.9)"
     rx="0.92"
     ry="0.70"
     id="ellipse92" />
  <path
     fill="#f2b7aa"
     d="   M 34.28 87.12   Q 36.29 88.88 38.73 89.15   Q 41.63 92.73 38.56 94.62   C 34.27 97.26 27.95 92.54 31.96 88.45   Q 32.33 88.08 32.85 88.12   Q 34.53 88.26 34.28 87.12   Z"
     id="path94" />
  <path
     fill="#93462e"
     d="   M 53.97 90.76   A 0.37 0.37 0.0 0 1 54.54 91.20   C 53.35 94.15 45.07 95.42 43.36 92.86   A 0.31 0.31 0.0 0 1 43.72 92.39   Q 49.30 94.33 53.97 90.76   Z"
     id="path96" />
</svg>
