<?xml version="1.0" encoding="UTF-8" standalone="no"?>
<svg
   version="1.1"
   viewBox="0.00 0.00 377.00 386.00"
   id="svg182"
   sodipodi:docname="屏幕截图 2023-10-21 182356.svg"
   inkscape:version="1.2.2 (732a01da63, 2022-12-09)"
   xmlns:inkscape="http://www.inkscape.org/namespaces/inkscape"
   xmlns:sodipodi="http://sodipodi.sourceforge.net/DTD/sodipodi-0.dtd"
   xmlns="http://www.w3.org/2000/svg"
   xmlns:svg="http://www.w3.org/2000/svg">
  <defs
     id="defs186" />
  <sodipodi:namedview
     id="namedview184"
     pagecolor="#ffffff"
     bordercolor="#000000"
     borderopacity="0.25"
     inkscape:showpageshadow="2"
     inkscape:pageopacity="0.0"
     inkscape:pagecheckerboard="0"
     inkscape:deskcolor="#d1d1d1"
     showgrid="false"
     inkscape:zoom="2.8284271"
     inkscape:cx="295.39386"
     inkscape:cy="150.08341"
     inkscape:window-width="3840"
     inkscape:window-height="2071"
     inkscape:window-x="-9"
     inkscape:window-y="-9"
     inkscape:window-maximized="1"
     inkscape:current-layer="svg182" />
  <g
     stroke-width="2.00"
     fill="none"
     stroke-linecap="butt"
     id="g128">
    <path
       stroke="#da9598"
       vector-effect="non-scaling-stroke"
       d="   M 77.19 67.05   C 38.45 103.67 18.52 155.01 23.00 208.36   C 23.43 213.49 24.62 218.94 25.50 224.27   Q 26.67 231.37 27.96 236.10   Q 33.56 256.70 41.99 272.47   Q 67.30 319.82 116.13 345.63"
       id="path2" />
    <path
       stroke="#eda5a4"
       vector-effect="non-scaling-stroke"
       d="   M 116.13 345.63   L 125.87 350.03"
       id="path4" />
    <path
       stroke="#fef3f2"
       vector-effect="non-scaling-stroke"
       d="   M 125.87 350.03   Q 131.73 354.63 138.25 355.36"
       id="path6" />
    <path
       stroke="#eda5a4"
       vector-effect="non-scaling-stroke"
       d="   M 138.25 355.36   L 141.75 356.32"
       id="path8" />
    <path
       stroke="#da9598"
       vector-effect="non-scaling-stroke"
       d="   M 141.75 356.32   L 146.49 357.80"
       id="path10" />
    <path
       stroke="#f09995"
       vector-effect="non-scaling-stroke"
       d="   M 146.49 357.80   L 156.52 360.16"
       id="path12" />
    <path
       stroke="#da9598"
       vector-effect="non-scaling-stroke"
       d="   M 156.52 360.16   L 168.12 362.05"
       id="path14" />
    <path
       stroke="#f09995"
       vector-effect="non-scaling-stroke"
       d="   M 168.12 362.05   C 181.12 364.44 193.74 364.33 206.86 363.64   C 230.79 362.38 252.69 355.77 273.79 344.57   Q 284.61 338.83 287.94 336.69   Q 304.33 326.15 319.80 309.68   Q 325.14 304.00 330.25 296.94   C 342.04 280.64 351.62 263.75 358.25 244.54   C 360.62 237.69 361.93 230.23 363.37 222.94   C 367.55 201.75 366.55 180.92 362.63 159.02   Q 358.92 138.32 348.22 117.46   Q 312.30 47.42 237.99 26.61   C 214.51 20.03 189.07 19.92 165.22 23.63   C 150.01 26.00 135.25 30.95 121.27 37.24   Q 112.05 41.39 103.64 46.64   C 94.56 52.32 84.46 59.11 77.19 67.05"
       id="path16" />
    <path
       stroke="#cb2f2e"
       vector-effect="non-scaling-stroke"
       d="   M 168.12 362.05   Q 167.01 359.09 163.72 359.35   Q 163.12 359.39 162.75 358.92   L 161.63 357.49   Q 161.32 357.10 160.84 356.94   C 158.25 356.09 156.49 354.70 153.72 354.46   Q 150.76 354.20 147.87 353.56   Q 145.51 353.04 142.50 351.27   Q 138.19 348.74 133.50 346.98   Q 131.36 346.17 128.35 346.19   Q 125.39 346.22 122.42 345.78   Q 121.94 345.71 121.55 345.42   Q 120.26 344.45 118.82 343.78   Q 116.94 342.91 115.45 341.74   Q 112.75 339.60 109.52 338.31   Q 109.06 338.12 108.82 337.69   Q 107.94 336.10 106.48 335.20   Q 103.57 333.41 103.37 333.24   Q 101.37 331.60 99.20 330.21   Q 96.82 328.68 95.01 327.22   Q 92.12 324.89 89.00 322.87   Q 87.88 322.13 85.56 319.92   Q 84.10 318.51 82.03 317.12   Q 78.72 314.89 75.88 311.97   Q 75.50 311.58 75.46 311.03   Q 75.34 308.97 73.70 307.70   Q 73.29 307.38 73.05 306.92   Q 70.64 302.38 66.04 297.71   Q 62.48 294.09 59.57 288.75   Q 58.28 286.39 56.24 284.05   Q 53.34 280.73 51.37 276.77   C 50.33 274.68 48.80 272.76 47.79 270.52   Q 46.54 267.76 45.24 265.85   Q 42.54 261.91 40.94 257.34   Q 38.83 251.32 36.76 245.29   Q 36.38 244.18 34.86 238.06   Q 33.95 234.39 32.16 230.99   Q 31.10 228.96 29.76 222.22   Q 29.10 218.89 28.57 213.22   Q 28.18 208.96 27.57 204.72   C 26.48 197.08 26.80 189.41 26.99 181.81   Q 27.06 178.90 28.00 174.81   Q 28.82 171.21 29.16 167.51   A 1.30 1.27 -21.0 0 1 29.52 166.73   L 29.88 166.37   Q 30.23 166.02 30.17 165.53   Q 29.83 163.02 31.02 160.86   Q 31.15 160.63 31.42 160.63   Q 31.62 160.63 31.82 160.64   Q 32.31 160.67 32.38 160.18   L 33.39 152.60   A 0.42 0.41 -11.3 0 1 33.59 152.31   Q 36.21 150.86 34.63 148.52   Q 34.41 148.19 34.38 147.78   Q 33.88 141.24 38.08 136.85   Q 39.89 134.95 40.58 133.42   Q 41.95 130.40 43.12 127.29   C 43.52 126.22 44.29 125.68 45.05 124.89   Q 45.40 124.52 45.17 124.06   L 44.87 123.46   Q 44.71 123.14 45.03 122.99   Q 45.15 122.93 45.28 122.89   Q 45.74 122.74 45.56 122.29   C 44.39 119.49 47.45 115.23 48.73 113.44   Q 49.03 113.03 49.14 112.53   Q 49.60 110.40 51.01 108.74   A 0.46 0.46 0.0 0 0 50.48 108.02   L 50.00 108.22   L 52.71 100.99   A 1.48 1.43 81.5 0 1 53.16 100.36   Q 58.01 96.36 59.53 90.18   Q 59.56 90.08 59.67 90.12   Q 59.72 90.13 59.77 90.13   Q 59.84 90.14 59.78 90.34   L 58.47 94.51   A 0.10 0.05 -75.8 0 0 58.50 94.63   Q 58.63 94.63 58.77 94.63   Q 58.93 94.63 58.97 94.48   C 60.26 90.20 63.35 87.34 65.82 83.78   Q 67.59 81.24 69.62 79.59   Q 76.54 73.99 83.53 68.22   A 0.91 0.91 0.0 0 0 83.16 66.63   Q 80.45 65.98 77.19 67.05"
       id="path18" />
    <path
       stroke="#cb2f2e"
       vector-effect="non-scaling-stroke"
       d="   M 50.00 108.22   Q 49.16 108.52 48.88 109.13   Q 47.47 112.24 45.70 114.22   Q 44.33 115.76 41.97 122.74   Q 41.88 122.99 42.03 123.22   Q 42.32 123.68 42.47 123.15   Q 44.20 117.00 46.78 113.64   Q 49.14 110.55 50.00 108.22"
       id="path20" />
    <path
       stroke="#cb2f2e"
       vector-effect="non-scaling-stroke"
       d="   M 156.52 360.16   Q 155.32 358.17 152.15 358.67   A 1.42 1.40 -32.1 0 1 151.16 358.45   Q 149.12 357.10 146.49 357.80"
       id="path22" />
    <path
       stroke="#c83b3c"
       vector-effect="non-scaling-stroke"
       d="   M 141.75 356.32   Q 140.16 354.98 138.20 355.06"
       id="path24" />
    <path
       stroke="#d9898b"
       vector-effect="non-scaling-stroke"
       d="   M 138.20 355.06   Q 137.92 355.09 137.54 354.94"
       id="path26" />
    <path
       stroke="#c83b3c"
       vector-effect="non-scaling-stroke"
       d="   M 137.54 354.94   Q 137.49 354.67 137.38 354.46   Q 137.28 354.26 137.02 354.13   Q 133.23 352.24 129.05 351.28"
       id="path28" />
    <path
       stroke="#d9898b"
       vector-effect="non-scaling-stroke"
       d="   M 129.05 351.28   Q 128.95 351.19 128.85 351.11"
       id="path30" />
    <path
       stroke="#c83b3c"
       vector-effect="non-scaling-stroke"
       d="   M 128.85 351.11   Q 127.04 349.50 124.77 348.57   Q 120.52 346.82 116.13 345.63"
       id="path32" />
    <path
       stroke="#ec9997"
       vector-effect="non-scaling-stroke"
       d="   M 129.05 351.28   L 137.54 354.94"
       id="path34" />
    <path
       stroke="#ec9997"
       vector-effect="non-scaling-stroke"
       d="   M 138.20 355.06   Q 138.22 355.21 138.25 355.36"
       id="path36" />
    <path
       stroke="#ec9997"
       vector-effect="non-scaling-stroke"
       d="   M 128.85 351.11   L 125.87 350.03"
       id="path38" />
    <path
       stroke="#ee7977"
       vector-effect="non-scaling-stroke"
       d="   M 104.85 116.90   C 102.60 120.82 102.90 123.84 102.00 127.75"
       id="path40" />
    <path
       stroke="#de3f3a"
       vector-effect="non-scaling-stroke"
       d="   M 102.00 127.75   Q 100.88 130.29 101.14 132.98"
       id="path42" />
    <path
       stroke="#ee7977"
       vector-effect="non-scaling-stroke"
       d="   M 101.14 132.98   L 97.83 151.18"
       id="path44" />
    <path
       stroke="#ef8d88"
       vector-effect="non-scaling-stroke"
       d="   M 97.83 151.18   Q 96.32 161.23 95.23 171.25   Q 95.11 172.35 94.06 175.60"
       id="path46" />
    <path
       stroke="#de3f3a"
       vector-effect="non-scaling-stroke"
       d="   M 94.06 175.60   Q 92.39 177.02 90.57 176.99   A 0.14 0.14 0.0 0 0 90.50 177.25   Q 91.02 177.51 91.95 177.36"
       id="path48" />
    <path
       stroke="#ef8d88"
       vector-effect="non-scaling-stroke"
       d="   M 91.95 177.36   C 87.42 177.45 81.96 176.20 80.34 182.02   Q 79.42 185.32 79.30 188.75   Q 78.74 203.84 78.76 218.97"
       id="path50" />
    <path
       stroke="#ef938f"
       vector-effect="non-scaling-stroke"
       d="   M 78.76 218.97   Q 78.61 237.73 79.33 256.50   C 79.45 259.64 80.55 266.73 83.97 267.89   C 88.11 269.28 93.67 269.69 98.73 269.66   C 139.64 269.44 180.61 269.99 221.51 269.38   Q 242.77 269.06 264.01 269.79"
       id="path52" />
    <path
       stroke="#ef8d88"
       vector-effect="non-scaling-stroke"
       d="   M 264.01 269.79   Q 287.37 269.23 310.65 269.64   Q 317.03 269.75 320.14 268.46   C 329.00 264.80 327.86 257.67 328.23 247.60   Q 328.55 238.84 328.34 235.25   Q 327.18 215.39 327.64 195.51   Q 327.65 195.03 327.49 194.58   L 326.53 191.77"
       id="path54" />
    <path
       stroke="#ee7977"
       vector-effect="non-scaling-stroke"
       d="   M 326.53 191.77   L 327.13 188.20"
       id="path56" />
    <path
       stroke="#de3f3a"
       vector-effect="non-scaling-stroke"
       d="   M 327.13 188.20   L 326.91 190.77   Q 326.84 191.55 327.24 190.88   Q 327.54 190.36 327.47 189.87   A 0.05 0.04 -50.4 0 0 327.38 189.88   L 327.38 191.16   Q 327.38 191.56 327.72 191.36   Q 328.06 191.15 327.94 190.84   Q 327.89 190.71 327.89 190.85   Q 327.85 191.46 328.36 192.13   Q 328.67 192.54 328.64 192.02   Q 328.30 184.80 327.92 177.64   Q 327.71 173.82 323.98 172.48"
       id="path58" />
    <path
       stroke="#ee7977"
       vector-effect="non-scaling-stroke"
       d="   M 323.98 172.48   L 317.60 168.97"
       id="path60" />
    <path
       stroke="#cb2f2e"
       vector-effect="non-scaling-stroke"
       d="   M 317.60 168.97   Q 314.78 167.43 313.82 166.07   Q 313.56 165.69 313.12 165.53   Q 308.87 163.96 305.16 166.04"
       id="path62" />
    <path
       stroke="#ee7977"
       vector-effect="non-scaling-stroke"
       d="   M 305.16 166.04   Q 277.16 160.59 248.84 155.68   C 229.91 152.39 211.02 148.29 191.98 145.13   C 181.73 143.43 168.27 140.37 156.27 138.86   Q 150.81 138.17 150.70 142.98   Q 150.52 150.66 150.28 158.29"
       id="path64" />
    <path
       stroke="#de3f3a"
       vector-effect="non-scaling-stroke"
       d="   M 150.28 158.29   Q 150.48 165.30 150.19 172.23   C 149.95 177.99 145.02 177.51 140.88 177.75"
       id="path66" />
    <path
       stroke="#ef8d88"
       vector-effect="non-scaling-stroke"
       d="   M 140.88 177.75   Q 139.06 177.33 138.37 175.13   Q 136.40 168.75 135.10 160.67"
       id="path68" />
    <path
       stroke="#ee7977"
       vector-effect="non-scaling-stroke"
       d="   M 135.10 160.67   L 130.58 132.61"
       id="path70" />
    <path
       stroke="#de3f3a"
       vector-effect="non-scaling-stroke"
       d="   M 130.58 132.61   Q 131.09 130.81 129.83 128.33"
       id="path72" />
    <path
       stroke="#ee7977"
       vector-effect="non-scaling-stroke"
       d="   M 129.83 128.33   Q 129.65 128.21 129.65 127.34"
       id="path74" />
    <path
       stroke="#de3f3a"
       vector-effect="non-scaling-stroke"
       d="   M 129.65 127.34   Q 129.94 121.69 127.52 117.89"
       id="path76" />
    <path
       stroke="#ee7977"
       vector-effect="non-scaling-stroke"
       d="   M 127.52 117.89   Q 126.75 117.20 126.27 116.04"
       id="path78" />
    <path
       stroke="#de3f3a"
       vector-effect="non-scaling-stroke"
       d="   M 126.27 116.04   Q 126.34 114.75 124.74 114.77   Q 116.87 114.88 109.01 114.91   Q 107.03 114.92 104.85 116.90"
       id="path80" />
    <path
       stroke="#ec8585"
       vector-effect="non-scaling-stroke"
       d="   M 126.27 116.04   Q 124.83 115.42 124.25 115.42   Q 114.07 115.29 104.85 116.90"
       id="path82" />
    <path
       stroke="#ec8585"
       vector-effect="non-scaling-stroke"
       d="   M 127.52 117.89   L 129.65 127.34"
       id="path84" />
    <path
       stroke="#ec8585"
       vector-effect="non-scaling-stroke"
       d="   M 129.83 128.33   L 130.58 132.61"
       id="path86" />
    <path
       stroke="#fdd2d4"
       vector-effect="non-scaling-stroke"
       d="   M 135.10 160.67   Q 133.78 157.42 133.23 154.00   Q 132.78 151.26 131.77 149.22   Q 129.28 144.19 129.16 142.49   Q 128.90 139.16 128.70 135.81   Q 128.51 132.67 127.52 129.28   Q 126.11 124.44 125.25 119.60   A 1.89 1.89 0.0 0 0 123.03 118.08   Q 121.44 118.39 120.13 117.66   Q 119.73 117.43 119.27 117.40   Q 116.42 117.22 114.62 117.79   Q 112.38 118.48 110.57 118.39   Q 110.05 118.36 109.68 118.71   Q 107.15 121.11 106.76 124.54   Q 106.52 126.63 106.17 127.59   Q 105.67 128.97 105.02 130.29   A 1.76 1.73 55.3 0 0 104.86 131.22   Q 105.06 133.04 104.21 134.74   Q 104.01 135.13 104.23 135.51   L 104.89 136.65   Q 105.19 137.16 104.61 137.28   Q 103.67 137.46 103.35 138.12   Q 101.88 141.20 99.86 144.12   A 1.94 1.88 62.5 0 0 99.51 145.29   Q 99.58 149.01 98.32 152.48   Q 98.16 152.90 98.08 152.47   L 97.83 151.18"
       id="path88" />
    <path
       stroke="#ec8585"
       vector-effect="non-scaling-stroke"
       d="   M 101.14 132.98   L 102.00 127.75"
       id="path90" />
    <path
       stroke="#ec9997"
       vector-effect="non-scaling-stroke"
       d="   M 140.88 177.75   C 144.46 178.59 149.93 178.74 150.68 174.00   Q 151.17 170.85 151.22 167.27"
       id="path92" />
    <path
       stroke="#fdd2d4"
       vector-effect="non-scaling-stroke"
       d="   M 151.22 167.27   Q 152.44 161.46 159.25 161.21   Q 167.46 160.91 183.86 163.57   Q 185.62 163.86 189.06 164.71   Q 191.65 165.35 194.29 165.75   C 199.15 166.47 203.66 167.58 208.38 168.05   Q 212.07 168.43 214.59 168.98   Q 236.35 173.80 258.46 176.54   Q 262.05 176.98 267.65 178.31   Q 272.24 179.39 276.92 179.92   Q 283.38 180.65 287.49 181.47   Q 292.68 182.51 297.93 183.23   Q 298.32 183.28 306.61 183.78   C 313.43 184.19 323.49 186.44 325.61 194.00   Q 325.70 194.32 325.87 194.52   Q 326.47 195.22 326.07 194.33   Q 324.69 191.23 326.53 191.77"
       id="path94" />
    <path
       stroke="#feecec"
       vector-effect="non-scaling-stroke"
       d="   M 264.01 269.79   L 269.49 269.51   Q 269.74 269.50 269.86 269.28   Q 269.92 269.14 270.03 269.05   Q 270.18 268.91 270.51 268.90   Q 288.10 268.45 305.72 268.68   A 0.69 0.68 7.8 0 0 306.38 268.19   Q 306.56 267.59 306.54 267.01   Q 306.53 266.49 306.78 266.03   Q 308.33 263.22 307.81 260.01   A 0.61 0.61 0.0 0 0 307.30 259.50   Q 303.78 258.95 300.34 259.70   Q 296.32 260.58 292.53 259.25   Q 292.01 259.07 291.69 258.62   L 287.77 253.04   Q 287.33 252.41 286.78 252.96   L 286.51 253.22   A 0.42 0.42 0.0 0 1 285.83 253.10   Q 284.82 250.82 282.49 251.00   Q 281.96 251.04 281.48 250.81   Q 279.69 249.95 278.00 249.95   Q 277.37 249.95 277.09 250.51   Q 276.95 250.78 276.71 250.59   Q 276.54 250.45 276.63 250.15   Q 276.64 250.12 276.68 250.14   Q 276.70 250.15 276.72 250.16   Q 276.79 250.20 276.76 250.27   L 274.27 256.03"
       id="path96" />
    <path
       stroke="#ec9997"
       vector-effect="non-scaling-stroke"
       d="   M 274.27 256.03   C 275.09 251.26 275.91 246.70 275.97 241.78   Q 276.17 227.64 276.42 213.50   C 276.47 210.78 275.55 203.12 271.27 202.53   Q 265.46 201.73 256.39 203.28   C 251.52 204.10 249.77 210.40 249.85 214.50   Q 250.20 231.53 252.20 248.44   C 252.62 251.91 250.44 258.34 256.25 258.05   Q 263.00 257.71 272.54 258.42"
       id="path98" />
    <path
       stroke="#feecec"
       vector-effect="non-scaling-stroke"
       d="   M 272.54 258.42   Q 265.30 258.81 257.92 259.05   Q 254.86 259.15 253.34 258.03   C 250.01 255.56 250.36 248.84 250.36 244.86   Q 250.37 243.26 249.76 239.70   Q 249.25 236.75 250.00 233.74   Q 250.20 232.92 249.44 233.29   L 246.08 234.93   Q 245.63 235.15 245.20 234.91   Q 244.27 234.38 243.21 234.39   Q 242.73 234.39 242.31 234.16   Q 241.07 233.44 241.27 232.22   Q 241.34 231.78 241.08 231.42   Q 240.43 230.54 240.42 229.43   Q 240.42 229.27 240.26 229.30   Q 240.11 229.34 239.96 229.37   Q 239.57 229.47 239.56 229.86   Q 239.07 240.05 237.07 249.99"
       id="path100" />
    <path
       stroke="#ec9997"
       vector-effect="non-scaling-stroke"
       d="   M 237.07 249.99   Q 238.26 232.74 238.82 215.50   C 239.03 208.84 236.98 203.32 229.99 202.64   Q 223.98 202.05 219.56 202.71"
       id="path102" />
    <path
       stroke="#d9898b"
       vector-effect="non-scaling-stroke"
       d="   M 219.56 202.71   L 215.05 203.79   A 0.95 0.94 -87.0 0 0 214.38 204.40   Q 212.88 208.90 212.86 210.99   Q 212.78 221.50 212.32 232.09"
       id="path104" />
    <path
       stroke="#feecec"
       vector-effect="non-scaling-stroke"
       d="   M 212.32 232.09   L 211.69 215.82   A 0.38 0.37 64.8 0 0 211.04 215.58   Q 210.90 215.74 210.65 215.90   Q 210.35 216.08 210.00 216.07   L 203.20 215.81   Q 203.02 215.80 203.02 215.62   Q 203.02 215.46 202.95 215.35   Q 202.83 215.15 202.46 215.07   Q 199.66 214.43 196.81 214.09   C 193.78 213.73 191.47 213.04 188.24 213.89   Q 186.78 214.27 185.79 213.26   Q 185.45 212.92 184.98 212.94   Q 181.67 213.08 178.44 212.57   Q 174.55 211.96 172.00 212.08   Q 165.87 212.39 159.73 212.61   C 157.68 212.69 155.91 213.18 153.91 213.59   Q 152.00 213.99 149.53 213.84   Q 145.92 213.62 142.31 214.03   C 140.24 214.27 138.16 213.80 136.03 214.12   Q 132.12 214.70 131.44 214.72   Q 128.65 214.84 125.86 215.16   Q 125.44 215.20 125.18 214.87   Q 124.91 214.50 124.24 214.49   Q 120.08 214.46 115.88 214.34   Q 115.38 214.33 114.97 214.61   C 112.94 216.01 111.41 213.43 109.38 215.27   Q 109.02 215.60 108.54 215.47   Q 105.75 214.71 103.09 215.15   Q 101.18 215.46 98.93 215.62   Q 96.78 215.78 94.76 216.65   Q 94.31 216.85 94.36 216.36   Q 94.41 215.84 93.82 215.73   Q 93.55 215.67 93.53 215.95   Q 93.49 216.34 93.13 216.59   Q 92.79 216.81 92.39 216.86   Q 91.12 217.01 89.96 217.64   A 0.58 0.58 0.0 0 1 89.28 217.54   L 88.77 217.04   A 0.91 0.89 63.2 0 0 88.04 216.79   Q 81.20 217.69 80.32 211.25   A 0.45 0.45 0.0 0 0 79.43 211.28   L 78.76 218.97"
       id="path106" />
    <path
       stroke="#ec9997"
       vector-effect="non-scaling-stroke"
       d="   M 91.95 177.36   Q 93.96 177.16 94.06 175.60"
       id="path108" />
    <path
       stroke="#ed9f9e"
       vector-effect="non-scaling-stroke"
       d="   M 274.27 256.03   Q 273.32 256.78 272.54 258.42"
       id="path110" />
    <path
       stroke="#ed9f9e"
       vector-effect="non-scaling-stroke"
       d="   M 237.07 249.99   C 235.69 253.59 236.33 259.22 230.25 258.89   Q 223.64 258.54 216.95 258.67   Q 216.44 258.68 216.08 258.32   Q 214.80 257.03 215.15 254.76"
       id="path112" />
    <path
       stroke="#c83b3c"
       vector-effect="non-scaling-stroke"
       d="   M 215.15 254.76   C 215.05 256.17 215.65 258.10 217.49 257.77   Q 218.03 257.67 217.78 257.18   C 216.06 253.76 215.75 249.27 215.04 245.50   Q 214.15 240.81 214.24 236.42   C 214.34 231.30 214.28 226.52 215.60 221.90   Q 215.72 221.48 216.09 221.25   L 218.60 219.68   A 0.66 0.62 28.2 0 1 218.93 219.59   Q 222.53 219.67 226.05 219.34   Q 228.06 219.15 230.45 218.18   Q 232.63 217.30 234.84 216.48   Q 235.30 216.31 235.54 215.88   C 238.24 211.07 236.93 204.31 230.74 203.24   Q 225.13 202.27 219.56 202.71"
       id="path114" />
    <path
       stroke="#da8f92"
       vector-effect="non-scaling-stroke"
       d="   M 215.15 254.76   Q 211.94 243.41 212.32 232.09"
       id="path116" />
    <path
       stroke="#d97579"
       vector-effect="non-scaling-stroke"
       d="   M 305.16 166.04   L 317.60 168.97"
       id="path118" />
    <path
       stroke="#ec8585"
       vector-effect="non-scaling-stroke"
       d="   M 323.98 172.48   Q 327.15 175.10 327.54 180.75   Q 327.91 186.13 327.13 188.20"
       id="path120" />
    <path
       stroke="#ec8585"
       vector-effect="non-scaling-stroke"
       d="   M 151.22 167.27   L 150.28 158.29"
       id="path122" />
    <path
       stroke="#cb2f2e"
       vector-effect="non-scaling-stroke"
       d="   M 41.3877 127.7018   A 0.29 0.29 0.0 0 0 41.2692 127.3092   L 41.0929 127.2147   A 0.29 0.29 0.0 0 0 40.7003 127.3332   L 33.9523 139.9182   A 0.29 0.29 0.0 0 0 34.0708 140.3108   L 34.2471 140.4053   A 0.29 0.29 0.0 0 0 34.6397 140.2868   L 41.3877 127.7018"
       id="path124" />
    <path
       stroke="#ec9997"
       vector-effect="non-scaling-stroke"
       d="   M 314.00 206.27   C 312.11 200.87 297.42 202.38 293.33 203.40   A 1.34 1.32 9.0 0 0 292.55 203.96   Q 289.68 208.24 289.63 213.51   Q 289.47 231.51 289.87 249.49   C 289.92 251.92 291.19 259.20 294.76 259.01   Q 303.43 258.55 311.79 257.05   A 2.54 2.51 87.5 0 0 313.85 254.78   Q 315.43 236.28 315.79 217.50   Q 315.90 211.71 314.00 206.27"
       id="path126" />
  </g>
  <path
     fill="#ffffff"
     d="   M 0.00 0.00   L 377.00 0.00   L 377.00 386.00   L 0.00 386.00   L 0.00 0.00   Z   M 77.19 67.05   C 38.45 103.67 18.52 155.01 23.00 208.36   C 23.43 213.49 24.62 218.94 25.50 224.27   Q 26.67 231.37 27.96 236.10   Q 33.56 256.70 41.99 272.47   Q 67.30 319.82 116.13 345.63   L 125.87 350.03   Q 131.73 354.63 138.25 355.36   L 141.75 356.32   L 146.49 357.80   L 156.52 360.16   L 168.12 362.05   C 181.12 364.44 193.74 364.33 206.86 363.64   C 230.79 362.38 252.69 355.77 273.79 344.57   Q 284.61 338.83 287.94 336.69   Q 304.33 326.15 319.80 309.68   Q 325.14 304.00 330.25 296.94   C 342.04 280.64 351.62 263.75 358.25 244.54   C 360.62 237.69 361.93 230.23 363.37 222.94   C 367.55 201.75 366.55 180.92 362.63 159.02   Q 358.92 138.32 348.22 117.46   Q 312.30 47.42 237.99 26.61   C 214.51 20.03 189.07 19.92 165.22 23.63   C 150.01 26.00 135.25 30.95 121.27 37.24   Q 112.05 41.39 103.64 46.64   C 94.56 52.32 84.46 59.11 77.19 67.05   Z"
     id="path130" />
  <path
     fill="#e0332b"
     d="   M 168.12 362.05   Q 167.01 359.09 163.72 359.35   Q 163.12 359.39 162.75 358.92   L 161.63 357.49   Q 161.32 357.10 160.84 356.94   C 158.25 356.09 156.49 354.70 153.72 354.46   Q 150.76 354.20 147.87 353.56   Q 145.51 353.04 142.50 351.27   Q 138.19 348.74 133.50 346.98   Q 131.36 346.17 128.35 346.19   Q 125.39 346.22 122.42 345.78   Q 121.94 345.71 121.55 345.42   Q 120.26 344.45 118.82 343.78   Q 116.94 342.91 115.45 341.74   Q 112.75 339.60 109.52 338.31   Q 109.06 338.12 108.82 337.69   Q 107.94 336.10 106.48 335.20   Q 103.57 333.41 103.37 333.24   Q 101.37 331.60 99.20 330.21   Q 96.82 328.68 95.01 327.22   Q 92.12 324.89 89.00 322.87   Q 87.88 322.13 85.56 319.92   Q 84.10 318.51 82.03 317.12   Q 78.72 314.89 75.88 311.97   Q 75.50 311.58 75.46 311.03   Q 75.34 308.97 73.70 307.70   Q 73.29 307.38 73.05 306.92   Q 70.64 302.38 66.04 297.71   Q 62.48 294.09 59.57 288.75   Q 58.28 286.39 56.24 284.05   Q 53.34 280.73 51.37 276.77   C 50.33 274.68 48.80 272.76 47.79 270.52   Q 46.54 267.76 45.24 265.85   Q 42.54 261.91 40.94 257.34   Q 38.83 251.32 36.76 245.29   Q 36.38 244.18 34.86 238.06   Q 33.95 234.39 32.16 230.99   Q 31.10 228.96 29.76 222.22   Q 29.10 218.89 28.57 213.22   Q 28.18 208.96 27.57 204.72   C 26.48 197.08 26.80 189.41 26.99 181.81   Q 27.06 178.90 28.00 174.81   Q 28.82 171.21 29.16 167.51   A 1.30 1.27 -21.0 0 1 29.52 166.73   L 29.88 166.37   Q 30.23 166.02 30.17 165.53   Q 29.83 163.02 31.02 160.86   Q 31.15 160.63 31.42 160.63   Q 31.62 160.63 31.82 160.64   Q 32.31 160.67 32.38 160.18   L 33.39 152.60   A 0.42 0.41 -11.3 0 1 33.59 152.31   Q 36.21 150.86 34.63 148.52   Q 34.41 148.19 34.38 147.78   Q 33.88 141.24 38.08 136.85   Q 39.89 134.95 40.58 133.42   Q 41.95 130.40 43.12 127.29   C 43.52 126.22 44.29 125.68 45.05 124.89   Q 45.40 124.52 45.17 124.06   L 44.87 123.46   Q 44.71 123.14 45.03 122.99   Q 45.15 122.93 45.28 122.89   Q 45.74 122.74 45.56 122.29   C 44.39 119.49 47.45 115.23 48.73 113.44   Q 49.03 113.03 49.14 112.53   Q 49.60 110.40 51.01 108.74   A 0.46 0.46 0.0 0 0 50.48 108.02   L 50.00 108.22   L 52.71 100.99   A 1.48 1.43 81.5 0 1 53.16 100.36   Q 58.01 96.36 59.53 90.18   Q 59.56 90.08 59.67 90.12   Q 59.72 90.13 59.77 90.13   Q 59.84 90.14 59.78 90.34   L 58.47 94.51   A 0.10 0.05 -75.8 0 0 58.50 94.63   Q 58.63 94.63 58.77 94.63   Q 58.93 94.63 58.97 94.48   C 60.26 90.20 63.35 87.34 65.82 83.78   Q 67.59 81.24 69.62 79.59   Q 76.54 73.99 83.53 68.22   A 0.91 0.91 0.0 0 0 83.16 66.63   Q 80.45 65.98 77.19 67.05   C 84.46 59.11 94.56 52.32 103.64 46.64   Q 112.05 41.39 121.27 37.24   C 135.25 30.95 150.01 26.00 165.22 23.63   C 189.07 19.92 214.51 20.03 237.99 26.61   Q 312.30 47.42 348.22 117.46   Q 358.92 138.32 362.63 159.02   C 366.55 180.92 367.55 201.75 363.37 222.94   C 361.93 230.23 360.62 237.69 358.25 244.54   C 351.62 263.75 342.04 280.64 330.25 296.94   Q 325.14 304.00 319.80 309.68   Q 304.33 326.15 287.94 336.69   Q 284.61 338.83 273.79 344.57   C 252.69 355.77 230.79 362.38 206.86 363.64   C 193.74 364.33 181.12 364.44 168.12 362.05   Z   M 104.85 116.90   C 102.60 120.82 102.90 123.84 102.00 127.75   Q 100.88 130.29 101.14 132.98   L 97.83 151.18   Q 96.32 161.23 95.23 171.25   Q 95.11 172.35 94.06 175.60   Q 92.39 177.02 90.57 176.99   A 0.14 0.14 0.0 0 0 90.50 177.25   Q 91.02 177.51 91.95 177.36   C 87.42 177.45 81.96 176.20 80.34 182.02   Q 79.42 185.32 79.30 188.75   Q 78.74 203.84 78.76 218.97   Q 78.61 237.73 79.33 256.50   C 79.45 259.64 80.55 266.73 83.97 267.89   C 88.11 269.28 93.67 269.69 98.73 269.66   C 139.64 269.44 180.61 269.99 221.51 269.38   Q 242.77 269.06 264.01 269.79   Q 287.37 269.23 310.65 269.64   Q 317.03 269.75 320.14 268.46   C 329.00 264.80 327.86 257.67 328.23 247.60   Q 328.55 238.84 328.34 235.25   Q 327.18 215.39 327.64 195.51   Q 327.65 195.03 327.49 194.58   L 326.53 191.77   L 327.13 188.20   L 326.91 190.77   Q 326.84 191.55 327.24 190.88   Q 327.54 190.36 327.47 189.87   A 0.05 0.04 -50.4 0 0 327.38 189.88   L 327.38 191.16   Q 327.38 191.56 327.72 191.36   Q 328.06 191.15 327.94 190.84   Q 327.89 190.71 327.89 190.85   Q 327.85 191.46 328.36 192.13   Q 328.67 192.54 328.64 192.02   Q 328.30 184.80 327.92 177.64   Q 327.71 173.82 323.98 172.48   L 317.60 168.97   Q 314.78 167.43 313.82 166.07   Q 313.56 165.69 313.12 165.53   Q 308.87 163.96 305.16 166.04   Q 277.16 160.59 248.84 155.68   C 229.91 152.39 211.02 148.29 191.98 145.13   C 181.73 143.43 168.27 140.37 156.27 138.86   Q 150.81 138.17 150.70 142.98   Q 150.52 150.66 150.28 158.29   Q 150.48 165.30 150.19 172.23   C 149.95 177.99 145.02 177.51 140.88 177.75   Q 139.06 177.33 138.37 175.13   Q 136.40 168.75 135.10 160.67   L 130.58 132.61   Q 131.09 130.81 129.83 128.33   Q 129.65 128.21 129.65 127.34   Q 129.94 121.69 127.52 117.89   Q 126.75 117.20 126.27 116.04   Q 126.34 114.75 124.74 114.77   Q 116.87 114.88 109.01 114.91   Q 107.03 114.92 104.85 116.90   Z"
     id="path132" />
  <path
     fill="#b52b30"
     d="   M 50.00 108.22   Q 49.16 108.52 48.88 109.13   Q 47.47 112.24 45.70 114.22   Q 44.33 115.76 41.97 122.74   Q 41.88 122.99 42.03 123.22   Q 42.32 123.68 42.47 123.15   Q 44.20 117.00 46.78 113.64   Q 49.14 110.55 50.00 108.22   L 50.48 108.02   A 0.46 0.46 0.0 0 1 51.01 108.74   Q 49.60 110.40 49.14 112.53   Q 49.03 113.03 48.73 113.44   C 47.45 115.23 44.39 119.49 45.56 122.29   Q 45.74 122.74 45.28 122.89   Q 45.15 122.93 45.03 122.99   Q 44.71 123.14 44.87 123.46   L 45.17 124.06   Q 45.40 124.52 45.05 124.89   C 44.29 125.68 43.52 126.22 43.12 127.29   Q 41.95 130.40 40.58 133.42   Q 39.89 134.95 38.08 136.85   Q 33.88 141.24 34.38 147.78   Q 34.41 148.19 34.63 148.52   Q 36.21 150.86 33.59 152.31   A 0.42 0.41 -11.3 0 0 33.39 152.60   L 32.38 160.18   Q 32.31 160.67 31.82 160.64   Q 31.62 160.63 31.42 160.63   Q 31.15 160.63 31.02 160.86   Q 29.83 163.02 30.17 165.53   Q 30.23 166.02 29.88 166.37   L 29.52 166.73   A 1.30 1.27 -21.0 0 0 29.16 167.51   Q 28.82 171.21 28.00 174.81   Q 27.06 178.90 26.99 181.81   C 26.80 189.41 26.48 197.08 27.57 204.72   Q 28.18 208.96 28.57 213.22   Q 29.10 218.89 29.76 222.22   Q 31.10 228.96 32.16 230.99   Q 33.95 234.39 34.86 238.06   Q 36.38 244.18 36.76 245.29   Q 38.83 251.32 40.94 257.34   Q 42.54 261.91 45.24 265.85   Q 46.54 267.76 47.79 270.52   C 48.80 272.76 50.33 274.68 51.37 276.77   Q 53.34 280.73 56.24 284.05   Q 58.28 286.39 59.57 288.75   Q 62.48 294.09 66.04 297.71   Q 70.64 302.38 73.05 306.92   Q 73.29 307.38 73.70 307.70   Q 75.34 308.97 75.46 311.03   Q 75.50 311.58 75.88 311.97   Q 78.72 314.89 82.03 317.12   Q 84.10 318.51 85.56 319.92   Q 87.88 322.13 89.00 322.87   Q 92.12 324.89 95.01 327.22   Q 96.82 328.68 99.20 330.21   Q 101.37 331.60 103.37 333.24   Q 103.57 333.41 106.48 335.20   Q 107.94 336.10 108.82 337.69   Q 109.06 338.12 109.52 338.31   Q 112.75 339.60 115.45 341.74   Q 116.94 342.91 118.82 343.78   Q 120.26 344.45 121.55 345.42   Q 121.94 345.71 122.42 345.78   Q 125.39 346.22 128.35 346.19   Q 131.36 346.17 133.50 346.98   Q 138.19 348.74 142.50 351.27   Q 145.51 353.04 147.87 353.56   Q 150.76 354.20 153.72 354.46   C 156.49 354.70 158.25 356.09 160.84 356.94   Q 161.32 357.10 161.63 357.49   L 162.75 358.92   Q 163.12 359.39 163.72 359.35   Q 167.01 359.09 168.12 362.05   L 156.52 360.16   Q 155.32 358.17 152.15 358.67   A 1.42 1.40 -32.1 0 1 151.16 358.45   Q 149.12 357.10 146.49 357.80   L 141.75 356.32   Q 140.16 354.98 138.20 355.06   Q 137.92 355.09 137.54 354.94   Q 137.49 354.67 137.38 354.46   Q 137.28 354.26 137.02 354.13   Q 133.23 352.24 129.05 351.28   Q 128.95 351.19 128.85 351.11   Q 127.04 349.50 124.77 348.57   Q 120.52 346.82 116.13 345.63   Q 67.30 319.82 41.99 272.47   Q 33.56 256.70 27.96 236.10   Q 26.67 231.37 25.50 224.27   C 24.62 218.94 23.43 213.49 23.00 208.36   C 18.52 155.01 38.45 103.67 77.19 67.05   Q 80.45 65.98 83.16 66.63   A 0.91 0.91 0.0 0 1 83.53 68.22   Q 76.54 73.99 69.62 79.59   Q 67.59 81.24 65.82 83.78   C 63.35 87.34 60.26 90.20 58.97 94.48   Q 58.93 94.63 58.77 94.63   Q 58.63 94.63 58.50 94.63   A 0.10 0.05 -75.8 0 1 58.47 94.51   L 59.78 90.34   Q 59.84 90.14 59.77 90.13   Q 59.72 90.13 59.67 90.12   Q 59.56 90.08 59.53 90.18   Q 58.01 96.36 53.16 100.36   A 1.48 1.43 81.5 0 0 52.71 100.99   L 50.00 108.22   Z   M 41.3877 127.7018   A 0.29 0.29 0.0 0 0 41.2692 127.3092   L 41.0929 127.2147   A 0.29 0.29 0.0 0 0 40.7003 127.3332   L 33.9523 139.9182   A 0.29 0.29 0.0 0 0 34.0708 140.3108   L 34.2471 140.4053   A 0.29 0.29 0.0 0 0 34.6397 140.2868   L 41.3877 127.7018   Z"
     id="path134"
     style="fill:#e0332b;fill-opacity:1" />
  <path
     fill="#db4b48"
     d="   M 126.27 116.04   Q 124.83 115.42 124.25 115.42   Q 114.07 115.29 104.85 116.90   Q 107.03 114.92 109.01 114.91   Q 116.87 114.88 124.74 114.77   Q 126.34 114.75 126.27 116.04   Z"
     id="path138"
     style="fill:#fde6e5;fill-opacity:1" />
  <path
     fill="#fcbec2"
     d="   M 126.27 116.04   Q 126.75 117.20 127.52 117.89   L 129.65 127.34   Q 129.65 128.21 129.83 128.33   L 130.58 132.61   L 135.10 160.67   Q 133.78 157.42 133.23 154.00   Q 132.78 151.26 131.77 149.22   Q 129.28 144.19 129.16 142.49   Q 128.90 139.16 128.70 135.81   Q 128.51 132.67 127.52 129.28   Q 126.11 124.44 125.25 119.60   A 1.89 1.89 0.0 0 0 123.03 118.08   Q 121.44 118.39 120.13 117.66   Q 119.73 117.43 119.27 117.40   Q 116.42 117.22 114.62 117.79   Q 112.38 118.48 110.57 118.39   Q 110.05 118.36 109.68 118.71   Q 107.15 121.11 106.76 124.54   Q 106.52 126.63 106.17 127.59   Q 105.67 128.97 105.02 130.29   A 1.76 1.73 55.3 0 0 104.86 131.22   Q 105.06 133.04 104.21 134.74   Q 104.01 135.13 104.23 135.51   L 104.89 136.65   Q 105.19 137.16 104.61 137.28   Q 103.67 137.46 103.35 138.12   Q 101.88 141.20 99.86 144.12   A 1.94 1.88 62.5 0 0 99.51 145.29   Q 99.58 149.01 98.32 152.48   Q 98.16 152.90 98.08 152.47   L 97.83 151.18   L 101.14 132.98   L 102.00 127.75   C 102.90 123.84 102.60 120.82 104.85 116.90   Q 114.07 115.29 124.25 115.42   Q 124.83 115.42 126.27 116.04   Z"
     id="path140"
     style="fill:#fde6e5;fill-opacity:1" />
  <path
     fill="#fde6e5"
     d="   M 135.10 160.67   Q 136.40 168.75 138.37 175.13   Q 139.06 177.33 140.88 177.75   C 144.46 178.59 149.93 178.74 150.68 174.00   Q 151.17 170.85 151.22 167.27   Q 152.44 161.46 159.25 161.21   Q 167.46 160.91 183.86 163.57   Q 185.62 163.86 189.06 164.71   Q 191.65 165.35 194.29 165.75   C 199.15 166.47 203.66 167.58 208.38 168.05   Q 212.07 168.43 214.59 168.98   Q 236.35 173.80 258.46 176.54   Q 262.05 176.98 267.65 178.31   Q 272.24 179.39 276.92 179.92   Q 283.38 180.65 287.49 181.47   Q 292.68 182.51 297.93 183.23   Q 298.32 183.28 306.61 183.78   C 313.43 184.19 323.49 186.44 325.61 194.00   Q 325.70 194.32 325.87 194.52   Q 326.47 195.22 326.07 194.33   Q 324.69 191.23 326.53 191.77   L 327.49 194.58   Q 327.65 195.03 327.64 195.51   Q 327.18 215.39 328.34 235.25   Q 328.55 238.84 328.23 247.60   C 327.86 257.67 329.00 264.80 320.14 268.46   Q 317.03 269.75 310.65 269.64   Q 287.37 269.23 264.01 269.79   L 269.49 269.51   Q 269.74 269.50 269.86 269.28   Q 269.92 269.14 270.03 269.05   Q 270.18 268.91 270.51 268.90   Q 288.10 268.45 305.72 268.68   A 0.69 0.68 7.8 0 0 306.38 268.19   Q 306.56 267.59 306.54 267.01   Q 306.53 266.49 306.78 266.03   Q 308.33 263.22 307.81 260.01   A 0.61 0.61 0.0 0 0 307.30 259.50   Q 303.78 258.95 300.34 259.70   Q 296.32 260.58 292.53 259.25   Q 292.01 259.07 291.69 258.62   L 287.77 253.04   Q 287.33 252.41 286.78 252.96   L 286.51 253.22   A 0.42 0.42 0.0 0 1 285.83 253.10   Q 284.82 250.82 282.49 251.00   Q 281.96 251.04 281.48 250.81   Q 279.69 249.95 278.00 249.95   Q 277.37 249.95 277.09 250.51   Q 276.95 250.78 276.71 250.59   Q 276.54 250.45 276.63 250.15   Q 276.64 250.12 276.68 250.14   Q 276.70 250.15 276.72 250.16   Q 276.79 250.20 276.76 250.27   L 274.27 256.03   C 275.09 251.26 275.91 246.70 275.97 241.78   Q 276.17 227.64 276.42 213.50   C 276.47 210.78 275.55 203.12 271.27 202.53   Q 265.46 201.73 256.39 203.28   C 251.52 204.10 249.77 210.40 249.85 214.50   Q 250.20 231.53 252.20 248.44   C 252.62 251.91 250.44 258.34 256.25 258.05   Q 263.00 257.71 272.54 258.42   Q 265.30 258.81 257.92 259.05   Q 254.86 259.15 253.34 258.03   C 250.01 255.56 250.36 248.84 250.36 244.86   Q 250.37 243.26 249.76 239.70   Q 249.25 236.75 250.00 233.74   Q 250.20 232.92 249.44 233.29   L 246.08 234.93   Q 245.63 235.15 245.20 234.91   Q 244.27 234.38 243.21 234.39   Q 242.73 234.39 242.31 234.16   Q 241.07 233.44 241.27 232.22   Q 241.34 231.78 241.08 231.42   Q 240.43 230.54 240.42 229.43   Q 240.42 229.27 240.26 229.30   Q 240.11 229.34 239.96 229.37   Q 239.57 229.47 239.56 229.86   Q 239.07 240.05 237.07 249.99   Q 238.26 232.74 238.82 215.50   C 239.03 208.84 236.98 203.32 229.99 202.64   Q 223.98 202.05 219.56 202.71   L 215.05 203.79   A 0.95 0.94 -87.0 0 0 214.38 204.40   Q 212.88 208.90 212.86 210.99   Q 212.78 221.50 212.32 232.09   L 211.69 215.82   A 0.38 0.37 64.8 0 0 211.04 215.58   Q 210.90 215.74 210.65 215.90   Q 210.35 216.08 210.00 216.07   L 203.20 215.81   Q 203.02 215.80 203.02 215.62   Q 203.02 215.46 202.95 215.35   Q 202.83 215.15 202.46 215.07   Q 199.66 214.43 196.81 214.09   C 193.78 213.73 191.47 213.04 188.24 213.89   Q 186.78 214.27 185.79 213.26   Q 185.45 212.92 184.98 212.94   Q 181.67 213.08 178.44 212.57   Q 174.55 211.96 172.00 212.08   Q 165.87 212.39 159.73 212.61   C 157.68 212.69 155.91 213.18 153.91 213.59   Q 152.00 213.99 149.53 213.84   Q 145.92 213.62 142.31 214.03   C 140.24 214.27 138.16 213.80 136.03 214.12   Q 132.12 214.70 131.44 214.72   Q 128.65 214.84 125.86 215.16   Q 125.44 215.20 125.18 214.87   Q 124.91 214.50 124.24 214.49   Q 120.08 214.46 115.88 214.34   Q 115.38 214.33 114.97 214.61   C 112.94 216.01 111.41 213.43 109.38 215.27   Q 109.02 215.60 108.54 215.47   Q 105.75 214.71 103.09 215.15   Q 101.18 215.46 98.93 215.62   Q 96.78 215.78 94.76 216.65   Q 94.31 216.85 94.36 216.36   Q 94.41 215.84 93.82 215.73   Q 93.55 215.67 93.53 215.95   Q 93.49 216.34 93.13 216.59   Q 92.79 216.81 92.39 216.86   Q 91.12 217.01 89.96 217.64   A 0.58 0.58 0.0 0 1 89.28 217.54   L 88.77 217.04   A 0.91 0.89 63.2 0 0 88.04 216.79   Q 81.20 217.69 80.32 211.25   A 0.45 0.45 0.0 0 0 79.43 211.28   L 78.76 218.97   Q 78.74 203.84 79.30 188.75   Q 79.42 185.32 80.34 182.02   C 81.96 176.20 87.42 177.45 91.95 177.36   Q 93.96 177.16 94.06 175.60   Q 95.11 172.35 95.23 171.25   Q 96.32 161.23 97.83 151.18   L 98.08 152.47   Q 98.16 152.90 98.32 152.48   Q 99.58 149.01 99.51 145.29   A 1.94 1.88 62.5 0 1 99.86 144.12   Q 101.88 141.20 103.35 138.12   Q 103.67 137.46 104.61 137.28   Q 105.19 137.16 104.89 136.65   L 104.23 135.51   Q 104.01 135.13 104.21 134.74   Q 105.06 133.04 104.86 131.22   A 1.76 1.73 55.3 0 1 105.02 130.29   Q 105.67 128.97 106.17 127.59   Q 106.52 126.63 106.76 124.54   Q 107.15 121.11 109.68 118.71   Q 110.05 118.36 110.57 118.39   Q 112.38 118.48 114.62 117.79   Q 116.42 117.22 119.27 117.40   Q 119.73 117.43 120.13 117.66   Q 121.44 118.39 123.03 118.08   A 1.89 1.89 0.0 0 1 125.25 119.60   Q 126.11 124.44 127.52 129.28   Q 128.51 132.67 128.70 135.81   Q 128.90 139.16 129.16 142.49   Q 129.28 144.19 131.77 149.22   Q 132.78 151.26 133.23 154.00   Q 133.78 157.42 135.10 160.67   Z   M 314.00 206.27   C 312.11 200.87 297.42 202.38 293.33 203.40   A 1.34 1.32 9.0 0 0 292.55 203.96   Q 289.68 208.24 289.63 213.51   Q 289.47 231.51 289.87 249.49   C 289.92 251.92 291.19 259.20 294.76 259.01   Q 303.43 258.55 311.79 257.05   A 2.54 2.51 87.5 0 0 313.85 254.78   Q 315.43 236.28 315.79 217.50   Q 315.90 211.71 314.00 206.27   Z"
     id="path142" />
  <path
     fill="#db4b48"
     d="   M 127.52 117.89   Q 129.94 121.69 129.65 127.34   L 127.52 117.89   Z"
     id="path144"
     style="fill:#fde6e5;fill-opacity:1" />
  <path
     fill="#db4b48"
     d="   M 129.83 128.33   Q 131.09 130.81 130.58 132.61   L 129.83 128.33   Z"
     id="path150"
     style="fill:#fde6e5;fill-opacity:1" />
  <path
     fill="#fcbec2"
     d="   M 305.16 166.04   L 317.60 168.97   L 323.98 172.48   Q 327.15 175.10 327.54 180.75   Q 327.91 186.13 327.13 188.20   L 326.53 191.77   Q 324.69 191.23 326.07 194.33   Q 326.47 195.22 325.87 194.52   Q 325.70 194.32 325.61 194.00   C 323.49 186.44 313.43 184.19 306.61 183.78   Q 298.32 183.28 297.93 183.23   Q 292.68 182.51 287.49 181.47   Q 283.38 180.65 276.92 179.92   Q 272.24 179.39 267.65 178.31   Q 262.05 176.98 258.46 176.54   Q 236.35 173.80 214.59 168.98   Q 212.07 168.43 208.38 168.05   C 203.66 167.58 199.15 166.47 194.29 165.75   Q 191.65 165.35 189.06 164.71   Q 185.62 163.86 183.86 163.57   Q 167.46 160.91 159.25 161.21   Q 152.44 161.46 151.22 167.27   L 150.28 158.29   Q 150.52 150.66 150.70 142.98   Q 150.81 138.17 156.27 138.86   C 168.27 140.37 181.73 143.43 191.98 145.13   C 211.02 148.29 229.91 152.39 248.84 155.68   Q 277.16 160.59 305.16 166.04   Z"
     id="path152" />
  <path
     fill="#db4b48"
     d="   M 150.28 158.29   L 151.22 167.27   Q 151.17 170.85 150.68 174.00   C 149.93 178.74 144.46 178.59 140.88 177.75   C 145.02 177.51 149.95 177.99 150.19 172.23   Q 150.48 165.30 150.28 158.29   Z"
     id="path154" />
  <path
     fill="#b52b30"
     d="   M 317.60 168.97   L 305.16 166.04   Q 308.87 163.96 313.12 165.53   Q 313.56 165.69 313.82 166.07   Q 314.78 167.43 317.60 168.97   Z"
     id="path156"
     style="fill:#e0332b;fill-opacity:1" />
  <path
     fill="#db4b48"
     d="   M 323.98 172.48   Q 327.71 173.82 327.92 177.64   Q 328.30 184.80 328.64 192.02   Q 328.67 192.54 328.36 192.13   Q 327.85 191.46 327.89 190.85   Q 327.89 190.71 327.94 190.84   Q 328.06 191.15 327.72 191.36   Q 327.38 191.56 327.38 191.16   L 327.38 189.88   A 0.05 0.04 -50.4 0 1 327.47 189.87   Q 327.54 190.36 327.24 190.88   Q 326.84 191.55 326.91 190.77   L 327.13 188.20   Q 327.91 186.13 327.54 180.75   Q 327.15 175.10 323.98 172.48   Z"
     id="path158" />
  <path
     fill="#db4b48"
     d="   M 94.06 175.60   Q 93.96 177.16 91.95 177.36   Q 91.02 177.51 90.50 177.25   A 0.14 0.14 0.0 0 1 90.57 176.99   Q 92.39 177.02 94.06 175.60   Z"
     id="path160"
     style="fill:#fde6e5;fill-opacity:1" />
  <path
     fill="#db4b48"
     d="m 237.07,249.99 c -1.38,3.6 -0.74,9.23 -6.82,8.9 -4.40667,-0.23333 -8.84,-0.30667 -13.3,-0.22 -0.34,0.007 -0.63,-0.11 -0.87,-0.35 -0.85333,-0.86 2.75674,-18.25848 2.99007,-19.77182 -0.1,1.41 -3.42007,19.55182 -1.58007,19.22182 0.36,-0.0667 0.45667,-0.26333 0.29,-0.59 -1.72,-3.42 -2.03,-7.91 -2.74,-11.68 -0.59333,-3.12667 -0.86,-6.15333 -0.8,-9.08 0.1,-5.12 0.04,-9.9 1.36,-14.52 0.08,-0.28 0.24333,-0.49667 0.49,-0.65 l 2.51,-1.57 c 0.0979,-0.0588 0.21201,-0.0899 0.33,-0.09 2.4,0.0533 4.77333,-0.03 7.12,-0.25 1.34,-0.12667 2.80667,-0.51333 4.4,-1.16 1.45333,-0.58667 2.91667,-1.15333 4.39,-1.7 0.30667,-0.11333 0.54,-0.31333 0.7,-0.6 2.7,-4.81 1.39,-11.57 -4.8,-12.64 -3.74,-0.64667 -7.46667,-0.82333 -11.18,-0.53 2.94667,-0.44 6.42333,-0.46333 10.43,-0.07 6.99,0.68 9.04,6.2 8.83,12.86 -0.37333,11.49333 -0.95667,22.99 -1.75,34.49 z"
     id="path162"
     sodipodi:nodetypes="ccsccccccscccccccccccc"
     style="fill:#e0332b;fill-opacity:1" />
  <path
     fill="#db4b48"
     d="   M 293.33 203.40   C 297.42 202.38 312.11 200.87 314.00 206.27   Q 315.90 211.71 315.79 217.50   Q 315.43 236.28 313.85 254.78   A 2.54 2.51 87.5 0 1 311.79 257.05   Q 303.43 258.55 294.76 259.01   C 291.19 259.20 289.92 251.92 289.87 249.49   Q 289.47 231.51 289.63 213.51   Q 289.68 208.24 292.55 203.96   A 1.34 1.32 9.0 0 1 293.33 203.40   Z"
     id="path164"
     style="fill:#e0332b;fill-opacity:1" />
  <path
     fill="#b52b30"
     d="   M 215.15 254.76   Q 211.94 243.41 212.32 232.09   Q 212.78 221.50 212.86 210.99   Q 212.88 208.90 214.38 204.40   A 0.95 0.94 -87.0 0 1 215.05 203.79   L 219.56 202.71   Q 225.13 202.27 230.74 203.24   C 236.93 204.31 238.24 211.07 235.54 215.88   Q 235.30 216.31 234.84 216.48   Q 232.63 217.30 230.45 218.18   Q 228.06 219.15 226.05 219.34   Q 222.53 219.67 218.93 219.59   A 0.66 0.62 28.2 0 0 218.60 219.68   L 216.09 221.25   Q 215.72 221.48 215.60 221.90   C 214.28 226.52 214.34 231.30 214.24 236.42   Q 214.15 240.81 215.04 245.50   C 215.75 249.27 216.06 253.76 217.78 257.18   Q 218.03 257.67 217.49 257.77   C 215.65 258.10 215.05 256.17 215.15 254.76   Z"
     id="path166"
     style="fill:#e0332b;fill-opacity:1" />
  <path
     fill="#db4b48"
     d="   M 274.27 256.03   Q 273.32 256.78 272.54 258.42   Q 263.00 257.71 256.25 258.05   C 250.44 258.34 252.62 251.91 252.20 248.44   Q 250.20 231.53 249.85 214.50   C 249.77 210.40 251.52 204.10 256.39 203.28   Q 265.46 201.73 271.27 202.53   C 275.55 203.12 276.47 210.78 276.42 213.50   Q 276.17 227.64 275.97 241.78   C 275.91 246.70 275.09 251.26 274.27 256.03   Z"
     id="path168"
     style="fill:#e0332b;fill-opacity:1" />
  <path
     fill="#fef2f3"
     d="   M 212.32 232.09   Q 211.94 243.41 215.15 254.76   Q 214.80 257.03 216.08 258.32   Q 216.44 258.68 216.95 258.67   Q 223.64 258.54 230.25 258.89   C 236.33 259.22 235.69 253.59 237.07 249.99   Q 239.07 240.05 239.56 229.86   Q 239.57 229.47 239.96 229.37   Q 240.11 229.34 240.26 229.30   Q 240.42 229.27 240.42 229.43   Q 240.43 230.54 241.08 231.42   Q 241.34 231.78 241.27 232.22   Q 241.07 233.44 242.31 234.16   Q 242.73 234.39 243.21 234.39   Q 244.27 234.38 245.20 234.91   Q 245.63 235.15 246.08 234.93   L 249.44 233.29   Q 250.20 232.92 250.00 233.74   Q 249.25 236.75 249.76 239.70   Q 250.37 243.26 250.36 244.86   C 250.36 248.84 250.01 255.56 253.34 258.03   Q 254.86 259.15 257.92 259.05   Q 265.30 258.81 272.54 258.42   Q 273.32 256.78 274.27 256.03   L 276.76 250.27   Q 276.79 250.20 276.72 250.16   Q 276.70 250.15 276.68 250.14   Q 276.64 250.12 276.63 250.15   Q 276.54 250.45 276.71 250.59   Q 276.95 250.78 277.09 250.51   Q 277.37 249.95 278.00 249.95   Q 279.69 249.95 281.48 250.81   Q 281.96 251.04 282.49 251.00   Q 284.82 250.82 285.83 253.10   A 0.42 0.42 0.0 0 0 286.51 253.22   L 286.78 252.96   Q 287.33 252.41 287.77 253.04   L 291.69 258.62   Q 292.01 259.07 292.53 259.25   Q 296.32 260.58 300.34 259.70   Q 303.78 258.95 307.30 259.50   A 0.61 0.61 0.0 0 1 307.81 260.01   Q 308.33 263.22 306.78 266.03   Q 306.53 266.49 306.54 267.01   Q 306.56 267.59 306.38 268.19   A 0.69 0.68 7.8 0 1 305.72 268.68   Q 288.10 268.45 270.51 268.90   Q 270.18 268.91 270.03 269.05   Q 269.92 269.14 269.86 269.28   Q 269.74 269.50 269.49 269.51   L 264.01 269.79   Q 242.77 269.06 221.51 269.38   C 180.61 269.99 139.64 269.44 98.73 269.66   C 93.67 269.69 88.11 269.28 83.97 267.89   C 80.55 266.73 79.45 259.64 79.33 256.50   Q 78.61 237.73 78.76 218.97   L 79.43 211.28   A 0.45 0.45 0.0 0 1 80.32 211.25   Q 81.20 217.69 88.04 216.79   A 0.91 0.89 63.2 0 1 88.77 217.04   L 89.28 217.54   A 0.58 0.58 0.0 0 0 89.96 217.64   Q 91.12 217.01 92.39 216.86   Q 92.79 216.81 93.13 216.59   Q 93.49 216.34 93.53 215.95   Q 93.55 215.67 93.82 215.73   Q 94.41 215.84 94.36 216.36   Q 94.31 216.85 94.76 216.65   Q 96.78 215.78 98.93 215.62   Q 101.18 215.46 103.09 215.15   Q 105.75 214.71 108.54 215.47   Q 109.02 215.60 109.38 215.27   C 111.41 213.43 112.94 216.01 114.97 214.61   Q 115.38 214.33 115.88 214.34   Q 120.08 214.46 124.24 214.49   Q 124.91 214.50 125.18 214.87   Q 125.44 215.20 125.86 215.16   Q 128.65 214.84 131.44 214.72   Q 132.12 214.70 136.03 214.12   C 138.16 213.80 140.24 214.27 142.31 214.03   Q 145.92 213.62 149.53 213.84   Q 152.00 213.99 153.91 213.59   C 155.91 213.18 157.68 212.69 159.73 212.61   Q 165.87 212.39 172.00 212.08   Q 174.55 211.96 178.44 212.57   Q 181.67 213.08 184.98 212.94   Q 185.45 212.92 185.79 213.26   Q 186.78 214.27 188.24 213.89   C 191.47 213.04 193.78 213.73 196.81 214.09   Q 199.66 214.43 202.46 215.07   Q 202.83 215.15 202.95 215.35   Q 203.02 215.46 203.02 215.62   Q 203.02 215.80 203.20 215.81   L 210.00 216.07   Q 210.35 216.08 210.65 215.90   Q 210.90 215.74 211.04 215.58   A 0.38 0.37 64.8 0 1 211.69 215.82   L 212.32 232.09   Z"
     id="path170" />
  <ellipse
     style="fill:#e0332b;fill-opacity:1;stroke-width:1.30846"
     id="path1539-36"
     cx="233.21097"
     cy="230.75262"
     rx="6.9431753"
     ry="27.473715" />
  <path
     fill="#db4b48"
     d="   M 128.85 351.11   L 125.87 350.03   L 116.13 345.63   Q 120.52 346.82 124.77 348.57   Q 127.04 349.50 128.85 351.11   Z"
     id="path172" />
  <path
     fill="#fde6e5"
     d="   M 125.87 350.03   L 128.85 351.11   Q 128.95 351.19 129.05 351.28   L 137.54 354.94   Q 137.92 355.09 138.20 355.06   Q 138.22 355.21 138.25 355.36   Q 131.73 354.63 125.87 350.03   Z"
     id="path174" />
  <path
     fill="#db4b48"
     d="   M 129.05 351.28   Q 133.23 352.24 137.02 354.13   Q 137.28 354.26 137.38 354.46   Q 137.49 354.67 137.54 354.94   L 129.05 351.28   Z"
     id="path176" />
  <path
     fill="#db4b48"
     d="   M 138.20 355.06   Q 140.16 354.98 141.75 356.32   L 138.25 355.36   Q 138.22 355.21 138.20 355.06   Z"
     id="path178" />
  <path
     fill="#e0332b"
     d="   M 146.49 357.80   Q 149.12 357.10 151.16 358.45   A 1.42 1.40 -32.1 0 0 152.15 358.67   Q 155.32 358.17 156.52 360.16   L 146.49 357.80   Z"
     id="path180" />
  <path
     style="fill:#e0332b;fill-opacity:1"
     d="m 126.28939,116.04904 4.6011,17.73998 4.21906,-2.68259 -7.28369,-16.70183 z"
     id="path969" />
  <path
     style="fill:#e0332b;fill-opacity:1"
     d="M 48.766797,106.648 32.88705,140.28676"
     id="path1241" />
  <path
     style="fill:#e0332b;fill-opacity:1"
     d="M 51.115872,104.58082 32.511198,138.50146"
     id="path1381" />
  <path
     style="fill:#e0332b;fill-opacity:1"
     d="m 33.074976,143.29357 14.564265,4.04041"
     id="path1383" />
  <path
     style="fill:#e0332b;fill-opacity:1"
     d="M 56.753651,112.19182 45.572055,145.83057"
     id="path1385" />
  <path
     style="fill:#e0332b;fill-opacity:1"
     d="M 82.593476,125.62853 42.565239,65.774099"
     id="path1387" />
  <path
     style="fill:#e0332b;fill-opacity:1"
     d="m 51.209835,105.05063 c -0.801416,1.40248 0.08049,-0.052 -0.845667,1.22152 -0.107419,0.1477 -0.161626,0.33237 -0.281889,0.46982 -0.103126,0.11785 -0.276114,0.16115 -0.375852,0.28189 -0.498695,0.60368 -0.910214,1.27602 -1.409445,1.87926 -0.254168,0.30711 -0.588882,0.54073 -0.845667,0.84566 -0.914369,1.08582 -1.544284,2.35801 -2.255112,3.5706 -0.470516,0.80264 -1.02069,1.40259 -1.503408,2.16115 -0.549413,0.86336 -1.031544,1.78222 -1.597371,2.63096 -0.234027,0.35104 -0.520322,0.68652 -0.751704,1.03359 -0.112858,0.16929 -0.240528,0.46829 -0.375852,0.65774 -0.18205,0.25487 -0.402633,0.48313 -0.563778,0.75171 -0.1081,0.18016 -0.17379,0.38361 -0.281889,0.56378 -0.175376,0.29229 -0.436175,0.67375 -0.657741,0.93963 -0.08507,0.10208 -0.218258,0.16523 -0.281889,0.28188 -0.128144,0.23494 -0.162212,0.51235 -0.281889,0.75171 -0.20878,0.41756 -0.623371,0.75096 -0.751704,1.22152 -0.05827,0.21367 -0.03569,0.44407 -0.09396,0.65774 -0.09958,0.36512 -0.350138,0.67456 -0.469815,1.03359 -0.142167,0.4265 -0.170348,0.90448 -0.375852,1.31548 -0.229942,0.45989 -0.603156,1.10221 -0.751704,1.59737 -0.04589,0.15298 -0.03105,0.32303 -0.09396,0.46982 -0.0349,0.0814 -0.148308,0.10869 -0.187926,0.18793 -0.04973,0.0995 -0.144178,0.77922 -0.187926,0.93963 -0.06264,0.21924 -0.125284,0.43849 -0.187926,0.65774 -0.03132,0.0626 -0.07182,0.12148 -0.09396,0.18792 -0.06025,0.18074 -0.01891,0.38867 -0.09396,0.56378 -0.07194,0.16787 -0.209947,0.30195 -0.281889,0.46982 -0.02468,0.0576 0.01228,0.1265 0,0.18792 -0.05505,0.27523 -0.269878,0.88028 -0.375852,1.12756 -0.03558,0.083 -0.255998,0.34035 -0.281889,0.46981 -0.01843,0.0921 0.01843,0.18975 0,0.28189 -0.03636,0.18178 -0.316962,0.51052 -0.375852,0.65774 -0.233829,0.58457 -0.566698,1.33592 -0.657741,1.97323 -0.01329,0.093 0.01843,0.18975 0,0.28188 -0.04634,0.23172 -0.24088,0.41169 -0.281889,0.65775 -0.104802,0.62881 -0.187926,1.22943 -0.187926,1.87926 0,0.3039 -0.01924,1.08907 0.09396,1.31548 0.168968,0.33793 0.162828,0.0689 0.375852,0.28189 0.141812,0.14181 0.213658,0.35185 0.375852,0.46981 0.19291,0.1403 0.447719,0.1688 0.657741,0.28189 0.198862,0.10708 0.364915,0.26877 0.563778,0.37585 0.554266,0.29845 0.983151,0.36723 1.597371,0.56378 2.253411,0.72109 0.541168,0.30732 2.81889,0.65774 0.346107,0.0532 0.686117,0.14449 1.033593,0.18793 0.466187,0.0583 0.940114,-0.0213 1.409445,0 1.272388,0.0578 2.124789,0.23861 3.382668,-0.28189 0.735,-0.30414 1.68371,-1.04338 2.161149,-1.69134 0.618451,-0.83932 1.208358,-1.70701 1.691334,-2.63096 0.243225,-0.4653 0.325576,-0.99857 0.469815,-1.50341 0.849674,-2.97386 0.120593,-0.58973 0.845667,-3.57059 0.353864,-1.45478 0.822387,-2.87928 1.221519,-4.3223 0.301748,-1.09093 0.516101,-2.20585 0.845667,-3.2887 0.06945,-0.2282 0.199772,-0.43379 0.281889,-0.65775 0.262568,-0.71609 0.460078,-1.45638 0.751703,-2.16114 0.08636,-0.2087 0.282391,-0.35817 0.375852,-0.56378 0.06609,-0.14539 0.04807,-0.31685 0.09396,-0.46982 0.142303,-0.47434 0.300575,-0.94403 0.469815,-1.40944 0.08152,-0.22417 0.216359,-0.42839 0.281889,-0.65774 0.325964,-1.14088 0.532912,-2.32986 0.845667,-3.47663 0.196153,-0.71923 0.50919,-1.51236 0.657741,-2.25512 0.124764,-0.62381 0.01584,-3.09402 -0.187926,-3.66455 -0.687472,-1.92493 -1.896549,-3.37152 -3.194741,-4.88608 -0.388594,-0.45336 -0.973737,-0.52532 -1.503408,-0.65774 -0.06077,-0.0152 -0.131898,0.028 -0.187926,0 -0.01415,-0.007 -0.177668,-0.79438 -0.187926,-0.84567 z"
     id="path1389" />
  <ellipse
     style="fill:#e0332b;fill-opacity:1;stroke-width:1.25084"
     id="path1539"
     cx="216.76663"
     cy="231.18451"
     rx="6.3451986"
     ry="27.473715" />
  <ellipse
     style="fill:#e0332b;fill-opacity:1;stroke-width:1.34244"
     id="path1539-3"
     cx="255.3029"
     cy="230.81908"
     rx="7.3086057"
     ry="27.473715" />
  <ellipse
     style="fill:#e0332b;fill-opacity:1;stroke-width:1.24554"
     id="path1539-8"
     cx="272.54459"
     cy="230.71941"
     rx="6.3451986"
     ry="27.241167" />
  <ellipse
     style="fill:#e0332b;fill-opacity:1;stroke-width:1.21866"
     id="path1539-8-2"
     cx="311.28018"
     cy="230.2211"
     rx="6.3451986"
     ry="26.078436" />
  <ellipse
     style="fill:#e0332b;fill-opacity:1;stroke-width:1.18721"
     id="path1539-8-7"
     cx="293.6731"
     cy="230.15465"
     rx="6.3451986"
     ry="24.749598" />
  <path
     style="fill:#e0332b;fill-opacity:1;stroke-width:0.00513584"
     d="m 100.88482,134.3716 c -0.0258,-0.32265 -0.0364,-0.49234 -0.0446,-0.7191 -0.0285,-0.79137 0.012,-1.55521 0.12149,-2.32822 0.15414,-1.08237 0.4411,-2.13879 0.86732,-3.1928 0.0769,-0.19019 0.1723,-0.41156 0.17279,-0.40093 6.1e-4,0.0137 -1.10683,6.6726 -1.11042,6.6768 -0.001,0.003 -0.005,-0.0138 -0.006,-0.0357 z"
     id="path1716" />
  <path
     style="fill:#e0332b;fill-opacity:1"
     d="m 129.15625,126.84375 2.6875,13.5 5.0625,-8.40625 z"
     id="path1718" />
  <path
     style="fill:#e0332b;fill-opacity:1"
     d="m 126.46094,116.72656 c 0,0 -0.24219,-1.07812 -0.375,-1.39062 -0.13282,-0.3125 -0.24219,-0.85938 -0.24219,-0.85938 l 0.90625,0.0156 0.5,1.17187 z"
     id="path1720" />
  <path
     style="fill:#e0332b;fill-opacity:1"
     d="m 125.79687,114.92187 c 0,0 0.25,0.36719 0.36719,0.78125 0.11719,0.41407 0.17188,0.63282 0.42188,1.60157 0.25,0.96875 1.03125,3.875 1.03125,3.875 l 2.07812,0.3125 c 0,0 0.0391,-5.04688 0.0391,-5.09375 0,-0.0469 -1.8125,-2.09375 -1.8125,-2.09375 z"
     id="path1722" />
  <path
     style="fill:#e0332b;fill-opacity:1"
     d="m 123.63672,114.73828 1.13281,0.0273 c 0,0 0.30469,0.0312 0.50391,0.0937 0.19922,0.0625 0.24609,0.082 0.37109,0.16406 0.125,0.082 0.1875,0.11719 0.25391,0.21875 0.0664,0.10156 0.1875,0.3164 0.21875,0.35156 0.0312,0.0352 0.45703,0.38281 0.45703,0.38281 0,0 0.39844,-0.99609 0.39844,-1.03125 0,-0.0352 -1.00782,-0.91797 -1.02735,-0.91797 -0.0195,0 -1.78515,0.1211 -1.78515,0.1211 l -0.54297,0.60937 z"
     id="path1724" />
  <path
     style="fill:#e0332b;fill-opacity:1"
     d="m 150.3125,152.59375 c 0,0 0.0937,0.6875 0.125,3.5625 0.0312,2.875 0.28125,6.28125 0.28125,6.28125 0,0 0.1875,0.8125 -0.0312,3.03125 -0.21875,2.21875 -0.25,2.6875 -0.5625,4.9375 -0.3125,2.25 -1.3125,3.84375 -1.3125,3.84375 0,0 -4.3125,-4.0625 -4.28125,-4.4375 0.0312,-0.375 1.71875,-6.6875 1.75,-6.96875 0.0312,-0.28125 1.28125,-7.40625 1.28125,-7.40625 z"
     id="path1726" />
  <path
     style="fill:#e0332b;fill-opacity:1"
     d="m 254.95619,203.38711 1.8672,-0.25411 2.99416,-0.34803 -0.25412,1.1159 c 0,0 -3.55211,0.95017 -3.56315,0.91703 -0.011,-0.0332 -0.88941,-0.93913 -0.88941,-0.93913 z"
     id="path1728" />
  <path
     style="fill:#e0332b;fill-opacity:1"
     d="m 326.74962,191.99054 0.27622,-2.98311 0.33145,-2.39753 c 0,0 0.0994,-0.7734 0.27622,-3.01625 0.17677,-2.24286 0.20992,-3.30352 0.24307,-4.58515 0.0331,-1.28163 -0.20993,-3.7786 -0.20993,-3.7786 l 0.96123,-1.56889 c 0,0 1.46945,1.55784 1.4805,1.60203 0.0111,0.0442 0.28726,19.14713 0.28726,19.14713 z"
     id="path1945" />
  <path
     style="fill:#e0332b;fill-opacity:1"
     d="m 252.23437,255.71875 c 0,0.0781 1.25,2.125 1.45313,2.3125 0.20312,0.1875 0.5,0.28125 0.625,0.29687 0.125,0.0156 1.14062,0.0625 1.14062,0.0625 0,0 1.6875,-0.0156 2.39063,-0.0156 0.70312,0 1.59375,0.0469 2.79687,0.0312 1.20313,-0.0156 5.82813,0 6.5,-0.0156 0.67188,-0.0156 4.07813,0.0625 4.3125,0.0469 0.23438,-0.0156 1.20313,-0.0781 1.20313,-0.0781 0,0 0.10937,-0.0312 0.5625,-0.40625 0.45312,-0.375 1.17187,-1.10937 1.17187,-1.10937 l 0.6875,-4.65625 -11.10937,-0.34375 -7.95313,0.29687 z"
     id="path2016" />
  <path
     style="fill:#e0332b;fill-opacity:1"
     d="m 288.4375,244.21875 c 0,0 -0.0625,0.71875 0.5625,3.75 0.625,3.03125 1.15625,4.90625 1.40625,5.65625 0.25,0.75 2.15625,2.25 2.15625,2.25 l 3.84375,-4.75 z"
     id="path2018" />
  <path
     style="fill:#e0332b;fill-opacity:1"
     d="m 316.4375,244.46875 c 0,0 -0.0312,1.34375 -0.21875,3.3125 -0.1875,1.96875 -0.4375,2.84375 -0.65625,4.375 -0.21875,1.53125 -0.5,2.09375 -0.84375,3.5 -0.34375,1.40625 -0.4375,2.5625 -1.03125,2.8125 -0.59375,0.25 -1.65625,0.28125 -2.8125,0.28125 -1.15625,0 -1.5,0.0937 -3.8125,0.0625 -2.3125,-0.0312 -5.90625,-0.0312 -5.90625,-0.0312 l -6.5,0.0625 -0.3125,-4.96875 c 0,0 6.6875,-4.46875 6.8125,-4.5625 0.125,-0.0937 9.03125,-4.375 9.03125,-4.375 z"
     id="path2020" />
  <path
     style="fill:#e0332b;fill-opacity:1"
     d="m 326.86011,176.33475 c 0.20691,0.38469 0.26516,0.80615 0.26516,1.23744"
     id="path2136" />
  <path
     style="fill:#e0332b;fill-opacity:1"
     d="m 327.12527,195.16147 -0.0884,39.4212"
     id="path2138" />
  <path
     style="fill:#e0332b;fill-opacity:1"
     d="m 327.74399,246.86865 c 0.0295,0.11786 0.0589,0.23571 0,0 z"
     id="path2140" />
  <path
     style="fill:#e0332b;fill-opacity:1"
     d="m 326.32978,175.00893 c 0.53033,4.77297 0.53033,13.78858 0.53033,13.78858 l 0.44194,9.54594 0.17678,28.54944 0.26516,13.6118 v 21.38998 l 2.82843,4.06587 12.1092,-42.24963 -2.65165,-36.416 -6.62912,-12.99309 z"
     id="path2142" />
  <path
     style="fill:#e0332b;fill-opacity:1"
     d="m 326.9485,187.91363 0.0884,6.89429"
     id="path2144" />
  <path
     style="fill:#e0332b;fill-opacity:1"
     d="m 325.97623,195.07308 -2.65166,-6.09879"
     id="path2146" />
  <path
     style="fill:#fcbec2;fill-opacity:1"
     d="m 326.77172,184.46648 0.44194,12.1092 -2.38648,-4.24264 c 0,0 -0.44194,-1.14904 -1.06066,-2.29809 -0.61872,-1.14905 -1.23744,-3.8007 -1.23744,-3.8007 l 1.06066,-1.94455 z"
     id="path2148" />
  <rect
     style="fill:#e0332b;fill-opacity:1"
     id="rect2267"
     width="32.173359"
     height="57.098873"
     x="209.65717"
     y="202.05577" />
  <rect
     style="fill:#e0332b;fill-opacity:1"
     id="rect2267-8"
     width="32.173359"
     height="57.098873"
     x="247.31059"
     y="202.14415" />
  <rect
     style="fill:#e0332b;fill-opacity:1"
     id="rect2267-1"
     width="32.173359"
     height="57.098873"
     x="286.55502"
     y="202.32092" />
</svg>
