<?xml version="1.0" encoding="UTF-8" standalone="no"?>
<!DOCTYPE svg PUBLIC "-//W3C//DTD SVG 1.1//EN" "http://www.w3.org/Graphics/SVG/1.1/DTD/svg11.dtd">
<svg xmlns="http://www.w3.org/2000/svg" version="1.1" viewBox="0.00 0.00 71.00 62.00">
<g stroke-width="2.00" fill="none" stroke-linecap="butt">
<path stroke="#8b8a93" vector-effect="non-scaling-stroke" d="
  M 62.6048 17.5830
  A 10.11 10.11 0.0 0 0 52.4772 7.4906
  L 18.7772 7.5494
  A 10.11 10.11 0.0 0 0 8.6849 17.6771
  L 8.7352 46.4770
  A 10.11 10.11 0.0 0 0 18.8628 56.5694
  L 52.5628 56.5106
  A 10.11 10.11 0.0 0 0 62.6551 46.3829
  L 62.6048 17.5830"
/>
<path stroke="#8b8a93" vector-effect="non-scaling-stroke" d="
  M 12.90 21.60
  L 58.46 21.52
  A 0.57 0.57 0.0 0 0 59.03 20.95
  L 59.02 17.92
  A 7.13 6.96 -0.1 0 0 51.88 10.97
  L 19.44 11.03
  A 7.13 6.96 -0.1 0 0 12.32 18.00
  L 12.33 21.03
  A 0.57 0.57 0.0 0 0 12.90 21.60"
/>
<path stroke="#8b8a93" vector-effect="non-scaling-stroke" d="
  M 58.67 25.11
  L 12.71 25.11
  A 0.38 0.38 0.0 0 0 12.33 25.49
  L 12.33 46.05
  A 7.31 7.00 0.0 0 0 19.64 53.05
  L 51.74 53.05
  A 7.31 7.00 -0.0 0 0 59.05 46.05
  L 59.05 25.49
  A 0.38 0.38 0.0 0 0 58.67 25.11"
/>
<path stroke="#8b8a93" vector-effect="non-scaling-stroke" d="
  M 33.10 43.21
  A 1.56 1.56 0.0 0 0 31.54 41.65
  L 20.56 41.65
  A 1.56 1.56 0.0 0 0 19.00 43.21
  L 19.00 43.59
  A 1.56 1.56 0.0 0 0 20.56 45.15
  L 31.54 45.15
  A 1.56 1.56 0.0 0 0 33.10 43.59
  L 33.10 43.21"
/>
</g>
<path fill="#ffffff" d="
  M 0.00 0.00
  L 71.00 0.00
  L 71.00 62.00
  L 0.00 62.00
  L 0.00 0.00
  Z
  M 62.6048 17.5830
  A 10.11 10.11 0.0 0 0 52.4772 7.4906
  L 18.7772 7.5494
  A 10.11 10.11 0.0 0 0 8.6849 17.6771
  L 8.7352 46.4770
  A 10.11 10.11 0.0 0 0 18.8628 56.5694
  L 52.5628 56.5106
  A 10.11 10.11 0.0 0 0 62.6551 46.3829
  L 62.6048 17.5830
  Z"
/>
<path fill="#161527" d="
  M 62.6551 46.3829
  A 10.11 10.11 0.0 0 1 52.5628 56.5106
  L 18.8628 56.5694
  A 10.11 10.11 0.0 0 1 8.7352 46.4770
  L 8.6849 17.6771
  A 10.11 10.11 0.0 0 1 18.7772 7.5494
  L 52.4772 7.4906
  A 10.11 10.11 0.0 0 1 62.6048 17.5830
  L 62.6551 46.3829
  Z
  M 12.90 21.60
  L 58.46 21.52
  A 0.57 0.57 0.0 0 0 59.03 20.95
  L 59.02 17.92
  A 7.13 6.96 -0.1 0 0 51.88 10.97
  L 19.44 11.03
  A 7.13 6.96 -0.1 0 0 12.32 18.00
  L 12.33 21.03
  A 0.57 0.57 0.0 0 0 12.90 21.60
  Z
  M 58.67 25.11
  L 12.71 25.11
  A 0.38 0.38 0.0 0 0 12.33 25.49
  L 12.33 46.05
  A 7.31 7.00 0.0 0 0 19.64 53.05
  L 51.74 53.05
  A 7.31 7.00 -0.0 0 0 59.05 46.05
  L 59.05 25.49
  A 0.38 0.38 0.0 0 0 58.67 25.11
  Z"
/>
<path fill="#ffffff" d="
  M 12.90 21.60
  A 0.57 0.57 0.0 0 1 12.33 21.03
  L 12.32 18.00
  A 7.13 6.96 -0.1 0 1 19.44 11.03
  L 51.88 10.97
  A 7.13 6.96 -0.1 0 1 59.02 17.92
  L 59.03 20.95
  A 0.57 0.57 0.0 0 1 58.46 21.52
  L 12.90 21.60
  Z"
/>
<path fill="#ffffff" d="
  M 58.67 25.11
  A 0.38 0.38 0.0 0 1 59.05 25.49
  L 59.05 46.05
  A 7.31 7.00 0.0 0 1 51.74 53.05
  L 19.64 53.05
  A 7.31 7.00 -0.0 0 1 12.33 46.05
  L 12.33 25.49
  A 0.38 0.38 0.0 0 1 12.71 25.11
  L 58.67 25.11
  Z
  M 33.10 43.21
  A 1.56 1.56 0.0 0 0 31.54 41.65
  L 20.56 41.65
  A 1.56 1.56 0.0 0 0 19.00 43.21
  L 19.00 43.59
  A 1.56 1.56 0.0 0 0 20.56 45.15
  L 31.54 45.15
  A 1.56 1.56 0.0 0 0 33.10 43.59
  L 33.10 43.21
  Z"
/>
<rect fill="#161527" x="19.00" y="41.65" width="14.10" height="3.50" rx="1.56"/>
</svg>
