<?xml version="1.0" encoding="UTF-8" standalone="no"?>
<!DOCTYPE svg PUBLIC "-//W3C//DTD SVG 1.1//EN" "http://www.w3.org/Graphics/SVG/1.1/DTD/svg11.dtd">
<svg xmlns="http://www.w3.org/2000/svg" version="1.1" viewBox="0.00 0.00 128.00 120.00">
<g stroke-width="2.00" fill="none" stroke-linecap="butt">
<path stroke="#8e8895" vector-effect="non-scaling-stroke" d="
  M 108.4388 36.6756
  A 19.83 19.83 0.0 0 0 88.6781 16.7765
  L 39.2584 16.6040
  A 19.83 19.83 0.0 0 0 19.3593 36.3647
  L 19.2012 81.6444
  A 19.83 19.83 0.0 0 0 38.9619 101.5435
  L 88.3816 101.7160
  A 19.83 19.83 0.0 0 0 108.2807 81.9553
  L 108.4388 36.6756"
/>
<path stroke="#8e8895" vector-effect="non-scaling-stroke" d="
  M 93.55 23.92
  Q 89.84 22.34 84.92 23.06
  Q 84.50 23.13 84.50 23.55
  L 84.49 42.08
  Q 84.49 42.67 85.08 42.67
  L 101.52 42.69
  Q 102.02 42.69 102.07 42.19
  C 102.86 34.39 101.47 27.28 93.55 23.92"
/>
<path stroke="#8e8895" vector-effect="non-scaling-stroke" d="
  M 42.64 23.22
  C 29.88 21.37 23.85 30.89 25.75 42.25
  A 0.49 0.48 -4.1 0 0 26.23 42.66
  L 42.57 42.59
  A 0.65 0.64 0.0 0 0 43.22 41.95
  L 43.20 23.86
  Q 43.20 23.30 42.64 23.22"
/>
<path stroke="#8e8895" vector-effect="non-scaling-stroke" d="
  M 64.43 53.82
  C 68.64 55.05 72.90 58.78 77.32 60.59
  Q 77.79 60.78 77.79 60.28
  L 77.80 23.55
  A 0.62 0.62 0.0 0 0 77.18 22.93
  L 50.55 22.93
  Q 49.79 22.93 49.79 23.70
  L 49.80 59.72
  Q 49.80 61.17 51.04 60.42
  Q 56.51 57.10 62.06 54.33
  Q 63.59 53.57 64.43 53.82"
/>
<path stroke="#8e8895" vector-effect="non-scaling-stroke" d="
  M 82.86 66.95
  C 79.32 70.67 76.04 67.85 71.66 65.36
  Q 67.97 63.27 64.26 61.04
  A 0.88 0.88 0.0 0 0 63.34 61.04
  Q 57.31 64.69 51.03 67.96
  C 46.82 70.16 43.28 67.05 43.27 62.63
  Q 43.24 55.88 43.07 49.23
  Q 43.06 48.73 42.55 48.73
  L 25.98 48.77
  A 0.48 0.48 0.0 0 0 25.50 49.25
  Q 25.37 64.08 25.49 78.94
  C 25.54 85.87 26.76 90.93 32.96 93.91
  Q 35.93 95.33 42.27 95.35
  Q 62.42 95.42 82.57 95.39
  C 89.80 95.38 97.11 95.41 100.68 88.10
  Q 102.01 85.38 102.11 79.66
  Q 102.37 64.58 102.09 49.39
  Q 102.08 48.78 101.47 48.78
  L 85.02 48.75
  Q 84.47 48.75 84.48 49.30
  Q 84.66 56.19 84.30 63.01
  Q 84.17 65.57 82.86 66.95"
/>
</g>
<path fill="#ffffff" d="
  M 0.00 0.00
  L 128.00 0.00
  L 128.00 120.00
  L 0.00 120.00
  L 0.00 0.00
  Z
  M 108.4388 36.6756
  A 19.83 19.83 0.0 0 0 88.6781 16.7765
  L 39.2584 16.6040
  A 19.83 19.83 0.0 0 0 19.3593 36.3647
  L 19.2012 81.6444
  A 19.83 19.83 0.0 0 0 38.9619 101.5435
  L 88.3816 101.7160
  A 19.83 19.83 0.0 0 0 108.2807 81.9553
  L 108.4388 36.6756
  Z"
/>
<path fill="#1d102a" d="
  M 108.2807 81.9553
  A 19.83 19.83 0.0 0 1 88.3816 101.7160
  L 38.9619 101.5435
  A 19.83 19.83 0.0 0 1 19.2012 81.6444
  L 19.3593 36.3647
  A 19.83 19.83 0.0 0 1 39.2584 16.6040
  L 88.6781 16.7765
  A 19.83 19.83 0.0 0 1 108.4388 36.6756
  L 108.2807 81.9553
  Z
  M 93.55 23.92
  Q 89.84 22.34 84.92 23.06
  Q 84.50 23.13 84.50 23.55
  L 84.49 42.08
  Q 84.49 42.67 85.08 42.67
  L 101.52 42.69
  Q 102.02 42.69 102.07 42.19
  C 102.86 34.39 101.47 27.28 93.55 23.92
  Z
  M 42.64 23.22
  C 29.88 21.37 23.85 30.89 25.75 42.25
  A 0.49 0.48 -4.1 0 0 26.23 42.66
  L 42.57 42.59
  A 0.65 0.64 0.0 0 0 43.22 41.95
  L 43.20 23.86
  Q 43.20 23.30 42.64 23.22
  Z
  M 64.43 53.82
  C 68.64 55.05 72.90 58.78 77.32 60.59
  Q 77.79 60.78 77.79 60.28
  L 77.80 23.55
  A 0.62 0.62 0.0 0 0 77.18 22.93
  L 50.55 22.93
  Q 49.79 22.93 49.79 23.70
  L 49.80 59.72
  Q 49.80 61.17 51.04 60.42
  Q 56.51 57.10 62.06 54.33
  Q 63.59 53.57 64.43 53.82
  Z
  M 82.86 66.95
  C 79.32 70.67 76.04 67.85 71.66 65.36
  Q 67.97 63.27 64.26 61.04
  A 0.88 0.88 0.0 0 0 63.34 61.04
  Q 57.31 64.69 51.03 67.96
  C 46.82 70.16 43.28 67.05 43.27 62.63
  Q 43.24 55.88 43.07 49.23
  Q 43.06 48.73 42.55 48.73
  L 25.98 48.77
  A 0.48 0.48 0.0 0 0 25.50 49.25
  Q 25.37 64.08 25.49 78.94
  C 25.54 85.87 26.76 90.93 32.96 93.91
  Q 35.93 95.33 42.27 95.35
  Q 62.42 95.42 82.57 95.39
  C 89.80 95.38 97.11 95.41 100.68 88.10
  Q 102.01 85.38 102.11 79.66
  Q 102.37 64.58 102.09 49.39
  Q 102.08 48.78 101.47 48.78
  L 85.02 48.75
  Q 84.47 48.75 84.48 49.30
  Q 84.66 56.19 84.30 63.01
  Q 84.17 65.57 82.86 66.95
  Z"
/>
<path fill="#ffffff" d="
  M 93.55 23.92
  C 101.47 27.28 102.86 34.39 102.07 42.19
  Q 102.02 42.69 101.52 42.69
  L 85.08 42.67
  Q 84.49 42.67 84.49 42.08
  L 84.50 23.55
  Q 84.50 23.13 84.92 23.06
  Q 89.84 22.34 93.55 23.92
  Z"
/>
<path fill="#ffffff" d="
  M 25.75 42.25
  C 23.85 30.89 29.88 21.37 42.64 23.22
  Q 43.20 23.30 43.20 23.86
  L 43.22 41.95
  A 0.65 0.64 0.0 0 1 42.57 42.59
  L 26.23 42.66
  A 0.49 0.48 -4.1 0 1 25.75 42.25
  Z"
/>
<path fill="#ffffff" d="
  M 77.32 60.59
  C 72.90 58.78 68.64 55.05 64.43 53.82
  Q 63.59 53.57 62.06 54.33
  Q 56.51 57.10 51.04 60.42
  Q 49.80 61.17 49.80 59.72
  L 49.79 23.70
  Q 49.79 22.93 50.55 22.93
  L 77.18 22.93
  A 0.62 0.62 0.0 0 1 77.80 23.55
  L 77.79 60.28
  Q 77.79 60.78 77.32 60.59
  Z"
/>
<path fill="#ffffff" d="
  M 84.30 63.01
  Q 84.66 56.19 84.48 49.30
  Q 84.47 48.75 85.02 48.75
  L 101.47 48.78
  Q 102.08 48.78 102.09 49.39
  Q 102.37 64.58 102.11 79.66
  Q 102.01 85.38 100.68 88.10
  C 97.11 95.41 89.80 95.38 82.57 95.39
  Q 62.42 95.42 42.27 95.35
  Q 35.93 95.33 32.96 93.91
  C 26.76 90.93 25.54 85.87 25.49 78.94
  Q 25.37 64.08 25.50 49.25
  A 0.48 0.48 0.0 0 1 25.98 48.77
  L 42.55 48.73
  Q 43.06 48.73 43.07 49.23
  Q 43.24 55.88 43.27 62.63
  C 43.28 67.05 46.82 70.16 51.03 67.96
  Q 57.31 64.69 63.34 61.04
  A 0.88 0.88 0.0 0 1 64.26 61.04
  Q 67.97 63.27 71.66 65.36
  C 76.04 67.85 79.32 70.67 82.86 66.95
  Q 84.17 65.57 84.30 63.01
  Z"
/>
</svg>
