<?xml version="1.0" encoding="UTF-8" standalone="no"?>
<!DOCTYPE svg PUBLIC "-//W3C//DTD SVG 1.1//EN" "http://www.w3.org/Graphics/SVG/1.1/DTD/svg11.dtd">
<svg xmlns="http://www.w3.org/2000/svg" version="1.1" viewBox="0.00 0.00 81.00 71.00">
<g stroke-width="2.00" fill="none" stroke-linecap="butt">
<path stroke="#8e859b" vector-effect="non-scaling-stroke" d="
  M 31.29 56.97
  Q 33.94 61.67 38.65 59.94
  C 40.03 59.43 40.97 57.93 41.88 56.79
  Q 42.15 56.45 42.57 56.46
  L 47.97 56.49
  Q 48.47 56.49 48.80 56.86
  C 49.94 58.14 50.82 59.64 52.52 60.11
  Q 56.91 61.33 59.33 57.17
  A 1.10 1.08 10.4 0 1 60.11 56.64
  C 66.59 55.65 65.83 51.41 65.87 45.52
  Q 65.92 37.18 65.82 28.84
  C 65.75 23.14 64.59 19.25 58.50 18.58
  Q 55.91 18.30 46.00 18.55
  C 44.08 18.60 42.23 19.68 40.81 21.31
  Q 39.71 22.59 38.53 22.54
  C 28.24 22.16 23.02 23.43 22.96 34.97
  Q 22.91 42.52 22.99 50.08
  C 23.04 55.20 25.56 56.80 30.41 56.49
  A 0.96 0.95 -16.2 0 1 31.29 56.97"
/>
<path stroke="#8e859b" vector-effect="non-scaling-stroke" d="
  M 43.54 40.41
  L 61.10 40.45
  A 1.62 1.62 0.0 0 0 62.73 38.83
  L 62.75 26.47
  A 4.88 4.72 -89.9 0 0 58.04 21.58
  L 46.68 21.56
  A 4.88 4.72 -89.9 0 0 41.95 26.43
  L 41.93 38.79
  A 1.62 1.62 0.0 0 0 43.54 40.41"
/>
<path stroke="#8e859b" vector-effect="non-scaling-stroke" d="
  M 33.22 43.61
  L 26.19 43.69
  A 0.46 0.46 0.0 0 0 25.74 44.17
  L 25.94 51.86
  A 1.03 1.01 17.5 0 0 26.37 52.67
  Q 28.15 53.98 30.29 53.61
  Q 30.77 53.53 30.97 53.09
  C 33.83 47.04 39.05 48.58 42.14 53.25
  Q 42.36 53.58 42.75 53.58
  L 47.92 53.61
  A 0.89 0.88 12.7 0 0 48.72 53.11
  C 51.37 47.66 56.75 48.05 59.70 52.94
  A 1.40 1.40 0.0 0 0 62.28 52.49
  Q 63.09 48.46 62.66 44.28
  Q 62.61 43.73 62.05 43.72
  Q 53.52 43.72 45.01 43.62
  Q 38.78 43.55 38.75 38.00
  Q 38.72 32.21 38.72 26.28
  Q 38.72 25.77 38.22 25.73
  C 25.36 24.70 25.58 29.26 25.84 40.10
  Q 25.86 40.72 26.48 40.71
  L 30.33 40.62
  A 0.61 0.60 -89.5 0 0 30.92 40.03
  L 31.03 36.75
  A 1.45 1.45 0.0 0 1 33.92 36.73
  Q 34.08 39.87 33.96 42.88
  A 0.75 0.75 0.0 0 1 33.22 43.61"
/>
<path stroke="#8e859b" vector-effect="non-scaling-stroke" d="
  M 38.98 54.90
  A 2.53 2.53 0.0 0 0 36.45 52.37
  A 2.53 2.53 0.0 0 0 33.92 54.90
  A 2.53 2.53 0.0 0 0 36.45 57.43
  A 2.53 2.53 0.0 0 0 38.98 54.90"
/>
<path stroke="#8e859b" vector-effect="non-scaling-stroke" d="
  M 56.76 54.88
  A 2.51 2.51 0.0 0 0 54.25 52.37
  A 2.51 2.51 0.0 0 0 51.74 54.88
  A 2.51 2.51 0.0 0 0 54.25 57.39
  A 2.51 2.51 0.0 0 0 56.76 54.88"
/>
</g>
<path fill="#ffffff" d="
  M 0.00 0.00
  L 81.00 0.00
  L 81.00 71.00
  L 0.00 71.00
  L 0.00 0.00
  Z
  M 31.29 56.97
  Q 33.94 61.67 38.65 59.94
  C 40.03 59.43 40.97 57.93 41.88 56.79
  Q 42.15 56.45 42.57 56.46
  L 47.97 56.49
  Q 48.47 56.49 48.80 56.86
  C 49.94 58.14 50.82 59.64 52.52 60.11
  Q 56.91 61.33 59.33 57.17
  A 1.10 1.08 10.4 0 1 60.11 56.64
  C 66.59 55.65 65.83 51.41 65.87 45.52
  Q 65.92 37.18 65.82 28.84
  C 65.75 23.14 64.59 19.25 58.50 18.58
  Q 55.91 18.30 46.00 18.55
  C 44.08 18.60 42.23 19.68 40.81 21.31
  Q 39.71 22.59 38.53 22.54
  C 28.24 22.16 23.02 23.43 22.96 34.97
  Q 22.91 42.52 22.99 50.08
  C 23.04 55.20 25.56 56.80 30.41 56.49
  A 0.96 0.95 -16.2 0 1 31.29 56.97
  Z"
/>
<path fill="#1d0b36" d="
  M 30.41 56.49
  C 25.56 56.80 23.04 55.20 22.99 50.08
  Q 22.91 42.52 22.96 34.97
  C 23.02 23.43 28.24 22.16 38.53 22.54
  Q 39.71 22.59 40.81 21.31
  C 42.23 19.68 44.08 18.60 46.00 18.55
  Q 55.91 18.30 58.50 18.58
  C 64.59 19.25 65.75 23.14 65.82 28.84
  Q 65.92 37.18 65.87 45.52
  C 65.83 51.41 66.59 55.65 60.11 56.64
  A 1.10 1.08 10.4 0 0 59.33 57.17
  Q 56.91 61.33 52.52 60.11
  C 50.82 59.64 49.94 58.14 48.80 56.86
  Q 48.47 56.49 47.97 56.49
  L 42.57 56.46
  Q 42.15 56.45 41.88 56.79
  C 40.97 57.93 40.03 59.43 38.65 59.94
  Q 33.94 61.67 31.29 56.97
  A 0.96 0.95 -16.2 0 0 30.41 56.49
  Z
  M 43.54 40.41
  L 61.10 40.45
  A 1.62 1.62 0.0 0 0 62.73 38.83
  L 62.75 26.47
  A 4.88 4.72 -89.9 0 0 58.04 21.58
  L 46.68 21.56
  A 4.88 4.72 -89.9 0 0 41.95 26.43
  L 41.93 38.79
  A 1.62 1.62 0.0 0 0 43.54 40.41
  Z
  M 33.22 43.61
  L 26.19 43.69
  A 0.46 0.46 0.0 0 0 25.74 44.17
  L 25.94 51.86
  A 1.03 1.01 17.5 0 0 26.37 52.67
  Q 28.15 53.98 30.29 53.61
  Q 30.77 53.53 30.97 53.09
  C 33.83 47.04 39.05 48.58 42.14 53.25
  Q 42.36 53.58 42.75 53.58
  L 47.92 53.61
  A 0.89 0.88 12.7 0 0 48.72 53.11
  C 51.37 47.66 56.75 48.05 59.70 52.94
  A 1.40 1.40 0.0 0 0 62.28 52.49
  Q 63.09 48.46 62.66 44.28
  Q 62.61 43.73 62.05 43.72
  Q 53.52 43.72 45.01 43.62
  Q 38.78 43.55 38.75 38.00
  Q 38.72 32.21 38.72 26.28
  Q 38.72 25.77 38.22 25.73
  C 25.36 24.70 25.58 29.26 25.84 40.10
  Q 25.86 40.72 26.48 40.71
  L 30.33 40.62
  A 0.61 0.60 -89.5 0 0 30.92 40.03
  L 31.03 36.75
  A 1.45 1.45 0.0 0 1 33.92 36.73
  Q 34.08 39.87 33.96 42.88
  A 0.75 0.75 0.0 0 1 33.22 43.61
  Z
  M 38.98 54.90
  A 2.53 2.53 0.0 0 0 36.45 52.37
  A 2.53 2.53 0.0 0 0 33.92 54.90
  A 2.53 2.53 0.0 0 0 36.45 57.43
  A 2.53 2.53 0.0 0 0 38.98 54.90
  Z
  M 56.76 54.88
  A 2.51 2.51 0.0 0 0 54.25 52.37
  A 2.51 2.51 0.0 0 0 51.74 54.88
  A 2.51 2.51 0.0 0 0 54.25 57.39
  A 2.51 2.51 0.0 0 0 56.76 54.88
  Z"
/>
<path fill="#ffffff" d="
  M 43.54 40.41
  A 1.62 1.62 0.0 0 1 41.93 38.79
  L 41.95 26.43
  A 4.88 4.72 -89.9 0 1 46.68 21.56
  L 58.04 21.58
  A 4.88 4.72 -89.9 0 1 62.75 26.47
  L 62.73 38.83
  A 1.62 1.62 0.0 0 1 61.10 40.45
  L 43.54 40.41
  Z"
/>
<path fill="#ffffff" d="
  M 33.96 42.88
  Q 34.08 39.87 33.92 36.73
  A 1.45 1.45 0.0 0 0 31.03 36.75
  L 30.92 40.03
  A 0.61 0.60 -89.5 0 1 30.33 40.62
  L 26.48 40.71
  Q 25.86 40.72 25.84 40.10
  C 25.58 29.26 25.36 24.70 38.22 25.73
  Q 38.72 25.77 38.72 26.28
  Q 38.72 32.21 38.75 38.00
  Q 38.78 43.55 45.01 43.62
  Q 53.52 43.72 62.05 43.72
  Q 62.61 43.73 62.66 44.28
  Q 63.09 48.46 62.28 52.49
  A 1.40 1.40 0.0 0 1 59.70 52.94
  C 56.75 48.05 51.37 47.66 48.72 53.11
  A 0.89 0.88 12.7 0 1 47.92 53.61
  L 42.75 53.58
  Q 42.36 53.58 42.14 53.25
  C 39.05 48.58 33.83 47.04 30.97 53.09
  Q 30.77 53.53 30.29 53.61
  Q 28.15 53.98 26.37 52.67
  A 1.03 1.01 17.5 0 1 25.94 51.86
  L 25.74 44.17
  A 0.46 0.46 0.0 0 1 26.19 43.69
  L 33.22 43.61
  A 0.75 0.75 0.0 0 0 33.96 42.88
  Z"
/>
<circle fill="#ffffff" cx="36.45" cy="54.90" r="2.53"/>
<circle fill="#ffffff" cx="54.25" cy="54.88" r="2.51"/>
</svg>
