<?xml version="1.0" encoding="UTF-8" standalone="no"?>
<!DOCTYPE svg PUBLIC "-//W3C//DTD SVG 1.1//EN" "http://www.w3.org/Graphics/SVG/1.1/DTD/svg11.dtd">
<svg xmlns="http://www.w3.org/2000/svg" version="1.1" viewBox="0.00 0.00 60.00 65.00">
<g stroke-width="2.00" fill="none" stroke-linecap="butt">
<path stroke="#918999" vector-effect="non-scaling-stroke" d="
  M 18.51 51.88
  Q 27.35 57.04 36.52 53.80
  C 49.89 49.07 54.57 32.26 45.98 21.24
  C 31.86 3.14 4.05 17.25 8.98 38.89
  C 9.38 40.67 10.39 42.62 11.07 44.51
  A 1.58 1.55 -46.2 0 1 11.08 45.50
  C 10.44 47.54 8.61 51.89 11.73 52.89
  C 13.23 53.37 15.85 52.02 17.54 51.71
  A 1.39 1.37 -34.7 0 1 18.51 51.88"
/>
<path stroke="#918999" vector-effect="non-scaling-stroke" d="
  M 42.77 22.20
  C 31.44 9.15 11.04 18.43 11.48 35.13
  C 11.57 38.20 13.15 41.24 14.23 44.24
  A 1.74 1.66 -48.6 0 1 14.27 45.29
  L 13.20 49.02
  A 0.49 0.49 0.0 0 0 13.88 49.59
  C 16.33 48.45 18.00 48.39 20.58 49.68
  C 38.63 58.71 56.22 37.69 42.77 22.20"
/>
<path stroke="#918999" vector-effect="non-scaling-stroke" d="
  M 22.45 34.55
  A 2.52 2.52 0.0 0 0 19.93 32.03
  A 2.52 2.52 0.0 0 0 17.41 34.55
  A 2.52 2.52 0.0 0 0 19.93 37.07
  A 2.52 2.52 0.0 0 0 22.45 34.55"
/>
<path stroke="#918999" vector-effect="non-scaling-stroke" d="
  M 31.84 34.57
  A 2.50 2.50 0.0 0 0 29.34 32.07
  A 2.50 2.50 0.0 0 0 26.84 34.57
  A 2.50 2.50 0.0 0 0 29.34 37.07
  A 2.50 2.50 0.0 0 0 31.84 34.57"
/>
<path stroke="#918999" vector-effect="non-scaling-stroke" d="
  M 41.36 34.56
  A 2.49 2.49 0.0 0 0 38.87 32.07
  A 2.49 2.49 0.0 0 0 36.38 34.56
  A 2.49 2.49 0.0 0 0 38.87 37.05
  A 2.49 2.49 0.0 0 0 41.36 34.56"
/>
</g>
<path fill="#ffffff" d="
  M 0.00 0.00
  L 60.00 0.00
  L 60.00 65.00
  L 0.00 65.00
  L 0.00 0.00
  Z
  M 18.51 51.88
  Q 27.35 57.04 36.52 53.80
  C 49.89 49.07 54.57 32.26 45.98 21.24
  C 31.86 3.14 4.05 17.25 8.98 38.89
  C 9.38 40.67 10.39 42.62 11.07 44.51
  A 1.58 1.55 -46.2 0 1 11.08 45.50
  C 10.44 47.54 8.61 51.89 11.73 52.89
  C 13.23 53.37 15.85 52.02 17.54 51.71
  A 1.39 1.37 -34.7 0 1 18.51 51.88
  Z"
/>
<path fill="#231233" d="
  M 17.54 51.71
  C 15.85 52.02 13.23 53.37 11.73 52.89
  C 8.61 51.89 10.44 47.54 11.08 45.50
  A 1.58 1.55 -46.2 0 0 11.07 44.51
  C 10.39 42.62 9.38 40.67 8.98 38.89
  C 4.05 17.25 31.86 3.14 45.98 21.24
  C 54.57 32.26 49.89 49.07 36.52 53.80
  Q 27.35 57.04 18.51 51.88
  A 1.39 1.37 -34.7 0 0 17.54 51.71
  Z
  M 42.77 22.20
  C 31.44 9.15 11.04 18.43 11.48 35.13
  C 11.57 38.20 13.15 41.24 14.23 44.24
  A 1.74 1.66 -48.6 0 1 14.27 45.29
  L 13.20 49.02
  A 0.49 0.49 0.0 0 0 13.88 49.59
  C 16.33 48.45 18.00 48.39 20.58 49.68
  C 38.63 58.71 56.22 37.69 42.77 22.20
  Z"
/>
<path fill="#ffffff" d="
  M 42.77 22.20
  C 56.22 37.69 38.63 58.71 20.58 49.68
  C 18.00 48.39 16.33 48.45 13.88 49.59
  A 0.49 0.49 0.0 0 1 13.20 49.02
  L 14.27 45.29
  A 1.74 1.66 -48.6 0 0 14.23 44.24
  C 13.15 41.24 11.57 38.20 11.48 35.13
  C 11.04 18.43 31.44 9.15 42.77 22.20
  Z
  M 22.45 34.55
  A 2.52 2.52 0.0 0 0 19.93 32.03
  A 2.52 2.52 0.0 0 0 17.41 34.55
  A 2.52 2.52 0.0 0 0 19.93 37.07
  A 2.52 2.52 0.0 0 0 22.45 34.55
  Z
  M 31.84 34.57
  A 2.50 2.50 0.0 0 0 29.34 32.07
  A 2.50 2.50 0.0 0 0 26.84 34.57
  A 2.50 2.50 0.0 0 0 29.34 37.07
  A 2.50 2.50 0.0 0 0 31.84 34.57
  Z
  M 41.36 34.56
  A 2.49 2.49 0.0 0 0 38.87 32.07
  A 2.49 2.49 0.0 0 0 36.38 34.56
  A 2.49 2.49 0.0 0 0 38.87 37.05
  A 2.49 2.49 0.0 0 0 41.36 34.56
  Z"
/>
<circle fill="#231233" cx="19.93" cy="34.55" r="2.52"/>
<circle fill="#231233" cx="29.34" cy="34.57" r="2.50"/>
<circle fill="#231233" cx="38.87" cy="34.56" r="2.49"/>
</svg>
