<?xml version="1.0" encoding="UTF-8" standalone="no"?>
<!DOCTYPE svg PUBLIC "-//W3C//DTD SVG 1.1//EN" "http://www.w3.org/Graphics/SVG/1.1/DTD/svg11.dtd">
<svg xmlns="http://www.w3.org/2000/svg" version="1.1" viewBox="0.00 0.00 1474.00 1422.00">
<g stroke-width="2.00" fill="none" stroke-linecap="butt">
<path stroke="#fca8bb" vector-effect="non-scaling-stroke" d="
  M 586.54 1122.24
  C 584.26 1166.55 582.29 1197.86 584.92 1235.49
  C 586.15 1253.16 588.96 1271.59 595.92 1287.98
  C 611.09 1323.70 647.56 1335.17 683.51 1337.77
  C 713.77 1339.96 741.83 1337.67 774.00 1335.80
  Q 794.69 1334.59 813.19 1327.41
  C 847.80 1313.97 862.60 1282.56 866.30 1247.49
  C 868.28 1228.73 868.61 1210.45 867.92 1191.25
  Q 866.66 1156.63 865.61 1121.99"
/>
<path stroke="#fcb7cb" vector-effect="non-scaling-stroke" d="
  M 865.61 1121.99
  Q 866.60 1121.68 867.50 1121.76
  Q 920.46 1126.30 973.59 1127.82
  C 993.35 1128.38 1013.94 1128.50 1033.42 1125.06
  C 1062.81 1119.86 1091.63 1112.87 1120.47 1103.22
  Q 1244.97 1061.59 1328.10 961.93
  C 1356.40 928.00 1380.14 889.43 1398.94 849.47
  Q 1441.30 759.39 1439.49 659.51
  C 1437.26 535.74 1386.71 417.16 1299.28 329.86
  Q 1292.31 322.91 1284.73 316.17
  Q 1230.67 268.14 1168.74 238.76
  Q 1078.74 196.06 976.50 194.75
  Q 973.21 194.70 956.48 194.73
  Q 734.99 195.12 513.50 196.46
  Q 486.72 196.62 450.00 198.71
  Q 401.30 201.49 355.73 211.77
  C 303.79 223.48 254.64 246.66 211.93 278.45
  C 160.14 316.98 116.13 363.31 82.05 418.30
  C 2.08 547.28 -7.31 708.78 52.07 847.49
  Q 106.84 975.43 222.88 1052.55
  Q 231.29 1058.13 239.84 1063.12
  Q 304.09 1100.54 377.01 1116.52
  Q 419.52 1125.83 467.50 1127.79
  Q 529.16 1130.31 586.01 1122.13
  Q 586.18 1122.11 586.54 1122.24"
/>
<path stroke="#f85f87" vector-effect="non-scaling-stroke" d="
  M 865.61 1121.99
  Q 865.33 1121.48 864.40 1121.48
  Q 726.00 1121.53 587.59 1121.59
  Q 587.10 1121.59 586.77 1121.97
  L 586.54 1122.24"
/>
<path stroke="#f24376" vector-effect="non-scaling-stroke" d="
  M 227.20 959.36
  C 267.81 996.02 314.67 1026.28 367.30 1042.20
  C 421.14 1058.49 476.10 1060.96 533.00 1061.54
  Q 541.50 1061.63 553.00 1061.52
  Q 747.57 1059.80 942.13 1058.17
  Q 978.30 1057.87 1016.74 1054.73
  C 1043.85 1052.52 1071.71 1048.13 1097.25 1039.39
  C 1195.10 1005.89 1273.18 941.15 1321.25 849.41
  C 1368.63 759.00 1379.30 649.57 1351.09 551.59
  Q 1321.16 447.62 1243.40 371.82
  Q 1242.96 371.39 1242.57 370.93"
/>
<path stroke="#f85281" vector-effect="non-scaling-stroke" d="
  M 1242.57 370.93
  Q 1157.28 293.97 1043.69 273.95
  Q 1001.41 266.51 960.00 266.49
  C 907.15 266.48 847.58 267.35 785.25 267.45
  Q 671.75 267.63 558.25 268.84
  C 554.15 268.89 549.75 269.21 545.92 269.22
  Q 483.07 269.32 449.00 270.18
  Q 430.93 270.64 407.53 273.72
  Q 407.44 273.73 399.95 274.51
  Q 392.61 275.27 382.87 277.87
  Q 362.28 283.38 356.03 285.34
  Q 338.61 290.80 317.76 300.52
  Q 295.04 311.11 266.92 329.14
  Q 264.10 330.95 258.18 335.04
  Q 253.84 338.05 249.40 340.89
  C 245.88 343.15 242.64 346.51 239.03 348.78
  Q 233.50 352.25 229.66 355.79
  Q 223.30 361.65 216.47 366.97
  Q 210.10 371.93 195.59 386.47
  Q 195.10 386.95 193.78 388.54
  C 192.28 390.34 190.23 391.66 188.91 393.30
  Q 182.91 400.72 176.04 407.36
  C 174.90 408.47 174.18 409.90 173.33 411.25
  Q 172.46 412.65 171.22 414.13
  Q 154.86 433.83 142.44 454.72
  C 99.70 526.62 86.40 607.21 90.13 690.75
  Q 92.40 741.51 106.55 788.74
  C 127.40 858.31 169.05 915.46 227.20 959.36"
/>
<path stroke="#f12760" vector-effect="non-scaling-stroke" d="
  M 1242.57 370.93
  Q 1240.60 372.07 1239.99 372.22
  Q 1180.78 385.82 1163.03 443.72
  Q 1159.00 456.88 1156.00 481.15"
/>
<path stroke="#fb95b3" vector-effect="non-scaling-stroke" d="
  M 1156.00 481.15
  Q 1151.53 470.64 1144.39 465.10
  Q 1140.43 462.02 1134.00 462.03
  Q 1005.84 462.31 877.69 462.48
  C 874.29 462.49 869.74 463.49 867.54 465.53
  Q 859.05 473.41 850.66 481.42
  C 847.88 484.07 844.50 483.05 841.62 480.76
  C 825.79 468.14 771.89 424.55 759.36 464.20
  Q 757.85 468.98 758.28 474.00
  C 758.72 479.07 762.04 481.25 765.14 484.42"
/>
<path stroke="#f12760" vector-effect="non-scaling-stroke" d="
  M 765.14 484.42
  Q 764.84 484.50 764.63 484.55
  A 0.70 0.69 69.9 0 0 764.18 485.53
  C 770.56 498.79 777.49 517.14 769.34 531.28
  C 762.60 542.96 745.82 548.27 733.04 549.50
  C 729.28 549.86 725.76 550.47 722.03 549.54
  Q 718.82 548.74 714.19 545.29
  Q 693.58 529.90 672.85 514.37
  A 1.52 1.52 0.0 0 0 670.44 515.37
  C 669.19 523.93 679.76 521.67 681.49 528.95
  Q 682.81 534.50 680.66 539.49"
/>
<path stroke="#fb95b3" vector-effect="non-scaling-stroke" d="
  M 680.66 539.49
  Q 630.76 499.09 581.50 458.97
  C 567.04 447.20 547.23 448.33 533.89 461.15
  Q 491.50 501.88 448.89 542.39
  C 445.53 545.57 441.92 545.71 438.63 542.28
  C 436.15 539.68 433.59 536.87 430.95 534.75
  Q 417.60 524.07 400.49 524.80
  C 397.02 524.94 392.34 525.67 389.81 523.84
  C 386.11 521.17 385.77 510.71 386.05 505.75
  C 386.70 494.17 387.96 482.27 385.79 470.77
  Q 383.22 457.11 370.28 452.92
  Q 362.19 450.30 352.86 451.89
  C 343.84 453.44 339.71 459.18 339.54 468.27
  Q 339.09 492.44 338.57 516.62
  C 338.44 522.94 337.54 527.55 330.24 527.32
  Q 316.77 526.90 303.26 526.39
  C 295.84 526.10 292.36 526.85 289.93 534.01
  Q 283.60 552.72 297.15 564.78
  C 298.35 565.85 301.24 567.32 302.48 567.33
  Q 316.03 567.51 326.65 570.75
  C 332.77 572.61 338.15 574.71 338.16 581.49
  Q 338.22 615.74 338.72 650.01
  C 338.83 657.67 334.64 658.99 327.81 662.09
  Q 311.31 669.60 294.78 677.05
  C 286.66 680.71 279.81 683.86 277.47 693.10
  C 274.64 704.24 280.95 715.10 292.03 718.07
  Q 295.74 719.07 301.83 718.55
  Q 315.44 717.39 329.05 716.13
  C 336.19 715.47 342.44 715.97 342.13 724.76
  Q 340.73 764.17 339.22 803.60
  C 338.97 810.22 337.91 813.65 331.11 814.89
  Q 319.70 816.97 308.28 819.02
  Q 301.52 820.24 298.62 822.17
  C 291.35 827.01 289.86 838.74 295.36 845.06
  Q 298.50 848.68 306.62 851.75
  Q 323.48 858.13 342.68 858.34"
/>
<path stroke="#f12760" vector-effect="non-scaling-stroke" d="
  M 342.68 858.34
  Q 335.67 881.56 322.95 901.93
  C 302.13 935.25 271.09 952.22 231.10 947.98
  A 0.76 0.76 0.0 0 0 230.49 949.28
  Q 232.99 951.70 234.28 954.97
  A 1.05 1.04 52.0 0 1 234.16 955.98
  Q 231.96 959.02 227.20 959.36"
/>
<path stroke="#f585a8" vector-effect="non-scaling-stroke" d="
  M 342.68 858.34
  Q 344.75 858.11 350.75 858.94
  C 365.14 860.91 378.31 854.71 382.45 840.24
  Q 384.82 831.95 384.83 825.25
  Q 384.95 763.12 385.83 701.00
  Q 385.89 696.42 389.82 693.58
  Q 407.67 680.69 425.55 667.82
  Q 430.64 664.15 432.79 661.01
  C 439.38 651.37 436.30 638.43 426.15 632.87
  C 416.28 627.47 408.41 632.34 398.81 636.21
  C 394.48 637.95 390.09 638.11 387.71 633.78
  Q 386.45 631.49 386.72 626.00
  Q 388.09 598.50 389.47 570.99
  Q 389.78 564.78 394.99 563.21
  C 402.07 561.07 404.74 566.22 405.99 572.37
  Q 408.22 583.35 410.45 594.34
  C 411.35 598.81 412.60 601.92 417.51 601.91
  C 436.52 601.83 449.73 609.29 462.25 622.76
  C 464.79 625.50 468.07 627.54 471.50 627.55
  Q 553.83 627.78 636.15 627.82
  C 642.40 627.82 646.95 627.91 650.95 624.20
  Q 662.10 613.86 669.86 607.27
  C 684.69 594.68 712.08 580.34 698.08 556.47
  Q 693.60 548.83 686.19 543.51
  Q 683.15 541.33 680.66 539.49"
/>
<path stroke="#f585a8" vector-effect="non-scaling-stroke" d="
  M 765.14 484.42
  C 787.76 507.69 815.57 524.62 847.49 531.16
  C 853.18 532.33 856.08 533.53 855.92 539.75
  Q 855.10 571.43 853.70 667.25
  Q 853.16 704.87 845.65 741.73
  C 838.34 777.65 826.33 813.79 814.24 847.81
  C 812.23 853.46 811.72 859.35 817.58 862.20
  Q 819.96 863.36 827.63 863.68
  Q 838.06 864.11 848.48 864.66
  Q 856.09 865.06 859.36 858.64
  Q 894.56 789.50 903.12 711.73
  Q 903.95 704.17 904.68 696.69
  A 0.14 0.14 0.0 0 1 904.96 696.69
  C 910.06 737.34 911.72 778.67 908.94 819.54
  Q 907.84 835.66 911.20 851.41
  C 913.31 861.32 914.75 868.67 923.80 872.44
  Q 928.51 874.40 933.82 873.27
  Q 947.14 870.43 947.98 855.25
  Q 949.53 827.12 951.36 799.00
  C 951.66 794.53 955.99 792.21 959.68 795.23
  Q 968.51 802.45 977.36 809.63
  C 985.49 816.22 990.93 810.28 996.59 804.85
  C 999.69 801.87 1005.62 802.73 1005.68 807.65
  Q 1005.98 835.68 1006.63 863.73
  C 1006.75 868.93 1007.89 872.82 1012.67 874.83
  Q 1015.42 875.98 1021.43 875.26
  Q 1035.69 873.54 1040.51 872.69
  C 1046.00 871.71 1048.21 867.92 1048.57 862.38
  Q 1050.42 833.20 1052.00 804.00
  C 1052.17 800.77 1051.98 794.98 1054.35 792.82
  C 1056.97 790.44 1059.60 792.38 1061.82 794.52
  Q 1078.97 811.08 1103.11 806.93
  C 1108.58 805.99 1109.04 812.71 1108.91 816.50
  C 1108.78 820.51 1107.39 822.53 1103.41 823.13
  Q 1095.97 824.24 1088.54 825.40
  Q 1080.01 826.73 1076.33 828.80
  C 1062.45 836.60 1063.49 856.80 1077.64 863.88
  C 1083.04 866.58 1089.63 866.26 1096.00 866.22
  Q 1118.39 866.08 1138.77 863.08
  Q 1148.41 861.66 1148.66 852.50
  Q 1151.17 762.69 1153.65 672.88
  C 1153.78 668.27 1154.32 662.80 1152.97 658.78
  Q 1149.45 648.34 1137.50 647.89
  Q 1097.88 646.41 1058.25 645.15
  C 1054.85 645.04 1053.96 640.68 1053.51 637.95
  C 1052.77 633.38 1055.36 632.50 1059.25 632.46
  Q 1079.59 632.26 1155.75 629.86
  C 1168.55 629.46 1179.85 624.43 1179.15 609.48
  C 1178.55 596.53 1172.76 585.62 1158.49 584.36
  Q 1153.63 583.93 1148.75 583.96
  Q 1039.62 584.63 930.50 583.74
  Q 918.29 583.64 907.29 576.45
  C 901.50 572.66 902.95 565.56 910.25 565.85
  Q 1001.98 569.53 1099.74 569.76
  Q 1113.71 569.80 1119.72 569.19
  Q 1134.61 567.70 1149.92 562.49
  C 1156.25 560.34 1157.35 556.91 1157.24 550.26
  Q 1156.70 519.76 1156.38 489.30
  Q 1156.36 487.60 1156.15 485.23
  Q 1155.93 482.63 1156.00 481.15"
/>
<path stroke="#f585a8" vector-effect="non-scaling-stroke" d="
  M 842.8680 638.4872
  A 56.66 27.02 30.9 0 0 808.1259 586.2051
  A 56.66 27.02 30.9 0 0 745.6320 580.2928
  A 56.66 27.02 30.9 0 0 780.3741 632.5749
  A 56.66 27.02 30.9 0 0 842.8680 638.4872"
/>
<path stroke="#f585a8" vector-effect="non-scaling-stroke" d="
  M 587.8727 770.8750
  A 73.02 25.57 66.7 0 0 582.4747 693.6959
  A 73.02 25.57 66.7 0 0 530.1073 636.7450
  A 73.02 25.57 66.7 0 0 535.5053 713.9241
  A 73.02 25.57 66.7 0 0 587.8727 770.8750"
/>
<path stroke="#f57ba4" vector-effect="non-scaling-stroke" d="
  M 646.70 669.66
  C 630.25 711.51 613.59 753.27 596.99 795.05
  C 594.04 802.47 591.04 807.35 584.18 810.38
  Q 580.27 812.10 571.06 812.55
  Q 515.14 815.23 471.00 814.47
  Q 450.43 814.11 439.53 814.04
  Q 431.90 813.99 428.14 815.33
  C 418.04 818.94 413.22 829.84 412.77 840.26
  C 412.17 854.24 421.47 858.07 433.50 858.18
  Q 562.66 859.28 674.44 857.03
  C 683.42 856.84 692.65 855.19 697.79 847.86
  C 702.30 841.42 702.62 832.10 701.52 824.24
  Q 700.40 816.22 694.28 813.71
  Q 691.25 812.47 682.83 812.84
  Q 665.30 813.62 647.73 814.26
  C 641.48 814.48 640.60 809.67 642.87 804.83
  Q 666.37 754.58 685.44 702.49
  C 691.09 687.08 692.14 670.55 678.26 659.52
  C 670.19 653.11 659.50 651.70 652.12 659.70
  Q 649.49 662.56 646.70 669.66"
/>
<path stroke="#f585a8" vector-effect="non-scaling-stroke" d="
  M 837.5202 701.8271
  A 22.79 22.79 0.0 0 0 821.6494 673.7756
  L 819.6643 673.2251
  A 22.79 22.79 0.0 0 0 791.6128 689.0959
  L 752.4998 830.1329
  A 22.79 22.79 0.0 0 0 768.3706 858.1844
  L 770.3557 858.7349
  A 22.79 22.79 0.0 0 0 798.4072 842.8641
  L 837.5202 701.8271"
/>
<path stroke="#f57ba4" vector-effect="non-scaling-stroke" d="
  M 479.6393 686.2470
  A 23.73 23.73 0.0 0 0 447.4620 676.7157
  L 445.7922 677.6223
  A 23.73 23.73 0.0 0 0 436.2609 709.7996
  L 477.0007 784.8330
  A 23.73 23.73 0.0 0 0 509.1780 794.3643
  L 510.8478 793.4577
  A 23.73 23.73 0.0 0 0 520.3791 761.2804
  L 479.6393 686.2470"
/>
<path stroke="#e496b2" vector-effect="non-scaling-stroke" d="
  M 1109.4800 516.5137
  A 8.20 8.20 0.0 0 0 1101.3087 508.2852
  L 915.0298 507.6349
  A 8.20 8.20 0.0 0 0 906.8012 515.8063
  L 906.8000 516.1663
  A 8.20 8.20 0.0 0 0 914.9713 524.3948
  L 1101.2502 525.0451
  A 8.20 8.20 0.0 0 0 1109.4788 516.8737
  L 1109.4800 516.5137"
/>
<path stroke="#e496b2" vector-effect="non-scaling-stroke" d="
  M 1006.58 640.55
  C 1007.77 637.08 1008.60 631.29 1003.00 631.27
  Q 957.62 631.11 912.25 630.77
  C 906.49 630.73 904.51 634.22 904.45 639.70
  Q 904.33 650.97 904.14 662.25
  Q 904.10 664.65 904.79 666.22
  A 1.66 1.66 0.0 0 0 907.58 666.62
  Q 912.71 660.51 917.52 654.51
  C 919.70 651.79 922.57 649.67 925.75 649.24
  Q 952.05 645.65 982.33 646.64
  Q 985.24 646.73 990.65 647.26
  C 997.94 647.97 1004.03 648.02 1006.58 640.55"
/>
<path stroke="#e496b2" vector-effect="non-scaling-stroke" d="
  M 964.74 768.82
  C 975.93 768.22 987.21 774.31 994.51 783.17
  Q 996.63 785.76 998.40 786.24
  C 1002.16 787.26 1004.85 784.16 1004.93 780.50
  Q 1005.87 740.50 1006.58 700.50
  C 1006.69 694.39 1003.68 692.53 997.83 692.73
  Q 977.43 693.46 957.04 694.32
  C 953.17 694.48 950.36 695.08 949.80 699.24
  C 949.45 701.91 946.92 711.93 953.32 709.57
  Q 970.94 703.09 987.81 709.76
  Q 993.49 712.00 996.49 714.90
  C 1004.52 722.64 1005.52 737.05 995.75 743.98
  C 982.84 753.14 962.28 735.44 955.33 725.37
  C 953.81 723.17 949.67 722.52 949.66 726.00
  Q 949.65 739.33 949.99 761.75
  C 950.14 771.35 958.32 769.16 964.74 768.82"
/>
<path stroke="#e496b2" vector-effect="non-scaling-stroke" d="
  M 1110.57 718.15
  L 1113.54 700.98
  A 2.26 2.26 0.0 0 0 1111.70 698.37
  L 1101.77 696.66
  A 48.51 9.17 9.8 0 0 1052.41 697.44
  L 1051.80 700.99
  A 48.51 9.17 9.8 0 0 1098.04 718.28
  L 1107.96 719.99
  A 2.26 2.26 0.0 0 0 1110.57 718.15"
/>
<path stroke="#e496b2" vector-effect="non-scaling-stroke" d="
  M 1099.66 748.08
  C 1086.14 748.46 1076.54 747.90 1065.49 739.04
  C 1062.70 736.80 1051.14 725.21 1050.92 736.76
  Q 1050.68 749.75 1050.78 762.77
  C 1050.84 770.80 1054.70 771.76 1061.89 769.88
  C 1075.89 766.20 1088.20 768.67 1096.84 780.70
  C 1098.44 782.93 1100.31 786.44 1102.74 787.32
  C 1105.59 788.35 1108.16 785.96 1108.44 783.00
  Q 1109.27 774.36 1110.48 757.25
  C 1111.06 749.06 1106.88 747.88 1099.66 748.08"
/>
<path stroke="#e496b2" vector-effect="non-scaling-stroke" d="
  M 489.67 576.03
  A 5.80 5.80 0.0 0 0 493.98 585.88
  L 634.14 582.21
  A 5.80 5.80 0.0 0 0 637.92 572.15
  L 566.05 505.81
  A 5.80 5.80 0.0 0 0 557.97 506.02
  L 489.67 576.03"
/>
</g>
<path fill="#ffffff" d="
  M 0.00 0.00
  L 1474.00 0.00
  L 1474.00 1422.00
  L 0.00 1422.00
  L 0.00 0.00
  Z
  M 586.54 1122.24
  C 584.26 1166.55 582.29 1197.86 584.92 1235.49
  C 586.15 1253.16 588.96 1271.59 595.92 1287.98
  C 611.09 1323.70 647.56 1335.17 683.51 1337.77
  C 713.77 1339.96 741.83 1337.67 774.00 1335.80
  Q 794.69 1334.59 813.19 1327.41
  C 847.80 1313.97 862.60 1282.56 866.30 1247.49
  C 868.28 1228.73 868.61 1210.45 867.92 1191.25
  Q 866.66 1156.63 865.61 1121.99
  Q 866.60 1121.68 867.50 1121.76
  Q 920.46 1126.30 973.59 1127.82
  C 993.35 1128.38 1013.94 1128.50 1033.42 1125.06
  C 1062.81 1119.86 1091.63 1112.87 1120.47 1103.22
  Q 1244.97 1061.59 1328.10 961.93
  C 1356.40 928.00 1380.14 889.43 1398.94 849.47
  Q 1441.30 759.39 1439.49 659.51
  C 1437.26 535.74 1386.71 417.16 1299.28 329.86
  Q 1292.31 322.91 1284.73 316.17
  Q 1230.67 268.14 1168.74 238.76
  Q 1078.74 196.06 976.50 194.75
  Q 973.21 194.70 956.48 194.73
  Q 734.99 195.12 513.50 196.46
  Q 486.72 196.62 450.00 198.71
  Q 401.30 201.49 355.73 211.77
  C 303.79 223.48 254.64 246.66 211.93 278.45
  C 160.14 316.98 116.13 363.31 82.05 418.30
  C 2.08 547.28 -7.31 708.78 52.07 847.49
  Q 106.84 975.43 222.88 1052.55
  Q 231.29 1058.13 239.84 1063.12
  Q 304.09 1100.54 377.01 1116.52
  Q 419.52 1125.83 467.50 1127.79
  Q 529.16 1130.31 586.01 1122.13
  Q 586.18 1122.11 586.54 1122.24
  Z"
/>
<path fill="#f86e97" d="
  M 865.61 1121.99
  Q 865.33 1121.48 864.40 1121.48
  Q 726.00 1121.53 587.59 1121.59
  Q 587.10 1121.59 586.77 1121.97
  L 586.54 1122.24
  Q 586.18 1122.11 586.01 1122.13
  Q 529.16 1130.31 467.50 1127.79
  Q 419.52 1125.83 377.01 1116.52
  Q 304.09 1100.54 239.84 1063.12
  Q 231.29 1058.13 222.88 1052.55
  Q 106.84 975.43 52.07 847.49
  C -7.31 708.78 2.08 547.28 82.05 418.30
  C 116.13 363.31 160.14 316.98 211.93 278.45
  C 254.64 246.66 303.79 223.48 355.73 211.77
  Q 401.30 201.49 450.00 198.71
  Q 486.72 196.62 513.50 196.46
  Q 734.99 195.12 956.48 194.73
  Q 973.21 194.70 976.50 194.75
  Q 1078.74 196.06 1168.74 238.76
  Q 1230.67 268.14 1284.73 316.17
  Q 1292.31 322.91 1299.28 329.86
  C 1386.71 417.16 1437.26 535.74 1439.49 659.51
  Q 1441.30 759.39 1398.94 849.47
  C 1380.14 889.43 1356.40 928.00 1328.10 961.93
  Q 1244.97 1061.59 1120.47 1103.22
  C 1091.63 1112.87 1062.81 1119.86 1033.42 1125.06
  C 1013.94 1128.50 993.35 1128.38 973.59 1127.82
  Q 920.46 1126.30 867.50 1121.76
  Q 866.60 1121.68 865.61 1121.99
  Z
  M 227.20 959.36
  C 267.81 996.02 314.67 1026.28 367.30 1042.20
  C 421.14 1058.49 476.10 1060.96 533.00 1061.54
  Q 541.50 1061.63 553.00 1061.52
  Q 747.57 1059.80 942.13 1058.17
  Q 978.30 1057.87 1016.74 1054.73
  C 1043.85 1052.52 1071.71 1048.13 1097.25 1039.39
  C 1195.10 1005.89 1273.18 941.15 1321.25 849.41
  C 1368.63 759.00 1379.30 649.57 1351.09 551.59
  Q 1321.16 447.62 1243.40 371.82
  Q 1242.96 371.39 1242.57 370.93
  Q 1157.28 293.97 1043.69 273.95
  Q 1001.41 266.51 960.00 266.49
  C 907.15 266.48 847.58 267.35 785.25 267.45
  Q 671.75 267.63 558.25 268.84
  C 554.15 268.89 549.75 269.21 545.92 269.22
  Q 483.07 269.32 449.00 270.18
  Q 430.93 270.64 407.53 273.72
  Q 407.44 273.73 399.95 274.51
  Q 392.61 275.27 382.87 277.87
  Q 362.28 283.38 356.03 285.34
  Q 338.61 290.80 317.76 300.52
  Q 295.04 311.11 266.92 329.14
  Q 264.10 330.95 258.18 335.04
  Q 253.84 338.05 249.40 340.89
  C 245.88 343.15 242.64 346.51 239.03 348.78
  Q 233.50 352.25 229.66 355.79
  Q 223.30 361.65 216.47 366.97
  Q 210.10 371.93 195.59 386.47
  Q 195.10 386.95 193.78 388.54
  C 192.28 390.34 190.23 391.66 188.91 393.30
  Q 182.91 400.72 176.04 407.36
  C 174.90 408.47 174.18 409.90 173.33 411.25
  Q 172.46 412.65 171.22 414.13
  Q 154.86 433.83 142.44 454.72
  C 99.70 526.62 86.40 607.21 90.13 690.75
  Q 92.40 741.51 106.55 788.74
  C 127.40 858.31 169.05 915.46 227.20 959.36
  Z"
/>
<path fill="#f7366a" d="
  M 1242.57 370.93
  Q 1240.60 372.07 1239.99 372.22
  Q 1180.78 385.82 1163.03 443.72
  Q 1159.00 456.88 1156.00 481.15
  Q 1151.53 470.64 1144.39 465.10
  Q 1140.43 462.02 1134.00 462.03
  Q 1005.84 462.31 877.69 462.48
  C 874.29 462.49 869.74 463.49 867.54 465.53
  Q 859.05 473.41 850.66 481.42
  C 847.88 484.07 844.50 483.05 841.62 480.76
  C 825.79 468.14 771.89 424.55 759.36 464.20
  Q 757.85 468.98 758.28 474.00
  C 758.72 479.07 762.04 481.25 765.14 484.42
  Q 764.84 484.50 764.63 484.55
  A 0.70 0.69 69.9 0 0 764.18 485.53
  C 770.56 498.79 777.49 517.14 769.34 531.28
  C 762.60 542.96 745.82 548.27 733.04 549.50
  C 729.28 549.86 725.76 550.47 722.03 549.54
  Q 718.82 548.74 714.19 545.29
  Q 693.58 529.90 672.85 514.37
  A 1.52 1.52 0.0 0 0 670.44 515.37
  C 669.19 523.93 679.76 521.67 681.49 528.95
  Q 682.81 534.50 680.66 539.49
  Q 630.76 499.09 581.50 458.97
  C 567.04 447.20 547.23 448.33 533.89 461.15
  Q 491.50 501.88 448.89 542.39
  C 445.53 545.57 441.92 545.71 438.63 542.28
  C 436.15 539.68 433.59 536.87 430.95 534.75
  Q 417.60 524.07 400.49 524.80
  C 397.02 524.94 392.34 525.67 389.81 523.84
  C 386.11 521.17 385.77 510.71 386.05 505.75
  C 386.70 494.17 387.96 482.27 385.79 470.77
  Q 383.22 457.11 370.28 452.92
  Q 362.19 450.30 352.86 451.89
  C 343.84 453.44 339.71 459.18 339.54 468.27
  Q 339.09 492.44 338.57 516.62
  C 338.44 522.94 337.54 527.55 330.24 527.32
  Q 316.77 526.90 303.26 526.39
  C 295.84 526.10 292.36 526.85 289.93 534.01
  Q 283.60 552.72 297.15 564.78
  C 298.35 565.85 301.24 567.32 302.48 567.33
  Q 316.03 567.51 326.65 570.75
  C 332.77 572.61 338.15 574.71 338.16 581.49
  Q 338.22 615.74 338.72 650.01
  C 338.83 657.67 334.64 658.99 327.81 662.09
  Q 311.31 669.60 294.78 677.05
  C 286.66 680.71 279.81 683.86 277.47 693.10
  C 274.64 704.24 280.95 715.10 292.03 718.07
  Q 295.74 719.07 301.83 718.55
  Q 315.44 717.39 329.05 716.13
  C 336.19 715.47 342.44 715.97 342.13 724.76
  Q 340.73 764.17 339.22 803.60
  C 338.97 810.22 337.91 813.65 331.11 814.89
  Q 319.70 816.97 308.28 819.02
  Q 301.52 820.24 298.62 822.17
  C 291.35 827.01 289.86 838.74 295.36 845.06
  Q 298.50 848.68 306.62 851.75
  Q 323.48 858.13 342.68 858.34
  Q 335.67 881.56 322.95 901.93
  C 302.13 935.25 271.09 952.22 231.10 947.98
  A 0.76 0.76 0.0 0 0 230.49 949.28
  Q 232.99 951.70 234.28 954.97
  A 1.05 1.04 52.0 0 1 234.16 955.98
  Q 231.96 959.02 227.20 959.36
  C 169.05 915.46 127.40 858.31 106.55 788.74
  Q 92.40 741.51 90.13 690.75
  C 86.40 607.21 99.70 526.62 142.44 454.72
  Q 154.86 433.83 171.22 414.13
  Q 172.46 412.65 173.33 411.25
  C 174.18 409.90 174.90 408.47 176.04 407.36
  Q 182.91 400.72 188.91 393.30
  C 190.23 391.66 192.28 390.34 193.78 388.54
  Q 195.10 386.95 195.59 386.47
  Q 210.10 371.93 216.47 366.97
  Q 223.30 361.65 229.66 355.79
  Q 233.50 352.25 239.03 348.78
  C 242.64 346.51 245.88 343.15 249.40 340.89
  Q 253.84 338.05 258.18 335.04
  Q 264.10 330.95 266.92 329.14
  Q 295.04 311.11 317.76 300.52
  Q 338.61 290.80 356.03 285.34
  Q 362.28 283.38 382.87 277.87
  Q 392.61 275.27 399.95 274.51
  Q 407.44 273.73 407.53 273.72
  Q 430.93 270.64 449.00 270.18
  Q 483.07 269.32 545.92 269.22
  C 549.75 269.21 554.15 268.89 558.25 268.84
  Q 671.75 267.63 785.25 267.45
  C 847.58 267.35 907.15 266.48 960.00 266.49
  Q 1001.41 266.51 1043.69 273.95
  Q 1157.28 293.97 1242.57 370.93
  Z"
/>
<path fill="#eb1755" d="
  M 1242.57 370.93
  Q 1242.96 371.39 1243.40 371.82
  Q 1321.16 447.62 1351.09 551.59
  C 1379.30 649.57 1368.63 759.00 1321.25 849.41
  C 1273.18 941.15 1195.10 1005.89 1097.25 1039.39
  C 1071.71 1048.13 1043.85 1052.52 1016.74 1054.73
  Q 978.30 1057.87 942.13 1058.17
  Q 747.57 1059.80 553.00 1061.52
  Q 541.50 1061.63 533.00 1061.54
  C 476.10 1060.96 421.14 1058.49 367.30 1042.20
  C 314.67 1026.28 267.81 996.02 227.20 959.36
  Q 231.96 959.02 234.16 955.98
  A 1.05 1.04 52.0 0 0 234.28 954.97
  Q 232.99 951.70 230.49 949.28
  A 0.76 0.76 0.0 0 1 231.10 947.98
  C 271.09 952.22 302.13 935.25 322.95 901.93
  Q 335.67 881.56 342.68 858.34
  Q 344.75 858.11 350.75 858.94
  C 365.14 860.91 378.31 854.71 382.45 840.24
  Q 384.82 831.95 384.83 825.25
  Q 384.95 763.12 385.83 701.00
  Q 385.89 696.42 389.82 693.58
  Q 407.67 680.69 425.55 667.82
  Q 430.64 664.15 432.79 661.01
  C 439.38 651.37 436.30 638.43 426.15 632.87
  C 416.28 627.47 408.41 632.34 398.81 636.21
  C 394.48 637.95 390.09 638.11 387.71 633.78
  Q 386.45 631.49 386.72 626.00
  Q 388.09 598.50 389.47 570.99
  Q 389.78 564.78 394.99 563.21
  C 402.07 561.07 404.74 566.22 405.99 572.37
  Q 408.22 583.35 410.45 594.34
  C 411.35 598.81 412.60 601.92 417.51 601.91
  C 436.52 601.83 449.73 609.29 462.25 622.76
  C 464.79 625.50 468.07 627.54 471.50 627.55
  Q 553.83 627.78 636.15 627.82
  C 642.40 627.82 646.95 627.91 650.95 624.20
  Q 662.10 613.86 669.86 607.27
  C 684.69 594.68 712.08 580.34 698.08 556.47
  Q 693.60 548.83 686.19 543.51
  Q 683.15 541.33 680.66 539.49
  Q 682.81 534.50 681.49 528.95
  C 679.76 521.67 669.19 523.93 670.44 515.37
  A 1.52 1.52 0.0 0 1 672.85 514.37
  Q 693.58 529.90 714.19 545.29
  Q 718.82 548.74 722.03 549.54
  C 725.76 550.47 729.28 549.86 733.04 549.50
  C 745.82 548.27 762.60 542.96 769.34 531.28
  C 777.49 517.14 770.56 498.79 764.18 485.53
  A 0.70 0.69 69.9 0 1 764.63 484.55
  Q 764.84 484.50 765.14 484.42
  C 787.76 507.69 815.57 524.62 847.49 531.16
  C 853.18 532.33 856.08 533.53 855.92 539.75
  Q 855.10 571.43 853.70 667.25
  Q 853.16 704.87 845.65 741.73
  C 838.34 777.65 826.33 813.79 814.24 847.81
  C 812.23 853.46 811.72 859.35 817.58 862.20
  Q 819.96 863.36 827.63 863.68
  Q 838.06 864.11 848.48 864.66
  Q 856.09 865.06 859.36 858.64
  Q 894.56 789.50 903.12 711.73
  Q 903.95 704.17 904.68 696.69
  A 0.14 0.14 0.0 0 1 904.96 696.69
  C 910.06 737.34 911.72 778.67 908.94 819.54
  Q 907.84 835.66 911.20 851.41
  C 913.31 861.32 914.75 868.67 923.80 872.44
  Q 928.51 874.40 933.82 873.27
  Q 947.14 870.43 947.98 855.25
  Q 949.53 827.12 951.36 799.00
  C 951.66 794.53 955.99 792.21 959.68 795.23
  Q 968.51 802.45 977.36 809.63
  C 985.49 816.22 990.93 810.28 996.59 804.85
  C 999.69 801.87 1005.62 802.73 1005.68 807.65
  Q 1005.98 835.68 1006.63 863.73
  C 1006.75 868.93 1007.89 872.82 1012.67 874.83
  Q 1015.42 875.98 1021.43 875.26
  Q 1035.69 873.54 1040.51 872.69
  C 1046.00 871.71 1048.21 867.92 1048.57 862.38
  Q 1050.42 833.20 1052.00 804.00
  C 1052.17 800.77 1051.98 794.98 1054.35 792.82
  C 1056.97 790.44 1059.60 792.38 1061.82 794.52
  Q 1078.97 811.08 1103.11 806.93
  C 1108.58 805.99 1109.04 812.71 1108.91 816.50
  C 1108.78 820.51 1107.39 822.53 1103.41 823.13
  Q 1095.97 824.24 1088.54 825.40
  Q 1080.01 826.73 1076.33 828.80
  C 1062.45 836.60 1063.49 856.80 1077.64 863.88
  C 1083.04 866.58 1089.63 866.26 1096.00 866.22
  Q 1118.39 866.08 1138.77 863.08
  Q 1148.41 861.66 1148.66 852.50
  Q 1151.17 762.69 1153.65 672.88
  C 1153.78 668.27 1154.32 662.80 1152.97 658.78
  Q 1149.45 648.34 1137.50 647.89
  Q 1097.88 646.41 1058.25 645.15
  C 1054.85 645.04 1053.96 640.68 1053.51 637.95
  C 1052.77 633.38 1055.36 632.50 1059.25 632.46
  Q 1079.59 632.26 1155.75 629.86
  C 1168.55 629.46 1179.85 624.43 1179.15 609.48
  C 1178.55 596.53 1172.76 585.62 1158.49 584.36
  Q 1153.63 583.93 1148.75 583.96
  Q 1039.62 584.63 930.50 583.74
  Q 918.29 583.64 907.29 576.45
  C 901.50 572.66 902.95 565.56 910.25 565.85
  Q 1001.98 569.53 1099.74 569.76
  Q 1113.71 569.80 1119.72 569.19
  Q 1134.61 567.70 1149.92 562.49
  C 1156.25 560.34 1157.35 556.91 1157.24 550.26
  Q 1156.70 519.76 1156.38 489.30
  Q 1156.36 487.60 1156.15 485.23
  Q 1155.93 482.63 1156.00 481.15
  Q 1159.00 456.88 1163.03 443.72
  Q 1180.78 385.82 1239.99 372.22
  Q 1240.60 372.07 1242.57 370.93
  Z
  M 842.8680 638.4872
  A 56.66 27.02 30.9 0 0 808.1259 586.2051
  A 56.66 27.02 30.9 0 0 745.6320 580.2928
  A 56.66 27.02 30.9 0 0 780.3741 632.5749
  A 56.66 27.02 30.9 0 0 842.8680 638.4872
  Z
  M 587.8727 770.8750
  A 73.02 25.57 66.7 0 0 582.4747 693.6959
  A 73.02 25.57 66.7 0 0 530.1073 636.7450
  A 73.02 25.57 66.7 0 0 535.5053 713.9241
  A 73.02 25.57 66.7 0 0 587.8727 770.8750
  Z
  M 646.70 669.66
  C 630.25 711.51 613.59 753.27 596.99 795.05
  C 594.04 802.47 591.04 807.35 584.18 810.38
  Q 580.27 812.10 571.06 812.55
  Q 515.14 815.23 471.00 814.47
  Q 450.43 814.11 439.53 814.04
  Q 431.90 813.99 428.14 815.33
  C 418.04 818.94 413.22 829.84 412.77 840.26
  C 412.17 854.24 421.47 858.07 433.50 858.18
  Q 562.66 859.28 674.44 857.03
  C 683.42 856.84 692.65 855.19 697.79 847.86
  C 702.30 841.42 702.62 832.10 701.52 824.24
  Q 700.40 816.22 694.28 813.71
  Q 691.25 812.47 682.83 812.84
  Q 665.30 813.62 647.73 814.26
  C 641.48 814.48 640.60 809.67 642.87 804.83
  Q 666.37 754.58 685.44 702.49
  C 691.09 687.08 692.14 670.55 678.26 659.52
  C 670.19 653.11 659.50 651.70 652.12 659.70
  Q 649.49 662.56 646.70 669.66
  Z
  M 837.5202 701.8271
  A 22.79 22.79 0.0 0 0 821.6494 673.7756
  L 819.6643 673.2251
  A 22.79 22.79 0.0 0 0 791.6128 689.0959
  L 752.4998 830.1329
  A 22.79 22.79 0.0 0 0 768.3706 858.1844
  L 770.3557 858.7349
  A 22.79 22.79 0.0 0 0 798.4072 842.8641
  L 837.5202 701.8271
  Z
  M 479.6393 686.2470
  A 23.73 23.73 0.0 0 0 447.4620 676.7157
  L 445.7922 677.6223
  A 23.73 23.73 0.0 0 0 436.2609 709.7996
  L 477.0007 784.8330
  A 23.73 23.73 0.0 0 0 509.1780 794.3643
  L 510.8478 793.4577
  A 23.73 23.73 0.0 0 0 520.3791 761.2804
  L 479.6393 686.2470
  Z"
/>
<path fill="#fef3fb" d="
  M 1156.00 481.15
  Q 1155.93 482.63 1156.15 485.23
  Q 1156.36 487.60 1156.38 489.30
  Q 1156.70 519.76 1157.24 550.26
  C 1157.35 556.91 1156.25 560.34 1149.92 562.49
  Q 1134.61 567.70 1119.72 569.19
  Q 1113.71 569.80 1099.74 569.76
  Q 1001.98 569.53 910.25 565.85
  C 902.95 565.56 901.50 572.66 907.29 576.45
  Q 918.29 583.64 930.50 583.74
  Q 1039.62 584.63 1148.75 583.96
  Q 1153.63 583.93 1158.49 584.36
  C 1172.76 585.62 1178.55 596.53 1179.15 609.48
  C 1179.85 624.43 1168.55 629.46 1155.75 629.86
  Q 1079.59 632.26 1059.25 632.46
  C 1055.36 632.50 1052.77 633.38 1053.51 637.95
  C 1053.96 640.68 1054.85 645.04 1058.25 645.15
  Q 1097.88 646.41 1137.50 647.89
  Q 1149.45 648.34 1152.97 658.78
  C 1154.32 662.80 1153.78 668.27 1153.65 672.88
  Q 1151.17 762.69 1148.66 852.50
  Q 1148.41 861.66 1138.77 863.08
  Q 1118.39 866.08 1096.00 866.22
  C 1089.63 866.26 1083.04 866.58 1077.64 863.88
  C 1063.49 856.80 1062.45 836.60 1076.33 828.80
  Q 1080.01 826.73 1088.54 825.40
  Q 1095.97 824.24 1103.41 823.13
  C 1107.39 822.53 1108.78 820.51 1108.91 816.50
  C 1109.04 812.71 1108.58 805.99 1103.11 806.93
  Q 1078.97 811.08 1061.82 794.52
  C 1059.60 792.38 1056.97 790.44 1054.35 792.82
  C 1051.98 794.98 1052.17 800.77 1052.00 804.00
  Q 1050.42 833.20 1048.57 862.38
  C 1048.21 867.92 1046.00 871.71 1040.51 872.69
  Q 1035.69 873.54 1021.43 875.26
  Q 1015.42 875.98 1012.67 874.83
  C 1007.89 872.82 1006.75 868.93 1006.63 863.73
  Q 1005.98 835.68 1005.68 807.65
  C 1005.62 802.73 999.69 801.87 996.59 804.85
  C 990.93 810.28 985.49 816.22 977.36 809.63
  Q 968.51 802.45 959.68 795.23
  C 955.99 792.21 951.66 794.53 951.36 799.00
  Q 949.53 827.12 947.98 855.25
  Q 947.14 870.43 933.82 873.27
  Q 928.51 874.40 923.80 872.44
  C 914.75 868.67 913.31 861.32 911.20 851.41
  Q 907.84 835.66 908.94 819.54
  C 911.72 778.67 910.06 737.34 904.96 696.69
  A 0.14 0.14 0.0 0 0 904.68 696.69
  Q 903.95 704.17 903.12 711.73
  Q 894.56 789.50 859.36 858.64
  Q 856.09 865.06 848.48 864.66
  Q 838.06 864.11 827.63 863.68
  Q 819.96 863.36 817.58 862.20
  C 811.72 859.35 812.23 853.46 814.24 847.81
  C 826.33 813.79 838.34 777.65 845.65 741.73
  Q 853.16 704.87 853.70 667.25
  Q 855.10 571.43 855.92 539.75
  C 856.08 533.53 853.18 532.33 847.49 531.16
  C 815.57 524.62 787.76 507.69 765.14 484.42
  C 762.04 481.25 758.72 479.07 758.28 474.00
  Q 757.85 468.98 759.36 464.20
  C 771.89 424.55 825.79 468.14 841.62 480.76
  C 844.50 483.05 847.88 484.07 850.66 481.42
  Q 859.05 473.41 867.54 465.53
  C 869.74 463.49 874.29 462.49 877.69 462.48
  Q 1005.84 462.31 1134.00 462.03
  Q 1140.43 462.02 1144.39 465.10
  Q 1151.53 470.64 1156.00 481.15
  Z
  M 1109.4800 516.5137
  A 8.20 8.20 0.0 0 0 1101.3087 508.2852
  L 915.0298 507.6349
  A 8.20 8.20 0.0 0 0 906.8012 515.8063
  L 906.8000 516.1663
  A 8.20 8.20 0.0 0 0 914.9713 524.3948
  L 1101.2502 525.0451
  A 8.20 8.20 0.0 0 0 1109.4788 516.8737
  L 1109.4800 516.5137
  Z
  M 1006.58 640.55
  C 1007.77 637.08 1008.60 631.29 1003.00 631.27
  Q 957.62 631.11 912.25 630.77
  C 906.49 630.73 904.51 634.22 904.45 639.70
  Q 904.33 650.97 904.14 662.25
  Q 904.10 664.65 904.79 666.22
  A 1.66 1.66 0.0 0 0 907.58 666.62
  Q 912.71 660.51 917.52 654.51
  C 919.70 651.79 922.57 649.67 925.75 649.24
  Q 952.05 645.65 982.33 646.64
  Q 985.24 646.73 990.65 647.26
  C 997.94 647.97 1004.03 648.02 1006.58 640.55
  Z
  M 964.74 768.82
  C 975.93 768.22 987.21 774.31 994.51 783.17
  Q 996.63 785.76 998.40 786.24
  C 1002.16 787.26 1004.85 784.16 1004.93 780.50
  Q 1005.87 740.50 1006.58 700.50
  C 1006.69 694.39 1003.68 692.53 997.83 692.73
  Q 977.43 693.46 957.04 694.32
  C 953.17 694.48 950.36 695.08 949.80 699.24
  C 949.45 701.91 946.92 711.93 953.32 709.57
  Q 970.94 703.09 987.81 709.76
  Q 993.49 712.00 996.49 714.90
  C 1004.52 722.64 1005.52 737.05 995.75 743.98
  C 982.84 753.14 962.28 735.44 955.33 725.37
  C 953.81 723.17 949.67 722.52 949.66 726.00
  Q 949.65 739.33 949.99 761.75
  C 950.14 771.35 958.32 769.16 964.74 768.82
  Z
  M 1110.57 718.15
  L 1113.54 700.98
  A 2.26 2.26 0.0 0 0 1111.70 698.37
  L 1101.77 696.66
  A 48.51 9.17 9.8 0 0 1052.41 697.44
  L 1051.80 700.99
  A 48.51 9.17 9.8 0 0 1098.04 718.28
  L 1107.96 719.99
  A 2.26 2.26 0.0 0 0 1110.57 718.15
  Z
  M 1099.66 748.08
  C 1086.14 748.46 1076.54 747.90 1065.49 739.04
  C 1062.70 736.80 1051.14 725.21 1050.92 736.76
  Q 1050.68 749.75 1050.78 762.77
  C 1050.84 770.80 1054.70 771.76 1061.89 769.88
  C 1075.89 766.20 1088.20 768.67 1096.84 780.70
  C 1098.44 782.93 1100.31 786.44 1102.74 787.32
  C 1105.59 788.35 1108.16 785.96 1108.44 783.00
  Q 1109.27 774.36 1110.48 757.25
  C 1111.06 749.06 1106.88 747.88 1099.66 748.08
  Z"
/>
<path fill="#fef3fb" d="
  M 680.66 539.49
  Q 683.15 541.33 686.19 543.51
  Q 693.60 548.83 698.08 556.47
  C 712.08 580.34 684.69 594.68 669.86 607.27
  Q 662.10 613.86 650.95 624.20
  C 646.95 627.91 642.40 627.82 636.15 627.82
  Q 553.83 627.78 471.50 627.55
  C 468.07 627.54 464.79 625.50 462.25 622.76
  C 449.73 609.29 436.52 601.83 417.51 601.91
  C 412.60 601.92 411.35 598.81 410.45 594.34
  Q 408.22 583.35 405.99 572.37
  C 404.74 566.22 402.07 561.07 394.99 563.21
  Q 389.78 564.78 389.47 570.99
  Q 388.09 598.50 386.72 626.00
  Q 386.45 631.49 387.71 633.78
  C 390.09 638.11 394.48 637.95 398.81 636.21
  C 408.41 632.34 416.28 627.47 426.15 632.87
  C 436.30 638.43 439.38 651.37 432.79 661.01
  Q 430.64 664.15 425.55 667.82
  Q 407.67 680.69 389.82 693.58
  Q 385.89 696.42 385.83 701.00
  Q 384.95 763.12 384.83 825.25
  Q 384.82 831.95 382.45 840.24
  C 378.31 854.71 365.14 860.91 350.75 858.94
  Q 344.75 858.11 342.68 858.34
  Q 323.48 858.13 306.62 851.75
  Q 298.50 848.68 295.36 845.06
  C 289.86 838.74 291.35 827.01 298.62 822.17
  Q 301.52 820.24 308.28 819.02
  Q 319.70 816.97 331.11 814.89
  C 337.91 813.65 338.97 810.22 339.22 803.60
  Q 340.73 764.17 342.13 724.76
  C 342.44 715.97 336.19 715.47 329.05 716.13
  Q 315.44 717.39 301.83 718.55
  Q 295.74 719.07 292.03 718.07
  C 280.95 715.10 274.64 704.24 277.47 693.10
  C 279.81 683.86 286.66 680.71 294.78 677.05
  Q 311.31 669.60 327.81 662.09
  C 334.64 658.99 338.83 657.67 338.72 650.01
  Q 338.22 615.74 338.16 581.49
  C 338.15 574.71 332.77 572.61 326.65 570.75
  Q 316.03 567.51 302.48 567.33
  C 301.24 567.32 298.35 565.85 297.15 564.78
  Q 283.60 552.72 289.93 534.01
  C 292.36 526.85 295.84 526.10 303.26 526.39
  Q 316.77 526.90 330.24 527.32
  C 337.54 527.55 338.44 522.94 338.57 516.62
  Q 339.09 492.44 339.54 468.27
  C 339.71 459.18 343.84 453.44 352.86 451.89
  Q 362.19 450.30 370.28 452.92
  Q 383.22 457.11 385.79 470.77
  C 387.96 482.27 386.70 494.17 386.05 505.75
  C 385.77 510.71 386.11 521.17 389.81 523.84
  C 392.34 525.67 397.02 524.94 400.49 524.80
  Q 417.60 524.07 430.95 534.75
  C 433.59 536.87 436.15 539.68 438.63 542.28
  C 441.92 545.71 445.53 545.57 448.89 542.39
  Q 491.50 501.88 533.89 461.15
  C 547.23 448.33 567.04 447.20 581.50 458.97
  Q 630.76 499.09 680.66 539.49
  Z
  M 489.67 576.03
  A 5.80 5.80 0.0 0 0 493.98 585.88
  L 634.14 582.21
  A 5.80 5.80 0.0 0 0 637.92 572.15
  L 566.05 505.81
  A 5.80 5.80 0.0 0 0 557.97 506.02
  L 489.67 576.03
  Z"
/>
<path fill="#c93968" d="
  M 489.67 576.03
  L 557.97 506.02
  A 5.80 5.80 0.0 0 1 566.05 505.81
  L 637.92 572.15
  A 5.80 5.80 0.0 0 1 634.14 582.21
  L 493.98 585.88
  A 5.80 5.80 0.0 0 1 489.67 576.03
  Z"
/>
<rect fill="#c93968" x="-101.34" y="-8.38" transform="translate(1008.14,516.34) rotate(0.2)" width="202.68" height="16.76" rx="8.20"/>
<ellipse fill="#fef3fb" cx="0.00" cy="0.00" transform="translate(794.25,609.39) rotate(30.9)" rx="56.66" ry="27.02"/>
<path fill="#c93968" d="
  M 1006.58 640.55
  C 1004.03 648.02 997.94 647.97 990.65 647.26
  Q 985.24 646.73 982.33 646.64
  Q 952.05 645.65 925.75 649.24
  C 922.57 649.67 919.70 651.79 917.52 654.51
  Q 912.71 660.51 907.58 666.62
  A 1.66 1.66 0.0 0 1 904.79 666.22
  Q 904.10 664.65 904.14 662.25
  Q 904.33 650.97 904.45 639.70
  C 904.51 634.22 906.49 630.73 912.25 630.77
  Q 957.62 631.11 1003.00 631.27
  C 1008.60 631.29 1007.77 637.08 1006.58 640.55
  Z"
/>
<ellipse fill="#fef3fb" cx="0.00" cy="0.00" transform="translate(558.99,703.81) rotate(66.7)" rx="73.02" ry="25.57"/>
<path fill="#ffdff3" d="
  M 596.99 795.05
  C 613.59 753.27 630.25 711.51 646.70 669.66
  Q 649.49 662.56 652.12 659.70
  C 659.50 651.70 670.19 653.11 678.26 659.52
  C 692.14 670.55 691.09 687.08 685.44 702.49
  Q 666.37 754.58 642.87 804.83
  C 640.60 809.67 641.48 814.48 647.73 814.26
  Q 665.30 813.62 682.83 812.84
  Q 691.25 812.47 694.28 813.71
  Q 700.40 816.22 701.52 824.24
  C 702.62 832.10 702.30 841.42 697.79 847.86
  C 692.65 855.19 683.42 856.84 674.44 857.03
  Q 562.66 859.28 433.50 858.18
  C 421.47 858.07 412.17 854.24 412.77 840.26
  C 413.22 829.84 418.04 818.94 428.14 815.33
  Q 431.90 813.99 439.53 814.04
  Q 450.43 814.11 471.00 814.47
  Q 515.14 815.23 571.06 812.55
  Q 580.27 812.10 584.18 810.38
  C 591.04 807.35 594.04 802.47 596.99 795.05
  Z"
/>
<rect fill="#fef3fb" x="-23.82" y="-95.97" transform="translate(795.01,765.98) rotate(15.5)" width="47.64" height="191.94" rx="22.79"/>
<rect fill="#ffdff3" x="-24.68" y="-66.42" transform="translate(478.32,735.54) rotate(-28.5)" width="49.36" height="132.84" rx="23.73"/>
<path fill="#c93968" d="
  M 994.51 783.17
  C 987.21 774.31 975.93 768.22 964.74 768.82
  C 958.32 769.16 950.14 771.35 949.99 761.75
  Q 949.65 739.33 949.66 726.00
  C 949.67 722.52 953.81 723.17 955.33 725.37
  C 962.28 735.44 982.84 753.14 995.75 743.98
  C 1005.52 737.05 1004.52 722.64 996.49 714.90
  Q 993.49 712.00 987.81 709.76
  Q 970.94 703.09 953.32 709.57
  C 946.92 711.93 949.45 701.91 949.80 699.24
  C 950.36 695.08 953.17 694.48 957.04 694.32
  Q 977.43 693.46 997.83 692.73
  C 1003.68 692.53 1006.69 694.39 1006.58 700.50
  Q 1005.87 740.50 1004.93 780.50
  C 1004.85 784.16 1002.16 787.26 998.40 786.24
  Q 996.63 785.76 994.51 783.17
  Z"
/>
<path fill="#c93968" d="
  M 1110.57 718.15
  A 2.26 2.26 0.0 0 1 1107.96 719.99
  L 1098.04 718.28
  A 48.51 9.17 9.8 0 1 1051.80 700.99
  L 1052.41 697.44
  A 48.51 9.17 9.8 0 1 1101.77 696.66
  L 1111.70 698.37
  A 2.26 2.26 0.0 0 1 1113.54 700.98
  L 1110.57 718.15
  Z"
/>
<path fill="#c93968" d="
  M 1065.49 739.04
  C 1076.54 747.90 1086.14 748.46 1099.66 748.08
  C 1106.88 747.88 1111.06 749.06 1110.48 757.25
  Q 1109.27 774.36 1108.44 783.00
  C 1108.16 785.96 1105.59 788.35 1102.74 787.32
  C 1100.31 786.44 1098.44 782.93 1096.84 780.70
  C 1088.20 768.67 1075.89 766.20 1061.89 769.88
  C 1054.70 771.76 1050.84 770.80 1050.78 762.77
  Q 1050.68 749.75 1050.92 736.76
  C 1051.14 725.21 1062.70 736.80 1065.49 739.04
  Z"
/>
<path fill="#f85077" d="
  M 865.61 1121.99
  Q 866.66 1156.63 867.92 1191.25
  C 868.61 1210.45 868.28 1228.73 866.30 1247.49
  C 862.60 1282.56 847.80 1313.97 813.19 1327.41
  Q 794.69 1334.59 774.00 1335.80
  C 741.83 1337.67 713.77 1339.96 683.51 1337.77
  C 647.56 1335.17 611.09 1323.70 595.92 1287.98
  C 588.96 1271.59 586.15 1253.16 584.92 1235.49
  C 582.29 1197.86 584.26 1166.55 586.54 1122.24
  L 586.77 1121.97
  Q 587.10 1121.59 587.59 1121.59
  Q 726.00 1121.53 864.40 1121.48
  Q 865.33 1121.48 865.61 1121.99
  Z"
/>
</svg>
