<?xml version="1.0" encoding="UTF-8" standalone="no"?>
<!DOCTYPE svg PUBLIC "-//W3C//DTD SVG 1.1//EN" "http://www.w3.org/Graphics/SVG/1.1/DTD/svg11.dtd">
<svg xmlns="http://www.w3.org/2000/svg" version="1.1" viewBox="0.00 0.00 1500.00 1398.00">
<g stroke-width="2.00" fill="none" stroke-linecap="butt">
<path stroke="#b0cefc" vector-effect="non-scaling-stroke" d="
  M 538.57 89.72
  C 536.22 91.00 532.80 90.07 530.87 90.06
  Q 492.19 89.77 453.51 89.28
  Q 444.64 89.17 433.51 89.47
  Q 418.81 89.85 403.89 89.83"
/>
<path stroke="#3e8bf9" vector-effect="non-scaling-stroke" d="
  M 1335.04 320.32
  Q 1332.53 319.98 1325.26 319.90
  Q 1318.13 319.83 1314.78 324.36
  C 1312.79 327.05 1312.95 331.76 1311.06 334.29
  C 1305.89 341.19 1295.39 341.09 1291.27 333.20
  C 1277.36 306.52 1257.38 286.13 1229.99 274.14
  C 1222.10 270.69 1213.80 269.24 1206.86 263.07
  C 1202.14 258.88 1197.10 254.23 1192.52 250.78
  Q 1163.77 229.13 1128.60 221.98
  C 1112.73 218.75 1096.44 218.16 1079.25 217.85
  Q 1024.25 216.88 973.30 225.19"
/>
<path stroke="#3e80df" vector-effect="non-scaling-stroke" d="
  M 973.30 225.19
  C 967.72 218.11 959.65 211.14 950.34 217.10"
/>
<path stroke="#b0cefc" vector-effect="non-scaling-stroke" d="
  M 950.34 217.10
  C 936.22 167.17 872.15 181.86 839.86 199.69
  C 833.79 203.04 830.47 204.48 824.46 201.12
  Q 812.70 194.55 791.83 183.84
  Q 768.21 171.72 741.55 171.23
  Q 689.39 170.28 643.72 194.58
  C 636.47 198.43 628.52 206.35 620.05 201.48
  Q 595.80 187.53 568.55 182.07
  C 543.68 177.09 518.29 180.10 504.25 203.91"
/>
<path stroke="#3e8bf9" vector-effect="non-scaling-stroke" d="
  M 504.25 203.91
  C 499.35 198.72 500.00 191.14 489.98 194.37
  Q 481.93 196.96 474.98 195.31
  C 470.67 194.28 463.35 189.61 457.50 189.82
  Q 390.45 192.19 327.68 215.03
  Q 316.21 219.20 311.28 221.15
  Q 303.13 224.37 295.26 228.27
  C 293.87 228.96 292.03 229.18 290.79 229.81
  Q 265.65 242.59 247.23 258.76
  Q 211.50 290.10 186.22 309.93
  C 182.93 312.51 179.26 314.59 175.49 313.52
  Q 165.38 310.64 162.50 309.72
  C 156.79 307.90 156.37 313.97 155.74 317.74
  Q 154.34 326.18 147.78 330.05"
/>
<path stroke="#b0cefc" vector-effect="non-scaling-stroke" d="
  M 147.78 330.05
  L 148.91 313.74"
/>
<path stroke="#b0cefc" vector-effect="non-scaling-stroke" d="
  M 149.85 306.40
  Q 150.45 305.22 150.56 303.68
  Q 150.73 301.34 150.80 300.91
  C 167.51 206.70 233.34 131.53 323.82 101.55
  Q 333.29 98.41 343.13 96.43
  Q 364.51 92.11 386.59 90.87"
/>
<path stroke="#b0cefc" vector-effect="non-scaling-stroke" d="
  M 1334.95 316.04
  Q 1334.86 316.10 1334.69 316.05
  Q 1334.50 315.99 1334.48 315.80
  C 1330.27 280.86 1320.19 245.27 1303.31 214.26
  Q 1273.25 159.03 1219.22 127.12
  C 1183.85 106.22 1144.10 92.23 1102.60 91.73
  Q 1096.41 91.65 1090.29 90.76
  Q 1083.77 89.82 1079.62 89.74
  C 1044.24 89.03 1008.85 89.84 973.47 90.01
  Q 973.40 90.01 972.55 90.14
  Q 971.78 90.25 971.53 89.48"
/>
<path stroke="#8db1e3" vector-effect="non-scaling-stroke" d="
  M 950.34 217.10
  C 944.87 246.55 933.22 269.86 909.03 287.67
  C 904.87 290.73 899.25 293.85 894.36 297.09
  A 2.32 2.31 59.2 0 0 893.60 300.10
  Q 893.95 300.74 895.12 301.61
  Q 950.39 342.73 1005.77 383.70
  C 1010.28 387.03 1010.89 390.92 1007.58 395.55
  C 999.66 406.62 989.71 402.78 979.13 397.01
  Q 957.28 385.08 937.36 370.12
  C 934.14 367.70 930.66 365.58 928.00 369.88
  C 926.79 371.84 927.38 374.35 928.62 376.07
  C 952.52 409.08 970.57 449.28 970.16 490.75
  C 969.71 535.97 946.57 580.44 914.14 611.54
  C 839.55 683.08 722.03 692.33 627.88 662.41"
/>
<path stroke="#8dbcfc" vector-effect="non-scaling-stroke" d="
  M 627.88 662.41
  C 561.86 641.55 504.90 590.52 491.26 520.51
  C 478.52 455.16 504.79 391.63 551.20 345.54
  C 557.08 339.69 560.10 335.59 567.50 337.04
  Q 701.25 363.27 833.97 344.83
  Q 849.62 342.66 865.25 340.19
  C 871.29 339.24 873.25 342.03 874.75 347.53
  Q 881.51 372.35 888.28 397.16
  Q 890.03 403.59 891.94 406.16
  C 895.93 411.55 904.70 415.60 910.67 411.08
  C 913.44 408.99 914.64 405.91 914.20 402.50
  Q 910.58 374.21 901.88 347.07
  C 898.99 338.05 892.77 338.79 885.75 335.25
  Q 877.62 331.16 874.06 322.28
  Q 872.47 318.31 871.77 317.16
  Q 869.43 313.29 864.21 314.27
  Q 800.29 326.23 735.25 325.73
  Q 701.29 325.47 656.99 323.29
  C 600.71 320.52 538.07 308.26 514.29 249.24
  Q 505.52 227.48 504.25 203.91"
/>
<path stroke="#1b6de0" vector-effect="non-scaling-stroke" d="
  M 627.88 662.41
  Q 631.69 681.97 635.76 701.24
  C 636.90 706.60 637.36 710.67 630.86 711.63
  Q 624.16 712.63 609.86 715.57
  Q 608.32 715.89 606.28 717.55"
/>
<path stroke="#8dbcfc" vector-effect="non-scaling-stroke" d="
  M 606.28 717.55
  Q 594.06 717.62 578.99 717.11
  C 543.61 715.90 494.24 714.35 451.76 715.39
  C 423.68 716.08 392.45 719.44 364.72 728.45
  C 321.61 742.46 294.64 777.43 286.40 821.30
  Q 282.69 841.06 282.73 859.50
  Q 282.95 979.75 283.15 1100.00
  C 283.20 1127.59 298.29 1152.21 316.27 1172.83"
/>
<path stroke="#1b6de0" vector-effect="non-scaling-stroke" d="
  M 316.27 1172.83
  Q 287.99 1180.13 264.30 1193.56
  Q 251.45 1200.85 240.23 1211.74"
/>
<path stroke="#8dbcfc" vector-effect="non-scaling-stroke" d="
  M 240.23 1211.74
  Q 216.81 1192.91 199.76 1171.45
  Q 152.80 1112.34 152.09 1034.99
  Q 151.03 917.91 150.45 800.82
  Q 150.45 800.75 150.51 783.69
  Q 150.58 765.44 149.32 747.26"
/>
<path stroke="#8dbcfc" vector-effect="non-scaling-stroke" d="
  M 148.15 496.39
  Q 148.33 419.20 147.31 342.25
  Q 147.23 335.98 147.78 330.05"
/>
<path stroke="#8dbcfc" vector-effect="non-scaling-stroke" d="
  M 1334.84 723.96
  Q 1334.71 723.80 1334.40 723.97
  Q 1333.99 724.18 1333.99 724.64
  L 1332.71 1080.22"
/>
<path stroke="#1b6de0" vector-effect="non-scaling-stroke" d="
  M 973.30 225.19
  Q 968.33 252.09 953.59 275.22
  C 949.84 281.12 944.06 286.68 942.93 293.62
  Q 941.47 302.56 947.12 309.35
  C 950.88 313.88 956.98 316.22 962.80 319.16
  Q 980.85 328.24 998.63 344.61
  C 1001.53 347.28 1002.83 350.71 1002.65 354.97
  C 1002.40 360.87 1005.62 364.77 1008.61 369.35
  C 1024.67 393.90 1015.79 415.66 992.54 429.67
  C 988.24 432.26 985.30 434.95 985.78 439.88
  Q 989.39 476.82 989.84 508.49
  C 990.14 529.99 987.27 548.59 975.41 566.90
  Q 946.99 610.81 904.41 642.93
  C 896.73 648.72 891.69 652.18 890.73 660.73
  C 889.20 674.46 899.55 679.86 910.27 684.48
  Q 953.07 702.93 999.26 703.36
  C 1012.33 703.47 1031.12 702.65 1046.50 703.27
  Q 1061.90 703.88 1067.01 704.72
  Q 1101.45 710.40 1136.21 713.56
  C 1139.43 713.85 1144.44 715.02 1146.33 716.93
  Q 1164.68 735.44 1187.83 747.28
  C 1190.53 748.66 1194.27 751.43 1195.53 753.54
  Q 1218.65 792.28 1223.88 836.81
  C 1226.46 858.73 1225.85 880.02 1225.74 904.75
  Q 1225.40 980.43 1220.77 1045.39
  C 1220.25 1052.67 1219.42 1057.45 1226.48 1060.29
  Q 1267.14 1076.68 1311.02 1079.12
  Q 1321.54 1079.70 1332.71 1080.22"
/>
<path stroke="#8db1e3" vector-effect="non-scaling-stroke" d="
  M 1332.71 1080.22
  C 1306.66 1156.83 1259.14 1220.98 1182.81 1252.89
  Q 1157.22 1263.59 1129.76 1267.65
  C 1093.26 1273.05 1056.07 1273.04 1019.25 1272.86
  Q 1018.69 1272.86 1017.79 1273.44"
/>
<path stroke="#8db1e3" vector-effect="non-scaling-stroke" d="
  M 582.96 1273.46
  Q 582.52 1273.31 582.40 1273.09
  Q 582.23 1272.77 581.86 1272.77
  Q 458.54 1272.96 422.00 1272.48
  Q 388.91 1272.05 358.13 1267.35
  C 313.39 1260.53 274.81 1240.84 240.23 1211.74"
/>
<path stroke="#8db1e3" vector-effect="non-scaling-stroke" d="
  M 316.27 1172.83
  Q 330.59 1186.39 349.40 1197.29
  Q 372.84 1210.87 399.25 1212.48
  Q 402.51 1212.67 419.25 1212.63
  Q 733.62 1211.81 1048.00 1212.54
  Q 1077.63 1212.61 1105.50 1207.27
  C 1148.13 1199.10 1181.72 1171.58 1196.03 1130.43
  Q 1198.84 1122.37 1201.05 1111.09
  Q 1206.44 1083.68 1207.10 1053.24
  C 1208.72 978.46 1210.01 915.77 1207.33 848.76
  C 1205.19 795.08 1185.64 753.52 1134.05 733.08
  Q 1115.85 725.86 1092.68 722.11
  C 1061.61 717.08 1031.32 717.75 999.00 717.48
  Q 802.65 715.84 606.28 717.55"
/>
<path stroke="#8dbcfc" vector-effect="non-scaling-stroke" d="
  M 776.65 470.84
  Q 774.08 467.87 776.76 463.49
  Q 786.21 448.02 795.68 432.56
  C 799.35 426.56 801.90 421.13 797.32 415.46
  C 792.45 409.43 783.71 409.13 778.70 414.83
  Q 778.23 415.35 774.12 421.92
  Q 760.04 444.39 745.90 466.82
  Q 742.98 471.45 740.38 472.98
  C 734.59 476.38 729.15 473.49 725.92 468.13
  Q 722.79 462.94 719.65 457.78
  Q 706.91 436.79 689.73 419.29
  Q 686.01 415.49 680.91 415.43
  C 674.51 415.35 668.52 419.96 669.83 426.89
  Q 670.37 429.77 673.59 434.07
  Q 688.73 454.30 697.95 467.06
  Q 699.42 469.09 699.22 471.79
  Q 699.19 472.31 698.75 472.62
  Q 696.75 474.02 694.25 474.26
  Q 682.01 475.40 669.74 476.46
  Q 664.18 476.93 663.18 482.38
  C 662.73 484.82 663.64 487.39 664.37 489.79
  C 667.83 501.17 670.36 501.39 682.00 500.31
  Q 697.16 498.91 712.32 497.44
  C 717.87 496.90 721.89 498.20 721.60 504.51
  Q 721.38 509.26 720.55 513.97
  C 719.26 521.38 715.10 520.95 708.25 520.91
  Q 695.12 520.84 682.00 520.52
  C 671.28 520.27 673.08 532.38 673.36 539.36
  C 673.56 544.43 674.86 547.79 680.50 547.57
  Q 697.26 546.90 713.99 546.16
  C 721.48 545.83 722.77 551.48 722.74 557.91
  Q 722.69 569.08 722.74 580.24
  C 722.77 586.21 727.18 587.20 732.35 587.03
  C 741.85 586.70 746.00 586.87 747.37 576.17
  Q 748.79 565.08 750.23 554.00
  C 750.83 549.35 752.91 548.07 757.54 547.77
  Q 773.58 546.71 789.62 545.72
  C 804.08 544.83 801.34 536.31 799.04 525.71
  C 797.72 519.63 792.31 519.11 786.61 519.59
  Q 770.47 520.93 754.32 519.56
  C 749.82 519.17 746.44 517.62 744.18 513.94
  C 740.65 508.21 743.03 500.44 749.40 497.99
  Q 752.37 496.85 758.72 497.26
  Q 776.41 498.41 793.98 500.53
  Q 806.07 501.99 810.02 492.15
  C 812.66 485.57 811.46 475.94 802.74 475.17
  Q 791.85 474.22 781.03 472.76
  Q 777.96 472.35 776.65 470.84"
/>
<path stroke="#8dbcfc" vector-effect="non-scaling-stroke" d="
  M 916.18 951.45
  Q 913.95 955.73 908.50 955.64
  Q 856.37 954.80 804.23 954.04
  Q 796.46 953.93 792.87 955.05
  C 783.82 957.88 778.07 966.75 777.33 976.02
  C 776.11 991.37 788.32 992.62 799.92 993.09
  Q 853.97 995.31 908.04 996.09
  C 912.34 996.15 916.57 996.80 916.61 1001.74
  Q 916.77 1026.96 915.66 1083.51
  Q 915.53 1089.74 909.00 1089.74
  Q 843.75 1089.77 778.50 1089.70
  C 764.62 1089.68 757.70 1105.51 761.57 1117.02
  C 764.21 1124.87 767.71 1129.73 776.50 1129.98
  C 867.16 1132.47 957.83 1133.27 1048.50 1130.83
  C 1068.86 1130.28 1086.85 1134.44 1104.93 1126.90
  C 1111.85 1124.02 1114.18 1120.86 1114.79 1113.19
  Q 1116.19 1095.35 1100.21 1090.00
  C 1094.96 1088.24 1085.36 1087.68 1080.25 1087.98
  Q 1071.00 1088.52 1061.76 1088.53
  Q 1052.98 1088.55 1050.43 1087.39
  C 1043.68 1084.34 1044.51 1079.38 1047.07 1073.32
  Q 1053.82 1057.32 1060.49 1041.28
  C 1062.53 1036.38 1063.00 1033.13 1060.92 1028.51
  C 1057.33 1020.47 1055.04 1012.96 1047.99 1009.02
  C 1040.77 1004.98 1031.46 1006.40 1025.91 1012.61
  Q 1023.53 1015.26 1020.25 1023.16
  Q 1008.35 1051.77 996.41 1080.36
  C 992.07 1090.77 980.58 1095.26 970.35 1090.40
  C 961.47 1086.19 959.98 1078.37 959.88 1068.48
  Q 959.55 1036.99 959.08 1005.49
  Q 958.95 996.93 967.77 996.37
  C 997.77 994.46 1025.39 994.21 1053.51 995.53
  C 1067.89 996.21 1095.07 998.77 1095.23 976.78
  C 1095.30 967.69 1092.20 956.93 1083.14 953.91
  Q 1080.30 952.96 1073.77 952.93
  Q 999.56 952.60 967.00 952.73
  Q 960.95 952.76 958.83 948.66
  C 957.04 945.21 957.69 937.16 957.73 932.48
  Q 957.78 925.25 964.75 925.32
  C 984.25 925.54 1004.42 926.76 1023.75 923.26
  C 1038.04 920.68 1049.84 914.76 1057.88 902.14
  C 1061.14 897.02 1065.25 898.91 1069.54 901.81
  Q 1076.11 906.24 1083.60 908.92
  C 1097.34 913.86 1112.17 908.53 1121.67 898.13
  C 1126.25 893.12 1127.32 886.23 1122.99 880.94
  Q 1120.82 878.29 1113.26 874.69
  Q 1032.02 836.07 958.84 783.74
  C 947.17 775.40 934.12 773.39 921.08 779.92
  C 915.14 782.89 908.88 788.57 903.17 793.17
  C 870.55 819.41 835.02 840.74 796.60 857.46
  Q 780.40 864.51 775.95 866.67
  C 765.05 871.99 754.37 882.46 753.89 895.06
  C 753.58 903.22 757.42 910.69 764.92 914.09
  Q 772.43 917.48 779.01 915.24
  C 786.41 912.71 793.94 910.40 801.27 907.68
  C 809.62 904.59 815.29 908.83 822.50 912.45
  C 843.85 923.18 866.23 926.74 889.90 923.32
  C 899.10 921.98 907.71 920.02 914.37 928.12
  Q 919.01 933.75 918.24 941.52
  Q 917.51 948.89 916.18 951.45"
/>
<path stroke="#8dbcfc" vector-effect="non-scaling-stroke" d="
  M 650.50 828.11
  C 654.19 828.11 657.45 828.62 657.33 833.01
  C 655.88 885.87 655.57 938.40 657.75 991.24
  C 658.19 1001.88 662.53 1010.94 672.74 1014.45
  C 682.60 1017.84 695.20 1018.31 699.34 1006.44
  Q 700.36 1003.54 700.40 996.94
  Q 701.03 905.97 701.67 815.00
  Q 701.81 795.35 685.33 789.05
  Q 680.84 787.33 672.42 786.83
  Q 598.05 782.41 523.75 788.27
  C 512.90 789.12 503.64 793.15 493.24 795.60
  C 483.39 797.93 475.19 796.68 464.75 795.49
  C 435.83 792.19 401.70 793.31 372.41 795.10
  Q 365.59 795.52 362.32 797.01
  C 344.99 804.91 349.61 829.76 368.12 832.60
  Q 382.79 834.86 397.43 837.14
  C 403.91 838.15 404.87 841.45 405.12 847.68
  Q 406.06 871.36 406.70 895.06
  C 406.85 900.54 405.71 905.35 399.77 906.06
  Q 395.33 906.60 381.11 907.44
  Q 373.51 907.89 369.89 909.45
  C 356.52 915.23 354.61 934.15 366.92 942.37
  Q 370.22 944.58 378.55 946.30
  Q 388.48 948.34 398.47 950.37
  C 405.95 951.89 405.98 953.89 405.87 960.86
  Q 405.36 993.30 404.87 1025.76
  Q 404.75 1033.76 396.98 1037.95
  Q 381.58 1046.28 366.21 1054.67
  Q 359.77 1058.19 357.50 1060.80
  C 351.11 1068.16 351.70 1079.25 358.38 1086.35
  Q 365.64 1094.07 377.01 1091.23
  Q 461.46 1070.11 525.80 1011.94
  C 532.12 1006.22 534.03 1004.63 534.11 995.06
  Q 534.79 915.66 535.49 836.25
  Q 535.56 827.77 544.25 827.80
  Q 597.38 828.02 650.50 828.11"
/>
<path stroke="#8dbcfc" vector-effect="non-scaling-stroke" d="
  M 672.82 1079.95
  C 667.99 1094.15 647.48 1095.08 642.07 1081.02
  Q 640.85 1077.86 640.77 1070.34
  Q 640.41 1036.92 640.39 1003.50
  C 640.39 997.53 639.57 991.54 635.30 988.40
  Q 632.40 986.26 622.46 979.79
  C 615.88 975.50 612.50 972.72 613.70 964.75
  C 617.30 940.66 627.68 867.62 597.84 854.81
  C 590.87 851.82 579.32 850.67 575.31 858.51
  Q 573.88 861.30 573.64 869.73
  Q 572.30 917.59 566.40 965.09
  Q 564.55 979.96 563.62 984.88
  Q 556.64 1021.82 529.92 1049.19
  C 510.81 1068.75 492.58 1080.61 466.78 1098.81
  Q 461.94 1102.23 460.03 1104.50
  C 452.06 1114.00 453.31 1126.96 461.33 1135.94
  C 470.89 1146.63 482.57 1140.40 492.35 1134.70
  Q 553.24 1099.20 591.71 1037.98
  Q 594.10 1034.17 597.53 1036.33
  C 599.57 1037.61 599.53 1039.54 599.44 1041.75
  Q 598.22 1073.25 597.09 1104.75
  C 596.86 1111.09 595.64 1116.64 602.70 1119.79
  Q 649.85 1140.83 698.26 1125.32
  C 708.40 1122.07 709.57 1115.13 712.12 1106.00
  Q 721.44 1072.65 717.49 1040.73
  C 715.88 1027.81 698.59 1022.83 690.14 1032.57
  Q 687.69 1035.40 685.24 1042.81
  Q 679.11 1061.40 672.82 1079.95"
/>
<path stroke="#8dbcfc" vector-effect="non-scaling-stroke" d="
  M 868.8860 1083.6589
  A 48.06 22.21 56.7 0 0 861.0633 1031.2962
  A 48.06 22.21 56.7 0 0 816.1140 1003.3211
  A 48.06 22.21 56.7 0 0 823.9367 1055.6838
  A 48.06 22.21 56.7 0 0 868.8860 1083.6589"
/>
<path stroke="#8dbcfc" vector-effect="non-scaling-stroke" d="
  M 856.77 874.92
  A 3.72 3.72 0.0 0 0 858.73 881.81
  L 1014.36 881.27
  A 3.72 3.72 0.0 0 0 1016.27 874.37
  L 938.29 827.16
  A 3.72 3.72 0.0 0 0 934.42 827.17
  L 856.77 874.92"
/>
<path stroke="#8dbcfc" vector-effect="non-scaling-stroke" d="
  M 472.69 909.08
  C 481.11 912.50 489.51 923.33 486.90 932.90
  C 485.08 939.57 480.16 941.65 473.47 942.48
  Q 456.52 944.60 450.27 958.68
  Q 447.36 965.21 446.67 978.22
  Q 445.87 993.42 447.54 1008.64
  Q 448.18 1014.54 454.24 1013.35
  Q 470.50 1010.16 486.76 1006.71
  C 492.46 1005.50 493.38 1000.78 493.34 995.30
  Q 492.81 916.54 492.28 837.78
  C 492.23 830.90 488.53 828.81 481.93 830.15
  Q 470.90 832.40 459.93 834.80
  C 451.68 836.60 449.38 837.53 449.18 846.96
  Q 448.60 872.98 448.14 899.00
  C 447.99 906.99 452.98 908.37 459.66 907.61
  Q 467.01 906.77 472.69 909.08"
/>
</g>
<path fill="#ffffff" d="
  M 538.57 89.72
  C 536.22 91.00 532.80 90.07 530.87 90.06
  Q 492.19 89.77 453.51 89.28
  Q 444.64 89.17 433.51 89.47
  Q 418.81 89.85 403.89 89.83
  Q 416.52 86.46 429.51 85.91
  Q 432.10 85.80 449.50 85.96
  C 477.60 86.22 509.84 86.63 538.57 89.72
  Z"
/>
<path fill="#ffffff" d="
  M 1334.95 316.04
  Q 1334.86 316.10 1334.69 316.05
  Q 1334.50 315.99 1334.48 315.80
  C 1330.27 280.86 1320.19 245.27 1303.31 214.26
  Q 1273.25 159.03 1219.22 127.12
  C 1183.85 106.22 1144.10 92.23 1102.60 91.73
  Q 1096.41 91.65 1090.29 90.76
  Q 1083.77 89.82 1079.62 89.74
  C 1044.24 89.03 1008.85 89.84 973.47 90.01
  Q 973.40 90.01 972.55 90.14
  Q 971.78 90.25 971.53 89.48
  Q 1014.70 86.69 1064.00 86.26
  Q 1070.28 86.21 1075.53 86.70
  C 1081.03 87.21 1087.45 90.00 1093.25 90.26
  Q 1099.91 90.56 1123.84 90.57
  C 1125.97 90.57 1129.48 90.82 1131.42 91.75
  Q 1138.15 95.01 1140.98 95.02
  C 1146.15 95.03 1151.42 95.16 1156.12 97.71
  C 1161.65 100.70 1166.96 99.38 1172.18 102.40
  C 1176.03 104.62 1179.97 105.16 1183.76 107.34
  C 1187.35 109.40 1191.06 110.18 1194.64 112.24
  C 1198.33 114.35 1202.18 115.23 1205.88 117.56
  Q 1207.45 118.55 1209.81 119.48
  C 1213.17 120.79 1216.07 123.10 1219.06 124.48
  Q 1225.38 127.39 1227.64 129.36
  Q 1235.13 135.87 1239.47 138.30
  Q 1245.83 141.87 1248.30 143.96
  Q 1261.72 155.31 1273.93 167.92
  Q 1275.78 169.84 1277.78 173.20
  C 1281.55 179.53 1288.28 185.07 1291.87 190.13
  Q 1292.88 191.56 1293.86 195.07
  A 1.54 1.53 12.1 0 0 1294.37 195.85
  Q 1298.36 199.10 1299.35 204.15
  A 1.65 1.63 16.0 0 0 1299.88 205.09
  Q 1303.73 208.57 1304.43 213.73
  A 1.47 1.44 -72.6 0 0 1304.87 214.59
  Q 1308.78 218.26 1309.92 223.50
  A 1.72 1.69 15.8 0 0 1310.45 224.43
  Q 1313.70 227.45 1314.52 231.63
  C 1315.12 234.69 1315.97 235.66 1317.61 237.94
  C 1320.02 241.30 1319.24 245.85 1321.54 249.76
  C 1322.77 251.83 1324.10 253.36 1324.24 255.93
  C 1324.47 260.20 1324.59 264.18 1327.03 267.93
  C 1328.70 270.50 1329.69 272.39 1329.70 275.69
  Q 1329.71 279.92 1330.46 284.05
  C 1331.20 288.10 1334.31 291.17 1334.70 295.36
  Q 1335.36 302.45 1334.95 316.04
  Z"
/>
<path fill="#619df8" d="
  M 538.57 89.72
  C 543.85 89.83 549.46 90.34 554.49 90.35
  Q 828.95 90.71 949.50 90.46
  Q 956.23 90.44 971.53 89.48
  Q 971.78 90.25 972.55 90.14
  Q 973.40 90.01 973.47 90.01
  C 1008.85 89.84 1044.24 89.03 1079.62 89.74
  Q 1083.77 89.82 1090.29 90.76
  Q 1096.41 91.65 1102.60 91.73
  C 1144.10 92.23 1183.85 106.22 1219.22 127.12
  Q 1273.25 159.03 1303.31 214.26
  C 1320.19 245.27 1330.27 280.86 1334.48 315.80
  Q 1334.50 315.99 1334.69 316.05
  Q 1334.86 316.10 1334.95 316.04
  L 1335.04 320.32
  Q 1332.53 319.98 1325.26 319.90
  Q 1318.13 319.83 1314.78 324.36
  C 1312.79 327.05 1312.95 331.76 1311.06 334.29
  C 1305.89 341.19 1295.39 341.09 1291.27 333.20
  C 1277.36 306.52 1257.38 286.13 1229.99 274.14
  C 1222.10 270.69 1213.80 269.24 1206.86 263.07
  C 1202.14 258.88 1197.10 254.23 1192.52 250.78
  Q 1163.77 229.13 1128.60 221.98
  C 1112.73 218.75 1096.44 218.16 1079.25 217.85
  Q 1024.25 216.88 973.30 225.19
  C 967.72 218.11 959.65 211.14 950.34 217.10
  C 936.22 167.17 872.15 181.86 839.86 199.69
  C 833.79 203.04 830.47 204.48 824.46 201.12
  Q 812.70 194.55 791.83 183.84
  Q 768.21 171.72 741.55 171.23
  Q 689.39 170.28 643.72 194.58
  C 636.47 198.43 628.52 206.35 620.05 201.48
  Q 595.80 187.53 568.55 182.07
  C 543.68 177.09 518.29 180.10 504.25 203.91
  C 499.35 198.72 500.00 191.14 489.98 194.37
  Q 481.93 196.96 474.98 195.31
  C 470.67 194.28 463.35 189.61 457.50 189.82
  Q 390.45 192.19 327.68 215.03
  Q 316.21 219.20 311.28 221.15
  Q 303.13 224.37 295.26 228.27
  C 293.87 228.96 292.03 229.18 290.79 229.81
  Q 265.65 242.59 247.23 258.76
  Q 211.50 290.10 186.22 309.93
  C 182.93 312.51 179.26 314.59 175.49 313.52
  Q 165.38 310.64 162.50 309.72
  C 156.79 307.90 156.37 313.97 155.74 317.74
  Q 154.34 326.18 147.78 330.05
  L 148.91 313.74
  L 149.85 306.40
  Q 150.45 305.22 150.56 303.68
  Q 150.73 301.34 150.80 300.91
  C 167.51 206.70 233.34 131.53 323.82 101.55
  Q 333.29 98.41 343.13 96.43
  Q 364.51 92.11 386.59 90.87
  L 403.89 89.83
  Q 418.81 89.85 433.51 89.47
  Q 444.64 89.17 453.51 89.28
  Q 492.19 89.77 530.87 90.06
  C 532.80 90.07 536.22 91.00 538.57 89.72
  Z"
/>
<path fill="#ffffff" d="
  M 386.59 90.87
  Q 364.51 92.11 343.13 96.43
  Q 333.29 98.41 323.82 101.55
  C 233.34 131.53 167.51 206.70 150.80 300.91
  Q 150.73 301.34 150.56 303.68
  Q 150.45 305.22 149.85 306.40
  C 149.60 302.49 148.93 294.86 150.02 289.59
  C 150.68 286.41 154.34 283.71 154.47 280.90
  Q 154.70 275.68 154.98 270.50
  C 155.10 268.23 157.84 265.92 158.90 263.88
  C 160.13 261.53 159.84 258.62 160.19 255.92
  C 160.59 252.88 162.46 251.31 164.26 249.02
  A 1.77 1.74 -23.6 0 0 164.62 248.12
  Q 165.12 243.12 167.78 239.01
  C 169.95 235.66 170.39 233.32 170.87 229.70
  A 1.48 1.46 72.7 0 1 171.33 228.81
  Q 175.18 225.28 176.04 220.12
  A 1.82 1.81 72.8 0 1 176.56 219.13
  C 180.05 215.80 181.28 211.62 183.68 208.31
  Q 186.39 204.59 189.17 200.96
  C 190.85 198.78 190.93 196.00 192.59 194.31
  Q 199.49 187.24 204.97 179.05
  Q 207.41 175.41 210.03 172.90
  C 223.11 160.33 236.28 147.38 250.42 136.03
  C 252.46 134.39 254.70 134.58 256.75 133.10
  Q 260.14 130.65 263.40 128.05
  Q 266.74 125.39 270.38 123.52
  Q 277.61 119.83 280.00 117.97
  Q 282.79 115.79 285.39 115.10
  C 288.11 114.38 289.22 113.57 291.18 112.01
  C 294.10 109.68 296.82 110.49 299.63 108.52
  C 301.90 106.92 303.38 105.73 306.34 105.43
  C 312.10 104.85 315.58 101.29 321.32 100.50
  Q 326.12 99.84 330.36 97.44
  C 334.36 95.17 339.10 95.67 343.45 95.16
  C 348.99 94.50 353.35 91.15 358.92 90.85
  Q 372.64 90.12 386.59 90.87
  Z"
/>
<path fill="#ffffff" d="
  M 950.34 217.10
  C 944.87 246.55 933.22 269.86 909.03 287.67
  C 904.87 290.73 899.25 293.85 894.36 297.09
  A 2.32 2.31 59.2 0 0 893.60 300.10
  Q 893.95 300.74 895.12 301.61
  Q 950.39 342.73 1005.77 383.70
  C 1010.28 387.03 1010.89 390.92 1007.58 395.55
  C 999.66 406.62 989.71 402.78 979.13 397.01
  Q 957.28 385.08 937.36 370.12
  C 934.14 367.70 930.66 365.58 928.00 369.88
  C 926.79 371.84 927.38 374.35 928.62 376.07
  C 952.52 409.08 970.57 449.28 970.16 490.75
  C 969.71 535.97 946.57 580.44 914.14 611.54
  C 839.55 683.08 722.03 692.33 627.88 662.41
  C 561.86 641.55 504.90 590.52 491.26 520.51
  C 478.52 455.16 504.79 391.63 551.20 345.54
  C 557.08 339.69 560.10 335.59 567.50 337.04
  Q 701.25 363.27 833.97 344.83
  Q 849.62 342.66 865.25 340.19
  C 871.29 339.24 873.25 342.03 874.75 347.53
  Q 881.51 372.35 888.28 397.16
  Q 890.03 403.59 891.94 406.16
  C 895.93 411.55 904.70 415.60 910.67 411.08
  C 913.44 408.99 914.64 405.91 914.20 402.50
  Q 910.58 374.21 901.88 347.07
  C 898.99 338.05 892.77 338.79 885.75 335.25
  Q 877.62 331.16 874.06 322.28
  Q 872.47 318.31 871.77 317.16
  Q 869.43 313.29 864.21 314.27
  Q 800.29 326.23 735.25 325.73
  Q 701.29 325.47 656.99 323.29
  C 600.71 320.52 538.07 308.26 514.29 249.24
  Q 505.52 227.48 504.25 203.91
  C 518.29 180.10 543.68 177.09 568.55 182.07
  Q 595.80 187.53 620.05 201.48
  C 628.52 206.35 636.47 198.43 643.72 194.58
  Q 689.39 170.28 741.55 171.23
  Q 768.21 171.72 791.83 183.84
  Q 812.70 194.55 824.46 201.12
  C 830.47 204.48 833.79 203.04 839.86 199.69
  C 872.15 181.86 936.22 167.17 950.34 217.10
  Z
  M 776.65 470.84
  Q 774.08 467.87 776.76 463.49
  Q 786.21 448.02 795.68 432.56
  C 799.35 426.56 801.90 421.13 797.32 415.46
  C 792.45 409.43 783.71 409.13 778.70 414.83
  Q 778.23 415.35 774.12 421.92
  Q 760.04 444.39 745.90 466.82
  Q 742.98 471.45 740.38 472.98
  C 734.59 476.38 729.15 473.49 725.92 468.13
  Q 722.79 462.94 719.65 457.78
  Q 706.91 436.79 689.73 419.29
  Q 686.01 415.49 680.91 415.43
  C 674.51 415.35 668.52 419.96 669.83 426.89
  Q 670.37 429.77 673.59 434.07
  Q 688.73 454.30 697.95 467.06
  Q 699.42 469.09 699.22 471.79
  Q 699.19 472.31 698.75 472.62
  Q 696.75 474.02 694.25 474.26
  Q 682.01 475.40 669.74 476.46
  Q 664.18 476.93 663.18 482.38
  C 662.73 484.82 663.64 487.39 664.37 489.79
  C 667.83 501.17 670.36 501.39 682.00 500.31
  Q 697.16 498.91 712.32 497.44
  C 717.87 496.90 721.89 498.20 721.60 504.51
  Q 721.38 509.26 720.55 513.97
  C 719.26 521.38 715.10 520.95 708.25 520.91
  Q 695.12 520.84 682.00 520.52
  C 671.28 520.27 673.08 532.38 673.36 539.36
  C 673.56 544.43 674.86 547.79 680.50 547.57
  Q 697.26 546.90 713.99 546.16
  C 721.48 545.83 722.77 551.48 722.74 557.91
  Q 722.69 569.08 722.74 580.24
  C 722.77 586.21 727.18 587.20 732.35 587.03
  C 741.85 586.70 746.00 586.87 747.37 576.17
  Q 748.79 565.08 750.23 554.00
  C 750.83 549.35 752.91 548.07 757.54 547.77
  Q 773.58 546.71 789.62 545.72
  C 804.08 544.83 801.34 536.31 799.04 525.71
  C 797.72 519.63 792.31 519.11 786.61 519.59
  Q 770.47 520.93 754.32 519.56
  C 749.82 519.17 746.44 517.62 744.18 513.94
  C 740.65 508.21 743.03 500.44 749.40 497.99
  Q 752.37 496.85 758.72 497.26
  Q 776.41 498.41 793.98 500.53
  Q 806.07 501.99 810.02 492.15
  C 812.66 485.57 811.46 475.94 802.74 475.17
  Q 791.85 474.22 781.03 472.76
  Q 777.96 472.35 776.65 470.84
  Z"
/>
<path fill="#1b78f9" d="
  M 504.25 203.91
  Q 505.52 227.48 514.29 249.24
  C 538.07 308.26 600.71 320.52 656.99 323.29
  Q 701.29 325.47 735.25 325.73
  Q 800.29 326.23 864.21 314.27
  Q 869.43 313.29 871.77 317.16
  Q 872.47 318.31 874.06 322.28
  Q 877.62 331.16 885.75 335.25
  C 892.77 338.79 898.99 338.05 901.88 347.07
  Q 910.58 374.21 914.20 402.50
  C 914.64 405.91 913.44 408.99 910.67 411.08
  C 904.70 415.60 895.93 411.55 891.94 406.16
  Q 890.03 403.59 888.28 397.16
  Q 881.51 372.35 874.75 347.53
  C 873.25 342.03 871.29 339.24 865.25 340.19
  Q 849.62 342.66 833.97 344.83
  Q 701.25 363.27 567.50 337.04
  C 560.10 335.59 557.08 339.69 551.20 345.54
  C 504.79 391.63 478.52 455.16 491.26 520.51
  C 504.90 590.52 561.86 641.55 627.88 662.41
  Q 631.69 681.97 635.76 701.24
  C 636.90 706.60 637.36 710.67 630.86 711.63
  Q 624.16 712.63 609.86 715.57
  Q 608.32 715.89 606.28 717.55
  Q 594.06 717.62 578.99 717.11
  C 543.61 715.90 494.24 714.35 451.76 715.39
  C 423.68 716.08 392.45 719.44 364.72 728.45
  C 321.61 742.46 294.64 777.43 286.40 821.30
  Q 282.69 841.06 282.73 859.50
  Q 282.95 979.75 283.15 1100.00
  C 283.20 1127.59 298.29 1152.21 316.27 1172.83
  Q 287.99 1180.13 264.30 1193.56
  Q 251.45 1200.85 240.23 1211.74
  Q 216.81 1192.91 199.76 1171.45
  Q 152.80 1112.34 152.09 1034.99
  Q 151.03 917.91 150.45 800.82
  Q 150.45 800.75 150.51 783.69
  Q 150.58 765.44 149.32 747.26
  Q 149.28 637.26 149.20 527.20
  C 149.19 516.72 148.68 506.65 148.15 496.39
  Q 148.33 419.20 147.31 342.25
  Q 147.23 335.98 147.78 330.05
  Q 154.34 326.18 155.74 317.74
  C 156.37 313.97 156.79 307.90 162.50 309.72
  Q 165.38 310.64 175.49 313.52
  C 179.26 314.59 182.93 312.51 186.22 309.93
  Q 211.50 290.10 247.23 258.76
  Q 265.65 242.59 290.79 229.81
  C 292.03 229.18 293.87 228.96 295.26 228.27
  Q 303.13 224.37 311.28 221.15
  Q 316.21 219.20 327.68 215.03
  Q 390.45 192.19 457.50 189.82
  C 463.35 189.61 470.67 194.28 474.98 195.31
  Q 481.93 196.96 489.98 194.37
  C 500.00 191.14 499.35 198.72 504.25 203.91
  Z"
/>
<path fill="#1b62c6" d="
  M 973.30 225.19
  Q 968.33 252.09 953.59 275.22
  C 949.84 281.12 944.06 286.68 942.93 293.62
  Q 941.47 302.56 947.12 309.35
  C 950.88 313.88 956.98 316.22 962.80 319.16
  Q 980.85 328.24 998.63 344.61
  C 1001.53 347.28 1002.83 350.71 1002.65 354.97
  C 1002.40 360.87 1005.62 364.77 1008.61 369.35
  C 1024.67 393.90 1015.79 415.66 992.54 429.67
  C 988.24 432.26 985.30 434.95 985.78 439.88
  Q 989.39 476.82 989.84 508.49
  C 990.14 529.99 987.27 548.59 975.41 566.90
  Q 946.99 610.81 904.41 642.93
  C 896.73 648.72 891.69 652.18 890.73 660.73
  C 889.20 674.46 899.55 679.86 910.27 684.48
  Q 953.07 702.93 999.26 703.36
  C 1012.33 703.47 1031.12 702.65 1046.50 703.27
  Q 1061.90 703.88 1067.01 704.72
  Q 1101.45 710.40 1136.21 713.56
  C 1139.43 713.85 1144.44 715.02 1146.33 716.93
  Q 1164.68 735.44 1187.83 747.28
  C 1190.53 748.66 1194.27 751.43 1195.53 753.54
  Q 1218.65 792.28 1223.88 836.81
  C 1226.46 858.73 1225.85 880.02 1225.74 904.75
  Q 1225.40 980.43 1220.77 1045.39
  C 1220.25 1052.67 1219.42 1057.45 1226.48 1060.29
  Q 1267.14 1076.68 1311.02 1079.12
  Q 1321.54 1079.70 1332.71 1080.22
  C 1306.66 1156.83 1259.14 1220.98 1182.81 1252.89
  Q 1157.22 1263.59 1129.76 1267.65
  C 1093.26 1273.05 1056.07 1273.04 1019.25 1272.86
  Q 1018.69 1272.86 1017.79 1273.44
  L 582.96 1273.46
  Q 582.52 1273.31 582.40 1273.09
  Q 582.23 1272.77 581.86 1272.77
  Q 458.54 1272.96 422.00 1272.48
  Q 388.91 1272.05 358.13 1267.35
  C 313.39 1260.53 274.81 1240.84 240.23 1211.74
  Q 251.45 1200.85 264.30 1193.56
  Q 287.99 1180.13 316.27 1172.83
  Q 330.59 1186.39 349.40 1197.29
  Q 372.84 1210.87 399.25 1212.48
  Q 402.51 1212.67 419.25 1212.63
  Q 733.62 1211.81 1048.00 1212.54
  Q 1077.63 1212.61 1105.50 1207.27
  C 1148.13 1199.10 1181.72 1171.58 1196.03 1130.43
  Q 1198.84 1122.37 1201.05 1111.09
  Q 1206.44 1083.68 1207.10 1053.24
  C 1208.72 978.46 1210.01 915.77 1207.33 848.76
  C 1205.19 795.08 1185.64 753.52 1134.05 733.08
  Q 1115.85 725.86 1092.68 722.11
  C 1061.61 717.08 1031.32 717.75 999.00 717.48
  Q 802.65 715.84 606.28 717.55
  Q 608.32 715.89 609.86 715.57
  Q 624.16 712.63 630.86 711.63
  C 637.36 710.67 636.90 706.60 635.76 701.24
  Q 631.69 681.97 627.88 662.41
  C 722.03 692.33 839.55 683.08 914.14 611.54
  C 946.57 580.44 969.71 535.97 970.16 490.75
  C 970.57 449.28 952.52 409.08 928.62 376.07
  C 927.38 374.35 926.79 371.84 928.00 369.88
  C 930.66 365.58 934.14 367.70 937.36 370.12
  Q 957.28 385.08 979.13 397.01
  C 989.71 402.78 999.66 406.62 1007.58 395.55
  C 1010.89 390.92 1010.28 387.03 1005.77 383.70
  Q 950.39 342.73 895.12 301.61
  Q 893.95 300.74 893.60 300.10
  A 2.32 2.31 59.2 0 1 894.36 297.09
  C 899.25 293.85 904.87 290.73 909.03 287.67
  C 933.22 269.86 944.87 246.55 950.34 217.10
  C 959.65 211.14 967.72 218.11 973.30 225.19
  Z"
/>
<path fill="#1b78f9" d="
  M 1335.04 320.32
  L 1334.84 723.96
  Q 1334.71 723.80 1334.40 723.97
  Q 1333.99 724.18 1333.99 724.64
  L 1332.71 1080.22
  Q 1321.54 1079.70 1311.02 1079.12
  Q 1267.14 1076.68 1226.48 1060.29
  C 1219.42 1057.45 1220.25 1052.67 1220.77 1045.39
  Q 1225.40 980.43 1225.74 904.75
  C 1225.85 880.02 1226.46 858.73 1223.88 836.81
  Q 1218.65 792.28 1195.53 753.54
  C 1194.27 751.43 1190.53 748.66 1187.83 747.28
  Q 1164.68 735.44 1146.33 716.93
  C 1144.44 715.02 1139.43 713.85 1136.21 713.56
  Q 1101.45 710.40 1067.01 704.72
  Q 1061.90 703.88 1046.50 703.27
  C 1031.12 702.65 1012.33 703.47 999.26 703.36
  Q 953.07 702.93 910.27 684.48
  C 899.55 679.86 889.20 674.46 890.73 660.73
  C 891.69 652.18 896.73 648.72 904.41 642.93
  Q 946.99 610.81 975.41 566.90
  C 987.27 548.59 990.14 529.99 989.84 508.49
  Q 989.39 476.82 985.78 439.88
  C 985.30 434.95 988.24 432.26 992.54 429.67
  C 1015.79 415.66 1024.67 393.90 1008.61 369.35
  C 1005.62 364.77 1002.40 360.87 1002.65 354.97
  C 1002.83 350.71 1001.53 347.28 998.63 344.61
  Q 980.85 328.24 962.80 319.16
  C 956.98 316.22 950.88 313.88 947.12 309.35
  Q 941.47 302.56 942.93 293.62
  C 944.06 286.68 949.84 281.12 953.59 275.22
  Q 968.33 252.09 973.30 225.19
  Q 1024.25 216.88 1079.25 217.85
  C 1096.44 218.16 1112.73 218.75 1128.60 221.98
  Q 1163.77 229.13 1192.52 250.78
  C 1197.10 254.23 1202.14 258.88 1206.86 263.07
  C 1213.80 269.24 1222.10 270.69 1229.99 274.14
  C 1257.38 286.13 1277.36 306.52 1291.27 333.20
  C 1295.39 341.09 1305.89 341.19 1311.06 334.29
  C 1312.95 331.76 1312.79 327.05 1314.78 324.36
  Q 1318.13 319.83 1325.26 319.90
  Q 1332.53 319.98 1335.04 320.32
  Z"
/>
<path fill="#ffffff" d="
  M 148.91 313.74
  L 147.78 330.05
  Q 147.23 335.98 147.31 342.25
  Q 148.33 419.20 148.15 496.39
  Q 144.68 460.40 144.37 429.25
  Q 144.17 408.38 144.25 334.75
  Q 144.26 331.97 144.96 321.22
  Q 145.11 318.98 148.91 313.74
  Z"
/>
<path fill="#1b78f9" d="
  M 781.03 472.76
  Q 791.85 474.22 802.74 475.17
  C 811.46 475.94 812.66 485.57 810.02 492.15
  Q 806.07 501.99 793.98 500.53
  Q 776.41 498.41 758.72 497.26
  Q 752.37 496.85 749.40 497.99
  C 743.03 500.44 740.65 508.21 744.18 513.94
  C 746.44 517.62 749.82 519.17 754.32 519.56
  Q 770.47 520.93 786.61 519.59
  C 792.31 519.11 797.72 519.63 799.04 525.71
  C 801.34 536.31 804.08 544.83 789.62 545.72
  Q 773.58 546.71 757.54 547.77
  C 752.91 548.07 750.83 549.35 750.23 554.00
  Q 748.79 565.08 747.37 576.17
  C 746.00 586.87 741.85 586.70 732.35 587.03
  C 727.18 587.20 722.77 586.21 722.74 580.24
  Q 722.69 569.08 722.74 557.91
  C 722.77 551.48 721.48 545.83 713.99 546.16
  Q 697.26 546.90 680.50 547.57
  C 674.86 547.79 673.56 544.43 673.36 539.36
  C 673.08 532.38 671.28 520.27 682.00 520.52
  Q 695.12 520.84 708.25 520.91
  C 715.10 520.95 719.26 521.38 720.55 513.97
  Q 721.38 509.26 721.60 504.51
  C 721.89 498.20 717.87 496.90 712.32 497.44
  Q 697.16 498.91 682.00 500.31
  C 670.36 501.39 667.83 501.17 664.37 489.79
  C 663.64 487.39 662.73 484.82 663.18 482.38
  Q 664.18 476.93 669.74 476.46
  Q 682.01 475.40 694.25 474.26
  Q 696.75 474.02 698.75 472.62
  Q 699.19 472.31 699.22 471.79
  Q 699.42 469.09 697.95 467.06
  Q 688.73 454.30 673.59 434.07
  Q 670.37 429.77 669.83 426.89
  C 668.52 419.96 674.51 415.35 680.91 415.43
  Q 686.01 415.49 689.73 419.29
  Q 706.91 436.79 719.65 457.78
  Q 722.79 462.94 725.92 468.13
  C 729.15 473.49 734.59 476.38 740.38 472.98
  Q 742.98 471.45 745.90 466.82
  Q 760.04 444.39 774.12 421.92
  Q 778.23 415.35 778.70 414.83
  C 783.71 409.13 792.45 409.43 797.32 415.46
  C 801.90 421.13 799.35 426.56 795.68 432.56
  Q 786.21 448.02 776.76 463.49
  Q 774.08 467.87 776.65 470.84
  Q 777.96 472.35 781.03 472.76
  Z"
/>
<path fill="#ffffff" d="
  M 606.28 717.55
  Q 802.65 715.84 999.00 717.48
  C 1031.32 717.75 1061.61 717.08 1092.68 722.11
  Q 1115.85 725.86 1134.05 733.08
  C 1185.64 753.52 1205.19 795.08 1207.33 848.76
  C 1210.01 915.77 1208.72 978.46 1207.10 1053.24
  Q 1206.44 1083.68 1201.05 1111.09
  Q 1198.84 1122.37 1196.03 1130.43
  C 1181.72 1171.58 1148.13 1199.10 1105.50 1207.27
  Q 1077.63 1212.61 1048.00 1212.54
  Q 733.62 1211.81 419.25 1212.63
  Q 402.51 1212.67 399.25 1212.48
  Q 372.84 1210.87 349.40 1197.29
  Q 330.59 1186.39 316.27 1172.83
  C 298.29 1152.21 283.20 1127.59 283.15 1100.00
  Q 282.95 979.75 282.73 859.50
  Q 282.69 841.06 286.40 821.30
  C 294.64 777.43 321.61 742.46 364.72 728.45
  C 392.45 719.44 423.68 716.08 451.76 715.39
  C 494.24 714.35 543.61 715.90 578.99 717.11
  Q 594.06 717.62 606.28 717.55
  Z
  M 916.18 951.45
  Q 913.95 955.73 908.50 955.64
  Q 856.37 954.80 804.23 954.04
  Q 796.46 953.93 792.87 955.05
  C 783.82 957.88 778.07 966.75 777.33 976.02
  C 776.11 991.37 788.32 992.62 799.92 993.09
  Q 853.97 995.31 908.04 996.09
  C 912.34 996.15 916.57 996.80 916.61 1001.74
  Q 916.77 1026.96 915.66 1083.51
  Q 915.53 1089.74 909.00 1089.74
  Q 843.75 1089.77 778.50 1089.70
  C 764.62 1089.68 757.70 1105.51 761.57 1117.02
  C 764.21 1124.87 767.71 1129.73 776.50 1129.98
  C 867.16 1132.47 957.83 1133.27 1048.50 1130.83
  C 1068.86 1130.28 1086.85 1134.44 1104.93 1126.90
  C 1111.85 1124.02 1114.18 1120.86 1114.79 1113.19
  Q 1116.19 1095.35 1100.21 1090.00
  C 1094.96 1088.24 1085.36 1087.68 1080.25 1087.98
  Q 1071.00 1088.52 1061.76 1088.53
  Q 1052.98 1088.55 1050.43 1087.39
  C 1043.68 1084.34 1044.51 1079.38 1047.07 1073.32
  Q 1053.82 1057.32 1060.49 1041.28
  C 1062.53 1036.38 1063.00 1033.13 1060.92 1028.51
  C 1057.33 1020.47 1055.04 1012.96 1047.99 1009.02
  C 1040.77 1004.98 1031.46 1006.40 1025.91 1012.61
  Q 1023.53 1015.26 1020.25 1023.16
  Q 1008.35 1051.77 996.41 1080.36
  C 992.07 1090.77 980.58 1095.26 970.35 1090.40
  C 961.47 1086.19 959.98 1078.37 959.88 1068.48
  Q 959.55 1036.99 959.08 1005.49
  Q 958.95 996.93 967.77 996.37
  C 997.77 994.46 1025.39 994.21 1053.51 995.53
  C 1067.89 996.21 1095.07 998.77 1095.23 976.78
  C 1095.30 967.69 1092.20 956.93 1083.14 953.91
  Q 1080.30 952.96 1073.77 952.93
  Q 999.56 952.60 967.00 952.73
  Q 960.95 952.76 958.83 948.66
  C 957.04 945.21 957.69 937.16 957.73 932.48
  Q 957.78 925.25 964.75 925.32
  C 984.25 925.54 1004.42 926.76 1023.75 923.26
  C 1038.04 920.68 1049.84 914.76 1057.88 902.14
  C 1061.14 897.02 1065.25 898.91 1069.54 901.81
  Q 1076.11 906.24 1083.60 908.92
  C 1097.34 913.86 1112.17 908.53 1121.67 898.13
  C 1126.25 893.12 1127.32 886.23 1122.99 880.94
  Q 1120.82 878.29 1113.26 874.69
  Q 1032.02 836.07 958.84 783.74
  C 947.17 775.40 934.12 773.39 921.08 779.92
  C 915.14 782.89 908.88 788.57 903.17 793.17
  C 870.55 819.41 835.02 840.74 796.60 857.46
  Q 780.40 864.51 775.95 866.67
  C 765.05 871.99 754.37 882.46 753.89 895.06
  C 753.58 903.22 757.42 910.69 764.92 914.09
  Q 772.43 917.48 779.01 915.24
  C 786.41 912.71 793.94 910.40 801.27 907.68
  C 809.62 904.59 815.29 908.83 822.50 912.45
  C 843.85 923.18 866.23 926.74 889.90 923.32
  C 899.10 921.98 907.71 920.02 914.37 928.12
  Q 919.01 933.75 918.24 941.52
  Q 917.51 948.89 916.18 951.45
  Z
  M 650.50 828.11
  C 654.19 828.11 657.45 828.62 657.33 833.01
  C 655.88 885.87 655.57 938.40 657.75 991.24
  C 658.19 1001.88 662.53 1010.94 672.74 1014.45
  C 682.60 1017.84 695.20 1018.31 699.34 1006.44
  Q 700.36 1003.54 700.40 996.94
  Q 701.03 905.97 701.67 815.00
  Q 701.81 795.35 685.33 789.05
  Q 680.84 787.33 672.42 786.83
  Q 598.05 782.41 523.75 788.27
  C 512.90 789.12 503.64 793.15 493.24 795.60
  C 483.39 797.93 475.19 796.68 464.75 795.49
  C 435.83 792.19 401.70 793.31 372.41 795.10
  Q 365.59 795.52 362.32 797.01
  C 344.99 804.91 349.61 829.76 368.12 832.60
  Q 382.79 834.86 397.43 837.14
  C 403.91 838.15 404.87 841.45 405.12 847.68
  Q 406.06 871.36 406.70 895.06
  C 406.85 900.54 405.71 905.35 399.77 906.06
  Q 395.33 906.60 381.11 907.44
  Q 373.51 907.89 369.89 909.45
  C 356.52 915.23 354.61 934.15 366.92 942.37
  Q 370.22 944.58 378.55 946.30
  Q 388.48 948.34 398.47 950.37
  C 405.95 951.89 405.98 953.89 405.87 960.86
  Q 405.36 993.30 404.87 1025.76
  Q 404.75 1033.76 396.98 1037.95
  Q 381.58 1046.28 366.21 1054.67
  Q 359.77 1058.19 357.50 1060.80
  C 351.11 1068.16 351.70 1079.25 358.38 1086.35
  Q 365.64 1094.07 377.01 1091.23
  Q 461.46 1070.11 525.80 1011.94
  C 532.12 1006.22 534.03 1004.63 534.11 995.06
  Q 534.79 915.66 535.49 836.25
  Q 535.56 827.77 544.25 827.80
  Q 597.38 828.02 650.50 828.11
  Z
  M 672.82 1079.95
  C 667.99 1094.15 647.48 1095.08 642.07 1081.02
  Q 640.85 1077.86 640.77 1070.34
  Q 640.41 1036.92 640.39 1003.50
  C 640.39 997.53 639.57 991.54 635.30 988.40
  Q 632.40 986.26 622.46 979.79
  C 615.88 975.50 612.50 972.72 613.70 964.75
  C 617.30 940.66 627.68 867.62 597.84 854.81
  C 590.87 851.82 579.32 850.67 575.31 858.51
  Q 573.88 861.30 573.64 869.73
  Q 572.30 917.59 566.40 965.09
  Q 564.55 979.96 563.62 984.88
  Q 556.64 1021.82 529.92 1049.19
  C 510.81 1068.75 492.58 1080.61 466.78 1098.81
  Q 461.94 1102.23 460.03 1104.50
  C 452.06 1114.00 453.31 1126.96 461.33 1135.94
  C 470.89 1146.63 482.57 1140.40 492.35 1134.70
  Q 553.24 1099.20 591.71 1037.98
  Q 594.10 1034.17 597.53 1036.33
  C 599.57 1037.61 599.53 1039.54 599.44 1041.75
  Q 598.22 1073.25 597.09 1104.75
  C 596.86 1111.09 595.64 1116.64 602.70 1119.79
  Q 649.85 1140.83 698.26 1125.32
  C 708.40 1122.07 709.57 1115.13 712.12 1106.00
  Q 721.44 1072.65 717.49 1040.73
  C 715.88 1027.81 698.59 1022.83 690.14 1032.57
  Q 687.69 1035.40 685.24 1042.81
  Q 679.11 1061.40 672.82 1079.95
  Z
  M 868.8860 1083.6589
  A 48.06 22.21 56.7 0 0 861.0633 1031.2962
  A 48.06 22.21 56.7 0 0 816.1140 1003.3211
  A 48.06 22.21 56.7 0 0 823.9367 1055.6838
  A 48.06 22.21 56.7 0 0 868.8860 1083.6589
  Z"
/>
<path fill="#ffffff" d="
  M 1334.84 723.96
  Q 1334.87 871.85 1335.01 1019.75
  C 1335.03 1039.75 1335.31 1058.51 1335.10 1079.75
  C 1335.06 1083.82 1334.74 1085.69 1332.49 1089.43
  Q 1329.58 1094.27 1329.42 1100.11
  A 1.84 1.83 61.8 0 1 1329.14 1101.05
  Q 1325.91 1106.20 1323.98 1111.89
  Q 1323.35 1113.73 1321.88 1115.80
  Q 1319.27 1119.50 1318.76 1124.11
  Q 1318.70 1124.62 1318.40 1125.02
  Q 1315.65 1128.72 1314.18 1133.01
  Q 1313.36 1135.41 1312.00 1137.46
  C 1309.97 1140.51 1309.17 1143.74 1306.75 1146.55
  C 1304.19 1149.53 1303.22 1153.11 1301.07 1155.96
  C 1298.32 1159.60 1295.46 1162.93 1293.70 1167.31
  Q 1292.45 1170.41 1290.86 1171.83
  Q 1283.18 1178.67 1279.27 1185.02
  Q 1275.62 1190.94 1271.94 1194.45
  Q 1260.22 1205.60 1248.32 1216.57
  Q 1241.20 1223.14 1232.87 1228.03
  C 1227.97 1230.91 1224.02 1234.28 1219.50 1237.44
  C 1217.06 1239.14 1214.33 1239.71 1211.80 1241.26
  C 1208.04 1243.55 1203.16 1245.33 1200.03 1246.90
  Q 1196.04 1248.89 1192.07 1250.89
  C 1187.78 1253.05 1182.21 1254.76 1177.47 1257.45
  Q 1175.79 1258.40 1173.61 1258.70
  Q 1168.89 1259.36 1164.86 1261.84
  C 1161.49 1263.91 1156.81 1263.51 1153.04 1264.06
  C 1148.80 1264.68 1146.00 1267.86 1141.78 1268.24
  Q 1133.40 1268.99 1125.00 1268.69
  C 1119.78 1268.51 1115.04 1272.70 1110.26 1272.97
  Q 1100.72 1273.51 1097.00 1273.51
  Q 1057.40 1273.48 1017.79 1273.44
  Q 1018.69 1272.86 1019.25 1272.86
  C 1056.07 1273.04 1093.26 1273.05 1129.76 1267.65
  Q 1157.22 1263.59 1182.81 1252.89
  C 1259.14 1220.98 1306.66 1156.83 1332.71 1080.22
  L 1333.99 724.64
  Q 1333.99 724.18 1334.40 723.97
  Q 1334.71 723.80 1334.84 723.96
  Z"
/>
<path fill="#ffffff" d="
  M 149.32 747.26
  Q 150.58 765.44 150.51 783.69
  Q 150.45 800.75 150.45 800.82
  Q 151.03 917.91 152.09 1034.99
  Q 152.80 1112.34 199.76 1171.45
  Q 216.81 1192.91 240.23 1211.74
  C 274.81 1240.84 313.39 1260.53 358.13 1267.35
  Q 388.91 1272.05 422.00 1272.48
  Q 458.54 1272.96 581.86 1272.77
  Q 582.23 1272.77 582.40 1273.09
  Q 582.52 1273.31 582.96 1273.46
  Q 484.73 1273.49 386.50 1273.45
  Q 380.92 1273.45 375.93 1272.49
  C 371.84 1271.70 368.24 1268.63 363.76 1268.61
  Q 350.97 1268.56 347.36 1268.18
  C 343.67 1267.78 340.66 1264.82 336.92 1264.13
  Q 331.72 1263.18 326.43 1262.93
  A 1.90 1.89 -26.1 0 1 325.48 1262.61
  Q 320.54 1259.30 314.79 1258.15
  C 310.34 1257.26 306.69 1254.90 302.37 1253.56
  Q 298.14 1252.25 295.45 1250.81
  Q 284.09 1244.75 272.70 1238.80
  C 269.33 1237.03 265.32 1233.77 261.69 1231.60
  C 249.99 1224.59 238.61 1217.05 227.09 1209.76
  C 213.16 1200.93 200.58 1190.43 193.88 1174.94
  Q 192.34 1171.36 190.85 1169.52
  C 189.17 1167.43 185.95 1165.22 184.98 1162.83
  Q 183.21 1158.44 181.16 1154.17
  Q 179.65 1151.02 176.32 1146.07
  C 171.61 1139.06 169.37 1131.74 166.03 1125.14
  Q 164.60 1122.30 164.01 1119.67
  C 162.69 1113.84 160.12 1108.29 159.42 1102.42
  C 158.78 1097.12 157.37 1093.78 155.74 1089.44
  C 152.90 1081.85 155.27 1074.05 152.82 1066.48
  C 150.88 1060.50 149.48 1057.32 149.43 1051.03
  C 148.68 949.81 149.27 848.52 149.32 747.26
  Z"
/>
<path fill="#1b78f9" d="
  M 916.18 951.45
  Q 917.51 948.89 918.24 941.52
  Q 919.01 933.75 914.37 928.12
  C 907.71 920.02 899.10 921.98 889.90 923.32
  C 866.23 926.74 843.85 923.18 822.50 912.45
  C 815.29 908.83 809.62 904.59 801.27 907.68
  C 793.94 910.40 786.41 912.71 779.01 915.24
  Q 772.43 917.48 764.92 914.09
  C 757.42 910.69 753.58 903.22 753.89 895.06
  C 754.37 882.46 765.05 871.99 775.95 866.67
  Q 780.40 864.51 796.60 857.46
  C 835.02 840.74 870.55 819.41 903.17 793.17
  C 908.88 788.57 915.14 782.89 921.08 779.92
  C 934.12 773.39 947.17 775.40 958.84 783.74
  Q 1032.02 836.07 1113.26 874.69
  Q 1120.82 878.29 1122.99 880.94
  C 1127.32 886.23 1126.25 893.12 1121.67 898.13
  C 1112.17 908.53 1097.34 913.86 1083.60 908.92
  Q 1076.11 906.24 1069.54 901.81
  C 1065.25 898.91 1061.14 897.02 1057.88 902.14
  C 1049.84 914.76 1038.04 920.68 1023.75 923.26
  C 1004.42 926.76 984.25 925.54 964.75 925.32
  Q 957.78 925.25 957.73 932.48
  C 957.69 937.16 957.04 945.21 958.83 948.66
  Q 960.95 952.76 967.00 952.73
  Q 999.56 952.60 1073.77 952.93
  Q 1080.30 952.96 1083.14 953.91
  C 1092.20 956.93 1095.30 967.69 1095.23 976.78
  C 1095.07 998.77 1067.89 996.21 1053.51 995.53
  C 1025.39 994.21 997.77 994.46 967.77 996.37
  Q 958.95 996.93 959.08 1005.49
  Q 959.55 1036.99 959.88 1068.48
  C 959.98 1078.37 961.47 1086.19 970.35 1090.40
  C 980.58 1095.26 992.07 1090.77 996.41 1080.36
  Q 1008.35 1051.77 1020.25 1023.16
  Q 1023.53 1015.26 1025.91 1012.61
  C 1031.46 1006.40 1040.77 1004.98 1047.99 1009.02
  C 1055.04 1012.96 1057.33 1020.47 1060.92 1028.51
  C 1063.00 1033.13 1062.53 1036.38 1060.49 1041.28
  Q 1053.82 1057.32 1047.07 1073.32
  C 1044.51 1079.38 1043.68 1084.34 1050.43 1087.39
  Q 1052.98 1088.55 1061.76 1088.53
  Q 1071.00 1088.52 1080.25 1087.98
  C 1085.36 1087.68 1094.96 1088.24 1100.21 1090.00
  Q 1116.19 1095.35 1114.79 1113.19
  C 1114.18 1120.86 1111.85 1124.02 1104.93 1126.90
  C 1086.85 1134.44 1068.86 1130.28 1048.50 1130.83
  C 957.83 1133.27 867.16 1132.47 776.50 1129.98
  C 767.71 1129.73 764.21 1124.87 761.57 1117.02
  C 757.70 1105.51 764.62 1089.68 778.50 1089.70
  Q 843.75 1089.77 909.00 1089.74
  Q 915.53 1089.74 915.66 1083.51
  Q 916.77 1026.96 916.61 1001.74
  C 916.57 996.80 912.34 996.15 908.04 996.09
  Q 853.97 995.31 799.92 993.09
  C 788.32 992.62 776.11 991.37 777.33 976.02
  C 778.07 966.75 783.82 957.88 792.87 955.05
  Q 796.46 953.93 804.23 954.04
  Q 856.37 954.80 908.50 955.64
  Q 913.95 955.73 916.18 951.45
  Z
  M 856.77 874.92
  A 3.72 3.72 0.0 0 0 858.73 881.81
  L 1014.36 881.27
  A 3.72 3.72 0.0 0 0 1016.27 874.37
  L 938.29 827.16
  A 3.72 3.72 0.0 0 0 934.42 827.17
  L 856.77 874.92
  Z"
/>
<path fill="#1b78f9" d="
  M 657.33 833.01
  C 657.45 828.62 654.19 828.11 650.50 828.11
  Q 597.38 828.02 544.25 827.80
  Q 535.56 827.77 535.49 836.25
  Q 534.79 915.66 534.11 995.06
  C 534.03 1004.63 532.12 1006.22 525.80 1011.94
  Q 461.46 1070.11 377.01 1091.23
  Q 365.64 1094.07 358.38 1086.35
  C 351.70 1079.25 351.11 1068.16 357.50 1060.80
  Q 359.77 1058.19 366.21 1054.67
  Q 381.58 1046.28 396.98 1037.95
  Q 404.75 1033.76 404.87 1025.76
  Q 405.36 993.30 405.87 960.86
  C 405.98 953.89 405.95 951.89 398.47 950.37
  Q 388.48 948.34 378.55 946.30
  Q 370.22 944.58 366.92 942.37
  C 354.61 934.15 356.52 915.23 369.89 909.45
  Q 373.51 907.89 381.11 907.44
  Q 395.33 906.60 399.77 906.06
  C 405.71 905.35 406.85 900.54 406.70 895.06
  Q 406.06 871.36 405.12 847.68
  C 404.87 841.45 403.91 838.15 397.43 837.14
  Q 382.79 834.86 368.12 832.60
  C 349.61 829.76 344.99 804.91 362.32 797.01
  Q 365.59 795.52 372.41 795.10
  C 401.70 793.31 435.83 792.19 464.75 795.49
  C 475.19 796.68 483.39 797.93 493.24 795.60
  C 503.64 793.15 512.90 789.12 523.75 788.27
  Q 598.05 782.41 672.42 786.83
  Q 680.84 787.33 685.33 789.05
  Q 701.81 795.35 701.67 815.00
  Q 701.03 905.97 700.40 996.94
  Q 700.36 1003.54 699.34 1006.44
  C 695.20 1018.31 682.60 1017.84 672.74 1014.45
  C 662.53 1010.94 658.19 1001.88 657.75 991.24
  C 655.57 938.40 655.88 885.87 657.33 833.01
  Z
  M 472.69 909.08
  C 481.11 912.50 489.51 923.33 486.90 932.90
  C 485.08 939.57 480.16 941.65 473.47 942.48
  Q 456.52 944.60 450.27 958.68
  Q 447.36 965.21 446.67 978.22
  Q 445.87 993.42 447.54 1008.64
  Q 448.18 1014.54 454.24 1013.35
  Q 470.50 1010.16 486.76 1006.71
  C 492.46 1005.50 493.38 1000.78 493.34 995.30
  Q 492.81 916.54 492.28 837.78
  C 492.23 830.90 488.53 828.81 481.93 830.15
  Q 470.90 832.40 459.93 834.80
  C 451.68 836.60 449.38 837.53 449.18 846.96
  Q 448.60 872.98 448.14 899.00
  C 447.99 906.99 452.98 908.37 459.66 907.61
  Q 467.01 906.77 472.69 909.08
  Z"
/>
<path fill="#ffffff" d="
  M 856.77 874.92
  L 934.42 827.17
  A 3.72 3.72 0.0 0 1 938.29 827.16
  L 1016.27 874.37
  A 3.72 3.72 0.0 0 1 1014.36 881.27
  L 858.73 881.81
  A 3.72 3.72 0.0 0 1 856.77 874.92
  Z"
/>
<path fill="#ffffff" d="
  M 472.69 909.08
  Q 467.01 906.77 459.66 907.61
  C 452.98 908.37 447.99 906.99 448.14 899.00
  Q 448.60 872.98 449.18 846.96
  C 449.38 837.53 451.68 836.60 459.93 834.80
  Q 470.90 832.40 481.93 830.15
  C 488.53 828.81 492.23 830.90 492.28 837.78
  Q 492.81 916.54 493.34 995.30
  C 493.38 1000.78 492.46 1005.50 486.76 1006.71
  Q 470.50 1010.16 454.24 1013.35
  Q 448.18 1014.54 447.54 1008.64
  Q 445.87 993.42 446.67 978.22
  Q 447.36 965.21 450.27 958.68
  Q 456.52 944.60 473.47 942.48
  C 480.16 941.65 485.08 939.57 486.90 932.90
  C 489.51 923.33 481.11 912.50 472.69 909.08
  Z"
/>
<path fill="#1b78f9" d="
  M 642.07 1081.02
  C 647.48 1095.08 667.99 1094.15 672.82 1079.95
  Q 679.11 1061.40 685.24 1042.81
  Q 687.69 1035.40 690.14 1032.57
  C 698.59 1022.83 715.88 1027.81 717.49 1040.73
  Q 721.44 1072.65 712.12 1106.00
  C 709.57 1115.13 708.40 1122.07 698.26 1125.32
  Q 649.85 1140.83 602.70 1119.79
  C 595.64 1116.64 596.86 1111.09 597.09 1104.75
  Q 598.22 1073.25 599.44 1041.75
  C 599.53 1039.54 599.57 1037.61 597.53 1036.33
  Q 594.10 1034.17 591.71 1037.98
  Q 553.24 1099.20 492.35 1134.70
  C 482.57 1140.40 470.89 1146.63 461.33 1135.94
  C 453.31 1126.96 452.06 1114.00 460.03 1104.50
  Q 461.94 1102.23 466.78 1098.81
  C 492.58 1080.61 510.81 1068.75 529.92 1049.19
  Q 556.64 1021.82 563.62 984.88
  Q 564.55 979.96 566.40 965.09
  Q 572.30 917.59 573.64 869.73
  Q 573.88 861.30 575.31 858.51
  C 579.32 850.67 590.87 851.82 597.84 854.81
  C 627.68 867.62 617.30 940.66 613.70 964.75
  C 612.50 972.72 615.88 975.50 622.46 979.79
  Q 632.40 986.26 635.30 988.40
  C 639.57 991.54 640.39 997.53 640.39 1003.50
  Q 640.41 1036.92 640.77 1070.34
  Q 640.85 1077.86 642.07 1081.02
  Z"
/>
<ellipse fill="#1b78f9" cx="0.00" cy="0.00" transform="translate(842.50,1043.49) rotate(56.7)" rx="48.06" ry="22.21"/>
</svg>
