<?xml version="1.0" encoding="UTF-8" standalone="no"?>
<svg
   version="1.1"
   viewBox="0.00 0.00 57.00 58.00"
   id="svg14"
   sodipodi:docname="收藏.svg"
   inkscape:version="1.2.2 (732a01da63, 2022-12-09)"
   xmlns:inkscape="http://www.inkscape.org/namespaces/inkscape"
   xmlns:sodipodi="http://sodipodi.sourceforge.net/DTD/sodipodi-0.dtd"
   xmlns="http://www.w3.org/2000/svg"
   xmlns:svg="http://www.w3.org/2000/svg">
  <defs
     id="defs18" />
  <sodipodi:namedview
     id="namedview16"
     pagecolor="#ffffff"
     bordercolor="#000000"
     borderopacity="0.25"
     inkscape:showpageshadow="2"
     inkscape:pageopacity="0.0"
     inkscape:pagecheckerboard="0"
     inkscape:deskcolor="#d1d1d1"
     showgrid="false"
     inkscape:zoom="17.706897"
     inkscape:cx="28.548199"
     inkscape:cy="29"
     inkscape:window-width="3840"
     inkscape:window-height="2071"
     inkscape:window-x="-9"
     inkscape:window-y="-9"
     inkscape:window-maximized="1"
     inkscape:current-layer="svg14" />
  <path
     fill="#1b1125"
     d="m 27.989192,43.11812 q -4.74,2.48 -9.48,4.89 c -2.64,1.34 -4.89,-0.35 -4.7,-3.31 q 0.31,-4.6 1.72,-9.21 0.38,-1.25 -0.56,-2.15 -3.29,-3.18 -7.1300001,-6.8 c -2.5600002,-2.41 -1.2500002,-5.43 2.06,-5.87 q 4.9300001,-0.66 9.6800001,-1.22 a 1.67,1.68 9.6 0 0 1.3,-0.93 q 2.17,-4.42 4.53,-9.0299996 c 1.04,-2.0199996 4.26,-2.9999996 5.59,-0.59 q 2.59,4.6899996 4.69,9.2499996 a 2.15,2.15 0 0 0 1.62,1.23 q 4.83,0.75 9.98,1.45 c 2.84,0.39 4.09,3.51 1.83,5.59 q -3.87,3.54 -7.64,7.21 a 0.98,0.97 63 0 0 -0.28,0.87 c 0.53,2.7 2.51,9.62 1.7,11.9 -1.74,4.88 -11.4,-1.92 -13.98,-3.28 q -0.46,-0.25 -0.93,0 z m 10.24,-8.71 a 3.46,3.44 64.1 0 1 1.03,-3 l 7.49,-7.08 q 0.47,-0.45 -0.17,-0.56 -4.99,-0.88 -10.05,-1.44 -2.12,-0.24 -3.38,-2.58 -2.26,-4.17 -4.2,-8.45 a 0.53,0.53 0 0 0 -0.95,-0.02 l -4.85,9.47 a 2.9,2.88 9.7 0 1 -2.19,1.54 l -10.69,1.41 q -0.7600001,0.1 -0.2,0.63 l 7.47,7.09 a 3.61,3.63 26.6 0 1 1.07,3.24 l -1.72,9.99 a 0.4,0.4 0 0 0 0.58,0.42 l 9.78,-5.07 a 2.5,2.52 45.2 0 1 2.33,0 l 9.78,5.1 q 0.54,0.28 0.45,-0.32 z"
     id="path10" />
</svg>
