<?xml version="1.0" encoding="UTF-8" standalone="no"?>
<!DOCTYPE svg PUBLIC "-//W3C//DTD SVG 1.1//EN" "http://www.w3.org/Graphics/SVG/1.1/DTD/svg11.dtd">
<svg xmlns="http://www.w3.org/2000/svg" version="1.1" viewBox="0.00 0.00 913.00 907.00">
<g stroke-width="2.00" fill="none" stroke-linecap="butt">
<path stroke="#fec2d2" vector-effect="non-scaling-stroke" d="
  M 875.57 382.18
  Q 874.91 378.27 872.72 368.73
  Q 866.92 343.45 863.55 332.64
  Q 826.62 214.38 733.89 133.73
  Q 726.30 127.13 718.46 121.00
  Q 641.55 60.87 546.05 39.49
  Q 537.44 37.57 526.38 35.81
  C 511.71 33.49 499.62 31.49 486.04 31.16
  C 483.28 31.09 480.30 30.06 478.00 29.96
  Q 456.08 28.97 434.16 29.68
  Q 433.46 29.70 428.91 30.31
  Q 426.13 30.68 423.57 30.11"
/>
<path stroke="#fec2d2" vector-effect="non-scaling-stroke" d="
  M 876.25 386.69
  Q 878.14 395.72 878.57 404.78
  C 878.73 408.13 879.96 411.46 880.18 415.00
  Q 880.80 425.03 882.00 435.14"
/>
<path stroke="#fec2d2" vector-effect="non-scaling-stroke" d="
  M 882.04 476.22
  Q 880.57 499.20 879.57 505.25
  Q 878.78 510.04 878.44 513.40
  Q 877.72 520.68 877.58 521.58
  Q 860.14 632.55 791.87 720.85
  C 736.87 792.01 661.16 842.51 574.94 868.44
  Q 564.48 871.59 544.52 876.19
  Q 534.96 878.40 528.23 879.29
  C 524.66 879.76 520.86 881.07 516.99 881.40
  Q 509.69 882.02 502.45 883.09
  Q 495.06 884.19 488.49 884.62
  Q 481.49 885.09 474.47 885.83"
/>
<path stroke="#fec2d2" vector-effect="non-scaling-stroke" d="
  M 431.81 885.83
  L 404.22 883.33"
/>
<path stroke="#fec2d2" vector-effect="non-scaling-stroke" d="
  M 401.29 882.92
  Q 401.26 882.49 400.50 882.44
  Q 389.75 881.68 380.19 879.51
  C 376.71 878.72 372.56 878.72 368.83 877.67
  Q 363.33 876.13 361.48 875.79
  Q 351.91 874.05 339.73 870.63
  Q 250.77 845.61 180.31 787.95
  Q 173.88 782.68 157.90 767.96
  C 149.45 760.17 141.92 751.71 134.15 743.22
  Q 126.37 734.71 121.05 728.13
  Q 59.17 651.64 36.05 555.01
  Q 33.55 544.57 31.98 534.84
  Q 31.62 532.57 29.78 522.75
  C 28.42 515.48 28.71 508.54 27.55 501.60
  Q 26.49 495.26 26.33 492.81
  Q 25.50 480.07 24.83 467.22"
/>
<path stroke="#fec2d2" vector-effect="non-scaling-stroke" d="
  M 24.94 451.29
  Q 25.13 432.27 27.36 413.67
  Q 27.76 410.34 28.73 401.30
  Q 29.39 395.12 30.43 388.97
  Q 48.56 281.46 114.51 195.79
  Q 120.59 187.89 127.12 180.28
  Q 165.17 135.88 212.02 103.90
  Q 269.25 64.85 337.81 45.42
  Q 362.93 38.29 393.25 34.03
  Q 410.80 31.56 419.64 30.91"
/>
<path stroke="#fec2d2" vector-effect="non-scaling-stroke" d="
  M 589.20 241.52
  A 20.09 20.09 0.0 0 0 570.92 223.09
  L 554.03 221.62
  A 20.09 20.09 0.0 0 0 532.20 241.39
  L 531.40 309.23
  A 20.09 20.09 0.0 0 0 553.28 329.48
  L 576.05 327.44
  A 20.09 20.09 0.0 0 0 594.29 305.85
  L 589.20 241.52"
/>
<path stroke="#fec2d2" vector-effect="non-scaling-stroke" d="
  M 374.81 241.14
  A 18.00 18.00 0.0 0 0 358.98 224.55
  L 338.85 222.15
  A 18.00 18.00 0.0 0 0 318.73 239.41
  L 316.29 309.92
  A 18.00 18.00 0.0 0 0 336.21 328.44
  L 363.45 325.50
  A 18.00 18.00 0.0 0 0 379.47 306.32
  L 374.81 241.14"
/>
<path stroke="#fec2d2" vector-effect="non-scaling-stroke" d="
  M 351.99 347.20
  C 333.92 349.75 311.04 347.79 299.54 331.22
  C 287.55 313.96 294.02 288.90 292.34 269.25
  Q 291.82 263.17 285.25 263.34
  Q 266.70 263.81 251.52 268.83
  C 229.88 275.99 212.20 291.53 206.91 314.13
  Q 205.50 320.17 205.42 331.51
  Q 204.68 447.88 205.74 564.25
  Q 205.93 585.65 207.45 606.99
  C 208.79 625.88 211.70 649.17 226.84 662.63
  C 237.08 671.74 254.43 676.28 268.25 677.56
  C 274.81 678.17 281.45 678.95 287.94 679.20
  Q 311.39 680.13 322.75 680.17
  Q 483.01 680.65 615.50 679.52
  Q 633.70 679.37 652.89 676.01
  C 673.19 672.46 689.22 662.13 696.27 642.52
  C 703.36 622.80 703.76 600.77 703.58 580.06
  Q 702.55 460.41 703.17 340.74
  Q 703.24 326.73 702.19 320.80
  Q 697.92 296.58 676.71 282.20
  Q 657.36 269.07 633.74 263.78
  Q 628.49 262.60 625.39 263.28
  C 617.29 265.06 616.68 271.80 616.56 279.70
  Q 616.29 297.40 616.16 315.10
  C 616.13 319.22 615.42 320.93 613.04 323.99
  C 599.28 341.70 581.35 348.72 559.50 347.41
  Q 545.22 346.56 532.01 341.79
  C 515.57 335.86 508.05 321.97 507.03 305.00
  Q 506.28 292.74 507.55 278.75
  Q 508.82 264.60 494.75 264.64
  Q 450.49 264.75 406.22 264.76
  C 399.27 264.76 397.37 269.41 398.06 275.79
  Q 398.97 284.32 399.19 288.24
  Q 400.36 308.98 395.06 329.04
  Q 393.56 334.74 389.24 336.75
  Q 373.27 344.20 351.99 347.20"
/>
<path stroke="#fec2d2" vector-effect="non-scaling-stroke" d="
  M 247.25 387.30
  C 243.23 387.29 240.19 390.73 240.18 394.55
  Q 240.04 504.90 240.15 615.25
  Q 240.16 629.47 249.59 638.91
  Q 259.86 649.18 275.25 649.16
  Q 447.17 648.96 619.09 649.11
  Q 635.33 649.13 638.86 648.46
  C 655.19 645.35 667.09 631.22 667.33 614.50
  Q 668.81 510.33 670.28 406.16
  Q 670.38 399.24 669.01 396.04
  Q 665.68 388.32 655.75 388.28
  Q 493.92 387.68 247.25 387.30"
/>
<path stroke="#fec2d2" vector-effect="non-scaling-stroke" d="
  M 297.93 456.95
  C 278.77 466.01 280.39 494.09 300.06 501.16
  Q 304.42 502.73 315.64 502.75
  Q 457.16 503.06 598.68 503.27
  Q 606.59 503.28 610.67 501.91
  C 636.20 493.35 630.32 455.25 602.50 455.16
  Q 455.25 454.68 308.00 454.61
  Q 302.89 454.61 297.93 456.95"
/>
<path stroke="#fec2d2" vector-effect="non-scaling-stroke" d="
  M 467.1513 552.8204
  A 20.33 20.33 0.0 0 0 446.7859 532.5259
  L 304.5661 532.7741
  A 20.33 20.33 0.0 0 0 284.2716 553.1396
  L 284.2887 562.9196
  A 20.33 20.33 0.0 0 0 304.6541 583.2141
  L 446.8739 582.9659
  A 20.33 20.33 0.0 0 0 467.1684 562.6004
  L 467.1513 552.8204"
/>
</g>
<path fill="#ffffff" d="
  M 875.57 382.18
  Q 874.91 378.27 872.72 368.73
  Q 866.92 343.45 863.55 332.64
  Q 826.62 214.38 733.89 133.73
  Q 726.30 127.13 718.46 121.00
  Q 641.55 60.87 546.05 39.49
  Q 537.44 37.57 526.38 35.81
  C 511.71 33.49 499.62 31.49 486.04 31.16
  C 483.28 31.09 480.30 30.06 478.00 29.96
  Q 456.08 28.97 434.16 29.68
  Q 433.46 29.70 428.91 30.31
  Q 426.13 30.68 423.57 30.11
  Q 449.54 26.34 475.37 28.70
  C 479.34 29.06 483.40 30.41 487.49 30.45
  C 494.77 30.53 502.79 30.02 509.77 32.24
  Q 513.13 33.30 515.86 33.52
  C 520.46 33.89 525.42 33.27 529.75 35.09
  Q 532.77 36.37 534.28 36.57
  C 537.52 37.01 541.81 36.50 544.72 37.84
  C 546.29 38.57 547.42 39.52 549.20 39.69
  Q 552.86 40.06 556.50 40.29
  Q 557.01 40.33 557.43 40.63
  C 559.23 41.95 560.63 42.92 563.05 42.99
  Q 567.70 43.12 571.86 45.10
  C 575.22 46.70 578.21 45.95 581.49 47.82
  C 584.68 49.63 587.70 49.25 590.83 50.79
  Q 594.68 52.69 598.97 53.18
  A 1.75 1.67 -21.7 0 1 599.87 53.54
  Q 602.94 55.91 606.83 56.18
  A 1.26 1.21 67.2 0 1 607.57 56.50
  Q 610.34 58.98 614.09 59.16
  A 1.31 1.31 0.0 0 1 614.84 59.44
  Q 618.02 61.98 622.09 62.58
  Q 622.67 62.66 623.11 63.05
  Q 625.54 65.24 628.80 65.51
  Q 629.32 65.56 629.75 65.87
  C 631.45 67.08 632.38 67.85 634.61 68.30
  C 637.13 68.81 638.32 70.46 640.51 71.21
  C 643.53 72.26 645.29 74.51 648.49 74.93
  A 1.43 1.42 -17.1 0 1 649.36 75.39
  Q 651.53 77.81 654.76 78.14
  A 1.32 1.31 -18.0 0 1 655.61 78.57
  C 657.76 80.94 660.25 81.00 662.57 82.65
  C 665.95 85.07 669.90 86.74 673.38 89.02
  Q 674.00 89.42 676.72 90.69
  C 678.31 91.43 679.41 92.79 680.88 93.56
  Q 685.09 95.76 688.87 98.58
  C 691.00 100.17 693.83 101.24 695.81 102.92
  C 700.26 106.69 705.02 109.29 709.21 112.78
  C 713.23 116.13 717.87 118.75 721.59 122.14
  C 729.76 129.56 739.11 136.46 746.50 143.62
  Q 757.45 154.22 768.06 165.17
  C 774.22 171.53 780.39 180.07 787.15 187.11
  C 790.55 190.66 792.53 194.66 795.66 198.17
  Q 800.16 203.18 802.41 207.30
  C 803.59 209.47 804.90 210.63 805.91 212.11
  Q 810.90 219.40 815.40 226.98
  Q 815.71 227.49 817.54 229.68
  C 818.69 231.05 818.96 232.58 819.76 233.87
  Q 821.89 237.28 824.21 240.57
  C 824.88 241.53 824.99 242.57 825.40 243.69
  A 1.19 1.16 10.4 0 0 825.77 244.21
  Q 828.13 246.13 828.61 249.11
  Q 828.70 249.62 829.07 249.98
  C 831.24 252.05 831.74 254.67 833.29 257.04
  Q 834.24 258.48 834.81 260.10
  C 835.82 262.91 837.62 264.76 838.45 267.71
  A 2.09 2.04 -75.4 0 0 838.93 268.55
  Q 839.83 269.50 840.48 271.02
  Q 842.39 275.47 846.09 283.20
  C 846.98 285.08 847.89 288.72 849.85 291.14
  Q 850.16 291.53 850.19 292.03
  Q 850.45 296.32 853.21 299.55
  A 1.56 1.53 23.0 0 1 853.57 300.42
  C 853.72 302.47 853.79 303.53 855.08 305.32
  Q 857.14 308.18 856.96 311.93
  A 1.45 1.44 28.5 0 0 857.24 312.87
  L 859.82 316.41
  A 0.90 0.88 -61.3 0 1 859.99 317.02
  Q 859.52 321.79 862.63 325.28
  A 1.43 1.43 0.0 0 1 863.00 326.29
  Q 862.88 331.15 865.81 334.96
  A 1.66 1.65 25.4 0 1 866.17 335.96
  C 866.23 339.29 866.32 342.08 868.23 345.00
  C 870.42 348.35 869.02 353.15 870.60 356.11
  Q 872.46 359.62 872.52 361.01
  Q 872.66 364.29 872.92 367.56
  C 873.16 370.65 875.40 371.70 875.71 374.28
  Q 876.17 378.10 875.57 382.18
  Z"
/>
<path fill="#fd84a5" d="
  M 875.57 382.18
  L 876.25 386.69
  Q 878.14 395.72 878.57 404.78
  C 878.73 408.13 879.96 411.46 880.18 415.00
  Q 880.80 425.03 882.00 435.14
  Q 883.05 455.67 882.04 476.22
  Q 880.57 499.20 879.57 505.25
  Q 878.78 510.04 878.44 513.40
  Q 877.72 520.68 877.58 521.58
  Q 860.14 632.55 791.87 720.85
  C 736.87 792.01 661.16 842.51 574.94 868.44
  Q 564.48 871.59 544.52 876.19
  Q 534.96 878.40 528.23 879.29
  C 524.66 879.76 520.86 881.07 516.99 881.40
  Q 509.69 882.02 502.45 883.09
  Q 495.06 884.19 488.49 884.62
  Q 481.49 885.09 474.47 885.83
  L 431.81 885.83
  L 404.22 883.33
  Q 402.70 883.43 401.29 882.92
  Q 401.26 882.49 400.50 882.44
  Q 389.75 881.68 380.19 879.51
  C 376.71 878.72 372.56 878.72 368.83 877.67
  Q 363.33 876.13 361.48 875.79
  Q 351.91 874.05 339.73 870.63
  Q 250.77 845.61 180.31 787.95
  Q 173.88 782.68 157.90 767.96
  C 149.45 760.17 141.92 751.71 134.15 743.22
  Q 126.37 734.71 121.05 728.13
  Q 59.17 651.64 36.05 555.01
  Q 33.55 544.57 31.98 534.84
  Q 31.62 532.57 29.78 522.75
  C 28.42 515.48 28.71 508.54 27.55 501.60
  Q 26.49 495.26 26.33 492.81
  Q 25.50 480.07 24.83 467.22
  Q 23.84 459.14 24.94 451.29
  Q 25.13 432.27 27.36 413.67
  Q 27.76 410.34 28.73 401.30
  Q 29.39 395.12 30.43 388.97
  Q 48.56 281.46 114.51 195.79
  Q 120.59 187.89 127.12 180.28
  Q 165.17 135.88 212.02 103.90
  Q 269.25 64.85 337.81 45.42
  Q 362.93 38.29 393.25 34.03
  Q 410.80 31.56 419.64 30.91
  Q 420.89 30.00 423.57 30.11
  Q 426.13 30.68 428.91 30.31
  Q 433.46 29.70 434.16 29.68
  Q 456.08 28.97 478.00 29.96
  C 480.30 30.06 483.28 31.09 486.04 31.16
  C 499.62 31.49 511.71 33.49 526.38 35.81
  Q 537.44 37.57 546.05 39.49
  Q 641.55 60.87 718.46 121.00
  Q 726.30 127.13 733.89 133.73
  Q 826.62 214.38 863.55 332.64
  Q 866.92 343.45 872.72 368.73
  Q 874.91 378.27 875.57 382.18
  Z
  M 589.20 241.52
  A 20.09 20.09 0.0 0 0 570.92 223.09
  L 554.03 221.62
  A 20.09 20.09 0.0 0 0 532.20 241.39
  L 531.40 309.23
  A 20.09 20.09 0.0 0 0 553.28 329.48
  L 576.05 327.44
  A 20.09 20.09 0.0 0 0 594.29 305.85
  L 589.20 241.52
  Z
  M 374.81 241.14
  A 18.00 18.00 0.0 0 0 358.98 224.55
  L 338.85 222.15
  A 18.00 18.00 0.0 0 0 318.73 239.41
  L 316.29 309.92
  A 18.00 18.00 0.0 0 0 336.21 328.44
  L 363.45 325.50
  A 18.00 18.00 0.0 0 0 379.47 306.32
  L 374.81 241.14
  Z
  M 351.99 347.20
  C 333.92 349.75 311.04 347.79 299.54 331.22
  C 287.55 313.96 294.02 288.90 292.34 269.25
  Q 291.82 263.17 285.25 263.34
  Q 266.70 263.81 251.52 268.83
  C 229.88 275.99 212.20 291.53 206.91 314.13
  Q 205.50 320.17 205.42 331.51
  Q 204.68 447.88 205.74 564.25
  Q 205.93 585.65 207.45 606.99
  C 208.79 625.88 211.70 649.17 226.84 662.63
  C 237.08 671.74 254.43 676.28 268.25 677.56
  C 274.81 678.17 281.45 678.95 287.94 679.20
  Q 311.39 680.13 322.75 680.17
  Q 483.01 680.65 615.50 679.52
  Q 633.70 679.37 652.89 676.01
  C 673.19 672.46 689.22 662.13 696.27 642.52
  C 703.36 622.80 703.76 600.77 703.58 580.06
  Q 702.55 460.41 703.17 340.74
  Q 703.24 326.73 702.19 320.80
  Q 697.92 296.58 676.71 282.20
  Q 657.36 269.07 633.74 263.78
  Q 628.49 262.60 625.39 263.28
  C 617.29 265.06 616.68 271.80 616.56 279.70
  Q 616.29 297.40 616.16 315.10
  C 616.13 319.22 615.42 320.93 613.04 323.99
  C 599.28 341.70 581.35 348.72 559.50 347.41
  Q 545.22 346.56 532.01 341.79
  C 515.57 335.86 508.05 321.97 507.03 305.00
  Q 506.28 292.74 507.55 278.75
  Q 508.82 264.60 494.75 264.64
  Q 450.49 264.75 406.22 264.76
  C 399.27 264.76 397.37 269.41 398.06 275.79
  Q 398.97 284.32 399.19 288.24
  Q 400.36 308.98 395.06 329.04
  Q 393.56 334.74 389.24 336.75
  Q 373.27 344.20 351.99 347.20
  Z"
/>
<path fill="#ffffff" d="
  M 419.64 30.91
  Q 410.80 31.56 393.25 34.03
  Q 362.93 38.29 337.81 45.42
  Q 269.25 64.85 212.02 103.90
  Q 165.17 135.88 127.12 180.28
  Q 120.59 187.89 114.51 195.79
  Q 48.56 281.46 30.43 388.97
  Q 29.39 395.12 28.73 401.30
  Q 27.76 410.34 27.36 413.67
  Q 25.13 432.27 24.94 451.29
  Q 23.88 435.28 24.50 426.99
  Q 24.78 423.29 26.72 411.60
  Q 27.32 407.93 27.56 401.85
  C 27.74 397.16 28.21 394.04 29.60 388.82
  Q 31.18 382.87 30.78 376.61
  C 30.63 374.28 33.52 371.15 33.73 367.99
  C 34.02 363.85 33.43 361.21 36.33 357.38
  A 1.65 1.63 66.4 0 0 36.66 356.52
  L 37.41 348.50
  A 1.40 1.39 -24.6 0 1 37.69 347.76
  Q 40.70 343.75 40.24 338.65
  A 1.70 1.65 59.0 0 1 40.48 337.62
  Q 43.07 333.29 43.66 328.36
  C 44.00 325.53 46.08 324.03 46.30 321.37
  Q 46.65 317.00 49.25 313.43
  Q 49.55 313.02 49.57 312.51
  C 49.73 307.72 52.77 305.59 53.11 300.90
  Q 53.16 300.35 53.53 299.95
  Q 56.25 297.05 56.42 293.00
  A 1.38 1.37 65.8 0 1 56.72 292.20
  Q 59.15 289.13 59.70 285.26
  Q 59.76 284.84 60.05 284.52
  C 62.73 281.50 62.53 278.01 64.91 275.09
  A 2.01 2.01 0.0 0 0 65.32 274.23
  Q 65.95 271.20 68.06 268.89
  Q 68.38 268.54 68.46 268.07
  Q 69.00 265.06 71.16 262.90
  A 1.96 1.95 73.6 0 0 71.69 261.92
  C 72.42 258.36 74.95 256.97 75.43 253.36
  Q 75.50 252.82 75.90 252.46
  Q 78.13 250.46 78.74 247.56
  Q 78.85 247.04 79.21 246.64
  C 81.19 244.44 81.93 241.66 83.34 239.58
  Q 85.00 237.14 86.71 234.73
  C 87.88 233.09 87.97 231.32 89.70 229.46
  Q 91.25 227.79 93.02 224.52
  Q 94.47 221.85 96.21 219.53
  Q 97.96 217.20 99.49 214.71
  C 101.60 211.28 104.16 208.23 106.25 204.76
  Q 107.79 202.19 109.94 199.79
  Q 113.04 196.32 116.49 191.23
  C 119.82 186.33 125.13 181.31 128.79 176.89
  Q 143.59 159.03 160.64 143.31
  C 166.23 138.15 174.14 132.59 180.51 126.57
  Q 184.46 122.84 188.45 119.99
  C 193.94 116.07 198.79 111.88 204.58 108.32
  C 207.15 106.73 209.18 104.38 211.76 102.93
  Q 216.12 100.49 220.05 97.41
  C 220.88 96.76 221.87 96.85 222.58 96.31
  C 226.34 93.41 230.53 91.35 234.39 88.67
  C 235.99 87.56 237.64 87.37 239.11 86.39
  Q 243.13 83.70 247.42 81.46
  C 249.37 80.44 251.48 78.62 254.04 77.83
  C 256.14 77.18 257.17 75.64 259.13 75.11
  Q 261.96 74.35 264.13 72.36
  Q 264.54 71.98 265.09 71.90
  Q 268.20 71.42 270.48 69.24
  A 1.61 1.58 18.0 0 1 271.34 68.81
  C 275.52 68.15 277.88 65.46 282.13 64.83
  Q 282.66 64.75 283.08 64.42
  Q 285.75 62.27 289.19 61.85
  Q 289.76 61.78 290.19 61.39
  Q 292.74 59.03 296.25 58.77
  A 1.51 1.48 24.2 0 0 297.04 58.48
  Q 300.20 56.23 303.96 55.57
  C 306.32 55.15 307.98 53.38 309.58 53.05
  Q 313.89 52.17 316.59 51.00
  C 320.59 49.27 324.21 49.27 328.06 46.91
  Q 328.49 46.65 328.99 46.62
  Q 333.07 46.45 336.70 44.87
  C 340.39 43.26 343.05 43.14 346.75 42.64
  Q 347.25 42.57 347.64 42.25
  C 350.73 39.76 354.55 40.18 358.14 39.74
  Q 359.78 39.54 362.15 38.37
  C 365.30 36.80 369.01 36.98 372.39 36.73
  C 376.50 36.44 380.75 33.92 384.25 33.91
  Q 392.67 33.88 400.80 31.89
  Q 405.88 30.65 409.04 30.56
  Q 414.34 30.42 419.64 30.91
  Z"
/>
<path fill="#ffffff" d="
  M 589.20 241.52
  L 594.29 305.85
  A 20.09 20.09 0.0 0 1 576.05 327.44
  L 553.28 329.48
  A 20.09 20.09 0.0 0 1 531.40 309.23
  L 532.20 241.39
  A 20.09 20.09 0.0 0 1 554.03 221.62
  L 570.92 223.09
  A 20.09 20.09 0.0 0 1 589.20 241.52
  Z"
/>
<path fill="#ffffff" d="
  M 374.81 241.14
  L 379.47 306.32
  A 18.00 18.00 0.0 0 1 363.45 325.50
  L 336.21 328.44
  A 18.00 18.00 0.0 0 1 316.29 309.92
  L 318.73 239.41
  A 18.00 18.00 0.0 0 1 338.85 222.15
  L 358.98 224.55
  A 18.00 18.00 0.0 0 1 374.81 241.14
  Z"
/>
<path fill="#ffffff" d="
  M 299.54 331.22
  C 311.04 347.79 333.92 349.75 351.99 347.20
  Q 373.27 344.20 389.24 336.75
  Q 393.56 334.74 395.06 329.04
  Q 400.36 308.98 399.19 288.24
  Q 398.97 284.32 398.06 275.79
  C 397.37 269.41 399.27 264.76 406.22 264.76
  Q 450.49 264.75 494.75 264.64
  Q 508.82 264.60 507.55 278.75
  Q 506.28 292.74 507.03 305.00
  C 508.05 321.97 515.57 335.86 532.01 341.79
  Q 545.22 346.56 559.50 347.41
  C 581.35 348.72 599.28 341.70 613.04 323.99
  C 615.42 320.93 616.13 319.22 616.16 315.10
  Q 616.29 297.40 616.56 279.70
  C 616.68 271.80 617.29 265.06 625.39 263.28
  Q 628.49 262.60 633.74 263.78
  Q 657.36 269.07 676.71 282.20
  Q 697.92 296.58 702.19 320.80
  Q 703.24 326.73 703.17 340.74
  Q 702.55 460.41 703.58 580.06
  C 703.76 600.77 703.36 622.80 696.27 642.52
  C 689.22 662.13 673.19 672.46 652.89 676.01
  Q 633.70 679.37 615.50 679.52
  Q 483.01 680.65 322.75 680.17
  Q 311.39 680.13 287.94 679.20
  C 281.45 678.95 274.81 678.17 268.25 677.56
  C 254.43 676.28 237.08 671.74 226.84 662.63
  C 211.70 649.17 208.79 625.88 207.45 606.99
  Q 205.93 585.65 205.74 564.25
  Q 204.68 447.88 205.42 331.51
  Q 205.50 320.17 206.91 314.13
  C 212.20 291.53 229.88 275.99 251.52 268.83
  Q 266.70 263.81 285.25 263.34
  Q 291.82 263.17 292.34 269.25
  C 294.02 288.90 287.55 313.96 299.54 331.22
  Z
  M 247.25 387.30
  C 243.23 387.29 240.19 390.73 240.18 394.55
  Q 240.04 504.90 240.15 615.25
  Q 240.16 629.47 249.59 638.91
  Q 259.86 649.18 275.25 649.16
  Q 447.17 648.96 619.09 649.11
  Q 635.33 649.13 638.86 648.46
  C 655.19 645.35 667.09 631.22 667.33 614.50
  Q 668.81 510.33 670.28 406.16
  Q 670.38 399.24 669.01 396.04
  Q 665.68 388.32 655.75 388.28
  Q 493.92 387.68 247.25 387.30
  Z"
/>
<path fill="#ffffff" d="
  M 876.25 386.69
  Q 879.09 389.48 879.10 392.74
  C 879.12 399.09 878.38 404.63 880.41 409.62
  C 883.10 416.23 882.57 425.32 882.00 435.14
  Q 880.80 425.03 880.18 415.00
  C 879.96 411.46 878.73 408.13 878.57 404.78
  Q 878.14 395.72 876.25 386.69
  Z"
/>
<path fill="#fd84a5" d="
  M 240.18 394.55
  C 240.19 390.73 243.23 387.29 247.25 387.30
  Q 493.92 387.68 655.75 388.28
  Q 665.68 388.32 669.01 396.04
  Q 670.38 399.24 670.28 406.16
  Q 668.81 510.33 667.33 614.50
  C 667.09 631.22 655.19 645.35 638.86 648.46
  Q 635.33 649.13 619.09 649.11
  Q 447.17 648.96 275.25 649.16
  Q 259.86 649.18 249.59 638.91
  Q 240.16 629.47 240.15 615.25
  Q 240.04 504.90 240.18 394.55
  Z
  M 297.93 456.95
  C 278.77 466.01 280.39 494.09 300.06 501.16
  Q 304.42 502.73 315.64 502.75
  Q 457.16 503.06 598.68 503.27
  Q 606.59 503.28 610.67 501.91
  C 636.20 493.35 630.32 455.25 602.50 455.16
  Q 455.25 454.68 308.00 454.61
  Q 302.89 454.61 297.93 456.95
  Z
  M 467.1513 552.8204
  A 20.33 20.33 0.0 0 0 446.7859 532.5259
  L 304.5661 532.7741
  A 20.33 20.33 0.0 0 0 284.2716 553.1396
  L 284.2887 562.9196
  A 20.33 20.33 0.0 0 0 304.6541 583.2141
  L 446.8739 582.9659
  A 20.33 20.33 0.0 0 0 467.1684 562.6004
  L 467.1513 552.8204
  Z"
/>
<path fill="#ffffff" d="
  M 300.06 501.16
  C 280.39 494.09 278.77 466.01 297.93 456.95
  Q 302.89 454.61 308.00 454.61
  Q 455.25 454.68 602.50 455.16
  C 630.32 455.25 636.20 493.35 610.67 501.91
  Q 606.59 503.28 598.68 503.27
  Q 457.16 503.06 315.64 502.75
  Q 304.42 502.73 300.06 501.16
  Z"
/>
<path fill="#ffffff" d="
  M 24.83 467.22
  Q 25.50 480.07 26.33 492.81
  Q 26.49 495.26 27.55 501.60
  C 28.71 508.54 28.42 515.48 29.78 522.75
  Q 31.62 532.57 31.98 534.84
  Q 33.55 544.57 36.05 555.01
  Q 59.17 651.64 121.05 728.13
  Q 126.37 734.71 134.15 743.22
  C 141.92 751.71 149.45 760.17 157.90 767.96
  Q 173.88 782.68 180.31 787.95
  Q 250.77 845.61 339.73 870.63
  Q 351.91 874.05 361.48 875.79
  Q 363.33 876.13 368.83 877.67
  C 372.56 878.72 376.71 878.72 380.19 879.51
  Q 389.75 881.68 400.50 882.44
  Q 401.26 882.49 401.29 882.92
  Q 395.02 882.97 388.80 882.40
  C 384.77 882.03 381.23 879.58 376.99 879.63
  Q 371.30 879.70 366.78 877.92
  Q 364.14 876.88 362.10 876.67
  C 358.40 876.28 356.02 875.93 352.12 874.50
  C 348.69 873.24 345.28 873.59 341.98 872.15
  Q 337.85 870.34 333.37 869.73
  Q 331.41 869.46 329.36 868.46
  Q 326.20 866.92 322.64 866.69
  A 1.74 1.69 64.2 0 1 321.73 866.36
  Q 317.96 863.63 313.22 863.62
  A 1.92 1.92 0.0 0 1 312.24 863.33
  C 308.91 861.19 305.30 860.65 301.84 859.01
  C 299.11 857.72 296.05 857.12 293.55 856.06
  Q 287.50 853.51 281.44 851.03
  C 279.90 850.40 277.92 848.90 275.95 848.26
  Q 274.30 847.74 273.64 847.42
  Q 258.31 840.14 243.36 832.09
  Q 235.81 828.02 227.51 822.72
  Q 219.74 817.75 212.00 812.74
  C 208.75 810.63 203.98 806.72 199.76 804.12
  C 194.48 800.87 190.02 796.50 185.08 792.74
  C 174.65 784.80 165.13 775.40 155.32 766.70
  C 145.76 758.22 137.65 747.97 128.92 738.61
  C 123.24 732.52 118.21 725.46 112.62 718.95
  Q 110.66 716.67 108.44 713.25
  C 106.72 710.59 104.38 707.70 102.88 705.55
  Q 94.78 693.94 85.48 679.04
  C 84.75 677.87 84.40 676.69 83.80 675.72
  Q 75.96 663.07 69.38 649.72
  Q 57.44 625.44 48.17 600.03
  C 47.06 597.00 46.27 593.11 44.85 589.70
  Q 44.01 587.68 43.37 584.63
  C 42.71 581.49 41.00 579.15 40.57 576.00
  Q 40.02 571.93 38.37 568.19
  C 36.68 564.39 37.22 560.57 35.47 556.59
  C 34.04 553.31 34.05 551.03 33.66 547.73
  C 33.18 543.70 30.88 539.62 30.83 535.50
  Q 30.75 528.35 28.85 523.41
  C 26.91 518.36 27.66 509.42 26.94 504.20
  C 26.16 498.51 24.74 492.72 24.55 487.22
  Q 24.22 477.25 24.83 467.22
  Z"
/>
<path fill="#ffffff" d="
  M 882.04 476.22
  Q 882.73 491.90 882.03 500.26
  C 881.76 503.49 879.71 507.06 879.42 510.66
  C 879.01 515.58 880.01 523.26 877.54 527.50
  Q 875.56 530.90 875.87 533.01
  Q 876.83 539.61 874.20 545.47
  C 872.23 549.84 873.22 554.04 871.34 558.60
  Q 869.49 563.07 869.36 567.96
  Q 869.35 568.48 869.09 568.92
  Q 866.66 573.04 866.23 577.74
  C 865.90 581.38 863.63 583.24 863.40 586.59
  Q 863.11 590.67 860.56 593.91
  A 1.50 1.48 -28.0 0 0 860.25 594.90
  Q 860.49 599.37 857.72 602.73
  Q 857.34 603.19 857.28 603.78
  Q 856.98 606.90 854.46 611.21
  Q 853.83 612.29 853.51 615.63
  Q 853.47 616.12 853.16 616.49
  Q 850.61 619.63 850.17 623.68
  Q 850.11 624.18 849.81 624.57
  Q 847.88 627.07 847.16 630.06
  C 846.52 632.67 844.68 633.75 844.23 636.19
  Q 843.71 638.94 841.76 641.01
  Q 841.37 641.43 841.28 642.00
  Q 840.81 645.18 838.51 647.44
  A 1.24 1.19 -20.0 0 0 838.16 648.15
  Q 837.71 651.34 835.52 653.70
  Q 835.15 654.10 835.05 654.64
  C 834.46 657.77 832.55 659.91 831.29 662.75
  Q 830.42 664.71 828.91 666.34
  Q 828.58 666.70 828.49 667.18
  C 828.03 669.76 826.21 671.48 825.27 673.35
  C 823.36 677.15 820.78 680.42 818.77 684.14
  Q 818.06 685.45 816.79 687.51
  Q 806.53 704.11 794.48 719.46
  Q 791.87 722.79 789.39 726.22
  C 785.44 731.69 780.34 736.22 776.11 741.58
  Q 770.76 748.36 768.63 750.72
  Q 754.72 766.11 745.81 773.59
  Q 717.11 797.71 708.72 803.65
  Q 686.11 819.68 669.48 829.18
  Q 656.33 836.70 633.70 847.43
  C 632.40 848.05 629.59 848.91 627.61 850.16
  C 625.62 851.42 623.47 851.54 621.36 852.71
  Q 619.49 853.75 617.85 854.23
  C 614.69 855.16 612.33 856.84 609.09 857.72
  C 606.14 858.51 604.10 859.99 600.95 860.62
  C 597.87 861.25 595.88 863.16 593.01 863.70
  C 591.11 864.06 589.58 864.13 587.81 865.13
  C 584.57 866.96 581.48 866.83 578.25 868.50
  C 574.73 870.31 571.19 869.80 567.93 871.06
  C 565.75 871.91 564.23 872.86 561.77 873.12
  Q 557.48 873.56 553.53 875.22
  Q 551.49 876.08 549.34 876.20
  Q 544.10 876.48 539.25 878.38
  C 533.86 880.50 528.68 878.97 523.11 881.33
  C 517.76 883.59 511.24 882.57 505.51 883.14
  C 502.10 883.47 498.89 885.58 495.75 885.79
  Q 490.24 886.16 474.47 885.83
  Q 481.49 885.09 488.49 884.62
  Q 495.06 884.19 502.45 883.09
  Q 509.69 882.02 516.99 881.40
  C 520.86 881.07 524.66 879.76 528.23 879.29
  Q 534.96 878.40 544.52 876.19
  Q 564.48 871.59 574.94 868.44
  C 661.16 842.51 736.87 792.01 791.87 720.85
  Q 860.14 632.55 877.58 521.58
  Q 877.72 520.68 878.44 513.40
  Q 878.78 510.04 879.57 505.25
  Q 880.57 499.20 882.04 476.22
  Z"
/>
<rect fill="#ffffff" x="-91.44" y="-25.22" transform="translate(375.72,557.87) rotate(-0.1)" width="182.88" height="50.44" rx="20.33"/>
<path fill="#ffffff" d="
  M 431.81 885.83
  Q 420.27 886.16 412.00 885.74
  Q 408.13 885.55 404.22 883.33
  L 431.81 885.83
  Z"
/>
</svg>
