<?xml version="1.0" encoding="UTF-8" standalone="no"?>
<!DOCTYPE svg PUBLIC "-//W3C//DTD SVG 1.1//EN" "http://www.w3.org/Graphics/SVG/1.1/DTD/svg11.dtd">
<svg xmlns="http://www.w3.org/2000/svg" version="1.1" viewBox="0.00 0.00 1399.00 1497.00">
<g stroke-width="2.00" fill="none" stroke-linecap="butt">
<path stroke="#fb7fae" vector-effect="non-scaling-stroke" d="
  M 803.34 75.87
  Q 785.31 72.48 767.25 71.29
  C 765.56 71.17 763.22 70.42 761.16 70.21
  Q 694.20 63.52 626.95 70.38"
/>
<path stroke="#fb7fae" vector-effect="non-scaling-stroke" d="
  M 807.64 76.39
  Q 827.50 80.26 841.21 83.34
  C 949.27 107.55 1050.38 158.59 1131.87 233.48
  C 1240.14 332.98 1312.09 463.62 1338.02 608.99
  Q 1340.84 624.82 1342.06 637.34
  C 1342.24 639.16 1342.80 640.97 1343.02 642.89
  Q 1345.76 666.57 1347.11 690.51"
/>
<path stroke="#fb7fae" vector-effect="non-scaling-stroke" d="
  M 1347.15 739.64
  Q 1344.15 802.78 1329.67 863.99"
/>
<path stroke="#f90d55" vector-effect="non-scaling-stroke" d="
  M 1329.67 863.99
  C 1326.08 864.19 1326.74 862.28 1324.48 861.28
  Q 1323.19 860.71 1322.09 861.80
  Q 1320.38 863.49 1318.82 864.31
  A 0.75 0.74 -33.0 0 1 1317.89 864.12
  C 1316.05 861.80 1316.39 856.77 1316.25 853.90
  A 1.31 1.30 -66.8 0 0 1315.94 853.11
  Q 1314.49 851.40 1312.72 851.80
  Q 1307.63 852.97 1304.05 851.62
  C 1301.37 850.61 1301.56 849.14 1301.06 846.75
  Q 1297.72 830.84 1294.68 814.86
  Q 1294.39 813.37 1294.43 812.37
  Q 1294.46 811.85 1294.18 811.40
  Q 1293.08 809.64 1293.48 807.52
  Q 1293.58 807.01 1293.30 806.57
  Q 1292.13 804.72 1292.57 802.50
  A 1.17 1.15 34.1 0 0 1292.39 801.61
  Q 1291.12 799.71 1291.66 797.46
  Q 1291.76 797.05 1291.52 796.71
  Q 1290.25 794.95 1290.78 792.74
  A 1.16 1.15 33.6 0 0 1290.58 791.77
  C 1289.46 790.28 1289.81 788.77 1289.55 787.45
  Q 1288.22 780.73 1286.79 774.00
  Q 1283.93 760.48 1272.12 755.01
  Q 1268.80 753.48 1264.48 753.18
  Q 1259.46 752.83 1256.51 753.53
  Q 1235.24 758.61 1199.80 769.57
  Q 1188.20 773.15 1180.95 776.21
  Q 1166.98 782.11 1153.97 789.99
  C 1147.79 793.73 1142.42 799.38 1136.02 801.96
  Q 1131.83 803.65 1127.32 804.41
  Q 1124.81 804.84 1123.22 805.32
  Q 1121.21 805.93 1119.20 806.56
  Q 1104.90 811.07 1095.49 821.73
  Q 1089.20 828.85 1085.56 838.94
  Q 1081.40 850.49 1080.84 864.02
  Q 1080.75 866.19 1078.15 865.28
  Q 1077.69 865.11 1077.41 864.71
  L 1066.68 849.41
  Q 1066.35 848.94 1065.86 849.22
  L 1063.06 850.79"
/>
<path stroke="#fb7fae" vector-effect="non-scaling-stroke" d="
  M 1063.06 850.79
  C 1065.64 847.80 1071.62 844.41 1069.07 839.25
  Q 1068.12 837.33 1065.28 835.79
  Q 1027.81 815.49 994.78 788.53
  Q 990.15 784.75 987.14 783.91
  C 978.53 781.48 975.01 787.51 970.55 794.87
  Q 932.43 857.86 863.52 889.21
  C 853.35 893.84 850.05 889.78 842.54 882.41
  Q 820.58 860.89 798.72 839.28
  C 795.42 836.01 791.45 832.65 792.07 827.85
  Q 792.61 823.62 797.27 821.64
  Q 799.37 820.74 806.22 820.05
  Q 812.89 819.37 815.25 819.06
  Q 870.10 811.95 925.00 805.23
  C 936.28 803.84 941.55 792.31 936.60 782.40
  Q 924.51 758.25 912.20 734.20
  C 906.19 722.44 901.22 713.77 887.82 714.23
  Q 882.86 714.41 872.31 718.46
  Q 864.69 721.38 857.10 724.37
  C 854.99 725.20 852.13 725.72 850.55 724.26
  C 847.24 721.20 849.51 718.16 852.54 716.10
  Q 859.22 711.54 866.11 707.30
  A 0.71 0.70 34.7 0 1 866.63 707.21
  Q 867.01 707.29 867.34 707.07
  Q 880.26 698.79 893.17 690.50
  C 893.94 690.00 894.99 689.97 895.70 689.48
  Q 905.27 682.85 911.96 679.25
  C 922.18 673.75 931.92 678.08 938.60 686.72
  Q 961.58 716.46 984.57 746.18
  C 990.48 753.83 995.93 753.30 1002.37 746.87
  Q 1035.00 714.25 1067.66 681.66
  C 1075.51 673.82 1071.08 667.21 1063.85 661.51
  Q 1041.61 643.96 1019.30 626.51
  C 1012.06 620.84 1005.38 616.62 1008.75 607.61
  Q 1009.94 604.43 1015.62 598.07
  Q 1020.56 592.53 1029.47 582.22
  Q 1047.78 561.04 1058.68 544.71
  Q 1067.73 531.16 1072.18 515.50
  C 1082.76 478.29 1058.47 455.08 1025.76 445.00
  Q 1003.40 438.11 977.53 435.20
  Q 956.58 432.84 945.75 432.55
  Q 893.92 431.17 840.51 435.55
  Q 813.90 437.74 798.45 439.20
  C 794.72 439.55 790.74 439.33 787.80 437.73
  C 781.48 434.29 773.06 427.17 764.07 424.26
  Q 759.68 422.84 752.77 422.58
  Q 715.35 421.18 696.50 421.05
  C 653.19 420.76 609.80 420.01 566.50 420.27
  Q 491.00 420.71 415.50 421.08
  Q 409.37 421.11 390.72 421.67
  C 372.98 422.20 353.34 426.44 347.93 445.73
  C 344.63 457.47 348.34 470.28 354.22 481.04
  C 356.25 484.77 358.41 486.30 362.92 486.30
  Q 381.71 486.33 400.50 486.36
  C 406.70 486.38 407.33 492.44 407.32 497.75
  Q 407.27 577.25 408.08 656.75
  Q 408.18 666.45 399.44 667.68
  Q 362.49 672.84 325.51 677.78
  C 319.60 678.57 321.43 683.61 322.72 687.25
  Q 335.49 723.44 348.52 759.53
  C 350.54 765.14 352.45 768.90 359.00 767.21
  Q 481.99 735.34 608.64 725.07
  Q 612.63 724.74 614.66 725.92
  Q 618.09 727.91 619.38 732.70
  Q 626.08 757.63 605.47 766.69
  C 600.51 768.86 591.86 770.09 587.00 770.22
  Q 499.50 772.48 427.84 780.07
  Q 421.90 780.70 420.25 786.15
  C 419.28 789.34 420.19 793.16 421.15 796.39
  Q 426.35 813.91 431.53 831.44
  C 433.06 836.61 436.35 841.40 442.11 840.60
  Q 445.85 840.08 445.92 840.08
  Q 470.09 838.70 494.26 837.50
  Q 494.47 837.49 494.56 837.30
  Q 494.63 837.14 494.75 837.13
  Q 506.77 836.90 518.75 835.87
  C 523.95 835.42 534.13 834.39 533.10 843.20
  C 532.76 846.10 531.07 847.49 528.68 848.89
  Q 456.84 891.19 377.29 912.34
  C 372.08 913.72 367.30 915.22 366.01 920.00
  Q 357.45 951.79 380.06 974.15
  A 1.76 1.75 60.6 0 0 381.69 974.61
  L 388.46 973.04"
/>
<path stroke="#f90d55" vector-effect="non-scaling-stroke" d="
  M 388.46 973.04
  L 382.20 974.95
  A 0.68 0.67 75.5 0 0 381.74 975.74
  C 382.23 978.06 383.55 980.17 383.76 982.53
  C 383.95 984.62 384.88 986.28 384.80 988.25
  Q 384.62 993.22 383.11 997.92
  C 380.39 1006.39 371.38 1012.61 373.61 1022.21
  Q 374.26 1025.03 374.30 1026.85
  Q 374.39 1030.52 375.14 1034.60"
/>
<path stroke="#fb7fae" vector-effect="non-scaling-stroke" d="
  M 375.14 1034.60
  Q 365.30 1037.50 361.58 1045.79
  C 355.85 1058.55 364.81 1077.87 371.30 1089.48"
/>
<path stroke="#f90d55" vector-effect="non-scaling-stroke" d="
  M 371.30 1089.48
  Q 368.15 1089.23 365.36 1088.48
  Q 362.69 1087.76 360.49 1087.83
  Q 355.52 1087.98 350.55 1087.74
  Q 350.03 1087.71 349.58 1087.98
  Q 347.58 1089.16 345.30 1088.84
  Q 344.81 1088.77 344.41 1089.07
  Q 343.02 1090.07 341.33 1089.62
  Q 341.16 1089.57 341.08 1089.73
  Q 341.01 1089.87 340.93 1090.01
  Q 340.79 1090.28 340.51 1090.40
  Q 335.81 1092.36 331.13 1094.37
  Q 329.68 1094.99 327.74 1095.36
  C 325.59 1095.77 322.83 1096.61 320.49 1095.97
  Q 318.05 1095.31 316.91 1095.28
  C 314.67 1095.24 313.01 1095.41 310.71 1094.68
  C 308.60 1094.01 305.85 1094.25 304.01 1093.89
  C 300.20 1093.15 296.69 1093.43 292.83 1092.62
  C 290.07 1092.05 287.47 1092.45 284.69 1091.85
  C 281.65 1091.19 277.70 1091.35 275.51 1091.05
  C 270.87 1090.43 266.35 1089.69 261.62 1089.56
  C 258.81 1089.48 256.41 1088.61 253.58 1088.67
  Q 251.86 1088.70 250.18 1088.41
  Q 246.29 1087.75 245.22 1087.69
  Q 236.41 1087.20 233.62 1086.58
  Q 231.05 1086.00 224.51 1085.79
  Q 223.70 1085.76 221.39 1085.08
  C 218.81 1084.32 216.17 1084.90 213.42 1084.24
  C 210.69 1083.59 208.19 1084.03 205.51 1083.42
  C 201.98 1082.63 199.03 1082.98 195.68 1082.29
  C 193.00 1081.73 190.49 1082.07 187.84 1081.55
  Q 184.94 1080.99 182.60 1080.92
  C 179.46 1080.82 176.63 1079.91 173.62 1079.87
  C 168.70 1079.79 162.76 1077.90 159.34 1082.99
  Q 155.05 1089.35 147.49 1098.98
  Q 139.94 1108.58 129.43 1112.34
  Q 128.93 1112.52 128.41 1112.39
  Q 127.39 1112.14 126.56 1112.76
  Q 126.19 1113.03 125.73 1113.09
  Q 118.38 1113.98 112.37 1111.88
  Q 100.55 1107.75 90.95 1097.31"
/>
<path stroke="#fb7fae" vector-effect="non-scaling-stroke" d="
  M 90.95 1097.31
  Q 102.08 1065.04 113.27 1032.28
  C 114.99 1027.26 115.04 1023.03 112.94 1017.80
  Q 107.73 1004.89 100.28 985.02
  Q 68.19 899.44 53.14 810.68
  Q 51.89 803.34 50.70 793.30
  C 49.70 784.89 48.49 776.55 47.82 768.11
  Q 47.52 764.25 46.76 760.38"
/>
<path stroke="#fb7fae" vector-effect="non-scaling-stroke" d="
  M 46.24 752.82
  Q 45.48 738.48 44.93 724.27
  Q 41.07 625.92 68.46 531.84
  Q 71.20 522.42 74.49 512.78
  C 118.03 384.88 199.15 271.08 309.04 191.84
  Q 428.14 105.97 572.98 78.29
  C 576.57 77.61 581.09 77.38 585.08 76.55
  Q 592.29 75.05 594.03 74.79
  Q 605.25 73.16 616.68 71.46"
/>
<path stroke="#fc7d9b" vector-effect="non-scaling-stroke" d="
  M 1288.82 1067.66
  Q 1282.07 1050.90 1277.18 1033.69
  C 1275.32 1027.14 1274.95 1022.56 1277.06 1016.51
  Q 1302.42 943.44 1327.89 870.40
  Q 1328.97 867.30 1329.67 863.99"
/>
<path stroke="#fc7d9b" vector-effect="non-scaling-stroke" d="
  M 1289.86 1070.70
  L 1298.63 1094.60"
/>
<path stroke="#fc7d9b" vector-effect="non-scaling-stroke" d="
  M 1299.34 1096.18
  L 1303.59 1108.67"
/>
<path stroke="#fc7d9b" vector-effect="non-scaling-stroke" d="
  M 1303.70 1109.31
  L 1308.58 1124.13"
/>
<path stroke="#fc7d9b" vector-effect="non-scaling-stroke" d="
  M 1309.51 1126.61
  L 1312.81 1140.02"
/>
<path stroke="#f90d55" vector-effect="non-scaling-stroke" d="
  M 1312.81 1140.02
  Q 1312.47 1142.22 1313.66 1143.23"
/>
<path stroke="#fc7d9b" vector-effect="non-scaling-stroke" d="
  M 1313.66 1143.23
  Q 1316.44 1154.80 1317.67 1166.47"
/>
<path stroke="#f90d55" vector-effect="non-scaling-stroke" d="
  M 1317.67 1166.47
  Q 1316.98 1170.05 1318.09 1170.66"
/>
<path stroke="#fc7d9b" vector-effect="non-scaling-stroke" d="
  M 1318.57 1179.72
  L 1318.48 1197.50"
/>
<path stroke="#fc7d9b" vector-effect="non-scaling-stroke" d="
  M 1318.28 1199.67
  Q 1317.58 1202.84 1317.51 1206.06
  Q 1317.38 1211.53 1317.29 1212.46
  C 1310.68 1278.30 1275.98 1337.19 1220.97 1373.90
  Q 1212.80 1379.36 1203.96 1384.42
  Q 1157.98 1410.78 1104.44 1415.37"
/>
<path stroke="#fc7d9b" vector-effect="non-scaling-stroke" d="
  M 1075.79 1415.33
  Q 1059.04 1413.85 1047.61 1411.42
  C 1001.70 1401.65 960.09 1377.07 923.53 1346.45
  Q 913.93 1338.41 902.77 1335.72
  C 877.35 1329.60 859.19 1351.12 842.75 1363.78
  C 810.57 1388.55 773.01 1406.19 732.99 1413.56
  C 729.28 1414.24 723.99 1414.76 719.52 1415.70"
/>
<path stroke="#fc7d9b" vector-effect="non-scaling-stroke" d="
  M 708.95 1416.52
  L 686.04 1416.70"
/>
<path stroke="#fc7d9b" vector-effect="non-scaling-stroke" d="
  M 672.28 1415.39
  Q 669.90 1414.82 667.44 1414.58
  C 644.57 1412.27 621.63 1404.55 600.37 1394.11
  Q 572.70 1380.53 549.25 1360.52
  C 542.25 1354.54 534.42 1347.06 527.32 1342.90
  C 511.43 1333.60 493.32 1333.53 476.56 1341.81
  Q 471.22 1344.45 468.50 1346.48
  C 431.60 1374.08 396.32 1402.48 349.27 1410.35"
/>
<path stroke="#fc7d9b" vector-effect="non-scaling-stroke" d="
  M 344.70 1411.10
  Q 270.44 1422.01 203.06 1391.98
  C 141.44 1364.51 93.40 1311.67 75.88 1246.21
  C 62.55 1196.40 69.77 1143.84 90.95 1097.31"
/>
<path stroke="#fc7d9b" vector-effect="non-scaling-stroke" d="
  M 371.30 1089.48
  Q 518.59 1067.21 645.14 989.15
  C 652.47 984.62 657.34 981.09 652.60 972.18
  Q 641.60 951.49 630.29 930.96
  C 627.50 925.90 624.94 920.83 619.96 918.16
  C 610.51 913.10 603.85 917.79 595.92 924.51
  Q 587.18 931.90 578.21 938.95"
/>
<path stroke="#f90d55" vector-effect="non-scaling-stroke" d="
  M 578.21 938.95
  Q 576.18 939.65 575.01 941.43"
/>
<path stroke="#fc7d9b" vector-effect="non-scaling-stroke" d="
  M 575.01 941.43
  L 559.73 952.85"
/>
<path stroke="#f90d55" vector-effect="non-scaling-stroke" d="
  M 559.73 952.85
  Q 555.16 955.01 551.27 958.52"
/>
<path stroke="#fc7d9b" vector-effect="non-scaling-stroke" d="
  M 551.27 958.52
  Q 538.67 967.10 525.61 975.11
  C 524.50 975.79 523.06 975.99 522.05 976.62
  Q 507.99 985.41 493.10 992.62
  C 482.02 997.99 467.67 1004.62 455.22 1009.58
  Q 416.79 1024.91 375.14 1034.60"
/>
<path stroke="#f90d55" vector-effect="non-scaling-stroke" d="
  M 1026.71 1058.75
  Q 1031.73 1053.24 1034.90 1046.80"
/>
<path stroke="#f90d55" vector-effect="non-scaling-stroke" d="
  M 1044.17 1033.53
  Q 1048.90 1028.30 1051.85 1022.25"
/>
<path stroke="#fc7d9b" vector-effect="non-scaling-stroke" d="
  M 1063.06 850.79
  Q 1017.33 893.06 961.17 918.90
  Q 947.03 925.41 929.46 932.42
  Q 927.73 933.11 927.02 935.58
  A 1.27 1.25 41.0 0 0 927.09 936.46
  Q 927.95 938.26 929.66 939.32
  Q 988.77 975.84 1056.60 990.82
  C 1061.87 991.98 1067.04 994.34 1065.84 1000.39
  Q 1065.33 1002.95 1061.53 1008.36
  Q 1056.59 1015.38 1051.85 1022.25"
/>
<path stroke="#fb7fae" vector-effect="non-scaling-stroke" d="
  M 1051.85 1022.25
  Q 1047.26 1027.58 1044.17 1033.53"
/>
<path stroke="#fc7d9b" vector-effect="non-scaling-stroke" d="
  M 1044.17 1033.53
  L 1034.90 1046.80"
/>
<path stroke="#fb7fae" vector-effect="non-scaling-stroke" d="
  M 1034.90 1046.80
  Q 1030.18 1052.40 1026.71 1058.75"
/>
<path stroke="#fc7d9b" vector-effect="non-scaling-stroke" d="
  M 1026.71 1058.75
  Q 1018.55 1070.27 1010.47 1082.07
  C 1006.58 1087.76 1002.33 1095.52 994.58 1092.19
  C 915.19 1058.03 843.05 1006.48 786.07 940.96
  Q 783.44 937.94 780.79 935.33
  A 2.86 2.86 0.0 0 0 775.93 937.33
  Q 775.01 1013.30 774.07 1089.86
  C 774.01 1095.47 772.48 1098.67 766.49 1098.72
  Q 724.12 1099.05 681.75 1099.19
  Q 673.81 1099.22 673.51 1092.00
  Q 668.56 976.19 673.16 848.76
  Q 673.43 841.04 672.27 837.47
  C 668.12 824.76 655.57 824.94 645.05 828.53
  C 640.97 829.92 639.12 831.82 639.82 836.25
  Q 641.66 847.84 643.51 859.47
  Q 644.54 865.90 643.96 868.61
  Q 642.86 873.74 638.06 876.39
  Q 538.85 931.13 425.00 963.19
  Q 406.78 968.32 388.46 973.04"
/>
<path stroke="#fb7fae" vector-effect="non-scaling-stroke" d="
  M 551.27 958.52
  L 559.73 952.85"
/>
<path stroke="#fb7fae" vector-effect="non-scaling-stroke" d="
  M 575.01 941.43
  Q 576.85 940.83 578.21 938.95"
/>
<path stroke="#fb7fae" vector-effect="non-scaling-stroke" d="
  M 1318.09 1168.00
  Q 1317.43 1168.37 1317.67 1166.47"
/>
<path stroke="#fb7fae" vector-effect="non-scaling-stroke" d="
  M 1313.11 1139.99
  Q 1313.03 1140.24 1312.81 1140.02"
/>
<path stroke="#fb7fae" vector-effect="non-scaling-stroke" d="
  M 1313.98 1143.22
  Q 1313.82 1143.23 1313.66 1143.23"
/>
<path stroke="#fb7fae" vector-effect="non-scaling-stroke" d="
  M 713.24 502.53
  L 712.69 524.30"
/>
<path stroke="#eb82a3" vector-effect="non-scaling-stroke" d="
  M 712.69 524.30
  Q 710.59 610.19 709.68 639.75
  C 709.54 644.18 709.87 651.03 715.27 652.24
  Q 719.37 653.16 728.50 653.77
  Q 796.73 658.32 854.62 623.10
  C 862.66 618.21 864.05 612.04 855.81 606.13
  Q 827.53 585.81 799.29 565.46
  C 792.97 560.90 787.11 557.21 793.80 549.59
  Q 807.37 534.14 820.96 518.70
  C 828.15 510.54 838.18 517.25 845.72 520.81
  Q 889.94 541.72 934.02 562.96
  Q 937.04 564.42 938.77 563.76
  Q 975.80 549.59 978.16 510.55
  C 978.58 503.66 976.59 498.75 970.12 496.32
  C 956.21 491.09 942.09 489.07 926.50 489.05
  Q 901.57 489.02 878.25 492.78
  Q 825.58 501.27 773.58 519.88
  C 765.66 522.72 761.93 520.08 759.66 512.14
  Q 757.79 505.61 755.94 499.08
  C 754.10 492.56 753.32 488.05 748.07 485.56
  C 743.06 483.18 732.72 484.42 726.25 484.62
  C 713.39 485.01 713.02 491.57 713.24 502.53"
/>
<path stroke="#e8125d" vector-effect="non-scaling-stroke" d="
  M 712.69 524.30
  Q 713.85 513.51 713.24 502.53"
/>
<path stroke="#cf809a" vector-effect="non-scaling-stroke" d="
  M 620.6459 500.5514
  A 10.62 10.62 0.0 0 0 610.0631 489.8944
  L 510.1837 489.5458
  A 10.62 10.62 0.0 0 0 499.5267 500.1286
  L 499.5141 503.7486
  A 10.62 10.62 0.0 0 0 510.0969 514.4056
  L 609.9763 514.7542
  A 10.62 10.62 0.0 0 0 620.6333 504.1714
  L 620.6459 500.5514"
/>
<path stroke="#cf809a" vector-effect="non-scaling-stroke" d="
  M 620.7138 568.8514
  A 9.20 9.20 0.0 0 0 611.4658 559.6997
  L 511.9471 560.2207
  A 9.20 9.20 0.0 0 0 502.7954 569.4688
  L 502.8462 579.1686
  A 9.20 9.20 0.0 0 0 512.0942 588.3203
  L 611.6129 587.7993
  A 9.20 9.20 0.0 0 0 620.7646 578.5512
  L 620.7138 568.8514"
/>
<path stroke="#cf809a" vector-effect="non-scaling-stroke" d="
  M 625.1933 644.0189
  A 11.48 11.48 0.0 0 0 613.5938 632.6597
  L 514.0992 633.7017
  A 11.48 11.48 0.0 0 0 502.7401 645.3013
  L 502.7667 647.8411
  A 11.48 11.48 0.0 0 0 514.3662 659.2003
  L 613.8608 658.1583
  A 11.48 11.48 0.0 0 0 625.2199 646.5587
  L 625.1933 644.0189"
/>
<path stroke="#cf809a" vector-effect="non-scaling-stroke" d="
  M 788.72 683.57
  Q 787.09 680.67 786.11 680.11
  Q 781.42 677.42 779.86 682.13
  Q 775.61 694.97 771.23 707.83
  A 3.39 3.37 6.5 0 1 768.35 710.10
  Q 741.87 712.58 714.99 714.89
  Q 710.56 715.27 710.46 718.99
  Q 710.27 726.80 711.61 746.03
  C 711.82 749.04 712.72 752.30 716.25 751.82
  Q 762.99 745.48 809.66 738.84
  C 813.32 738.32 817.66 736.58 815.37 732.12
  Q 808.32 718.40 788.72 683.57"
/>
</g>
<path fill="#feeff4" d="
  M 803.34 75.87
  Q 785.31 72.48 767.25 71.29
  C 765.56 71.17 763.22 70.42 761.16 70.21
  Q 694.20 63.52 626.95 70.38
  Q 632.76 66.94 639.15 66.15
  Q 640.30 66.00 651.85 66.01
  Q 699.38 66.02 746.90 66.00
  C 749.91 65.99 753.77 66.23 756.59 67.24
  C 761.04 68.83 765.17 70.58 769.97 70.82
  Q 780.36 71.33 790.76 71.16
  Q 798.00 71.04 803.34 75.87
  Z"
/>
<path fill="#f80f68" d="
  M 803.34 75.87
  Q 805.92 75.67 807.64 76.39
  Q 827.50 80.26 841.21 83.34
  C 949.27 107.55 1050.38 158.59 1131.87 233.48
  C 1240.14 332.98 1312.09 463.62 1338.02 608.99
  Q 1340.84 624.82 1342.06 637.34
  C 1342.24 639.16 1342.80 640.97 1343.02 642.89
  Q 1345.76 666.57 1347.11 690.51
  Q 1348.04 715.09 1347.15 739.64
  Q 1344.15 802.78 1329.67 863.99
  C 1326.08 864.19 1326.74 862.28 1324.48 861.28
  Q 1323.19 860.71 1322.09 861.80
  Q 1320.38 863.49 1318.82 864.31
  A 0.75 0.74 -33.0 0 1 1317.89 864.12
  C 1316.05 861.80 1316.39 856.77 1316.25 853.90
  A 1.31 1.30 -66.8 0 0 1315.94 853.11
  Q 1314.49 851.40 1312.72 851.80
  Q 1307.63 852.97 1304.05 851.62
  C 1301.37 850.61 1301.56 849.14 1301.06 846.75
  Q 1297.72 830.84 1294.68 814.86
  Q 1294.39 813.37 1294.43 812.37
  Q 1294.46 811.85 1294.18 811.40
  Q 1293.08 809.64 1293.48 807.52
  Q 1293.58 807.01 1293.30 806.57
  Q 1292.13 804.72 1292.57 802.50
  A 1.17 1.15 34.1 0 0 1292.39 801.61
  Q 1291.12 799.71 1291.66 797.46
  Q 1291.76 797.05 1291.52 796.71
  Q 1290.25 794.95 1290.78 792.74
  A 1.16 1.15 33.6 0 0 1290.58 791.77
  C 1289.46 790.28 1289.81 788.77 1289.55 787.45
  Q 1288.22 780.73 1286.79 774.00
  Q 1283.93 760.48 1272.12 755.01
  Q 1268.80 753.48 1264.48 753.18
  Q 1259.46 752.83 1256.51 753.53
  Q 1235.24 758.61 1199.80 769.57
  Q 1188.20 773.15 1180.95 776.21
  Q 1166.98 782.11 1153.97 789.99
  C 1147.79 793.73 1142.42 799.38 1136.02 801.96
  Q 1131.83 803.65 1127.32 804.41
  Q 1124.81 804.84 1123.22 805.32
  Q 1121.21 805.93 1119.20 806.56
  Q 1104.90 811.07 1095.49 821.73
  Q 1089.20 828.85 1085.56 838.94
  Q 1081.40 850.49 1080.84 864.02
  Q 1080.75 866.19 1078.15 865.28
  Q 1077.69 865.11 1077.41 864.71
  L 1066.68 849.41
  Q 1066.35 848.94 1065.86 849.22
  L 1063.06 850.79
  C 1065.64 847.80 1071.62 844.41 1069.07 839.25
  Q 1068.12 837.33 1065.28 835.79
  Q 1027.81 815.49 994.78 788.53
  Q 990.15 784.75 987.14 783.91
  C 978.53 781.48 975.01 787.51 970.55 794.87
  Q 932.43 857.86 863.52 889.21
  C 853.35 893.84 850.05 889.78 842.54 882.41
  Q 820.58 860.89 798.72 839.28
  C 795.42 836.01 791.45 832.65 792.07 827.85
  Q 792.61 823.62 797.27 821.64
  Q 799.37 820.74 806.22 820.05
  Q 812.89 819.37 815.25 819.06
  Q 870.10 811.95 925.00 805.23
  C 936.28 803.84 941.55 792.31 936.60 782.40
  Q 924.51 758.25 912.20 734.20
  C 906.19 722.44 901.22 713.77 887.82 714.23
  Q 882.86 714.41 872.31 718.46
  Q 864.69 721.38 857.10 724.37
  C 854.99 725.20 852.13 725.72 850.55 724.26
  C 847.24 721.20 849.51 718.16 852.54 716.10
  Q 859.22 711.54 866.11 707.30
  A 0.71 0.70 34.7 0 1 866.63 707.21
  Q 867.01 707.29 867.34 707.07
  Q 880.26 698.79 893.17 690.50
  C 893.94 690.00 894.99 689.97 895.70 689.48
  Q 905.27 682.85 911.96 679.25
  C 922.18 673.75 931.92 678.08 938.60 686.72
  Q 961.58 716.46 984.57 746.18
  C 990.48 753.83 995.93 753.30 1002.37 746.87
  Q 1035.00 714.25 1067.66 681.66
  C 1075.51 673.82 1071.08 667.21 1063.85 661.51
  Q 1041.61 643.96 1019.30 626.51
  C 1012.06 620.84 1005.38 616.62 1008.75 607.61
  Q 1009.94 604.43 1015.62 598.07
  Q 1020.56 592.53 1029.47 582.22
  Q 1047.78 561.04 1058.68 544.71
  Q 1067.73 531.16 1072.18 515.50
  C 1082.76 478.29 1058.47 455.08 1025.76 445.00
  Q 1003.40 438.11 977.53 435.20
  Q 956.58 432.84 945.75 432.55
  Q 893.92 431.17 840.51 435.55
  Q 813.90 437.74 798.45 439.20
  C 794.72 439.55 790.74 439.33 787.80 437.73
  C 781.48 434.29 773.06 427.17 764.07 424.26
  Q 759.68 422.84 752.77 422.58
  Q 715.35 421.18 696.50 421.05
  C 653.19 420.76 609.80 420.01 566.50 420.27
  Q 491.00 420.71 415.50 421.08
  Q 409.37 421.11 390.72 421.67
  C 372.98 422.20 353.34 426.44 347.93 445.73
  C 344.63 457.47 348.34 470.28 354.22 481.04
  C 356.25 484.77 358.41 486.30 362.92 486.30
  Q 381.71 486.33 400.50 486.36
  C 406.70 486.38 407.33 492.44 407.32 497.75
  Q 407.27 577.25 408.08 656.75
  Q 408.18 666.45 399.44 667.68
  Q 362.49 672.84 325.51 677.78
  C 319.60 678.57 321.43 683.61 322.72 687.25
  Q 335.49 723.44 348.52 759.53
  C 350.54 765.14 352.45 768.90 359.00 767.21
  Q 481.99 735.34 608.64 725.07
  Q 612.63 724.74 614.66 725.92
  Q 618.09 727.91 619.38 732.70
  Q 626.08 757.63 605.47 766.69
  C 600.51 768.86 591.86 770.09 587.00 770.22
  Q 499.50 772.48 427.84 780.07
  Q 421.90 780.70 420.25 786.15
  C 419.28 789.34 420.19 793.16 421.15 796.39
  Q 426.35 813.91 431.53 831.44
  C 433.06 836.61 436.35 841.40 442.11 840.60
  Q 445.85 840.08 445.92 840.08
  Q 470.09 838.70 494.26 837.50
  Q 494.47 837.49 494.56 837.30
  Q 494.63 837.14 494.75 837.13
  Q 506.77 836.90 518.75 835.87
  C 523.95 835.42 534.13 834.39 533.10 843.20
  C 532.76 846.10 531.07 847.49 528.68 848.89
  Q 456.84 891.19 377.29 912.34
  C 372.08 913.72 367.30 915.22 366.01 920.00
  Q 357.45 951.79 380.06 974.15
  A 1.76 1.75 60.6 0 0 381.69 974.61
  L 388.46 973.04
  L 382.20 974.95
  A 0.68 0.67 75.5 0 0 381.74 975.74
  C 382.23 978.06 383.55 980.17 383.76 982.53
  C 383.95 984.62 384.88 986.28 384.80 988.25
  Q 384.62 993.22 383.11 997.92
  C 380.39 1006.39 371.38 1012.61 373.61 1022.21
  Q 374.26 1025.03 374.30 1026.85
  Q 374.39 1030.52 375.14 1034.60
  Q 365.30 1037.50 361.58 1045.79
  C 355.85 1058.55 364.81 1077.87 371.30 1089.48
  Q 368.15 1089.23 365.36 1088.48
  Q 362.69 1087.76 360.49 1087.83
  Q 355.52 1087.98 350.55 1087.74
  Q 350.03 1087.71 349.58 1087.98
  Q 347.58 1089.16 345.30 1088.84
  Q 344.81 1088.77 344.41 1089.07
  Q 343.02 1090.07 341.33 1089.62
  Q 341.16 1089.57 341.08 1089.73
  Q 341.01 1089.87 340.93 1090.01
  Q 340.79 1090.28 340.51 1090.40
  Q 335.81 1092.36 331.13 1094.37
  Q 329.68 1094.99 327.74 1095.36
  C 325.59 1095.77 322.83 1096.61 320.49 1095.97
  Q 318.05 1095.31 316.91 1095.28
  C 314.67 1095.24 313.01 1095.41 310.71 1094.68
  C 308.60 1094.01 305.85 1094.25 304.01 1093.89
  C 300.20 1093.15 296.69 1093.43 292.83 1092.62
  C 290.07 1092.05 287.47 1092.45 284.69 1091.85
  C 281.65 1091.19 277.70 1091.35 275.51 1091.05
  C 270.87 1090.43 266.35 1089.69 261.62 1089.56
  C 258.81 1089.48 256.41 1088.61 253.58 1088.67
  Q 251.86 1088.70 250.18 1088.41
  Q 246.29 1087.75 245.22 1087.69
  Q 236.41 1087.20 233.62 1086.58
  Q 231.05 1086.00 224.51 1085.79
  Q 223.70 1085.76 221.39 1085.08
  C 218.81 1084.32 216.17 1084.90 213.42 1084.24
  C 210.69 1083.59 208.19 1084.03 205.51 1083.42
  C 201.98 1082.63 199.03 1082.98 195.68 1082.29
  C 193.00 1081.73 190.49 1082.07 187.84 1081.55
  Q 184.94 1080.99 182.60 1080.92
  C 179.46 1080.82 176.63 1079.91 173.62 1079.87
  C 168.70 1079.79 162.76 1077.90 159.34 1082.99
  Q 155.05 1089.35 147.49 1098.98
  Q 139.94 1108.58 129.43 1112.34
  Q 128.93 1112.52 128.41 1112.39
  Q 127.39 1112.14 126.56 1112.76
  Q 126.19 1113.03 125.73 1113.09
  Q 118.38 1113.98 112.37 1111.88
  Q 100.55 1107.75 90.95 1097.31
  Q 102.08 1065.04 113.27 1032.28
  C 114.99 1027.26 115.04 1023.03 112.94 1017.80
  Q 107.73 1004.89 100.28 985.02
  Q 68.19 899.44 53.14 810.68
  Q 51.89 803.34 50.70 793.30
  C 49.70 784.89 48.49 776.55 47.82 768.11
  Q 47.52 764.25 46.76 760.38
  L 46.24 752.82
  Q 45.48 738.48 44.93 724.27
  Q 41.07 625.92 68.46 531.84
  Q 71.20 522.42 74.49 512.78
  C 118.03 384.88 199.15 271.08 309.04 191.84
  Q 428.14 105.97 572.98 78.29
  C 576.57 77.61 581.09 77.38 585.08 76.55
  Q 592.29 75.05 594.03 74.79
  Q 605.25 73.16 616.68 71.46
  L 626.95 70.38
  Q 694.20 63.52 761.16 70.21
  C 763.22 70.42 765.56 71.17 767.25 71.29
  Q 785.31 72.48 803.34 75.87
  Z"
/>
<path fill="#feeff4" d="
  M 616.68 71.46
  Q 605.25 73.16 594.03 74.79
  Q 592.29 75.05 585.08 76.55
  C 581.09 77.38 576.57 77.61 572.98 78.29
  Q 428.14 105.97 309.04 191.84
  C 199.15 271.08 118.03 384.88 74.49 512.78
  Q 71.20 522.42 68.46 531.84
  Q 41.07 625.92 44.93 724.27
  Q 45.48 738.48 46.24 752.82
  Q 41.79 744.76 41.71 739.26
  Q 41.36 716.55 41.69 675.50
  Q 41.74 668.41 42.37 662.71
  C 43.02 656.85 46.49 649.66 46.52 644.00
  Q 46.60 631.12 46.73 618.25
  Q 46.77 614.06 49.62 609.53
  Q 51.03 607.29 51.28 600.75
  C 51.53 594.27 51.02 586.99 54.05 580.91
  C 56.63 575.73 56.67 569.24 56.86 563.57
  A 1.82 1.78 63.5 0 1 57.16 562.64
  Q 61.25 556.47 61.45 549.18
  Q 61.56 545.15 62.19 543.42
  C 63.12 540.89 64.94 538.79 65.52 536.33
  C 66.37 532.65 65.71 528.55 68.05 525.24
  C 70.99 521.05 70.75 518.19 71.27 513.82
  C 71.76 509.64 74.94 508.13 75.56 504.24
  C 76.08 500.94 76.45 498.65 78.20 495.48
  Q 80.68 491.00 81.04 485.79
  A 1.61 1.60 -25.1 0 1 81.35 484.94
  C 83.20 482.39 84.84 480.75 85.50 477.43
  Q 86.17 474.03 88.27 471.30
  C 90.72 468.10 90.20 464.90 92.12 461.59
  Q 94.56 457.38 95.90 452.69
  C 97.20 448.12 100.04 444.57 101.28 439.79
  C 101.58 438.63 103.35 436.81 103.94 435.43
  Q 107.68 426.60 112.98 418.64
  C 114.57 416.26 114.94 414.44 115.59 411.77
  A 1.76 1.69 77.0 0 1 116.11 410.90
  Q 119.82 407.56 120.00 402.53
  A 1.43 1.37 68.0 0 1 120.35 401.65
  Q 126.00 395.08 129.45 387.29
  C 130.91 384.01 133.47 382.11 134.68 378.48
  C 136.17 374.03 139.66 370.23 142.55 366.62
  C 144.41 364.30 144.24 361.77 145.92 359.55
  Q 151.13 352.67 156.57 345.99
  C 158.68 343.39 158.37 340.51 160.38 338.11
  C 166.91 330.33 173.86 324.02 177.97 315.71
  Q 179.50 312.61 181.07 310.70
  Q 183.97 307.20 184.93 306.17
  Q 215.64 273.23 246.54 240.45
  C 248.75 238.11 251.96 234.50 254.88 232.91
  C 263.43 228.26 269.73 220.49 275.98 214.75
  Q 277.59 213.27 280.95 211.47
  C 286.95 208.23 291.12 202.80 296.71 198.34
  C 298.93 196.56 301.52 196.51 303.47 194.66
  Q 307.44 190.87 311.72 187.46
  C 313.88 185.74 316.26 186.00 318.30 184.09
  C 322.73 179.93 326.75 176.29 331.95 174.86
  A 1.61 1.56 -76.9 0 0 332.74 174.35
  C 335.78 170.71 340.10 169.37 343.02 167.31
  Q 346.68 164.71 350.15 161.88
  Q 351.49 160.80 353.63 160.14
  Q 357.80 158.86 360.69 155.44
  A 1.34 1.32 15.6 0 1 361.54 154.97
  Q 366.24 154.38 369.43 151.13
  C 370.78 149.75 371.84 149.44 373.58 149.19
  C 377.27 148.66 378.46 145.66 381.53 144.54
  C 383.02 144.00 384.57 143.98 385.88 143.07
  Q 388.07 141.57 389.97 139.71
  A 1.57 1.57 0.0 0 1 390.87 139.29
  Q 396.01 138.79 399.31 134.84
  A 1.84 1.81 -74.0 0 1 400.45 134.20
  Q 405.77 133.39 409.33 129.35
  A 1.34 1.31 -71.6 0 1 410.20 128.90
  Q 415.22 128.39 419.23 125.70
  C 422.02 123.84 424.10 123.40 427.13 122.81
  C 431.03 122.05 432.33 118.91 436.63 118.20
  C 441.38 117.42 443.71 113.88 448.70 113.08
  Q 453.99 112.22 458.10 108.60
  A 1.78 1.74 -69.5 0 1 458.97 108.19
  C 462.67 107.60 466.29 107.45 469.58 105.49
  C 471.57 104.29 473.00 103.15 475.40 102.79
  C 478.88 102.26 481.51 102.05 484.73 100.08
  Q 489.13 97.40 494.36 97.04
  C 499.17 96.72 500.80 93.49 505.00 92.70
  C 509.13 91.93 513.72 91.88 517.46 90.01
  C 519.73 88.88 521.38 87.54 524.01 87.28
  C 529.69 86.70 534.41 86.79 539.86 83.98
  C 544.39 81.64 550.74 81.68 555.76 81.16
  C 560.23 80.70 564.04 76.84 567.61 76.83
  C 573.24 76.80 580.87 77.23 586.21 75.61
  C 589.16 74.71 592.82 71.92 596.49 71.59
  Q 603.58 70.94 616.68 71.46
  Z"
/>
<path fill="#feeff4" d="
  M 807.64 76.39
  Q 814.31 76.20 820.51 76.68
  C 825.75 77.08 828.90 80.55 833.72 81.09
  C 838.78 81.66 845.25 81.27 849.88 83.33
  C 852.25 84.39 854.27 85.70 856.82 86.16
  Q 860.74 86.86 864.69 87.12
  C 869.83 87.45 872.57 90.88 877.51 91.58
  C 880.65 92.02 884.97 91.81 887.70 93.33
  C 890.98 95.15 892.29 96.64 896.45 96.87
  C 901.94 97.16 903.87 98.47 907.74 100.58
  C 912.26 103.04 916.94 101.89 921.47 104.75
  C 923.73 106.18 925.11 106.99 928.02 107.30
  Q 932.19 107.73 935.61 110.09
  C 938.27 111.92 940.12 112.48 943.03 112.88
  C 947.33 113.47 948.50 116.62 952.31 117.34
  Q 955.74 117.99 959.13 118.66
  A 1.61 1.57 72.2 0 1 959.96 119.10
  C 962.30 121.47 963.96 122.68 967.54 122.98
  C 971.24 123.28 972.06 125.67 974.75 127.63
  A 1.71 1.65 62.7 0 0 975.70 127.95
  C 980.27 128.05 981.30 129.95 984.48 132.52
  Q 984.88 132.85 985.40 132.92
  Q 990.30 133.56 994.24 136.38
  C 997.02 138.36 1000.13 138.83 1002.98 140.63
  Q 1006.18 142.64 1007.74 143.37
  Q 1015.49 147.02 1022.44 152.00
  Q 1023.87 153.03 1026.40 153.94
  Q 1030.15 155.28 1032.76 158.44
  A 1.34 1.33 -15.0 0 0 1033.58 158.91
  Q 1035.42 159.20 1037.11 159.64
  C 1040.30 160.48 1040.98 163.54 1044.31 164.52
  C 1045.90 165.00 1047.05 165.07 1048.38 166.20
  Q 1052.59 169.77 1056.65 173.48
  C 1058.23 174.93 1059.35 175.17 1061.40 175.37
  A 1.50 1.50 0.0 0 1 1062.24 175.74
  Q 1067.97 180.88 1074.57 184.75
  C 1078.85 187.27 1082.10 190.82 1086.05 193.79
  C 1088.45 195.60 1091.62 195.83 1093.62 198.19
  Q 1100.51 206.29 1109.73 211.50
  Q 1112.46 213.05 1114.27 215.00
  C 1119.56 220.67 1125.13 227.00 1131.47 230.78
  Q 1137.35 234.29 1141.04 238.20
  Q 1164.40 262.98 1187.57 287.93
  Q 1196.64 297.71 1201.88 303.78
  Q 1204.53 306.85 1206.87 311.23
  C 1211.35 319.62 1218.11 325.79 1224.02 333.08
  C 1225.62 335.05 1225.48 337.98 1226.60 339.36
  Q 1232.33 346.39 1238.11 353.35
  C 1240.22 355.89 1239.65 358.54 1241.52 360.91
  Q 1245.12 365.48 1248.67 370.07
  C 1250.02 371.82 1250.05 374.52 1251.61 376.65
  Q 1254.86 381.12 1258.07 385.61
  C 1259.46 387.55 1259.45 389.35 1260.07 391.58
  A 1.76 1.71 -76.7 0 0 1260.55 392.38
  Q 1263.40 395.02 1264.79 398.57
  Q 1266.16 402.04 1267.07 403.42
  Q 1270.22 408.18 1273.66 412.71
  A 1.30 1.28 -63.6 0 1 1273.93 413.53
  Q 1273.89 418.59 1277.92 421.56
  A 1.10 1.09 10.6 0 1 1278.34 422.17
  C 1279.04 424.62 1278.82 427.17 1280.24 429.17
  C 1282.06 431.74 1284.22 432.54 1283.91 436.56
  Q 1283.87 437.02 1284.06 437.44
  L 1285.15 439.96
  A 0.89 0.88 -82.8 0 0 1285.42 440.31
  Q 1289.34 443.29 1288.95 448.29
  A 1.16 1.13 -64.1 0 0 1289.22 449.11
  L 1293.30 453.84
  A 0.69 0.64 -69.7 0 1 1293.46 454.22
  L 1293.89 459.07
  A 0.94 0.90 24.3 0 0 1294.10 459.59
  L 1298.00 464.45
  A 1.60 1.59 -64.7 0 1 1298.36 465.46
  Q 1298.36 470.21 1300.89 473.96
  C 1303.26 477.49 1303.69 480.29 1303.69 484.28
  A 1.54 1.53 27.5 0 0 1303.99 485.22
  C 1306.64 488.85 1308.07 489.36 1308.42 494.24
  C 1308.70 498.19 1312.22 499.78 1312.83 503.59
  Q 1313.39 507.09 1313.23 510.61
  A 1.21 1.20 -62.5 0 0 1313.46 511.35
  L 1317.56 516.80
  A 1.07 1.03 -66.3 0 1 1317.77 517.37
  C 1318.00 520.69 1317.67 525.46 1319.45 528.30
  C 1320.44 529.88 1321.92 531.12 1322.34 532.91
  Q 1323.00 535.77 1322.93 540.02
  C 1322.86 544.77 1327.55 546.26 1327.64 551.21
  C 1327.72 555.32 1327.70 559.50 1330.00 563.10
  C 1333.57 568.70 1332.36 573.42 1333.07 579.70
  C 1333.61 584.38 1337.44 586.72 1337.53 591.68
  C 1337.67 598.88 1336.11 605.65 1341.18 612.09
  Q 1342.53 613.80 1342.38 618.99
  Q 1342.04 629.86 1342.98 640.69
  Q 1343.02 641.19 1343.34 641.59
  C 1347.87 647.31 1347.32 651.43 1347.36 660.02
  Q 1347.43 675.23 1347.11 690.51
  Q 1345.76 666.57 1343.02 642.89
  C 1342.80 640.97 1342.24 639.16 1342.06 637.34
  Q 1340.84 624.82 1338.02 608.99
  C 1312.09 463.62 1240.14 332.98 1131.87 233.48
  C 1050.38 158.59 949.27 107.55 841.21 83.34
  Q 827.50 80.26 807.64 76.39
  Z"
/>
<path fill="#feeff4" d="
  M 1063.06 850.79
  Q 1017.33 893.06 961.17 918.90
  Q 947.03 925.41 929.46 932.42
  Q 927.73 933.11 927.02 935.58
  A 1.27 1.25 41.0 0 0 927.09 936.46
  Q 927.95 938.26 929.66 939.32
  Q 988.77 975.84 1056.60 990.82
  C 1061.87 991.98 1067.04 994.34 1065.84 1000.39
  Q 1065.33 1002.95 1061.53 1008.36
  Q 1056.59 1015.38 1051.85 1022.25
  Q 1047.26 1027.58 1044.17 1033.53
  L 1034.90 1046.80
  Q 1030.18 1052.40 1026.71 1058.75
  Q 1018.55 1070.27 1010.47 1082.07
  C 1006.58 1087.76 1002.33 1095.52 994.58 1092.19
  C 915.19 1058.03 843.05 1006.48 786.07 940.96
  Q 783.44 937.94 780.79 935.33
  A 2.86 2.86 0.0 0 0 775.93 937.33
  Q 775.01 1013.30 774.07 1089.86
  C 774.01 1095.47 772.48 1098.67 766.49 1098.72
  Q 724.12 1099.05 681.75 1099.19
  Q 673.81 1099.22 673.51 1092.00
  Q 668.56 976.19 673.16 848.76
  Q 673.43 841.04 672.27 837.47
  C 668.12 824.76 655.57 824.94 645.05 828.53
  C 640.97 829.92 639.12 831.82 639.82 836.25
  Q 641.66 847.84 643.51 859.47
  Q 644.54 865.90 643.96 868.61
  Q 642.86 873.74 638.06 876.39
  Q 538.85 931.13 425.00 963.19
  Q 406.78 968.32 388.46 973.04
  L 381.69 974.61
  A 1.76 1.75 60.6 0 1 380.06 974.15
  Q 357.45 951.79 366.01 920.00
  C 367.30 915.22 372.08 913.72 377.29 912.34
  Q 456.84 891.19 528.68 848.89
  C 531.07 847.49 532.76 846.10 533.10 843.20
  C 534.13 834.39 523.95 835.42 518.75 835.87
  Q 506.77 836.90 494.75 837.13
  Q 494.63 837.14 494.56 837.30
  Q 494.47 837.49 494.26 837.50
  Q 470.09 838.70 445.92 840.08
  Q 445.85 840.08 442.11 840.60
  C 436.35 841.40 433.06 836.61 431.53 831.44
  Q 426.35 813.91 421.15 796.39
  C 420.19 793.16 419.28 789.34 420.25 786.15
  Q 421.90 780.70 427.84 780.07
  Q 499.50 772.48 587.00 770.22
  C 591.86 770.09 600.51 768.86 605.47 766.69
  Q 626.08 757.63 619.38 732.70
  Q 618.09 727.91 614.66 725.92
  Q 612.63 724.74 608.64 725.07
  Q 481.99 735.34 359.00 767.21
  C 352.45 768.90 350.54 765.14 348.52 759.53
  Q 335.49 723.44 322.72 687.25
  C 321.43 683.61 319.60 678.57 325.51 677.78
  Q 362.49 672.84 399.44 667.68
  Q 408.18 666.45 408.08 656.75
  Q 407.27 577.25 407.32 497.75
  C 407.33 492.44 406.70 486.38 400.50 486.36
  Q 381.71 486.33 362.92 486.30
  C 358.41 486.30 356.25 484.77 354.22 481.04
  C 348.34 470.28 344.63 457.47 347.93 445.73
  C 353.34 426.44 372.98 422.20 390.72 421.67
  Q 409.37 421.11 415.50 421.08
  Q 491.00 420.71 566.50 420.27
  C 609.80 420.01 653.19 420.76 696.50 421.05
  Q 715.35 421.18 752.77 422.58
  Q 759.68 422.84 764.07 424.26
  C 773.06 427.17 781.48 434.29 787.80 437.73
  C 790.74 439.33 794.72 439.55 798.45 439.20
  Q 813.90 437.74 840.51 435.55
  Q 893.92 431.17 945.75 432.55
  Q 956.58 432.84 977.53 435.20
  Q 1003.40 438.11 1025.76 445.00
  C 1058.47 455.08 1082.76 478.29 1072.18 515.50
  Q 1067.73 531.16 1058.68 544.71
  Q 1047.78 561.04 1029.47 582.22
  Q 1020.56 592.53 1015.62 598.07
  Q 1009.94 604.43 1008.75 607.61
  C 1005.38 616.62 1012.06 620.84 1019.30 626.51
  Q 1041.61 643.96 1063.85 661.51
  C 1071.08 667.21 1075.51 673.82 1067.66 681.66
  Q 1035.00 714.25 1002.37 746.87
  C 995.93 753.30 990.48 753.83 984.57 746.18
  Q 961.58 716.46 938.60 686.72
  C 931.92 678.08 922.18 673.75 911.96 679.25
  Q 905.27 682.85 895.70 689.48
  C 894.99 689.97 893.94 690.00 893.17 690.50
  Q 880.26 698.79 867.34 707.07
  Q 867.01 707.29 866.63 707.21
  A 0.71 0.70 34.7 0 0 866.11 707.30
  Q 859.22 711.54 852.54 716.10
  C 849.51 718.16 847.24 721.20 850.55 724.26
  C 852.13 725.72 854.99 725.20 857.10 724.37
  Q 864.69 721.38 872.31 718.46
  Q 882.86 714.41 887.82 714.23
  C 901.22 713.77 906.19 722.44 912.20 734.20
  Q 924.51 758.25 936.60 782.40
  C 941.55 792.31 936.28 803.84 925.00 805.23
  Q 870.10 811.95 815.25 819.06
  Q 812.89 819.37 806.22 820.05
  Q 799.37 820.74 797.27 821.64
  Q 792.61 823.62 792.07 827.85
  C 791.45 832.65 795.42 836.01 798.72 839.28
  Q 820.58 860.89 842.54 882.41
  C 850.05 889.78 853.35 893.84 863.52 889.21
  Q 932.43 857.86 970.55 794.87
  C 975.01 787.51 978.53 781.48 987.14 783.91
  Q 990.15 784.75 994.78 788.53
  Q 1027.81 815.49 1065.28 835.79
  Q 1068.12 837.33 1069.07 839.25
  C 1071.62 844.41 1065.64 847.80 1063.06 850.79
  Z
  M 713.24 502.53
  L 712.69 524.30
  Q 710.59 610.19 709.68 639.75
  C 709.54 644.18 709.87 651.03 715.27 652.24
  Q 719.37 653.16 728.50 653.77
  Q 796.73 658.32 854.62 623.10
  C 862.66 618.21 864.05 612.04 855.81 606.13
  Q 827.53 585.81 799.29 565.46
  C 792.97 560.90 787.11 557.21 793.80 549.59
  Q 807.37 534.14 820.96 518.70
  C 828.15 510.54 838.18 517.25 845.72 520.81
  Q 889.94 541.72 934.02 562.96
  Q 937.04 564.42 938.77 563.76
  Q 975.80 549.59 978.16 510.55
  C 978.58 503.66 976.59 498.75 970.12 496.32
  C 956.21 491.09 942.09 489.07 926.50 489.05
  Q 901.57 489.02 878.25 492.78
  Q 825.58 501.27 773.58 519.88
  C 765.66 522.72 761.93 520.08 759.66 512.14
  Q 757.79 505.61 755.94 499.08
  C 754.10 492.56 753.32 488.05 748.07 485.56
  C 743.06 483.18 732.72 484.42 726.25 484.62
  C 713.39 485.01 713.02 491.57 713.24 502.53
  Z
  M 620.6459 500.5514
  A 10.62 10.62 0.0 0 0 610.0631 489.8944
  L 510.1837 489.5458
  A 10.62 10.62 0.0 0 0 499.5267 500.1286
  L 499.5141 503.7486
  A 10.62 10.62 0.0 0 0 510.0969 514.4056
  L 609.9763 514.7542
  A 10.62 10.62 0.0 0 0 620.6333 504.1714
  L 620.6459 500.5514
  Z
  M 620.7138 568.8514
  A 9.20 9.20 0.0 0 0 611.4658 559.6997
  L 511.9471 560.2207
  A 9.20 9.20 0.0 0 0 502.7954 569.4688
  L 502.8462 579.1686
  A 9.20 9.20 0.0 0 0 512.0942 588.3203
  L 611.6129 587.7993
  A 9.20 9.20 0.0 0 0 620.7646 578.5512
  L 620.7138 568.8514
  Z
  M 625.1933 644.0189
  A 11.48 11.48 0.0 0 0 613.5938 632.6597
  L 514.0992 633.7017
  A 11.48 11.48 0.0 0 0 502.7401 645.3013
  L 502.7667 647.8411
  A 11.48 11.48 0.0 0 0 514.3662 659.2003
  L 613.8608 658.1583
  A 11.48 11.48 0.0 0 0 625.2199 646.5587
  L 625.1933 644.0189
  Z
  M 788.72 683.57
  Q 787.09 680.67 786.11 680.11
  Q 781.42 677.42 779.86 682.13
  Q 775.61 694.97 771.23 707.83
  A 3.39 3.37 6.5 0 1 768.35 710.10
  Q 741.87 712.58 714.99 714.89
  Q 710.56 715.27 710.46 718.99
  Q 710.27 726.80 711.61 746.03
  C 711.82 749.04 712.72 752.30 716.25 751.82
  Q 762.99 745.48 809.66 738.84
  C 813.32 738.32 817.66 736.58 815.37 732.12
  Q 808.32 718.40 788.72 683.57
  Z"
/>
<path fill="#d81552" d="
  M 712.69 524.30
  Q 713.85 513.51 713.24 502.53
  C 713.02 491.57 713.39 485.01 726.25 484.62
  C 732.72 484.42 743.06 483.18 748.07 485.56
  C 753.32 488.05 754.10 492.56 755.94 499.08
  Q 757.79 505.61 759.66 512.14
  C 761.93 520.08 765.66 522.72 773.58 519.88
  Q 825.58 501.27 878.25 492.78
  Q 901.57 489.02 926.50 489.05
  C 942.09 489.07 956.21 491.09 970.12 496.32
  C 976.59 498.75 978.58 503.66 978.16 510.55
  Q 975.80 549.59 938.77 563.76
  Q 937.04 564.42 934.02 562.96
  Q 889.94 541.72 845.72 520.81
  C 838.18 517.25 828.15 510.54 820.96 518.70
  Q 807.37 534.14 793.80 549.59
  C 787.11 557.21 792.97 560.90 799.29 565.46
  Q 827.53 585.81 855.81 606.13
  C 864.05 612.04 862.66 618.21 854.62 623.10
  Q 796.73 658.32 728.50 653.77
  Q 719.37 653.16 715.27 652.24
  C 709.87 651.03 709.54 644.18 709.68 639.75
  Q 710.59 610.19 712.69 524.30
  Z"
/>
<rect fill="#9f113f" x="-60.56" y="-12.43" transform="translate(560.08,502.15) rotate(0.2)" width="121.12" height="24.86" rx="10.62"/>
<path fill="#f80f68" d="
  M 713.24 502.53
  Q 713.85 513.51 712.69 524.30
  L 713.24 502.53
  Z"
/>
<rect fill="#9f113f" x="-58.96" y="-14.05" transform="translate(561.78,574.01) rotate(-0.3)" width="117.92" height="28.10" rx="9.20"/>
<rect fill="#9f113f" x="-61.23" y="-12.75" transform="translate(563.98,645.93) rotate(-0.6)" width="122.46" height="25.50" rx="11.48"/>
<path fill="#9f113f" d="
  M 788.72 683.57
  Q 808.32 718.40 815.37 732.12
  C 817.66 736.58 813.32 738.32 809.66 738.84
  Q 762.99 745.48 716.25 751.82
  C 712.72 752.30 711.82 749.04 711.61 746.03
  Q 710.27 726.80 710.46 718.99
  Q 710.56 715.27 714.99 714.89
  Q 741.87 712.58 768.35 710.10
  A 3.39 3.37 6.5 0 0 771.23 707.83
  Q 775.61 694.97 779.86 682.13
  Q 781.42 677.42 786.11 680.11
  Q 787.09 680.67 788.72 683.57
  Z"
/>
<path fill="#feeff4" d="
  M 1347.15 739.64
  Q 1347.68 759.26 1347.36 778.75
  C 1347.25 785.66 1342.73 790.48 1342.65 798.13
  Q 1342.54 807.45 1342.29 816.76
  C 1342.20 820.08 1339.17 823.18 1338.46 826.89
  C 1337.59 831.48 1337.72 835.78 1337.51 840.40
  C 1337.32 844.73 1336.04 847.39 1333.56 850.62
  A 1.59 1.57 65.7 0 0 1333.24 851.48
  L 1332.46 865.14
  Q 1332.42 865.70 1332.08 866.14
  C 1330.26 868.46 1328.56 870.16 1328.23 873.27
  C 1327.71 878.16 1328.04 880.83 1324.16 885.21
  Q 1322.81 886.73 1323.03 891.25
  Q 1323.17 894.11 1319.89 898.48
  C 1317.94 901.09 1318.96 905.70 1316.97 908.76
  C 1315.65 910.78 1313.61 912.31 1313.53 915.00
  Q 1313.45 918.00 1313.02 920.96
  C 1312.44 925.00 1309.00 926.41 1308.61 930.62
  C 1308.34 933.39 1308.29 935.60 1306.68 938.12
  Q 1304.10 942.15 1303.50 946.89
  C 1303.10 949.95 1302.48 951.07 1300.69 953.22
  C 1298.72 955.60 1298.67 959.15 1298.51 962.25
  C 1298.36 965.23 1296.01 966.86 1294.76 969.42
  C 1293.56 971.88 1293.89 975.39 1293.22 978.26
  C 1292.72 980.36 1291.32 981.85 1290.27 983.76
  C 1288.43 987.12 1289.63 990.36 1287.04 993.73
  C 1283.76 998.00 1284.84 1001.19 1283.38 1005.92
  C 1282.48 1008.86 1279.41 1010.55 1279.33 1014.00
  Q 1279.07 1025.63 1279.02 1037.25
  Q 1279.00 1041.40 1282.21 1045.21
  C 1284.53 1047.98 1283.50 1051.61 1284.69 1054.36
  C 1286.77 1059.13 1289.59 1061.40 1288.82 1067.66
  Q 1282.07 1050.90 1277.18 1033.69
  C 1275.32 1027.14 1274.95 1022.56 1277.06 1016.51
  Q 1302.42 943.44 1327.89 870.40
  Q 1328.97 867.30 1329.67 863.99
  Q 1344.15 802.78 1347.15 739.64
  Z"
/>
<path fill="#fa0a42" d="
  M 1329.67 863.99
  Q 1328.97 867.30 1327.89 870.40
  Q 1302.42 943.44 1277.06 1016.51
  C 1274.95 1022.56 1275.32 1027.14 1277.18 1033.69
  Q 1282.07 1050.90 1288.82 1067.66
  L 1289.86 1070.70
  L 1298.63 1094.60
  Q 1299.39 1095.32 1299.34 1096.18
  L 1303.59 1108.67
  Q 1304.13 1108.98 1303.70 1109.31
  L 1308.58 1124.13
  L 1309.51 1126.61
  L 1312.81 1140.02
  Q 1312.47 1142.22 1313.66 1143.23
  Q 1316.44 1154.80 1317.67 1166.47
  Q 1316.98 1170.05 1318.09 1170.66
  L 1318.57 1179.72
  L 1318.48 1197.50
  Q 1318.85 1198.62 1318.28 1199.67
  Q 1317.58 1202.84 1317.51 1206.06
  Q 1317.38 1211.53 1317.29 1212.46
  C 1310.68 1278.30 1275.98 1337.19 1220.97 1373.90
  Q 1212.80 1379.36 1203.96 1384.42
  Q 1157.98 1410.78 1104.44 1415.37
  Q 1090.16 1416.18 1075.79 1415.33
  Q 1059.04 1413.85 1047.61 1411.42
  C 1001.70 1401.65 960.09 1377.07 923.53 1346.45
  Q 913.93 1338.41 902.77 1335.72
  C 877.35 1329.60 859.19 1351.12 842.75 1363.78
  C 810.57 1388.55 773.01 1406.19 732.99 1413.56
  C 729.28 1414.24 723.99 1414.76 719.52 1415.70
  L 708.95 1416.52
  L 686.04 1416.70
  L 672.28 1415.39
  Q 669.90 1414.82 667.44 1414.58
  C 644.57 1412.27 621.63 1404.55 600.37 1394.11
  Q 572.70 1380.53 549.25 1360.52
  C 542.25 1354.54 534.42 1347.06 527.32 1342.90
  C 511.43 1333.60 493.32 1333.53 476.56 1341.81
  Q 471.22 1344.45 468.50 1346.48
  C 431.60 1374.08 396.32 1402.48 349.27 1410.35
  L 344.70 1411.10
  Q 270.44 1422.01 203.06 1391.98
  C 141.44 1364.51 93.40 1311.67 75.88 1246.21
  C 62.55 1196.40 69.77 1143.84 90.95 1097.31
  Q 100.55 1107.75 112.37 1111.88
  Q 118.38 1113.98 125.73 1113.09
  Q 126.19 1113.03 126.56 1112.76
  Q 127.39 1112.14 128.41 1112.39
  Q 128.93 1112.52 129.43 1112.34
  Q 139.94 1108.58 147.49 1098.98
  Q 155.05 1089.35 159.34 1082.99
  C 162.76 1077.90 168.70 1079.79 173.62 1079.87
  C 176.63 1079.91 179.46 1080.82 182.60 1080.92
  Q 184.94 1080.99 187.84 1081.55
  C 190.49 1082.07 193.00 1081.73 195.68 1082.29
  C 199.03 1082.98 201.98 1082.63 205.51 1083.42
  C 208.19 1084.03 210.69 1083.59 213.42 1084.24
  C 216.17 1084.90 218.81 1084.32 221.39 1085.08
  Q 223.70 1085.76 224.51 1085.79
  Q 231.05 1086.00 233.62 1086.58
  Q 236.41 1087.20 245.22 1087.69
  Q 246.29 1087.75 250.18 1088.41
  Q 251.86 1088.70 253.58 1088.67
  C 256.41 1088.61 258.81 1089.48 261.62 1089.56
  C 266.35 1089.69 270.87 1090.43 275.51 1091.05
  C 277.70 1091.35 281.65 1091.19 284.69 1091.85
  C 287.47 1092.45 290.07 1092.05 292.83 1092.62
  C 296.69 1093.43 300.20 1093.15 304.01 1093.89
  C 305.85 1094.25 308.60 1094.01 310.71 1094.68
  C 313.01 1095.41 314.67 1095.24 316.91 1095.28
  Q 318.05 1095.31 320.49 1095.97
  C 322.83 1096.61 325.59 1095.77 327.74 1095.36
  Q 329.68 1094.99 331.13 1094.37
  Q 335.81 1092.36 340.51 1090.40
  Q 340.79 1090.28 340.93 1090.01
  Q 341.01 1089.87 341.08 1089.73
  Q 341.16 1089.57 341.33 1089.62
  Q 343.02 1090.07 344.41 1089.07
  Q 344.81 1088.77 345.30 1088.84
  Q 347.58 1089.16 349.58 1087.98
  Q 350.03 1087.71 350.55 1087.74
  Q 355.52 1087.98 360.49 1087.83
  Q 362.69 1087.76 365.36 1088.48
  Q 368.15 1089.23 371.30 1089.48
  Q 518.59 1067.21 645.14 989.15
  C 652.47 984.62 657.34 981.09 652.60 972.18
  Q 641.60 951.49 630.29 930.96
  C 627.50 925.90 624.94 920.83 619.96 918.16
  C 610.51 913.10 603.85 917.79 595.92 924.51
  Q 587.18 931.90 578.21 938.95
  Q 576.18 939.65 575.01 941.43
  L 559.73 952.85
  Q 555.16 955.01 551.27 958.52
  Q 538.67 967.10 525.61 975.11
  C 524.50 975.79 523.06 975.99 522.05 976.62
  Q 507.99 985.41 493.10 992.62
  C 482.02 997.99 467.67 1004.62 455.22 1009.58
  Q 416.79 1024.91 375.14 1034.60
  Q 374.39 1030.52 374.30 1026.85
  Q 374.26 1025.03 373.61 1022.21
  C 371.38 1012.61 380.39 1006.39 383.11 997.92
  Q 384.62 993.22 384.80 988.25
  C 384.88 986.28 383.95 984.62 383.76 982.53
  C 383.55 980.17 382.23 978.06 381.74 975.74
  A 0.68 0.67 75.5 0 1 382.20 974.95
  L 388.46 973.04
  Q 406.78 968.32 425.00 963.19
  Q 538.85 931.13 638.06 876.39
  Q 642.86 873.74 643.96 868.61
  Q 644.54 865.90 643.51 859.47
  Q 641.66 847.84 639.82 836.25
  C 639.12 831.82 640.97 829.92 645.05 828.53
  C 655.57 824.94 668.12 824.76 672.27 837.47
  Q 673.43 841.04 673.16 848.76
  Q 668.56 976.19 673.51 1092.00
  Q 673.81 1099.22 681.75 1099.19
  Q 724.12 1099.05 766.49 1098.72
  C 772.48 1098.67 774.01 1095.47 774.07 1089.86
  Q 775.01 1013.30 775.93 937.33
  A 2.86 2.86 0.0 0 1 780.79 935.33
  Q 783.44 937.94 786.07 940.96
  C 843.05 1006.48 915.19 1058.03 994.58 1092.19
  C 1002.33 1095.52 1006.58 1087.76 1010.47 1082.07
  Q 1018.55 1070.27 1026.71 1058.75
  Q 1031.73 1053.24 1034.90 1046.80
  L 1044.17 1033.53
  Q 1048.90 1028.30 1051.85 1022.25
  Q 1056.59 1015.38 1061.53 1008.36
  Q 1065.33 1002.95 1065.84 1000.39
  C 1067.04 994.34 1061.87 991.98 1056.60 990.82
  Q 988.77 975.84 929.66 939.32
  Q 927.95 938.26 927.09 936.46
  A 1.27 1.25 41.0 0 1 927.02 935.58
  Q 927.73 933.11 929.46 932.42
  Q 947.03 925.41 961.17 918.90
  Q 1017.33 893.06 1063.06 850.79
  L 1065.86 849.22
  Q 1066.35 848.94 1066.68 849.41
  L 1077.41 864.71
  Q 1077.69 865.11 1078.15 865.28
  Q 1080.75 866.19 1080.84 864.02
  Q 1081.40 850.49 1085.56 838.94
  Q 1089.20 828.85 1095.49 821.73
  Q 1104.90 811.07 1119.20 806.56
  Q 1121.21 805.93 1123.22 805.32
  Q 1124.81 804.84 1127.32 804.41
  Q 1131.83 803.65 1136.02 801.96
  C 1142.42 799.38 1147.79 793.73 1153.97 789.99
  Q 1166.98 782.11 1180.95 776.21
  Q 1188.20 773.15 1199.80 769.57
  Q 1235.24 758.61 1256.51 753.53
  Q 1259.46 752.83 1264.48 753.18
  Q 1268.80 753.48 1272.12 755.01
  Q 1283.93 760.48 1286.79 774.00
  Q 1288.22 780.73 1289.55 787.45
  C 1289.81 788.77 1289.46 790.28 1290.58 791.77
  A 1.16 1.15 33.6 0 1 1290.78 792.74
  Q 1290.25 794.95 1291.52 796.71
  Q 1291.76 797.05 1291.66 797.46
  Q 1291.12 799.71 1292.39 801.61
  A 1.17 1.15 34.1 0 1 1292.57 802.50
  Q 1292.13 804.72 1293.30 806.57
  Q 1293.58 807.01 1293.48 807.52
  Q 1293.08 809.64 1294.18 811.40
  Q 1294.46 811.85 1294.43 812.37
  Q 1294.39 813.37 1294.68 814.86
  Q 1297.72 830.84 1301.06 846.75
  C 1301.56 849.14 1301.37 850.61 1304.05 851.62
  Q 1307.63 852.97 1312.72 851.80
  Q 1314.49 851.40 1315.94 853.11
  A 1.31 1.30 -66.8 0 1 1316.25 853.90
  C 1316.39 856.77 1316.05 861.80 1317.89 864.12
  A 0.75 0.74 -33.0 0 0 1318.82 864.31
  Q 1320.38 863.49 1322.09 861.80
  Q 1323.19 860.71 1324.48 861.28
  C 1326.74 862.28 1326.08 864.19 1329.67 863.99
  Z"
/>
<path fill="#feeff4" d="
  M 46.76 760.38
  Q 47.52 764.25 47.82 768.11
  C 48.49 776.55 49.70 784.89 50.70 793.30
  Q 51.89 803.34 53.14 810.68
  Q 68.19 899.44 100.28 985.02
  Q 107.73 1004.89 112.94 1017.80
  C 115.04 1023.03 114.99 1027.26 113.27 1032.28
  Q 102.08 1065.04 90.95 1097.31
  C 69.77 1143.84 62.55 1196.40 75.88 1246.21
  C 93.40 1311.67 141.44 1364.51 203.06 1391.98
  Q 270.44 1422.01 344.70 1411.10
  Q 338.92 1415.40 332.01 1415.49
  Q 299.80 1415.90 275.75 1415.53
  Q 273.76 1415.50 271.47 1414.97
  C 268.03 1414.18 265.91 1410.81 262.55 1410.57
  C 256.62 1410.16 250.52 1410.92 244.70 1409.64
  A 1.70 1.66 72.4 0 1 243.88 1409.20
  C 238.92 1404.34 234.80 1405.58 228.52 1404.77
  C 225.64 1404.40 224.36 1403.22 222.10 1401.65
  C 220.16 1400.30 218.37 1400.06 216.16 1399.74
  C 213.54 1399.36 212.10 1398.19 210.02 1396.85
  C 207.63 1395.32 205.22 1395.00 202.53 1394.62
  C 197.66 1393.92 197.14 1389.76 191.32 1389.55
  A 1.48 1.47 -25.0 0 1 190.43 1389.23
  C 188.25 1387.50 186.41 1385.50 183.58 1384.84
  C 179.59 1383.90 178.65 1382.40 175.70 1379.93
  Q 175.31 1379.60 174.81 1379.56
  C 172.69 1379.38 171.32 1379.12 169.70 1377.58
  Q 163.71 1371.86 161.50 1370.24
  C 159.53 1368.80 156.95 1368.93 154.80 1366.81
  Q 148.79 1360.88 142.70 1355.05
  C 140.92 1353.34 137.71 1352.19 135.62 1350.38
  Q 126.52 1342.46 118.70 1333.28
  Q 116.28 1330.44 113.12 1325.12
  Q 108.65 1317.61 102.83 1311.06
  Q 100.93 1308.92 99.61 1306.21
  Q 96.22 1299.25 91.26 1293.34
  A 1.86 1.84 -68.2 0 1 90.84 1292.35
  Q 90.30 1287.25 86.59 1283.68
  A 1.63 1.63 0.0 0 1 86.09 1282.63
  Q 85.66 1277.03 81.76 1273.03
  Q 81.37 1272.63 81.31 1272.07
  C 80.94 1268.74 80.56 1266.08 78.84 1263.01
  Q 76.32 1258.52 76.25 1256.77
  Q 76.01 1250.69 74.37 1247.48
  C 72.15 1243.13 71.26 1241.50 71.13 1236.32
  C 71.00 1231.01 71.02 1225.70 68.87 1220.70
  Q 66.89 1216.10 66.58 1211.51
  Q 65.44 1194.81 66.81 1176.47
  Q 67.02 1173.67 68.26 1170.73
  C 71.31 1163.44 70.90 1156.00 71.32 1148.36
  C 71.44 1146.02 74.30 1143.15 75.06 1140.14
  C 75.34 1139.03 75.68 1137.75 75.69 1136.57
  Q 75.76 1128.70 80.18 1122.13
  A 1.55 1.51 62.1 0 0 80.44 1121.24
  Q 80.35 1115.34 84.50 1111.22
  A 1.80 1.80 0.0 0 0 85.03 1110.13
  Q 85.79 1103.30 89.63 1097.61
  A 1.91 1.91 0.0 0 0 89.97 1096.59
  Q 90.18 1090.57 93.41 1085.72
  C 95.23 1082.99 95.24 1080.42 95.76 1077.40
  C 96.47 1073.27 99.43 1070.98 100.02 1066.89
  C 100.47 1063.77 100.95 1061.61 102.57 1058.59
  Q 104.50 1055.02 105.21 1051.03
  Q 105.71 1048.18 106.71 1046.45
  C 107.84 1044.47 109.19 1043.02 109.50 1040.66
  Q 110.33 1034.46 111.44 1028.32
  Q 111.89 1025.79 111.39 1023.20
  Q 110.31 1017.66 109.70 1012.10
  Q 109.52 1010.45 106.22 1006.92
  A 1.43 1.42 21.8 0 1 105.83 1006.02
  Q 105.45 1001.04 102.83 996.97
  Q 101.30 994.58 100.87 992.78
  C 100.17 989.77 100.19 987.22 98.44 984.48
  Q 95.51 979.87 95.01 974.29
  A 1.76 1.70 25.6 0 0 94.69 973.43
  Q 90.90 968.12 90.26 961.75
  C 89.83 957.56 86.63 955.96 86.18 952.13
  Q 85.72 948.13 85.14 944.18
  A 1.80 1.69 -71.6 0 0 84.74 943.31
  Q 80.66 938.68 80.55 932.58
  Q 80.50 929.56 79.84 928.05
  C 78.88 925.83 77.18 924.09 76.65 921.85
  C 75.92 918.82 76.28 915.41 75.22 912.57
  C 74.00 909.27 71.43 907.62 71.36 903.73
  Q 71.25 897.55 68.64 892.05
  Q 67.16 888.91 66.83 886.78
  C 66.23 882.81 66.62 878.38 65.05 874.86
  C 63.98 872.46 62.32 870.66 61.91 868.05
  C 61.02 862.50 62.12 856.64 59.10 851.28
  C 54.51 843.12 58.29 833.64 54.32 826.82
  Q 51.71 822.34 51.59 817.75
  C 51.39 810.21 52.16 801.08 49.69 796.40
  Q 47.02 791.33 46.80 786.89
  Q 46.50 781.10 46.76 760.38
  Z"
/>
<path fill="#feeff4" d="
  M 371.30 1089.48
  C 364.81 1077.87 355.85 1058.55 361.58 1045.79
  Q 365.30 1037.50 375.14 1034.60
  Q 416.79 1024.91 455.22 1009.58
  C 467.67 1004.62 482.02 997.99 493.10 992.62
  Q 507.99 985.41 522.05 976.62
  C 523.06 975.99 524.50 975.79 525.61 975.11
  Q 538.67 967.10 551.27 958.52
  L 559.73 952.85
  L 575.01 941.43
  Q 576.85 940.83 578.21 938.95
  Q 587.18 931.90 595.92 924.51
  C 603.85 917.79 610.51 913.10 619.96 918.16
  C 624.94 920.83 627.50 925.90 630.29 930.96
  Q 641.60 951.49 652.60 972.18
  C 657.34 981.09 652.47 984.62 645.14 989.15
  Q 518.59 1067.21 371.30 1089.48
  Z"
/>
<path fill="#f80f68" d="
  M 578.21 938.95
  Q 576.85 940.83 575.01 941.43
  Q 576.18 939.65 578.21 938.95
  Z"
/>
<path fill="#f80f68" d="
  M 559.73 952.85
  L 551.27 958.52
  Q 555.16 955.01 559.73 952.85
  Z"
/>
<path fill="#f80f68" d="
  M 1051.85 1022.25
  Q 1048.90 1028.30 1044.17 1033.53
  Q 1047.26 1027.58 1051.85 1022.25
  Z"
/>
<path fill="#f80f68" d="
  M 1034.90 1046.80
  Q 1031.73 1053.24 1026.71 1058.75
  Q 1030.18 1052.40 1034.90 1046.80
  Z"
/>
<path fill="#feeff4" d="
  M 1289.86 1070.70
  C 1295.23 1074.29 1292.65 1079.13 1296.02 1084.11
  Q 1299.19 1088.79 1298.63 1094.60
  L 1289.86 1070.70
  Z"
/>
<path fill="#feeff4" d="
  M 1299.34 1096.18
  C 1303.86 1099.48 1303.79 1103.14 1303.59 1108.67
  L 1299.34 1096.18
  Z"
/>
<path fill="#feeff4" d="
  M 1303.70 1109.31
  L 1304.46 1111.21
  A 0.79 0.71 -82.8 0 0 1304.67 1111.51
  C 1309.03 1115.45 1308.53 1119.11 1308.58 1124.13
  L 1303.70 1109.31
  Z"
/>
<path fill="#feeff4" d="
  M 1309.51 1126.61
  C 1313.57 1130.28 1313.78 1134.60 1313.11 1139.99
  Q 1313.03 1140.24 1312.81 1140.02
  L 1309.51 1126.61
  Z"
/>
<path fill="#f80f68" d="
  M 1312.81 1140.02
  Q 1313.03 1140.24 1313.11 1139.99
  L 1313.98 1143.22
  Q 1313.82 1143.23 1313.66 1143.23
  Q 1312.47 1142.22 1312.81 1140.02
  Z"
/>
<path fill="#feeff4" d="
  M 1313.66 1143.23
  Q 1313.82 1143.23 1313.98 1143.22
  Q 1317.34 1146.77 1317.67 1148.75
  Q 1318.63 1154.47 1318.09 1168.00
  Q 1317.43 1168.37 1317.67 1166.47
  Q 1316.44 1154.80 1313.66 1143.23
  Z"
/>
<path fill="#f80f68" d="
  M 1317.67 1166.47
  Q 1317.43 1168.37 1318.09 1168.00
  L 1318.09 1170.66
  Q 1316.98 1170.05 1317.67 1166.47
  Z"
/>
<path fill="#feeff4" d="
  M 1318.57 1179.72
  Q 1320.59 1188.52 1318.48 1197.50
  L 1318.57 1179.72
  Z"
/>
<path fill="#feeff4" d="
  M 1318.28 1199.67
  Q 1318.26 1214.49 1318.21 1229.00
  Q 1318.21 1230.24 1317.65 1232.81
  C 1316.88 1236.29 1313.64 1239.26 1313.54 1242.49
  C 1313.40 1246.78 1313.83 1251.42 1311.15 1255.22
  C 1307.47 1260.43 1309.79 1265.82 1306.11 1270.95
  C 1303.49 1274.61 1303.94 1278.61 1301.77 1282.50
  C 1299.47 1286.60 1297.94 1291.24 1295.89 1295.06
  C 1292.75 1300.92 1290.24 1307.28 1285.94 1312.47
  C 1283.39 1315.56 1281.47 1318.13 1279.40 1322.06
  Q 1277.25 1326.14 1274.05 1330.04
  Q 1263.23 1343.27 1251.05 1354.19
  C 1245.44 1359.21 1236.65 1365.39 1229.49 1371.76
  C 1227.40 1373.62 1224.35 1374.32 1222.14 1375.78
  Q 1208.07 1385.13 1193.06 1392.87
  C 1189.06 1394.93 1184.91 1395.10 1180.82 1397.69
  C 1177.11 1400.04 1173.16 1400.72 1169.40 1403.08
  C 1165.89 1405.30 1161.42 1405.30 1157.45 1405.93
  C 1153.91 1406.49 1151.05 1409.78 1148.02 1409.98
  C 1141.89 1410.40 1136.61 1409.98 1131.33 1414.15
  Q 1129.79 1415.37 1125.00 1415.54
  Q 1114.82 1415.89 1104.44 1415.37
  Q 1157.98 1410.78 1203.96 1384.42
  Q 1212.80 1379.36 1220.97 1373.90
  C 1275.98 1337.19 1310.68 1278.30 1317.29 1212.46
  Q 1317.38 1211.53 1317.51 1206.06
  Q 1317.58 1202.84 1318.28 1199.67
  Z"
/>
<path fill="#feeff4" d="
  M 1075.79 1415.33
  Q 1067.88 1415.83 1060.08 1415.50
  C 1056.47 1415.35 1052.58 1415.44 1049.64 1413.65
  Q 1045.59 1411.19 1042.98 1410.89
  Q 1038.87 1410.41 1034.75 1410.22
  C 1031.37 1410.07 1028.24 1407.27 1025.29 1406.47
  Q 1020.23 1405.11 1014.92 1404.98
  A 1.58 1.55 -23.4 0 1 1013.91 1404.59
  Q 1009.52 1400.74 1003.75 1399.85
  Q 1003.17 1399.76 1002.72 1399.38
  Q 999.38 1396.60 995.36 1395.23
  Q 991.83 1394.03 990.05 1393.01
  Q 983.25 1389.09 976.28 1385.54
  C 973.32 1384.03 969.97 1381.55 966.44 1380.10
  C 962.77 1378.61 960.37 1376.60 957.02 1374.85
  C 952.82 1372.64 949.28 1369.47 945.60 1366.57
  C 943.77 1365.13 941.34 1364.37 939.78 1363.21
  Q 933.25 1358.36 927.53 1352.61
  Q 925.53 1350.61 923.08 1349.41
  Q 918.01 1346.92 913.10 1344.13
  Q 911.98 1343.49 909.38 1341.25
  C 907.49 1339.62 906.40 1338.77 903.68 1338.79
  C 897.14 1338.85 891.32 1338.02 885.74 1339.12
  Q 883.25 1339.60 880.31 1341.51
  Q 875.47 1344.65 870.72 1347.92
  C 860.27 1355.12 851.74 1364.35 841.06 1371.39
  C 833.59 1376.31 828.12 1379.05 822.29 1382.92
  C 818.33 1385.55 813.82 1388.29 809.64 1389.87
  C 805.16 1391.57 801.44 1394.06 796.71 1395.28
  C 792.47 1396.37 789.13 1398.73 784.88 1399.64
  Q 779.30 1400.84 774.79 1404.46
  A 1.67 1.66 -66.5 0 1 773.88 1404.82
  Q 769.87 1405.19 766.06 1406.12
  C 763.05 1406.85 760.88 1409.44 757.76 1409.95
  Q 755.39 1410.34 746.99 1410.93
  Q 745.26 1411.05 741.29 1414.31
  Q 740.06 1415.32 735.75 1415.49
  Q 727.66 1415.81 719.52 1415.70
  C 723.99 1414.76 729.28 1414.24 732.99 1413.56
  C 773.01 1406.19 810.57 1388.55 842.75 1363.78
  C 859.19 1351.12 877.35 1329.60 902.77 1335.72
  Q 913.93 1338.41 923.53 1346.45
  C 960.09 1377.07 1001.70 1401.65 1047.61 1411.42
  Q 1059.04 1413.85 1075.79 1415.33
  Z"
/>
<path fill="#feeff4" d="
  M 672.28 1415.39
  Q 659.76 1415.86 653.74 1415.28
  C 649.98 1414.92 647.46 1411.76 644.03 1410.91
  C 640.47 1410.02 636.43 1410.68 633.43 1409.57
  C 631.14 1408.72 629.21 1406.98 627.12 1406.29
  C 623.69 1405.16 618.99 1405.54 616.12 1403.59
  Q 611.18 1400.23 605.14 1399.83
  Q 604.63 1399.80 604.21 1399.51
  C 601.69 1397.76 600.22 1396.33 597.01 1395.50
  C 593.07 1394.48 591.45 1391.75 587.95 1390.59
  C 586.05 1389.96 584.51 1389.56 582.87 1388.20
  C 579.69 1385.57 575.84 1384.28 572.90 1381.97
  Q 570.01 1379.69 567.17 1377.36
  C 564.34 1375.03 561.21 1374.59 558.56 1372.52
  Q 552.81 1368.02 547.78 1362.75
  C 542.83 1357.57 536.31 1354.68 530.96 1349.77
  C 528.35 1347.36 526.57 1345.08 522.92 1344.07
  Q 517.84 1342.66 513.20 1340.22
  Q 511.21 1339.17 509.17 1339.10
  C 499.67 1338.76 493.37 1337.52 485.95 1341.86
  C 482.40 1343.94 478.40 1345.32 475.14 1347.36
  C 464.68 1353.91 455.68 1362.28 445.79 1369.72
  C 442.08 1372.50 437.07 1374.89 432.96 1377.97
  C 429.64 1380.48 426.00 1382.78 422.35 1384.49
  Q 413.64 1388.56 405.26 1393.25
  C 401.57 1395.32 397.69 1395.63 394.13 1397.73
  C 390.91 1399.65 387.26 1400.59 384.19 1402.30
  C 382.01 1403.51 380.37 1404.66 377.78 1404.99
  C 373.53 1405.54 369.78 1405.57 365.82 1408.04
  C 361.31 1410.84 354.42 1410.63 349.27 1410.35
  C 396.32 1402.48 431.60 1374.08 468.50 1346.48
  Q 471.22 1344.45 476.56 1341.81
  C 493.32 1333.53 511.43 1333.60 527.32 1342.90
  C 534.42 1347.06 542.25 1354.54 549.25 1360.52
  Q 572.70 1380.53 600.37 1394.11
  C 621.63 1404.55 644.57 1412.27 667.44 1414.58
  Q 669.90 1414.82 672.28 1415.39
  Z"
/>
<path fill="#feeff4" d="
  M 708.95 1416.52
  Q 696.97 1420.53 686.04 1416.70
  L 708.95 1416.52
  Z"
/>
</svg>
