<?xml version="1.0" encoding="UTF-8" standalone="no"?>
<svg
   version="1.1"
   viewBox="0.00 0.00 95.00 92.00"
   id="svg26"
   sodipodi:docname="屏幕截图 2023-10-21 190552.svg"
   inkscape:version="1.2.2 (732a01da63, 2022-12-09)"
   xmlns:inkscape="http://www.inkscape.org/namespaces/inkscape"
   xmlns:sodipodi="http://sodipodi.sourceforge.net/DTD/sodipodi-0.dtd"
   xmlns="http://www.w3.org/2000/svg"
   xmlns:svg="http://www.w3.org/2000/svg">
  <defs
     id="defs30" />
  <sodipodi:namedview
     id="namedview28"
     pagecolor="#ffffff"
     bordercolor="#000000"
     borderopacity="0.25"
     inkscape:showpageshadow="2"
     inkscape:pageopacity="0.0"
     inkscape:pagecheckerboard="0"
     inkscape:deskcolor="#d1d1d1"
     showgrid="false"
     inkscape:zoom="11.163043"
     inkscape:cx="47.522882"
     inkscape:cy="46"
     inkscape:window-width="3840"
     inkscape:window-height="2071"
     inkscape:window-x="-9"
     inkscape:window-y="-9"
     inkscape:window-maximized="1"
     inkscape:current-layer="svg26" />
  <g
     stroke-width="2.00"
     fill="none"
     stroke-linecap="butt"
     id="g12">
    <path
       stroke="#fea882"
       vector-effect="non-scaling-stroke"
       d="   M 88.9178 49.0837   A 39.75 39.62 -0.6 0 0 48.7551 9.8822   A 39.75 39.62 -0.6 0 0 9.4222 49.9163   A 39.75 39.62 -0.6 0 0 49.5849 89.1178   A 39.75 39.62 -0.6 0 0 88.9178 49.0837"
       id="path2" />
    <path
       stroke="#fea882"
       vector-effect="non-scaling-stroke"
       d="   M 52.57 53.24   C 54.67 49.57 57.54 48.97 61.51 48.56   C 64.14 48.29 65.42 46.94 64.32 44.36   A 1.06 1.04 -4.9 0 0 63.59 43.76   Q 60.93 43.13 58.22 43.67   C 56.01 44.12 54.44 43.51 54.60 41.04   Q 54.63 40.63 55.02 40.49   L 64.04 37.38   A 1.37 1.34 2.5 0 0 64.82 36.68   L 66.90 32.40   Q 67.15 31.89 66.58 31.81   Q 60.88 31.07 56.18 34.23   A 0.59 0.58 -15.5 0 1 55.27 33.72   C 55.49 28.85 50.80 27.55 46.83 27.65   Q 46.18 27.67 46.26 28.32   Q 46.87 32.79 50.62 35.12   A 0.40 0.40 0.0 0 1 50.48 35.85   Q 44.87 36.85 39.53 35.17   A 1.75 1.75 0.0 0 0 37.26 36.98   Q 37.42 38.93 38.57 40.44   Q 38.87 40.84 38.70 41.31   Q 35.14 50.87 31.87 60.51   Q 30.38 64.89 25.70 67.61   Q 25.30 67.84 25.39 68.31   C 26.20 72.28 30.67 71.86 33.12 69.65   Q 37.58 65.64 37.37 59.65   Q 37.33 58.45 38.14 59.34   Q 39.55 60.86 41.55 61.58   A 1.10 1.10 0.0 0 1 42.25 62.36   Q 43.27 66.53 47.35 67.70   Q 47.93 67.87 48.23 67.34   L 48.71 66.46   Q 48.96 66.02 49.47 65.95   Q 56.70 65.01 63.74 63.05   C 64.93 62.72 66.18 62.66 66.40 61.11   Q 66.96 57.14 67.87 53.14   A 1.02 0.99 31.4 0 0 67.64 52.26   L 66.00 50.38   Q 65.70 50.03 65.24 50.15   Q 62.76 50.81 61.06 52.73   Q 60.78 53.05 60.36 53.09   L 52.91 53.77   Q 52.23 53.83 52.57 53.24"
       id="path4" />
    <path
       stroke="#eba082"
       vector-effect="non-scaling-stroke"
       d="   M 42.21 53.47   C 42.16 51.21 43.18 47.66 46.13 48.64   Q 46.61 48.80 47.03 48.51   Q 50.16 46.29 51.58 42.72   Q 51.82 42.11 51.18 41.94   C 49.34 41.46 48.16 41.91 46.85 43.47   C 43.90 46.98 40.61 48.29 39.61 53.78   Q 39.48 54.46 40.17 54.37   L 41.61 54.18   Q 42.22 54.09 42.21 53.47"
       id="path6" />
    <path
       stroke="#eba082"
       vector-effect="non-scaling-stroke"
       d="   M 49.21 53.86   L 47.62 49.67   A 0.14 0.14 0.0 0 0 47.44 49.59   L 47.38 49.61   A 2.24 2.09 69.3 0 0 46.21 52.45   L 46.31 52.71   A 2.24 2.09 69.3 0 0 49.06 54.06   L 49.13 54.04   A 0.14 0.14 0.0 0 0 49.21 53.86"
       id="path8" />
    <path
       stroke="#eba082"
       vector-effect="non-scaling-stroke"
       d="   M 61.76 59.91   L 61.34 58.00   A 0.58 0.58 0.0 0 0 60.64 57.56   L 56.25 58.52   A 9.02 0.93 -12.4 0 0 47.64 61.37   L 47.91 62.60   A 9.02 0.93 -12.4 0 0 56.92 61.57   L 61.31 60.60   A 0.58 0.58 0.0 0 0 61.76 59.91"
       id="path10" />
  </g>
  <path
     fill="#fd5105"
     d="   M 88.9178 49.0837   A 39.75 39.62 -0.6 0 1 49.5849 89.1178   A 39.75 39.62 -0.6 0 1 9.4222 49.9163   A 39.75 39.62 -0.6 0 1 48.7551 9.8822   A 39.75 39.62 -0.6 0 1 88.9178 49.0837   Z   M 52.57 53.24   C 54.67 49.57 57.54 48.97 61.51 48.56   C 64.14 48.29 65.42 46.94 64.32 44.36   A 1.06 1.04 -4.9 0 0 63.59 43.76   Q 60.93 43.13 58.22 43.67   C 56.01 44.12 54.44 43.51 54.60 41.04   Q 54.63 40.63 55.02 40.49   L 64.04 37.38   A 1.37 1.34 2.5 0 0 64.82 36.68   L 66.90 32.40   Q 67.15 31.89 66.58 31.81   Q 60.88 31.07 56.18 34.23   A 0.59 0.58 -15.5 0 1 55.27 33.72   C 55.49 28.85 50.80 27.55 46.83 27.65   Q 46.18 27.67 46.26 28.32   Q 46.87 32.79 50.62 35.12   A 0.40 0.40 0.0 0 1 50.48 35.85   Q 44.87 36.85 39.53 35.17   A 1.75 1.75 0.0 0 0 37.26 36.98   Q 37.42 38.93 38.57 40.44   Q 38.87 40.84 38.70 41.31   Q 35.14 50.87 31.87 60.51   Q 30.38 64.89 25.70 67.61   Q 25.30 67.84 25.39 68.31   C 26.20 72.28 30.67 71.86 33.12 69.65   Q 37.58 65.64 37.37 59.65   Q 37.33 58.45 38.14 59.34   Q 39.55 60.86 41.55 61.58   A 1.10 1.10 0.0 0 1 42.25 62.36   Q 43.27 66.53 47.35 67.70   Q 47.93 67.87 48.23 67.34   L 48.71 66.46   Q 48.96 66.02 49.47 65.95   Q 56.70 65.01 63.74 63.05   C 64.93 62.72 66.18 62.66 66.40 61.11   Q 66.96 57.14 67.87 53.14   A 1.02 0.99 31.4 0 0 67.64 52.26   L 66.00 50.38   Q 65.70 50.03 65.24 50.15   Q 62.76 50.81 61.06 52.73   Q 60.78 53.05 60.36 53.09   L 52.91 53.77   Q 52.23 53.83 52.57 53.24   Z"
     id="path16" />
  <path
     fill="#ffffff"
     d="   M 52.91 53.77   L 60.36 53.09   Q 60.78 53.05 61.06 52.73   Q 62.76 50.81 65.24 50.15   Q 65.70 50.03 66.00 50.38   L 67.64 52.26   A 1.02 0.99 31.4 0 1 67.87 53.14   Q 66.96 57.14 66.40 61.11   C 66.18 62.66 64.93 62.72 63.74 63.05   Q 56.70 65.01 49.47 65.95   Q 48.96 66.02 48.71 66.46   L 48.23 67.34   Q 47.93 67.87 47.35 67.70   Q 43.27 66.53 42.25 62.36   A 1.10 1.10 0.0 0 0 41.55 61.58   Q 39.55 60.86 38.14 59.34   Q 37.33 58.45 37.37 59.65   Q 37.58 65.64 33.12 69.65   C 30.67 71.86 26.20 72.28 25.39 68.31   Q 25.30 67.84 25.70 67.61   Q 30.38 64.89 31.87 60.51   Q 35.14 50.87 38.70 41.31   Q 38.87 40.84 38.57 40.44   Q 37.42 38.93 37.26 36.98   A 1.75 1.75 0.0 0 1 39.53 35.17   Q 44.87 36.85 50.48 35.85   A 0.40 0.40 0.0 0 0 50.62 35.12   Q 46.87 32.79 46.26 28.32   Q 46.18 27.67 46.83 27.65   C 50.80 27.55 55.49 28.85 55.27 33.72   A 0.59 0.58 -15.5 0 0 56.18 34.23   Q 60.88 31.07 66.58 31.81   Q 67.15 31.89 66.90 32.40   L 64.82 36.68   A 1.37 1.34 2.5 0 1 64.04 37.38   L 55.02 40.49   Q 54.63 40.63 54.60 41.04   C 54.44 43.51 56.01 44.12 58.22 43.67   Q 60.93 43.13 63.59 43.76   A 1.06 1.04 -4.9 0 1 64.32 44.36   C 65.42 46.94 64.14 48.29 61.51 48.56   C 57.54 48.97 54.67 49.57 52.57 53.24   Q 52.23 53.83 52.91 53.77   Z   M 42.21 53.47   C 42.16 51.21 43.18 47.66 46.13 48.64   Q 46.61 48.80 47.03 48.51   Q 50.16 46.29 51.58 42.72   Q 51.82 42.11 51.18 41.94   C 49.34 41.46 48.16 41.91 46.85 43.47   C 43.90 46.98 40.61 48.29 39.61 53.78   Q 39.48 54.46 40.17 54.37   L 41.61 54.18   Q 42.22 54.09 42.21 53.47   Z   M 49.21 53.86   L 47.62 49.67   A 0.14 0.14 0.0 0 0 47.44 49.59   L 47.38 49.61   A 2.24 2.09 69.3 0 0 46.21 52.45   L 46.31 52.71   A 2.24 2.09 69.3 0 0 49.06 54.06   L 49.13 54.04   A 0.14 0.14 0.0 0 0 49.21 53.86   Z   M 61.76 59.91   L 61.34 58.00   A 0.58 0.58 0.0 0 0 60.64 57.56   L 56.25 58.52   A 9.02 0.93 -12.4 0 0 47.64 61.37   L 47.91 62.60   A 9.02 0.93 -12.4 0 0 56.92 61.57   L 61.31 60.60   A 0.58 0.58 0.0 0 0 61.76 59.91   Z"
     id="path18" />
  <path
     fill="#d74105"
     d="   M 46.13 48.64   C 43.18 47.66 42.16 51.21 42.21 53.47   Q 42.22 54.09 41.61 54.18   L 40.17 54.37   Q 39.48 54.46 39.61 53.78   C 40.61 48.29 43.90 46.98 46.85 43.47   C 48.16 41.91 49.34 41.46 51.18 41.94   Q 51.82 42.11 51.58 42.72   Q 50.16 46.29 47.03 48.51   Q 46.61 48.80 46.13 48.64   Z"
     id="path20"
     style="fill:#fd5105;fill-opacity:1" />
  <path
     fill="#d74105"
     d="   M 49.21 53.86   A 0.14 0.14 0.0 0 1 49.13 54.04   L 49.06 54.06   A 2.24 2.09 69.3 0 1 46.31 52.71   L 46.21 52.45   A 2.24 2.09 69.3 0 1 47.38 49.61   L 47.44 49.59   A 0.14 0.14 0.0 0 1 47.62 49.67   L 49.21 53.86   Z"
     id="path22"
     style="fill:#fd5105;fill-opacity:1" />
  <path
     fill="#d74105"
     d="   M 61.76 59.91   A 0.58 0.58 0.0 0 1 61.31 60.60   L 56.92 61.57   A 9.02 0.93 -12.4 0 1 47.91 62.60   L 47.64 61.37   A 9.02 0.93 -12.4 0 1 56.25 58.52   L 60.64 57.56   A 0.58 0.58 0.0 0 1 61.34 58.00   L 61.76 59.91   Z"
     id="path24"
     style="fill:#fd5105;fill-opacity:1" />
</svg>
