<?xml version="1.0" encoding="UTF-8" standalone="no"?>
<svg
   version="1.1"
   viewBox="0.00 0.00 1356.00 1132.00"
   id="svg14"
   sodipodi:docname="屏幕截图 2023-10-21 161517.svg"
   inkscape:version="1.2.2 (732a01da63, 2022-12-09)"
   xmlns:inkscape="http://www.inkscape.org/namespaces/inkscape"
   xmlns:sodipodi="http://sodipodi.sourceforge.net/DTD/sodipodi-0.dtd"
   xmlns="http://www.w3.org/2000/svg"
   xmlns:svg="http://www.w3.org/2000/svg">
  <defs
     id="defs18" />
  <sodipodi:namedview
     id="namedview16"
     pagecolor="#ffffff"
     bordercolor="#000000"
     borderopacity="0.25"
     inkscape:showpageshadow="2"
     inkscape:pageopacity="0.0"
     inkscape:pagecheckerboard="0"
     inkscape:deskcolor="#d1d1d1"
     showgrid="false"
     inkscape:zoom="0.90724382"
     inkscape:cx="678.42843"
     inkscape:cy="566"
     inkscape:window-width="3840"
     inkscape:window-height="2071"
     inkscape:window-x="-9"
     inkscape:window-y="-9"
     inkscape:window-maximized="1"
     inkscape:current-layer="svg14" />
  <g
     stroke-width="2.00"
     fill="none"
     stroke-linecap="butt"
     id="g6">
    <path
       stroke="#fff9f9"
       vector-effect="non-scaling-stroke"
       d="   M 1227.87 474.88   Q 1225.20 453.81 1216.13 407.51   C 1210.60 379.30 1203.21 350.39 1191.04 323.78   C 1177.58 294.34 1157.76 268.92 1132.56 248.67   Q 1125.67 243.13 1115.99 237.55   Q 1093.40 224.53 1070.12 212.76   Q 1060.69 207.99 1051.83 204.70   Q 1021.36 193.35 989.49 186.68   C 980.00 184.70 970.06 183.67 960.24 182.59   Q 900.87 176.03 841.45 169.73   Q 829.46 168.46 824.23 166.69   Q 815.57 163.77 808.75 158.01   Q 748.14 106.81 696.35 66.93   C 682.01 55.90 670.25 46.87 652.98 43.17   C 632.28 38.74 610.24 49.01 598.89 66.05   C 591.52 77.12 587.48 93.04 587.03 106.50   Q 586.28 128.59 589.09 154.74   C 589.41 157.76 588.90 160.59 586.67 162.95   C 579.61 170.40 570.28 172.21 560.75 172.76   C 493.91 176.58 427.15 181.99 363.26 203.61   C 293.89 227.09 235.72 273.93 210.42 344.26   C 205.95 356.66 201.80 370.35 198.63 383.77   Q 188.97 424.62 183.61 466.26   Q 181.53 482.39 177.91 515.15   C 170.30 584.04 171.71 656.96 182.04 730.24   Q 187.11 766.23 193.83 801.95   Q 197.14 819.55 197.59 821.58   Q 205.69 858.72 228.24 891.28   C 240.99 909.69 254.43 925.07 270.01 940.13   Q 302.86 971.89 346.23 986.54   Q 348.68 987.36 365.30 992.50   Q 396.61 1002.18 428.37 1010.26   C 457.46 1017.65 483.03 1020.52 514.75 1024.46   C 520.32 1025.16 526.14 1025.26 531.84 1025.57   Q 538.90 1025.97 544.67 1025.99   Q 680.21 1026.59 815.75 1025.70   Q 834.93 1025.58 848.70 1024.40   Q 883.01 1021.46 928.76 1015.90   C 990.76 1008.37 1054.42 997.69 1108.47 965.97   Q 1131.94 952.19 1151.35 930.82   Q 1188.20 890.23 1204.63 838.30   C 1209.06 824.32 1212.86 809.58 1215.99 794.49   Q 1229.38 730.09 1234.68 666.23   Q 1235.89 651.67 1235.96 648.00   Q 1236.66 610.38 1236.16 572.75   Q 1235.96 557.60 1234.79 542.50   Q 1232.16 508.60 1227.87 474.88"
       id="path2" />
    <path
       stroke="#fff9f9"
       vector-effect="non-scaling-stroke"
       d="   M 852.51 670.57   Q 866.51 661.12 881.62 645.39   Q 902.24 623.90 899.02 595.01   Q 897.60 582.26 890.33 569.07   C 889.39 567.35 887.90 565.23 886.67 564.08   Q 873.22 551.47 867.20 547.03   Q 856.56 539.17 831.07 522.94   C 783.59 492.73 734.27 462.08 686.25 435.70   C 679.85 432.17 672.18 428.41 666.26 426.50   Q 638.66 417.59 614.36 429.93   C 600.70 436.86 591.13 448.01 586.59 462.49   Q 584.57 468.96 583.80 481.73   Q 581.95 512.46 581.89 543.25   Q 581.68 635.88 583.19 728.51   C 583.64 756.15 598.24 780.50 624.53 789.87   Q 634.00 793.24 644.13 793.15   Q 659.19 793.02 673.27 786.81   Q 686.35 781.04 692.98 776.75   Q 752.57 738.09 852.51 670.57"
       id="path4" />
  </g>
  <path
     fill="#fff2f2"
     d="   M 1227.87 474.88   Q 1232.16 508.60 1234.79 542.50   Q 1235.96 557.60 1236.16 572.75   Q 1236.66 610.38 1235.96 648.00   Q 1235.89 651.67 1234.68 666.23   Q 1229.38 730.09 1215.99 794.49   C 1212.86 809.58 1209.06 824.32 1204.63 838.30   Q 1188.20 890.23 1151.35 930.82   Q 1131.94 952.19 1108.47 965.97   C 1054.42 997.69 990.76 1008.37 928.76 1015.90   Q 883.01 1021.46 848.70 1024.40   Q 834.93 1025.58 815.75 1025.70   Q 680.21 1026.59 544.67 1025.99   Q 538.90 1025.97 531.84 1025.57   C 526.14 1025.26 520.32 1025.16 514.75 1024.46   C 483.03 1020.52 457.46 1017.65 428.37 1010.26   Q 396.61 1002.18 365.30 992.50   Q 348.68 987.36 346.23 986.54   Q 302.86 971.89 270.01 940.13   C 254.43 925.07 240.99 909.69 228.24 891.28   Q 205.69 858.72 197.59 821.58   Q 197.14 819.55 193.83 801.95   Q 187.11 766.23 182.04 730.24   C 171.71 656.96 170.30 584.04 177.91 515.15   Q 181.53 482.39 183.61 466.26   Q 188.97 424.62 198.63 383.77   C 201.80 370.35 205.95 356.66 210.42 344.26   C 235.72 273.93 293.89 227.09 363.26 203.61   C 427.15 181.99 493.91 176.58 560.75 172.76   C 570.28 172.21 579.61 170.40 586.67 162.95   C 588.90 160.59 589.41 157.76 589.09 154.74   Q 586.28 128.59 587.03 106.50   C 587.48 93.04 591.52 77.12 598.89 66.05   C 610.24 49.01 632.28 38.74 652.98 43.17   C 670.25 46.87 682.01 55.90 696.35 66.93   Q 748.14 106.81 808.75 158.01   Q 815.57 163.77 824.23 166.69   Q 829.46 168.46 841.45 169.73   Q 900.87 176.03 960.24 182.59   C 970.06 183.67 980.00 184.70 989.49 186.68   Q 1021.36 193.35 1051.83 204.70   Q 1060.69 207.99 1070.12 212.76   Q 1093.40 224.53 1115.99 237.55   Q 1125.67 243.13 1132.56 248.67   C 1157.76 268.92 1177.58 294.34 1191.04 323.78   C 1203.21 350.39 1210.60 379.30 1216.13 407.51   Q 1225.20 453.81 1227.87 474.88   Z   M 852.51 670.57   Q 866.51 661.12 881.62 645.39   Q 902.24 623.90 899.02 595.01   Q 897.60 582.26 890.33 569.07   C 889.39 567.35 887.90 565.23 886.67 564.08   Q 873.22 551.47 867.20 547.03   Q 856.56 539.17 831.07 522.94   C 783.59 492.73 734.27 462.08 686.25 435.70   C 679.85 432.17 672.18 428.41 666.26 426.50   Q 638.66 417.59 614.36 429.93   C 600.70 436.86 591.13 448.01 586.59 462.49   Q 584.57 468.96 583.80 481.73   Q 581.95 512.46 581.89 543.25   Q 581.68 635.88 583.19 728.51   C 583.64 756.15 598.24 780.50 624.53 789.87   Q 634.00 793.24 644.13 793.15   Q 659.19 793.02 673.27 786.81   Q 686.35 781.04 692.98 776.75   Q 752.57 738.09 852.51 670.57   Z"
     id="path10" />
  <path
     fill="#ffffff"
     d="   M 852.51 670.57   Q 752.57 738.09 692.98 776.75   Q 686.35 781.04 673.27 786.81   Q 659.19 793.02 644.13 793.15   Q 634.00 793.24 624.53 789.87   C 598.24 780.50 583.64 756.15 583.19 728.51   Q 581.68 635.88 581.89 543.25   Q 581.95 512.46 583.80 481.73   Q 584.57 468.96 586.59 462.49   C 591.13 448.01 600.70 436.86 614.36 429.93   Q 638.66 417.59 666.26 426.50   C 672.18 428.41 679.85 432.17 686.25 435.70   C 734.27 462.08 783.59 492.73 831.07 522.94   Q 856.56 539.17 867.20 547.03   Q 873.22 551.47 886.67 564.08   C 887.90 565.23 889.39 567.35 890.33 569.07   Q 897.60 582.26 899.02 595.01   Q 902.24 623.90 881.62 645.39   Q 866.51 661.12 852.51 670.57   Z"
     id="path12"
     style="fill:#ff0000" />
</svg>
