<?xml version="1.0" encoding="UTF-8" standalone="no"?>
<svg
   version="1.1"
   viewBox="0.00 0.00 92.00 91.00"
   id="svg40"
   sodipodi:docname="购票票.svg"
   inkscape:version="1.2.2 (732a01da63, 2022-12-09)"
   xmlns:inkscape="http://www.inkscape.org/namespaces/inkscape"
   xmlns:sodipodi="http://sodipodi.sourceforge.net/DTD/sodipodi-0.dtd"
   xmlns="http://www.w3.org/2000/svg"
   xmlns:svg="http://www.w3.org/2000/svg">
  <defs
     id="defs44" />
  <sodipodi:namedview
     id="namedview42"
     pagecolor="#ffffff"
     bordercolor="#000000"
     borderopacity="0.25"
     inkscape:showpageshadow="2"
     inkscape:pageopacity="0.0"
     inkscape:pagecheckerboard="0"
     inkscape:deskcolor="#d1d1d1"
     showgrid="false"
     inkscape:zoom="11.285714"
     inkscape:cx="46.031646"
     inkscape:cy="45.5"
     inkscape:window-width="3840"
     inkscape:window-height="2071"
     inkscape:window-x="-9"
     inkscape:window-y="-9"
     inkscape:window-maximized="1"
     inkscape:current-layer="svg40" />
  <g
     stroke-width="2.00"
     fill="none"
     stroke-linecap="butt"
     id="g24">
    <path
       stroke="#fb9693"
       vector-effect="non-scaling-stroke"
       d="   M 7.52 49.95   L 7.45 59.16"
       id="path2" />
    <path
       stroke="#fda49a"
       vector-effect="non-scaling-stroke"
       d="   M 7.45 59.16   Q 8.97 73.07 20.11 81.60"
       id="path4" />
    <path
       stroke="#fb9693"
       vector-effect="non-scaling-stroke"
       d="   M 20.11 81.60   C 36.04 94.02 64.86 92.09 78.26 76.54   C 94.59 57.58 83.23 26.48 59.52 20.38"
       id="path6" />
    <path
       stroke="#fda49a"
       vector-effect="non-scaling-stroke"
       d="   M 59.52 20.38   Q 54.62 18.65 53.61 17.41   Q 47.80 10.21 38.47 9.95   A 0.61 0.60 70.9 0 0 37.99 10.94   C 40.12 13.56 41.42 17.91 37.02 19.05   C 21.68 23.02 9.36 34.06 7.52 49.95"
       id="path8" />
    <path
       stroke="#f83b2e"
       vector-effect="non-scaling-stroke"
       d="   M 59.52 20.38   Q 66.45 23.90 72.26 28.22   Q 76.92 31.67 79.11 36.99   Q 79.91 38.94 78.93 40.17   Q 78.61 40.58 78.10 40.47   Q 76.20 40.04 75.18 41.11"
       id="path10" />
    <path
       stroke="#fca095"
       vector-effect="non-scaling-stroke"
       d="   M 75.18 41.11   Q 62.92 40.10 50.83 42.66   C 48.54 43.14 45.26 43.32 43.49 42.96   Q 27.47 39.66 13.40 41.27   Q 12.88 41.34 12.79 41.86   C 12.15 45.89 14.47 47.40 15.36 50.31   Q 16.24 53.19 16.61 56.05"
       id="path12" />
    <path
       stroke="#f83b2e"
       vector-effect="non-scaling-stroke"
       d="   M 16.61 56.05   Q 16.42 56.48 16.27 55.56   Q 16.24 55.38 16.05 55.38   Q 15.91 55.38 15.76 55.37   Q 15.38 55.36 15.51 55.72   Q 17.17 60.24 17.29 65.05   C 17.31 65.91 17.90 66.66 18.57 67.14   Q 18.91 67.39 18.96 67.81   Q 19.70 73.25 23.74 77.03   A 0.47 0.46 52.9 0 1 23.64 77.78   Q 22.32 78.47 22.55 79.94   A 0.71 0.71 0.0 0 1 21.75 80.75   Q 20.06 80.51 20.11 81.60"
       id="path14" />
    <path
       stroke="#f83b2e"
       vector-effect="non-scaling-stroke"
       d="   M 7.45 59.16   Q 8.44 54.76 7.52 49.95"
       id="path16" />
    <path
       stroke="#fa918f"
       vector-effect="non-scaling-stroke"
       d="   M 16.61 56.05   C 17.94 62.55 21.63 66.52 28.31 66.53   C 33.94 66.54 39.22 66.90 42.05 61.06   Q 44.00 57.02 45.83 53.19   A 0.84 0.84 0.0 0 1 47.35 53.19   C 49.04 56.77 50.49 61.92 53.50 64.21   C 56.80 66.73 61.89 66.87 65.97 66.53   Q 71.89 66.04 74.61 60.89   Q 74.95 60.25 76.52 54.35   Q 77.57 50.41 79.98 46.02   Q 80.88 44.38 80.20 41.78   Q 80.07 41.30 79.57 41.28   L 75.18 41.11"
       id="path18" />
    <path
       stroke="#fda29f"
       vector-effect="non-scaling-stroke"
       d="   M 36.98 46.25   L 25.50 45.56   A 4.01 4.01 0.0 0 0 21.26 49.33   L 21.09 52.15   A 9.88 7.85 -86.6 0 0 28.34 62.48   L 32.15 62.71   A 9.88 7.85 -86.6 0 0 40.57 53.31   L 40.74 50.49   A 4.01 4.01 0.0 0 0 36.98 46.25"
       id="path20" />
    <path
       stroke="#a4d3ee"
       vector-effect="non-scaling-stroke"
       d="   M 67.12 45.63   C 55.95 44.83 46.21 48.59 56.47 61.29   A 1.42 1.39 -13.3 0 0 57.30 61.79   Q 62.00 62.74 66.73 61.83   C 71.21 60.97 72.30 51.76 72.06 48.25   A 1.29 1.26 -71.5 0 0 71.63 47.36   Q 69.92 45.83 67.12 45.63"
       id="path22" />
  </g>
  <path
     fill="#fa4934"
     d="   M 59.52 20.38   Q 66.45 23.90 72.26 28.22   Q 76.92 31.67 79.11 36.99   Q 79.91 38.94 78.93 40.17   Q 78.61 40.58 78.10 40.47   Q 76.20 40.04 75.18 41.11   Q 62.92 40.10 50.83 42.66   C 48.54 43.14 45.26 43.32 43.49 42.96   Q 27.47 39.66 13.40 41.27   Q 12.88 41.34 12.79 41.86   C 12.15 45.89 14.47 47.40 15.36 50.31   Q 16.24 53.19 16.61 56.05   Q 16.42 56.48 16.27 55.56   Q 16.24 55.38 16.05 55.38   Q 15.91 55.38 15.76 55.37   Q 15.38 55.36 15.51 55.72   Q 17.17 60.24 17.29 65.05   C 17.31 65.91 17.90 66.66 18.57 67.14   Q 18.91 67.39 18.96 67.81   Q 19.70 73.25 23.74 77.03   A 0.47 0.46 52.9 0 1 23.64 77.78   Q 22.32 78.47 22.55 79.94   A 0.71 0.71 0.0 0 1 21.75 80.75   Q 20.06 80.51 20.11 81.60   Q 8.97 73.07 7.45 59.16   Q 8.44 54.76 7.52 49.95   C 9.36 34.06 21.68 23.02 37.02 19.05   C 41.42 17.91 40.12 13.56 37.99 10.94   A 0.61 0.60 70.9 0 1 38.47 9.95   Q 47.80 10.21 53.61 17.41   Q 54.62 18.65 59.52 20.38   Z"
     id="path28" />
  <path
     fill="#f62c27"
     d="   M 59.52 20.38   C 83.23 26.48 94.59 57.58 78.26 76.54   C 64.86 92.09 36.04 94.02 20.11 81.60   Q 20.06 80.51 21.75 80.75   A 0.71 0.71 0.0 0 0 22.55 79.94   Q 22.32 78.47 23.64 77.78   A 0.47 0.46 52.9 0 0 23.74 77.03   Q 19.70 73.25 18.96 67.81   Q 18.91 67.39 18.57 67.14   C 17.90 66.66 17.31 65.91 17.29 65.05   Q 17.17 60.24 15.51 55.72   Q 15.38 55.36 15.76 55.37   Q 15.91 55.38 16.05 55.38   Q 16.24 55.38 16.27 55.56   Q 16.42 56.48 16.61 56.05   C 17.94 62.55 21.63 66.52 28.31 66.53   C 33.94 66.54 39.22 66.90 42.05 61.06   Q 44.00 57.02 45.83 53.19   A 0.84 0.84 0.0 0 1 47.35 53.19   C 49.04 56.77 50.49 61.92 53.50 64.21   C 56.80 66.73 61.89 66.87 65.97 66.53   Q 71.89 66.04 74.61 60.89   Q 74.95 60.25 76.52 54.35   Q 77.57 50.41 79.98 46.02   Q 80.88 44.38 80.20 41.78   Q 80.07 41.30 79.57 41.28   L 75.18 41.11   Q 76.20 40.04 78.10 40.47   Q 78.61 40.58 78.93 40.17   Q 79.91 38.94 79.11 36.99   Q 76.92 31.67 72.26 28.22   Q 66.45 23.90 59.52 20.38   Z"
     id="path30" />
  <path
     fill="#fef6f6"
     d="   M 75.18 41.11   L 79.57 41.28   Q 80.07 41.30 80.20 41.78   Q 80.88 44.38 79.98 46.02   Q 77.57 50.41 76.52 54.35   Q 74.95 60.25 74.61 60.89   Q 71.89 66.04 65.97 66.53   C 61.89 66.87 56.80 66.73 53.50 64.21   C 50.49 61.92 49.04 56.77 47.35 53.19   A 0.84 0.84 0.0 0 0 45.83 53.19   Q 44.00 57.02 42.05 61.06   C 39.22 66.90 33.94 66.54 28.31 66.53   C 21.63 66.52 17.94 62.55 16.61 56.05   Q 16.24 53.19 15.36 50.31   C 14.47 47.40 12.15 45.89 12.79 41.86   Q 12.88 41.34 13.40 41.27   Q 27.47 39.66 43.49 42.96   C 45.26 43.32 48.54 43.14 50.83 42.66   Q 62.92 40.10 75.18 41.11   Z   M 36.98 46.25   L 25.50 45.56   A 4.01 4.01 0.0 0 0 21.26 49.33   L 21.09 52.15   A 9.88 7.85 -86.6 0 0 28.34 62.48   L 32.15 62.71   A 9.88 7.85 -86.6 0 0 40.57 53.31   L 40.74 50.49   A 4.01 4.01 0.0 0 0 36.98 46.25   Z   M 67.12 45.63   C 55.95 44.83 46.21 48.59 56.47 61.29   A 1.42 1.39 -13.3 0 0 57.30 61.79   Q 62.00 62.74 66.73 61.83   C 71.21 60.97 72.30 51.76 72.06 48.25   A 1.29 1.26 -71.5 0 0 71.63 47.36   Q 69.92 45.83 67.12 45.63   Z"
     id="path32" />
  <path
     fill="#fc4d48"
     d="   M 36.98 46.25   A 4.01 4.01 0.0 0 1 40.74 50.49   L 40.57 53.31   A 9.88 7.85 -86.6 0 1 32.15 62.71   L 28.34 62.48   A 9.88 7.85 -86.6 0 1 21.09 52.15   L 21.26 49.33   A 4.01 4.01 0.0 0 1 25.50 45.56   L 36.98 46.25   Z"
     id="path34" />
  <path
     fill="#4ab0e5"
     d="   M 67.12 45.63   Q 69.92 45.83 71.63 47.36   A 1.29 1.26 -71.5 0 1 72.06 48.25   C 72.30 51.76 71.21 60.97 66.73 61.83   Q 62.00 62.74 57.30 61.79   A 1.42 1.39 -13.3 0 1 56.47 61.29   C 46.21 48.59 55.95 44.83 67.12 45.63   Z"
     id="path36" />
  <path
     fill="#f62c27"
     d="   M 7.45 59.16   L 7.52 49.95   Q 8.44 54.76 7.45 59.16   Z"
     id="path38" />
</svg>
