<?xml version="1.0" encoding="UTF-8" standalone="no"?>
<svg
   version="1.1"
   viewBox="0.00 0.00 62.00 72.00"
   id="svg18"
   sodipodi:docname="足迹.svg"
   inkscape:version="1.2.2 (732a01da63, 2022-12-09)"
   xmlns:inkscape="http://www.inkscape.org/namespaces/inkscape"
   xmlns:sodipodi="http://sodipodi.sourceforge.net/DTD/sodipodi-0.dtd"
   xmlns="http://www.w3.org/2000/svg"
   xmlns:svg="http://www.w3.org/2000/svg">
  <defs
     id="defs22" />
  <sodipodi:namedview
     id="namedview20"
     pagecolor="#ffffff"
     bordercolor="#000000"
     borderopacity="0.25"
     inkscape:showpageshadow="2"
     inkscape:pageopacity="0.0"
     inkscape:pagecheckerboard="0"
     inkscape:deskcolor="#d1d1d1"
     showgrid="false"
     inkscape:zoom="14.263889"
     inkscape:cx="26.465433"
     inkscape:cy="18.122687"
     inkscape:window-width="3840"
     inkscape:window-height="2071"
     inkscape:window-x="-9"
     inkscape:window-y="-9"
     inkscape:window-maximized="1"
     inkscape:current-layer="svg18" />
  <path
     fill="#1b1328"
     d="m 55.742429,35.066499 a 24.48,24.48 0 0 1 -24.48,24.48 24.48,24.48 0 0 1 -24.4800004,-24.48 24.48,24.48 0 0 1 24.4800004,-24.48 24.48,24.48 0 0 1 24.48,24.48 z m -3.61,0.01 a 20.86,20.86 0 0 0 -20.86,-20.86 20.86,20.86 0 0 0 -20.86,20.86 20.86,20.86 0 0 0 20.86,20.86 20.86,20.86 0 0 0 20.86,-20.86 z"
     id="path12" />
  <path
     fill="#1b1328"
     d="m 32.837215,36.601286 q 3.18,2.16 6.48,4.13 1.39,0.83 1.08,2.71 a 1.32,1.32 0 0 1 -2.01,0.91 l -9.25,-5.83 a 0.96,0.96 0 0 1 -0.46,-0.82 l -0.01,-12.12 a 1.73,1.72 9.4 0 1 2.28,-1.63 q 1.62,0.56 1.32,2.89 -0.39,2.96 0.11,8.95 a 1.07,1.1 14.6 0 0 0.46,0.81 z"
     id="path16" />
</svg>
