<?xml version="1.0" encoding="UTF-8" standalone="no"?>
<!DOCTYPE svg PUBLIC "-//W3C//DTD SVG 1.1//EN" "http://www.w3.org/Graphics/SVG/1.1/DTD/svg11.dtd">
<svg xmlns="http://www.w3.org/2000/svg" version="1.1" viewBox="0.00 0.00 58.00 56.00">
<g stroke-width="2.00" fill="none" stroke-linecap="butt">
<path stroke="#8e8697" vector-effect="non-scaling-stroke" d="
  M 50.75 27.24
  C 47.44 13.71 34.40 6.60 21.84 12.81
  C 9.60 18.87 7.18 36.09 17.49 45.26
  C 26.70 53.46 40.57 51.73 47.51 41.61
  C 48.22 40.58 47.81 39.49 46.56 39.25
  A 1.46 1.45 22.9 0 0 45.09 39.84
  C 39.15 48.44 28.39 50.01 20.25 43.61
  C 13.58 38.35 11.69 27.86 17.16 20.67
  C 23.40 12.48 35.25 10.84 42.67 18.35
  Q 47.37 23.10 48.08 31.09
  Q 48.22 32.63 49.79 32.72
  C 52.01 32.85 53.80 29.43 54.63 27.57
  A 0.99 0.99 0.0 0 0 53.72 26.17
  Q 52.23 26.19 51.41 27.36
  Q 50.94 28.03 50.75 27.24"
/>
<path stroke="#8e8697" vector-effect="non-scaling-stroke" d="
  M 32.64 35.07
  L 35.03 35.13
  A 1.37 1.37 0.0 0 0 35.19 32.39
  L 32.30 32.13
  A 0.53 0.53 0.0 0 1 31.83 31.50
  L 31.90 31.17
  A 0.66 0.65 -85.5 0 1 32.51 30.64
  L 35.04 30.53
  A 1.39 1.38 -44.9 0 0 35.05 27.76
  L 32.67 27.65
  A 0.71 0.70 23.2 0 1 32.19 26.46
  Q 33.91 24.68 35.70 22.96
  Q 36.84 21.87 36.26 20.70
  A 1.22 1.21 54.5 0 0 34.32 20.37
  L 30.92 23.71
  Q 30.46 24.16 30.01 23.70
  L 26.81 20.44
  A 1.08 1.07 55.7 0 0 25.62 20.21
  Q 23.88 20.95 24.90 22.17
  Q 26.85 24.48 28.84 26.55
  A 0.66 0.66 0.0 0 1 28.40 27.67
  L 25.61 27.81
  A 1.29 1.29 0.0 0 0 25.50 30.38
  L 28.74 30.81
  A 0.59 0.59 0.0 0 1 28.86 31.95
  Q 27.65 32.38 26.44 32.25
  A 1.45 1.45 0.0 0 0 26.12 35.14
  Q 27.10 35.26 28.00 34.96
  A 0.66 0.66 0.0 0 1 28.87 35.55
  L 29.06 38.57
  A 1.34 1.34 0.0 0 0 31.73 38.62
  L 32.03 35.61
  A 0.60 0.59 -85.9 0 1 32.64 35.07"
/>
</g>
<path fill="#ffffff" d="
  M 0.00 0.00
  L 58.00 0.00
  L 58.00 56.00
  L 0.00 56.00
  L 0.00 0.00
  Z
  M 50.75 27.24
  C 47.44 13.71 34.40 6.60 21.84 12.81
  C 9.60 18.87 7.18 36.09 17.49 45.26
  C 26.70 53.46 40.57 51.73 47.51 41.61
  C 48.22 40.58 47.81 39.49 46.56 39.25
  A 1.46 1.45 22.9 0 0 45.09 39.84
  C 39.15 48.44 28.39 50.01 20.25 43.61
  C 13.58 38.35 11.69 27.86 17.16 20.67
  C 23.40 12.48 35.25 10.84 42.67 18.35
  Q 47.37 23.10 48.08 31.09
  Q 48.22 32.63 49.79 32.72
  C 52.01 32.85 53.80 29.43 54.63 27.57
  A 0.99 0.99 0.0 0 0 53.72 26.17
  Q 52.23 26.19 51.41 27.36
  Q 50.94 28.03 50.75 27.24
  Z
  M 32.64 35.07
  L 35.03 35.13
  A 1.37 1.37 0.0 0 0 35.19 32.39
  L 32.30 32.13
  A 0.53 0.53 0.0 0 1 31.83 31.50
  L 31.90 31.17
  A 0.66 0.65 -85.5 0 1 32.51 30.64
  L 35.04 30.53
  A 1.39 1.38 -44.9 0 0 35.05 27.76
  L 32.67 27.65
  A 0.71 0.70 23.2 0 1 32.19 26.46
  Q 33.91 24.68 35.70 22.96
  Q 36.84 21.87 36.26 20.70
  A 1.22 1.21 54.5 0 0 34.32 20.37
  L 30.92 23.71
  Q 30.46 24.16 30.01 23.70
  L 26.81 20.44
  A 1.08 1.07 55.7 0 0 25.62 20.21
  Q 23.88 20.95 24.90 22.17
  Q 26.85 24.48 28.84 26.55
  A 0.66 0.66 0.0 0 1 28.40 27.67
  L 25.61 27.81
  A 1.29 1.29 0.0 0 0 25.50 30.38
  L 28.74 30.81
  A 0.59 0.59 0.0 0 1 28.86 31.95
  Q 27.65 32.38 26.44 32.25
  A 1.45 1.45 0.0 0 0 26.12 35.14
  Q 27.10 35.26 28.00 34.96
  A 0.66 0.66 0.0 0 1 28.87 35.55
  L 29.06 38.57
  A 1.34 1.34 0.0 0 0 31.73 38.62
  L 32.03 35.61
  A 0.60 0.59 -85.9 0 1 32.64 35.07
  Z"
/>
<path fill="#1d0d2f" d="
  M 51.41 27.36
  Q 52.23 26.19 53.72 26.17
  A 0.99 0.99 0.0 0 1 54.63 27.57
  C 53.80 29.43 52.01 32.85 49.79 32.72
  Q 48.22 32.63 48.08 31.09
  Q 47.37 23.10 42.67 18.35
  C 35.25 10.84 23.40 12.48 17.16 20.67
  C 11.69 27.86 13.58 38.35 20.25 43.61
  C 28.39 50.01 39.15 48.44 45.09 39.84
  A 1.46 1.45 22.9 0 1 46.56 39.25
  C 47.81 39.49 48.22 40.58 47.51 41.61
  C 40.57 51.73 26.70 53.46 17.49 45.26
  C 7.18 36.09 9.60 18.87 21.84 12.81
  C 34.40 6.60 47.44 13.71 50.75 27.24
  Q 50.94 28.03 51.41 27.36
  Z"
/>
<path fill="#1d0d2f" d="
  M 32.03 35.61
  L 31.73 38.62
  A 1.34 1.34 0.0 0 1 29.06 38.57
  L 28.87 35.55
  A 0.66 0.66 0.0 0 0 28.00 34.96
  Q 27.10 35.26 26.12 35.14
  A 1.45 1.45 0.0 0 1 26.44 32.25
  Q 27.65 32.38 28.86 31.95
  A 0.59 0.59 0.0 0 0 28.74 30.81
  L 25.50 30.38
  A 1.29 1.29 0.0 0 1 25.61 27.81
  L 28.40 27.67
  A 0.66 0.66 0.0 0 0 28.84 26.55
  Q 26.85 24.48 24.90 22.17
  Q 23.88 20.95 25.62 20.21
  A 1.08 1.07 55.7 0 1 26.81 20.44
  L 30.01 23.70
  Q 30.46 24.16 30.92 23.71
  L 34.32 20.37
  A 1.22 1.21 54.5 0 1 36.26 20.70
  Q 36.84 21.87 35.70 22.96
  Q 33.91 24.68 32.19 26.46
  A 0.71 0.70 23.2 0 0 32.67 27.65
  L 35.05 27.76
  A 1.39 1.38 -44.9 0 1 35.04 30.53
  L 32.51 30.64
  A 0.66 0.65 -85.5 0 0 31.90 31.17
  L 31.83 31.50
  A 0.53 0.53 0.0 0 0 32.30 32.13
  L 35.19 32.39
  A 1.37 1.37 0.0 0 1 35.03 35.13
  L 32.64 35.07
  A 0.60 0.59 -85.9 0 0 32.03 35.61
  Z"
/>
</svg>
