<?xml version="1.0" encoding="UTF-8" standalone="no"?>
<!DOCTYPE svg PUBLIC "-//W3C//DTD SVG 1.1//EN" "http://www.w3.org/Graphics/SVG/1.1/DTD/svg11.dtd">
<svg xmlns="http://www.w3.org/2000/svg" version="1.1" viewBox="0.00 0.00 1398.00 1408.00">
<g stroke-width="2.00" fill="none" stroke-linecap="butt">
<path stroke="#fcda86" vector-effect="non-scaling-stroke" d="
  M 755.13 41.64
  Q 705.01 38.29 654.83 41.50"
/>
<path stroke="#fcda86" vector-effect="non-scaling-stroke" d="
  M 767.05 42.35
  L 802.04 46.49"
/>
<path stroke="#fcda86" vector-effect="non-scaling-stroke" d="
  M 806.44 47.29
  Q 882.11 58.59 953.49 85.61
  Q 953.82 85.74 954.21 85.55"
/>
<path stroke="#fcda86" vector-effect="non-scaling-stroke" d="
  M 955.48 86.00
  Q 955.40 86.48 955.76 86.43
  C 1084.62 136.82 1196.42 222.81 1274.72 336.96
  Q 1366.57 470.86 1388.03 632.32
  Q 1389.35 642.23 1390.27 652.19
  Q 1405.51 816.61 1343.79 969.02
  C 1300.60 1075.69 1228.83 1170.26 1139.91 1241.42
  C 1046.41 1316.24 933.68 1366.47 814.13 1385.14
  Q 669.31 1407.76 527.21 1371.05"
/>
<path stroke="#fcd34a" vector-effect="non-scaling-stroke" d="
  M 527.21 1371.05
  L 524.29 1370.27"
/>
<path stroke="#fcda86" vector-effect="non-scaling-stroke" d="
  M 524.29 1370.27
  L 493.03 1361.55"
/>
<path stroke="#fcda86" vector-effect="non-scaling-stroke" d="
  M 491.23 1360.89
  Q 491.13 1360.63 490.97 1360.58
  Q 375.14 1323.36 278.73 1249.31
  C 141.18 1143.67 48.58 987.83 22.37 814.99
  Q 20.27 801.16 18.29 780.99"
/>
<path stroke="#fcd34a" vector-effect="non-scaling-stroke" d="
  M 18.29 780.99
  Q 18.86 775.83 17.38 771.28"
/>
<path stroke="#fcda86" vector-effect="non-scaling-stroke" d="
  M 17.38 771.28
  Q 13.09 718.79 17.12 666.26
  C 17.25 664.49 17.77 662.29 17.83 660.22"
/>
<path stroke="#fcd34a" vector-effect="non-scaling-stroke" d="
  M 17.83 660.22
  L 18.26 652.42"
/>
<path stroke="#fcda86" vector-effect="non-scaling-stroke" d="
  M 18.26 652.42
  Q 28.27 551.19 66.41 460.43
  C 113.61 348.12 189.88 249.98 288.34 177.09
  Q 397.30 96.43 528.87 62.18
  Q 528.93 62.16 538.47 59.87
  Q 543.55 58.66 548.66 57.08"
/>
<path stroke="#fcda86" vector-effect="non-scaling-stroke" d="
  M 552.66 56.16
  L 572.62 52.16"
/>
<path stroke="#fcda86" vector-effect="non-scaling-stroke" d="
  M 575.70 51.57
  L 600.14 47.32"
/>
<path stroke="#fcda86" vector-effect="non-scaling-stroke" d="
  M 607.27 46.50
  L 642.86 42.31"
/>
<path stroke="#fff8c2" vector-effect="non-scaling-stroke" d="
  M 17.38 771.28
  Q 17.20 772.68 16.87 772.24"
/>
<path stroke="#fff8c2" vector-effect="non-scaling-stroke" d="
  M 18.26 652.42
  Q 18.37 653.90 17.56 654.72"
/>
<path stroke="#fff8c2" vector-effect="non-scaling-stroke" d="
  M 524.29 1370.27
  Q 524.80 1370.75 524.53 1370.77"
/>
<path stroke="#fff8c2" vector-effect="non-scaling-stroke" d="
  M 526.82 1371.44
  L 527.21 1371.05"
/>
<path stroke="#fff8c2" vector-effect="non-scaling-stroke" d="
  M 18.29 780.99
  Q 18.20 779.77 17.55 779.52"
/>
<path stroke="#fff8c2" vector-effect="non-scaling-stroke" d="
  M 17.83 660.22
  Q 17.26 659.62 17.14 660.06"
/>
<path stroke="#fcc622" vector-effect="non-scaling-stroke" d="
  M 1308.25 725.80
  A 601.20 587.83 0.0 0 0 707.05 137.97
  A 601.20 587.83 0.0 0 0 105.85 725.80
  A 601.20 587.83 0.0 0 0 707.05 1313.63
  A 601.20 587.83 0.0 0 0 1308.25 725.80"
/>
<path stroke="#fcc622" vector-effect="non-scaling-stroke" d="
  M 1237.13 730.64
  A 525.89 505.63 0.0 0 0 711.24 225.01
  A 525.89 505.63 0.0 0 0 185.35 730.64
  A 525.89 505.63 0.0 0 0 711.24 1236.27
  A 525.89 505.63 0.0 0 0 1237.13 730.64"
/>
<path stroke="#fcd45a" vector-effect="non-scaling-stroke" d="
  M 619.73 525.62
  Q 623.78 527.28 630.02 528.21
  C 632.10 528.52 633.10 530.27 633.03 532.38
  Q 632.35 550.85 631.56 569.33
  C 631.33 574.53 630.31 578.53 625.66 580.73
  Q 623.30 581.84 616.67 581.94
  Q 556.28 582.86 496.73 593.24
  Q 460.04 599.63 428.09 618.12
  C 414.16 626.19 400.57 636.90 387.71 647.22
  C 355.80 672.81 344.27 709.55 343.65 749.26
  Q 343.42 763.42 343.31 777.46"
/>
<path stroke="#fcd34a" vector-effect="non-scaling-stroke" d="
  M 343.31 777.46
  Q 342.61 839.90 349.37 901.81
  Q 350.76 914.54 352.62 921.52
  Q 359.84 948.62 380.77 968.22
  C 398.80 985.10 418.50 1002.31 441.10 1012.68
  C 450.71 1017.10 460.49 1019.38 471.01 1021.07
  Q 508.87 1027.16 545.93 1020.22
  C 563.82 1016.86 576.64 1003.11 585.92 988.21
  C 597.55 969.55 596.99 947.66 582.90 930.86
  C 575.22 921.72 564.42 916.36 553.73 912.08
  Q 533.51 903.99 512.32 898.79
  C 502.45 896.36 495.93 889.94 490.45 881.30
  Q 480.33 865.34 473.72 850.05
  C 461.78 822.43 462.63 794.13 472.05 765.98
  C 476.31 753.23 481.30 740.60 489.28 731.02
  C 502.48 715.17 523.25 711.60 543.25 710.56
  Q 579.09 708.70 608.37 708.15"
/>
<path stroke="#fcd45a" vector-effect="non-scaling-stroke" d="
  M 608.37 708.15
  L 627.55 708.56
  A 1.29 1.27 66.9 0 1 628.40 708.91
  C 631.50 711.77 634.74 714.98 635.46 719.36
  Q 641.62 756.65 637.28 794.16
  C 636.87 797.74 636.90 801.03 636.88 804.53"
/>
<path stroke="#fcd34a" vector-effect="non-scaling-stroke" d="
  M 636.88 804.53
  Q 635.44 896.16 632.39 987.75
  Q 631.96 1000.58 632.30 1007.75
  Q 633.55 1034.88 641.29 1061.05
  C 648.72 1086.17 665.84 1101.69 693.40 1095.24
  Q 727.97 1087.14 755.31 1064.57
  Q 758.56 1061.88 760.83 1057.01
  Q 761.94 1054.63 761.98 1051.35
  Q 762.08 1043.82 762.58 1036.32
  Q 762.89 1031.68 762.32 1027.23
  Q 757.79 991.77 758.77 955.99
  C 759.39 933.38 760.44 910.63 759.94 888.00
  Q 759.55 870.25 759.16 852.50
  Q 757.75 789.11 761.17 725.39"
/>
<path stroke="#fcd45a" vector-effect="non-scaling-stroke" d="
  M 761.17 725.39
  Q 762.44 712.31 775.74 711.47
  Q 820.19 708.67 866.06 712.80
  Q 877.96 713.87 885.75 716.03
  Q 899.98 719.97 912.87 727.45
  C 915.46 728.95 916.51 729.30 917.61 731.65
  Q 922.58 742.29 925.58 750.92"
/>
<path stroke="#fcd34a" vector-effect="non-scaling-stroke" d="
  M 925.58 750.92
  Q 927.49 763.20 929.30 774.77
  C 932.05 792.28 933.52 810.15 932.44 827.88
  C 930.96 852.03 915.83 869.70 895.65 881.87
  Q 867.00 899.15 834.95 908.93
  C 829.14 910.70 821.78 914.34 818.44 919.47
  C 813.59 926.92 815.70 933.08 818.15 942.79
  C 822.08 958.41 826.19 974.61 832.59 989.17
  C 850.13 1029.08 899.11 1024.81 933.83 1017.11
  C 986.63 1005.40 1023.09 972.36 1038.86 919.67"
/>
<path stroke="#fcd45a" vector-effect="non-scaling-stroke" d="
  M 1038.86 919.67
  Q 1039.02 919.45 1039.20 918.74
  Q 1052.60 862.92 1053.65 805.50
  Q 1054.09 781.21 1053.15 753.76
  C 1052.00 720.57 1042.86 682.54 1021.04 657.02
  C 1012.63 647.18 1001.22 638.62 988.51 628.74
  C 966.96 611.99 943.57 597.65 917.76 592.72
  Q 905.45 590.36 882.00 587.65
  Q 867.30 585.95 852.50 585.87
  Q 811.98 585.67 771.44 585.76
  C 764.43 585.77 761.54 581.92 761.33 575.00
  Q 760.58 550.59 764.98 530.21
  Q 767.54 518.37 781.12 514.31"
/>
<path stroke="#fcd767" vector-effect="non-scaling-stroke" d="
  M 781.12 514.31
  Q 839.80 513.10 903.00 506.60
  Q 928.91 503.94 952.30 497.68
  C 966.20 493.95 975.55 489.27 980.33 475.28
  C 987.65 453.86 985.64 430.08 975.59 410.01
  Q 970.02 398.87 964.54 393.44
  C 954.72 383.70 940.87 382.24 927.50 383.19
  Q 729.64 397.14 531.73 410.28
  C 505.80 412.01 480.67 415.93 454.07 421.63
  C 434.94 425.72 419.97 436.77 414.60 456.08
  C 410.67 470.22 409.08 487.44 413.51 501.19
  C 421.46 525.86 447.53 537.30 472.26 535.72
  Q 491.01 534.53 509.76 533.24
  Q 539.23 531.21 568.76 531.18
  Q 581.62 531.17 588.71 530.22
  Q 600.29 528.66 611.55 525.35
  C 614.37 524.53 616.91 525.52 619.73 525.62"
/>
<path stroke="#fff6b3" vector-effect="non-scaling-stroke" d="
  M 781.12 514.31
  Q 780.59 512.73 778.47 513.02
  Q 775.67 513.41 773.51 514.18
  Q 771.74 514.82 771.00 513.09
  Q 767.39 504.58 758.25 505.97
  Q 746.25 507.79 717.73 514.38
  Q 717.69 514.39 703.80 517.80
  Q 662.44 527.98 619.73 525.62"
/>
<path stroke="#fff296" vector-effect="non-scaling-stroke" d="
  M 1038.86 919.67
  C 1034.53 923.01 1031.42 926.79 1025.72 928.66
  Q 1022.82 929.62 1016.15 929.82
  C 1010.33 930.00 1004.40 930.97 998.93 930.98
  C 984.20 931.00 969.61 933.74 963.07 917.50
  A 2.11 2.11 0.0 0 1 963.71 915.06
  C 966.52 912.79 963.38 907.34 963.21 904.50
  Q 962.35 889.94 964.56 874.33
  Q 965.95 864.47 966.25 861.09
  C 967.42 848.10 966.82 837.51 964.40 823.67
  C 963.08 816.15 959.50 811.13 956.07 805.00
  C 953.75 800.85 954.48 798.59 949.71 795.66
  C 941.45 790.56 935.54 783.56 933.06 774.09
  Q 930.97 766.12 928.72 758.27
  Q 927.65 754.50 925.58 750.92"
/>
<path stroke="#fff296" vector-effect="non-scaling-stroke" d="
  M 761.17 725.39
  Q 754.99 744.06 750.65 763.23
  A 1.64 1.63 25.5 0 1 748.04 764.15
  C 744.52 761.36 740.32 763.17 737.27 766.19
  Q 732.68 770.74 728.00 775.19
  C 726.32 776.79 723.10 778.79 721.21 781.43
  Q 720.94 781.81 720.96 782.28
  L 721.13 785.22
  Q 721.17 785.86 720.61 786.17
  Q 712.06 790.90 702.33 791.07
  C 697.63 791.15 695.21 794.56 694.51 798.95
  A 0.91 0.88 -9.5 0 1 694.02 799.61
  L 683.54 804.68
  Q 683.00 804.94 682.48 804.63
  C 675.67 800.58 672.55 804.19 666.92 807.51
  A 1.52 1.50 -55.7 0 1 665.96 807.70
  Q 655.77 806.25 650.25 807.07
  Q 645.50 807.77 640.93 809.17
  Q 638.49 809.91 639.13 812.24
  Q 640.23 816.24 638.92 819.78
  A 0.70 0.70 0.0 0 1 637.57 819.57
  L 636.88 804.53"
/>
<path stroke="#fff296" vector-effect="non-scaling-stroke" d="
  M 608.37 708.15
  Q 603.99 706.03 598.17 706.41
  Q 595.68 706.57 593.36 706.08
  Q 588.36 705.03 581.75 705.03
  Q 560.97 705.05 540.20 705.05
  Q 538.22 705.05 536.13 705.55
  Q 534.11 706.04 532.07 706.44
  Q 528.63 707.12 526.06 708.00
  Q 513.74 712.21 501.48 716.64
  Q 491.77 720.15 487.32 727.34
  Q 481.77 736.32 475.95 745.11
  Q 474.24 747.69 473.35 750.78
  Q 470.18 761.83 466.66 768.93
  Q 460.51 781.34 445.93 778.09
  C 443.67 777.58 442.06 777.98 440.55 779.92
  Q 431.05 792.10 415.28 793.61
  A 0.82 0.81 66.0 0 1 414.62 793.35
  L 412.81 791.35
  A 0.93 0.90 -27.3 0 0 411.91 791.08
  Q 402.67 793.30 394.05 789.85
  C 387.98 787.42 384.09 790.46 380.03 795.03
  C 377.89 797.44 374.12 796.92 370.92 795.75
  Q 364.07 793.25 358.87 798.12
  Q 357.08 799.80 355.73 800.04
  C 352.17 800.66 350.37 798.86 350.12 795.28
  C 349.87 791.90 350.52 788.96 347.95 786.19
  Q 344.68 782.66 343.31 777.46"
/>
</g>
<path fill="#fffffe" d="
  M 755.13 41.64
  Q 705.01 38.29 654.83 41.50
  Q 660.48 37.43 664.99 37.42
  Q 699.07 37.34 733.13 37.35
  C 737.62 37.35 744.32 36.84 749.01 38.10
  Q 751.12 38.67 755.13 41.64
  Z"
/>
<path fill="#f9b50e" d="
  M 755.13 41.64
  L 767.05 42.35
  L 802.04 46.49
  L 806.44 47.29
  Q 882.11 58.59 953.49 85.61
  Q 953.82 85.74 954.21 85.55
  Q 954.96 85.62 955.48 86.00
  Q 955.40 86.48 955.76 86.43
  C 1084.62 136.82 1196.42 222.81 1274.72 336.96
  Q 1366.57 470.86 1388.03 632.32
  Q 1389.35 642.23 1390.27 652.19
  Q 1405.51 816.61 1343.79 969.02
  C 1300.60 1075.69 1228.83 1170.26 1139.91 1241.42
  C 1046.41 1316.24 933.68 1366.47 814.13 1385.14
  Q 669.31 1407.76 527.21 1371.05
  L 524.29 1370.27
  L 493.03 1361.55
  L 491.23 1360.89
  Q 491.13 1360.63 490.97 1360.58
  Q 375.14 1323.36 278.73 1249.31
  C 141.18 1143.67 48.58 987.83 22.37 814.99
  Q 20.27 801.16 18.29 780.99
  Q 18.86 775.83 17.38 771.28
  Q 13.09 718.79 17.12 666.26
  C 17.25 664.49 17.77 662.29 17.83 660.22
  L 18.26 652.42
  Q 28.27 551.19 66.41 460.43
  C 113.61 348.12 189.88 249.98 288.34 177.09
  Q 397.30 96.43 528.87 62.18
  Q 528.93 62.16 538.47 59.87
  Q 543.55 58.66 548.66 57.08
  L 552.66 56.16
  L 572.62 52.16
  L 575.70 51.57
  L 600.14 47.32
  L 607.27 46.50
  L 642.86 42.31
  L 654.83 41.50
  Q 705.01 38.29 755.13 41.64
  Z
  M 1308.25 725.80
  A 601.20 587.83 0.0 0 0 707.05 137.97
  A 601.20 587.83 0.0 0 0 105.85 725.80
  A 601.20 587.83 0.0 0 0 707.05 1313.63
  A 601.20 587.83 0.0 0 0 1308.25 725.80
  Z"
/>
<path fill="#fffffe" d="
  M 642.86 42.31
  L 607.27 46.50
  Q 611.57 42.55 616.12 42.37
  Q 626.47 41.97 642.86 42.31
  Z"
/>
<path fill="#fffffe" d="
  M 767.05 42.35
  Q 780.22 42.09 793.00 42.29
  Q 798.11 42.37 802.04 46.49
  L 767.05 42.35
  Z"
/>
<path fill="#fffffe" d="
  M 600.14 47.32
  L 575.70 51.57
  C 578.28 49.78 580.19 48.20 583.40 47.77
  Q 591.47 46.68 600.14 47.32
  Z"
/>
<path fill="#fffffe" d="
  M 806.44 47.29
  Q 816.55 46.88 826.47 47.17
  C 830.46 47.29 831.73 51.55 836.37 51.77
  Q 843.20 52.09 850.00 52.04
  C 853.97 52.02 855.63 56.25 859.69 56.59
  C 866.56 57.18 872.07 55.32 877.43 60.64
  A 1.61 1.58 73.2 0 0 878.18 61.05
  Q 882.94 62.14 887.74 61.84
  C 892.95 61.51 894.27 66.25 899.33 66.54
  C 903.60 66.77 907.22 66.27 910.93 69.56
  C 913.93 72.22 917.92 71.23 921.49 72.04
  C 925.82 73.03 927.30 76.30 932.59 76.43
  Q 936.66 76.53 939.92 78.89
  Q 941.91 80.34 942.83 80.68
  C 945.48 81.66 948.26 81.23 950.44 82.43
  Q 952.54 83.60 954.21 85.55
  Q 953.82 85.74 953.49 85.61
  Q 882.11 58.59 806.44 47.29
  Z"
/>
<path fill="#fffffe" d="
  M 572.62 52.16
  L 552.66 56.16
  Q 555.68 53.50 557.75 53.01
  Q 563.82 51.56 572.62 52.16
  Z"
/>
<path fill="#fffffe" d="
  M 548.66 57.08
  Q 543.55 58.66 538.47 59.87
  Q 528.93 62.16 528.87 62.18
  Q 397.30 96.43 288.34 177.09
  C 189.88 249.98 113.61 348.12 66.41 460.43
  Q 28.27 551.19 18.26 652.42
  Q 18.37 653.90 17.56 654.72
  Q 17.33 638.54 17.68 629.75
  C 17.87 624.88 21.47 621.20 21.88 616.51
  Q 22.55 608.66 22.51 600.78
  C 22.50 598.92 23.00 596.61 24.03 595.07
  C 29.83 586.37 24.57 577.03 29.59 569.21
  C 32.99 563.94 31.74 557.78 32.82 551.64
  A 1.63 1.61 71.1 0 1 33.20 550.85
  C 37.37 546.09 36.72 542.51 37.24 536.89
  C 37.60 532.86 41.28 531.83 41.65 527.92
  C 41.95 524.72 41.42 521.07 42.67 518.10
  C 44.30 514.20 46.50 513.18 46.58 508.30
  C 46.69 501.95 51.28 499.24 51.72 493.24
  C 52.06 488.66 55.03 487.89 55.85 484.18
  C 56.46 481.45 56.08 476.56 58.35 474.56
  Q 60.91 472.29 61.36 468.98
  Q 61.74 466.21 62.31 465.17
  C 63.31 463.32 64.93 462.02 65.41 460.01
  C 65.98 457.54 65.86 452.02 67.87 450.10
  Q 71.04 447.09 71.39 442.64
  A 1.91 1.89 -23.5 0 1 71.80 441.62
  L 75.42 437.15
  A 1.27 1.27 0.0 0 0 75.71 436.37
  Q 75.83 431.25 79.75 428.01
  A 1.35 1.29 -13.1 0 0 80.19 427.34
  Q 80.67 425.53 80.98 423.78
  C 81.44 421.17 83.33 419.45 84.95 417.52
  A 1.37 1.34 67.5 0 0 85.27 416.73
  Q 85.61 411.48 89.66 408.11
  A 1.49 1.49 0.0 0 0 90.20 407.03
  Q 90.46 401.79 94.61 398.54
  A 0.64 0.60 -15.4 0 0 94.84 398.16
  L 95.80 392.77
  A 0.85 0.84 -16.7 0 1 96.05 392.31
  Q 98.91 389.55 100.56 386.01
  Q 102.33 382.22 103.39 380.74
  Q 106.25 376.76 109.28 372.94
  Q 109.60 372.53 109.62 372.02
  C 109.88 367.50 112.58 366.16 114.30 363.00
  Q 116.79 358.42 119.61 354.04
  C 120.90 352.05 123.13 350.41 124.39 348.16
  Q 126.89 343.68 126.99 343.53
  C 128.36 341.43 129.26 339.23 130.92 337.36
  Q 134.64 333.17 137.81 328.53
  C 138.76 327.13 138.95 324.98 139.72 324.01
  Q 141.43 321.82 147.45 315.79
  C 149.19 314.04 150.02 311.83 151.68 309.90
  C 153.53 307.74 153.06 305.53 154.82 303.65
  Q 160.24 297.85 165.87 292.27
  C 168.14 290.03 169.80 287.31 172.01 284.85
  C 173.33 283.38 173.13 281.66 174.25 280.40
  C 176.65 277.70 178.49 274.61 180.92 272.18
  Q 203.64 249.38 226.26 226.51
  Q 234.29 218.38 242.58 210.52
  C 244.71 208.51 247.60 207.77 249.78 205.31
  A 1.71 1.71 0.0 0 1 250.56 204.81
  C 251.70 204.45 252.73 204.10 253.65 203.28
  Q 259.73 197.85 265.41 192.01
  C 267.74 189.62 270.73 187.76 273.17 185.16
  Q 273.52 184.80 274.01 184.73
  L 277.24 184.31
  A 1.26 1.24 -70.4 0 0 277.98 183.95
  Q 284.76 177.31 291.96 171.18
  C 293.52 169.85 294.51 169.71 296.47 169.65
  A 1.40 1.38 22.7 0 0 297.34 169.30
  Q 302.17 165.01 306.77 160.51
  Q 307.90 159.40 310.94 159.61
  A 1.10 1.09 22.8 0 0 311.81 159.26
  C 314.30 156.52 317.29 155.08 319.76 152.37
  Q 322.01 149.90 325.61 149.89
  Q 326.15 149.89 326.55 149.53
  L 336.39 140.83
  Q 336.80 140.47 337.33 140.44
  L 340.77 140.27
  A 1.34 1.30 -67.9 0 0 341.65 139.88
  L 345.75 135.73
  A 1.10 1.09 -65.4 0 1 346.62 135.40
  C 352.80 135.80 352.09 132.26 356.57 130.26
  Q 359.35 129.03 361.43 126.79
  Q 361.77 126.42 362.27 126.36
  Q 365.20 125.95 367.51 124.10
  A 0.80 0.75 88.4 0 0 367.68 123.91
  Q 370.00 119.96 374.62 120.69
  A 1.26 1.26 0.0 0 0 375.73 120.33
  L 379.97 116.07
  Q 380.37 115.66 380.95 115.72
  C 385.63 116.19 386.56 114.39 389.39 111.37
  A 1.15 1.14 -70.2 0 1 390.15 111.01
  L 394.90 110.66
  A 0.48 0.44 19.0 0 0 395.20 110.53
  L 399.03 106.82
  Q 399.35 106.50 399.79 106.38
  C 401.65 105.84 403.51 106.28 405.13 105.43
  Q 407.54 104.17 409.27 102.00
  A 1.12 1.10 -71.7 0 1 410.10 101.57
  C 413.87 101.36 415.93 100.84 419.26 98.48
  Q 423.14 95.73 428.19 95.92
  A 1.24 1.21 24.4 0 0 429.07 95.60
  C 431.91 93.07 432.86 90.57 437.36 91.33
  A 1.48 1.46 -50.2 0 0 438.18 91.25
  Q 441.47 89.91 443.82 87.22
  A 1.07 1.06 -71.9 0 1 444.52 86.86
  L 453.00 86.10
  A 1.42 1.40 21.8 0 0 453.79 85.77
  L 458.07 82.04
  A 1.39 1.38 -65.8 0 1 458.95 81.70
  Q 462.18 81.62 465.29 81.04
  C 468.11 80.52 469.88 78.60 472.18 77.00
  A 1.47 1.47 0.0 0 1 472.93 76.75
  Q 476.32 76.61 479.64 76.06
  C 483.79 75.37 485.26 71.93 489.93 71.78
  Q 492.49 71.70 494.97 71.12
  C 498.68 70.24 500.52 66.79 504.80 66.92
  Q 508.60 67.03 512.20 66.07
  C 515.81 65.11 518.50 61.87 522.77 61.87
  Q 529.52 61.87 534.51 59.13
  C 538.65 56.85 544.01 56.92 548.66 57.08
  Z"
/>
<path fill="#fffffe" d="
  M 955.48 86.00
  L 963.65 86.82
  A 0.86 0.78 65.2 0 1 964.12 87.02
  L 968.62 90.89
  Q 969.05 91.26 969.62 91.22
  Q 974.93 90.88 978.51 94.73
  A 1.48 1.43 74.4 0 0 979.26 95.17
  Q 982.55 95.91 985.79 96.50
  C 990.08 97.29 991.37 101.17 996.32 101.31
  C 999.24 101.40 1000.39 104.10 1002.73 105.33
  C 1005.06 106.55 1007.64 105.36 1009.73 107.83
  Q 1012.54 111.12 1017.03 111.06
  A 1.47 1.47 0.0 0 1 1017.96 111.37
  C 1020.71 113.54 1021.69 115.64 1025.56 115.83
  C 1026.76 115.88 1028.24 116.36 1028.95 117.31
  Q 1031.68 120.94 1036.35 120.94
  Q 1036.88 120.94 1037.27 121.28
  L 1041.51 124.97
  A 1.74 1.74 0.0 0 0 1042.51 125.40
  C 1046.99 125.81 1048.84 128.54 1052.05 130.37
  Q 1054.18 131.58 1056.16 133.00
  C 1059.42 135.33 1062.54 135.43 1065.28 139.05
  A 1.55 1.50 82.8 0 0 1065.88 139.53
  Q 1067.87 140.45 1070.06 140.60
  Q 1070.57 140.64 1070.96 140.96
  Q 1075.62 144.73 1080.68 147.91
  Q 1080.75 147.95 1085.04 150.03
  C 1087.53 151.23 1089.05 153.43 1091.20 154.72
  Q 1094.72 156.82 1098.23 158.91
  Q 1100.91 160.51 1104.14 163.38
  Q 1106.93 165.86 1110.01 167.98
  C 1111.96 169.32 1114.32 169.39 1116.34 171.16
  Q 1119.12 173.61 1121.83 176.14
  Q 1124.57 178.70 1127.73 180.56
  C 1131.50 182.78 1135.05 184.66 1138.19 187.83
  Q 1146.53 196.25 1149.24 198.46
  Q 1150.85 199.77 1156.37 203.06
  Q 1160.15 205.31 1163.09 208.11
  Q 1172.45 217.03 1181.54 226.21
  Q 1206.97 251.90 1232.10 277.88
  Q 1235.22 281.11 1238.13 284.54
  C 1239.45 286.08 1239.39 287.88 1240.61 289.23
  C 1242.92 291.78 1244.40 294.64 1246.76 296.99
  Q 1252.40 302.59 1257.42 308.75
  C 1259.15 310.88 1258.53 313.03 1260.38 315.06
  Q 1269.24 324.80 1272.45 329.29
  Q 1273.09 330.18 1273.42 332.87
  Q 1273.49 333.38 1273.83 333.76
  Q 1278.27 338.69 1282.52 343.74
  Q 1283.21 344.57 1283.31 347.44
  Q 1283.33 347.94 1283.65 348.33
  L 1292.19 358.72
  Q 1292.50 359.09 1292.52 359.58
  C 1292.70 364.98 1295.59 364.60 1297.64 368.58
  C 1299.11 371.42 1300.87 373.34 1302.21 376.49
  Q 1303.63 379.85 1306.57 382.22
  A 1.36 1.32 -75.5 0 1 1307.04 383.05
  L 1307.81 387.87
  A 1.32 1.29 12.7 0 0 1308.38 388.75
  Q 1312.57 391.55 1312.81 396.59
  A 1.42 1.40 -69.3 0 0 1313.22 397.51
  Q 1315.78 400.07 1317.33 403.21
  Q 1320.14 408.91 1320.20 409.02
  Q 1324.21 415.93 1327.42 423.21
  C 1329.29 427.43 1332.26 430.55 1332.13 436.42
  A 0.91 0.89 -73.1 0 0 1332.53 437.19
  Q 1336.86 440.04 1336.87 445.17
  A 2.18 2.15 -64.5 0 0 1337.34 446.52
  L 1341.51 451.74
  A 0.84 0.82 31.5 0 1 1341.68 452.41
  C 1340.54 458.15 1345.64 458.74 1346.22 463.87
  Q 1346.67 467.88 1348.86 471.22
  C 1351.02 474.51 1351.33 476.79 1351.62 480.41
  Q 1351.66 481.02 1352.04 481.50
  L 1355.36 485.74
  A 1.71 1.69 -67.5 0 1 1355.72 486.63
  L 1356.57 494.85
  Q 1356.63 495.43 1356.99 495.88
  L 1360.40 500.06
  A 1.35 1.31 23.3 0 1 1360.69 500.76
  Q 1361.03 504.27 1361.19 507.74
  C 1361.43 512.82 1366.03 512.88 1365.80 518.87
  Q 1365.56 525.04 1370.04 529.43
  A 1.37 1.32 -70.4 0 1 1370.44 530.32
  Q 1370.67 535.67 1371.38 540.84
  C 1371.95 544.99 1375.29 547.02 1375.56 551.12
  C 1375.81 554.97 1375.45 559.83 1377.73 563.15
  C 1381.49 568.64 1380.29 574.59 1380.94 581.00
  C 1381.38 585.39 1384.62 587.78 1384.95 591.91
  Q 1385.67 601.06 1385.51 606.00
  Q 1385.29 612.57 1388.82 617.21
  Q 1389.13 617.61 1389.56 619.04
  Q 1389.83 619.93 1389.88 620.98
  Q 1390.38 633.09 1390.44 645.22
  C 1390.46 651.02 1391.68 653.71 1393.98 658.79
  Q 1394.51 659.96 1394.73 663.76
  Q 1395.27 672.87 1395.30 682.00
  Q 1395.46 725.00 1395.29 768.00
  Q 1395.27 771.35 1394.70 773.88
  C 1393.91 777.40 1390.56 780.72 1390.54 785.00
  Q 1390.45 798.75 1390.18 812.50
  C 1390.11 815.77 1387.05 818.64 1386.19 821.95
  C 1384.72 827.59 1385.56 834.54 1385.32 840.43
  C 1385.13 844.99 1380.98 846.78 1380.86 850.19
  C 1380.72 854.16 1381.35 863.53 1379.05 866.65
  C 1375.46 871.52 1375.80 875.98 1375.64 881.31
  C 1375.58 883.10 1374.82 885.05 1373.70 886.40
  C 1370.35 890.47 1370.79 895.31 1370.73 900.28
  C 1370.69 903.06 1369.77 904.15 1367.72 905.73
  C 1365.10 907.76 1366.14 914.36 1365.62 917.56
  A 1.14 1.13 -17.3 0 1 1365.27 918.22
  L 1361.80 921.49
  A 1.54 1.50 -19.0 0 0 1361.32 922.44
  Q 1360.90 926.12 1361.18 929.75
  C 1361.44 933.05 1358.59 934.56 1356.78 936.76
  Q 1356.46 937.16 1356.43 937.67
  C 1356.25 940.79 1356.84 944.78 1355.42 947.54
  A 0.61 0.38 -84.8 0 1 1355.33 947.66
  L 1351.59 951.27
  A 0.89 0.89 0.0 0 0 1351.33 951.90
  C 1351.34 955.26 1351.48 958.95 1349.60 961.89
  C 1347.70 964.85 1346.04 965.88 1346.60 970.29
  A 1.42 1.41 -28.1 0 1 1346.26 971.40
  L 1342.07 976.23
  A 1.16 1.13 -23.7 0 0 1341.79 976.92
  C 1341.69 979.44 1341.55 981.15 1339.89 983.23
  C 1338.57 984.89 1337.37 985.89 1337.05 988.16
  Q 1336.58 991.55 1335.78 994.84
  A 1.48 1.48 0.0 0 1 1335.37 995.56
  Q 1331.55 999.36 1331.56 1004.77
  A 1.45 1.44 64.9 0 1 1331.23 1005.69
  C 1328.71 1008.80 1326.70 1009.83 1326.67 1014.29
  A 1.47 1.43 66.3 0 1 1326.33 1015.20
  C 1323.87 1018.16 1321.89 1019.32 1321.55 1023.96
  A 1.45 1.44 69.1 0 1 1321.16 1024.84
  C 1318.74 1027.36 1317.75 1028.84 1316.60 1032.56
  C 1315.86 1034.94 1314.06 1036.37 1313.06 1038.34
  C 1311.38 1041.67 1309.05 1044.21 1307.81 1047.81
  Q 1306.52 1051.59 1303.38 1054.27
  A 0.82 0.76 -16.3 0 0 1303.10 1054.74
  L 1302.41 1058.68
  Q 1302.32 1059.18 1301.98 1059.55
  Q 1297.96 1063.92 1294.68 1068.85
  Q 1294.01 1069.87 1292.91 1072.91
  C 1291.71 1076.23 1288.78 1077.62 1287.66 1081.13
  Q 1287.05 1083.06 1286.07 1084.37
  Q 1282.25 1089.49 1278.14 1094.37
  Q 1276.80 1095.96 1274.08 1101.14
  Q 1272.45 1104.25 1270.11 1106.79
  Q 1267.42 1109.71 1264.85 1112.71
  C 1263.12 1114.73 1264.08 1116.54 1262.59 1118.37
  Q 1256.49 1125.88 1249.65 1132.72
  C 1248.77 1133.59 1248.44 1135.90 1247.41 1137.24
  C 1245.15 1140.19 1243.67 1143.26 1241.05 1145.84
  Q 1233.38 1153.41 1225.96 1161.21
  Q 1221.88 1165.50 1215.96 1173.11
  Q 1204.22 1188.18 1191.81 1198.57
  Q 1180.00 1208.47 1172.91 1214.81
  C 1166.84 1220.25 1159.75 1228.52 1152.53 1234.84
  C 1148.14 1238.68 1141.52 1241.32 1137.60 1245.37
  Q 1130.52 1252.70 1123.43 1256.55
  C 1118.83 1259.04 1115.88 1262.01 1112.14 1265.23
  C 1109.61 1267.41 1107.04 1267.69 1104.58 1269.59
  Q 1100.27 1272.92 1096.04 1276.31
  C 1094.53 1277.52 1092.55 1277.55 1091.39 1278.38
  Q 1086.59 1281.83 1082.01 1285.53
  C 1079.99 1287.17 1077.67 1287.41 1075.77 1288.81
  Q 1067.95 1294.55 1063.99 1296.66
  Q 1059.44 1299.09 1056.89 1301.22
  Q 1056.50 1301.54 1056.00 1301.60
  Q 1051.04 1302.21 1047.66 1305.92
  A 1.74 1.70 -74.7 0 1 1046.79 1306.43
  C 1042.39 1307.49 1039.93 1310.22 1036.24 1312.17
  C 1033.87 1313.42 1032.02 1315.09 1029.56 1316.12
  C 1025.83 1317.69 1022.93 1320.21 1019.04 1321.38
  C 1015.33 1322.50 1012.45 1324.96 1009.21 1326.10
  C 1006.87 1326.93 1004.97 1327.26 1002.83 1328.83
  Q 999.86 1330.98 996.29 1331.80
  C 992.33 1332.70 990.59 1335.45 986.80 1336.16
  Q 982.47 1336.97 979.32 1340.17
  Q 978.97 1340.53 978.48 1340.61
  C 975.12 1341.19 972.92 1341.60 969.78 1343.53
  Q 965.38 1346.24 960.06 1346.49
  A 1.20 1.18 -64.0 0 0 959.44 1346.71
  L 954.37 1350.45
  A 1.31 1.31 0.0 0 1 953.65 1350.71
  Q 947.37 1350.90 942.44 1354.70
  Q 941.16 1355.69 938.02 1355.92
  C 934.27 1356.19 932.29 1356.94 929.49 1358.93
  C 926.16 1361.30 922.03 1360.52 918.26 1361.44
  Q 916.80 1361.80 913.98 1363.54
  C 908.10 1367.17 902.48 1363.86 897.72 1368.96
  C 895.56 1371.27 888.03 1370.66 884.78 1371.07
  C 880.39 1371.63 878.99 1375.30 874.51 1375.30
  Q 869.91 1375.30 865.38 1375.92
  C 861.04 1376.53 859.48 1380.25 855.00 1380.34
  Q 848.87 1380.47 842.75 1380.61
  C 838.23 1380.72 835.18 1385.20 831.01 1385.27
  Q 823.36 1385.41 815.74 1385.58
  Q 812.79 1385.65 808.45 1388.98
  Q 807.37 1389.81 802.74 1389.97
  Q 792.38 1390.33 782.00 1390.35
  C 778.26 1390.35 775.58 1390.71 771.82 1392.21
  C 764.12 1395.28 757.74 1395.18 749.57 1395.20
  Q 701.04 1395.33 652.50 1395.23
  C 647.36 1395.22 642.72 1394.93 638.03 1392.34
  Q 634.55 1390.42 632.51 1390.42
  Q 620.42 1390.41 608.35 1390.15
  C 603.95 1390.06 602.00 1389.41 598.52 1387.17
  Q 595.54 1385.26 591.00 1385.40
  Q 584.05 1385.62 577.14 1385.03
  C 572.96 1384.67 571.28 1381.18 567.36 1380.81
  Q 560.27 1380.15 554.51 1380.28
  C 551.57 1380.35 550.57 1379.90 548.24 1377.81
  C 544.59 1374.53 536.54 1375.52 531.87 1375.37
  Q 531.36 1375.35 530.97 1375.02
  L 526.82 1371.44
  L 527.21 1371.05
  Q 669.31 1407.76 814.13 1385.14
  C 933.68 1366.47 1046.41 1316.24 1139.91 1241.42
  C 1228.83 1170.26 1300.60 1075.69 1343.79 969.02
  Q 1405.51 816.61 1390.27 652.19
  Q 1389.35 642.23 1388.03 632.32
  Q 1366.57 470.86 1274.72 336.96
  C 1196.42 222.81 1084.62 136.82 955.76 86.43
  Q 955.40 86.48 955.48 86.00
  Z"
/>
<path fill="#fed736" d="
  M 1308.25 725.80
  A 601.20 587.83 0.0 0 1 707.05 1313.63
  A 601.20 587.83 0.0 0 1 105.85 725.80
  A 601.20 587.83 0.0 0 1 707.05 137.97
  A 601.20 587.83 0.0 0 1 1308.25 725.80
  Z
  M 1237.13 730.64
  A 525.89 505.63 0.0 0 0 711.24 225.01
  A 525.89 505.63 0.0 0 0 185.35 730.64
  A 525.89 505.63 0.0 0 0 711.24 1236.27
  A 525.89 505.63 0.0 0 0 1237.13 730.64
  Z"
/>
<path fill="#f9b50e" d="
  M 1237.13 730.64
  A 525.89 505.63 0.0 0 1 711.24 1236.27
  A 525.89 505.63 0.0 0 1 185.35 730.64
  A 525.89 505.63 0.0 0 1 711.24 225.01
  A 525.89 505.63 0.0 0 1 1237.13 730.64
  Z
  M 619.73 525.62
  Q 623.78 527.28 630.02 528.21
  C 632.10 528.52 633.10 530.27 633.03 532.38
  Q 632.35 550.85 631.56 569.33
  C 631.33 574.53 630.31 578.53 625.66 580.73
  Q 623.30 581.84 616.67 581.94
  Q 556.28 582.86 496.73 593.24
  Q 460.04 599.63 428.09 618.12
  C 414.16 626.19 400.57 636.90 387.71 647.22
  C 355.80 672.81 344.27 709.55 343.65 749.26
  Q 343.42 763.42 343.31 777.46
  Q 342.61 839.90 349.37 901.81
  Q 350.76 914.54 352.62 921.52
  Q 359.84 948.62 380.77 968.22
  C 398.80 985.10 418.50 1002.31 441.10 1012.68
  C 450.71 1017.10 460.49 1019.38 471.01 1021.07
  Q 508.87 1027.16 545.93 1020.22
  C 563.82 1016.86 576.64 1003.11 585.92 988.21
  C 597.55 969.55 596.99 947.66 582.90 930.86
  C 575.22 921.72 564.42 916.36 553.73 912.08
  Q 533.51 903.99 512.32 898.79
  C 502.45 896.36 495.93 889.94 490.45 881.30
  Q 480.33 865.34 473.72 850.05
  C 461.78 822.43 462.63 794.13 472.05 765.98
  C 476.31 753.23 481.30 740.60 489.28 731.02
  C 502.48 715.17 523.25 711.60 543.25 710.56
  Q 579.09 708.70 608.37 708.15
  L 627.55 708.56
  A 1.29 1.27 66.9 0 1 628.40 708.91
  C 631.50 711.77 634.74 714.98 635.46 719.36
  Q 641.62 756.65 637.28 794.16
  C 636.87 797.74 636.90 801.03 636.88 804.53
  Q 635.44 896.16 632.39 987.75
  Q 631.96 1000.58 632.30 1007.75
  Q 633.55 1034.88 641.29 1061.05
  C 648.72 1086.17 665.84 1101.69 693.40 1095.24
  Q 727.97 1087.14 755.31 1064.57
  Q 758.56 1061.88 760.83 1057.01
  Q 761.94 1054.63 761.98 1051.35
  Q 762.08 1043.82 762.58 1036.32
  Q 762.89 1031.68 762.32 1027.23
  Q 757.79 991.77 758.77 955.99
  C 759.39 933.38 760.44 910.63 759.94 888.00
  Q 759.55 870.25 759.16 852.50
  Q 757.75 789.11 761.17 725.39
  Q 762.44 712.31 775.74 711.47
  Q 820.19 708.67 866.06 712.80
  Q 877.96 713.87 885.75 716.03
  Q 899.98 719.97 912.87 727.45
  C 915.46 728.95 916.51 729.30 917.61 731.65
  Q 922.58 742.29 925.58 750.92
  Q 927.49 763.20 929.30 774.77
  C 932.05 792.28 933.52 810.15 932.44 827.88
  C 930.96 852.03 915.83 869.70 895.65 881.87
  Q 867.00 899.15 834.95 908.93
  C 829.14 910.70 821.78 914.34 818.44 919.47
  C 813.59 926.92 815.70 933.08 818.15 942.79
  C 822.08 958.41 826.19 974.61 832.59 989.17
  C 850.13 1029.08 899.11 1024.81 933.83 1017.11
  C 986.63 1005.40 1023.09 972.36 1038.86 919.67
  Q 1039.02 919.45 1039.20 918.74
  Q 1052.60 862.92 1053.65 805.50
  Q 1054.09 781.21 1053.15 753.76
  C 1052.00 720.57 1042.86 682.54 1021.04 657.02
  C 1012.63 647.18 1001.22 638.62 988.51 628.74
  C 966.96 611.99 943.57 597.65 917.76 592.72
  Q 905.45 590.36 882.00 587.65
  Q 867.30 585.95 852.50 585.87
  Q 811.98 585.67 771.44 585.76
  C 764.43 585.77 761.54 581.92 761.33 575.00
  Q 760.58 550.59 764.98 530.21
  Q 767.54 518.37 781.12 514.31
  Q 839.80 513.10 903.00 506.60
  Q 928.91 503.94 952.30 497.68
  C 966.20 493.95 975.55 489.27 980.33 475.28
  C 987.65 453.86 985.64 430.08 975.59 410.01
  Q 970.02 398.87 964.54 393.44
  C 954.72 383.70 940.87 382.24 927.50 383.19
  Q 729.64 397.14 531.73 410.28
  C 505.80 412.01 480.67 415.93 454.07 421.63
  C 434.94 425.72 419.97 436.77 414.60 456.08
  C 410.67 470.22 409.08 487.44 413.51 501.19
  C 421.46 525.86 447.53 537.30 472.26 535.72
  Q 491.01 534.53 509.76 533.24
  Q 539.23 531.21 568.76 531.18
  Q 581.62 531.17 588.71 530.22
  Q 600.29 528.66 611.55 525.35
  C 614.37 524.53 616.91 525.52 619.73 525.62
  Z"
/>
<path fill="#fff8c0" d="
  M 781.12 514.31
  Q 780.59 512.73 778.47 513.02
  Q 775.67 513.41 773.51 514.18
  Q 771.74 514.82 771.00 513.09
  Q 767.39 504.58 758.25 505.97
  Q 746.25 507.79 717.73 514.38
  Q 717.69 514.39 703.80 517.80
  Q 662.44 527.98 619.73 525.62
  C 616.91 525.52 614.37 524.53 611.55 525.35
  Q 600.29 528.66 588.71 530.22
  Q 581.62 531.17 568.76 531.18
  Q 539.23 531.21 509.76 533.24
  Q 491.01 534.53 472.26 535.72
  C 447.53 537.30 421.46 525.86 413.51 501.19
  C 409.08 487.44 410.67 470.22 414.60 456.08
  C 419.97 436.77 434.94 425.72 454.07 421.63
  C 480.67 415.93 505.80 412.01 531.73 410.28
  Q 729.64 397.14 927.50 383.19
  C 940.87 382.24 954.72 383.70 964.54 393.44
  Q 970.02 398.87 975.59 410.01
  C 985.64 430.08 987.65 453.86 980.33 475.28
  C 975.55 489.27 966.20 493.95 952.30 497.68
  Q 928.91 503.94 903.00 506.60
  Q 839.80 513.10 781.12 514.31
  Z"
/>
<path fill="#fef3a6" d="
  M 781.12 514.31
  Q 767.54 518.37 764.98 530.21
  Q 760.58 550.59 761.33 575.00
  C 761.54 581.92 764.43 585.77 771.44 585.76
  Q 811.98 585.67 852.50 585.87
  Q 867.30 585.95 882.00 587.65
  Q 905.45 590.36 917.76 592.72
  C 943.57 597.65 966.96 611.99 988.51 628.74
  C 1001.22 638.62 1012.63 647.18 1021.04 657.02
  C 1042.86 682.54 1052.00 720.57 1053.15 753.76
  Q 1054.09 781.21 1053.65 805.50
  Q 1052.60 862.92 1039.20 918.74
  Q 1039.02 919.45 1038.86 919.67
  C 1034.53 923.01 1031.42 926.79 1025.72 928.66
  Q 1022.82 929.62 1016.15 929.82
  C 1010.33 930.00 1004.40 930.97 998.93 930.98
  C 984.20 931.00 969.61 933.74 963.07 917.50
  A 2.11 2.11 0.0 0 1 963.71 915.06
  C 966.52 912.79 963.38 907.34 963.21 904.50
  Q 962.35 889.94 964.56 874.33
  Q 965.95 864.47 966.25 861.09
  C 967.42 848.10 966.82 837.51 964.40 823.67
  C 963.08 816.15 959.50 811.13 956.07 805.00
  C 953.75 800.85 954.48 798.59 949.71 795.66
  C 941.45 790.56 935.54 783.56 933.06 774.09
  Q 930.97 766.12 928.72 758.27
  Q 927.65 754.50 925.58 750.92
  Q 922.58 742.29 917.61 731.65
  C 916.51 729.30 915.46 728.95 912.87 727.45
  Q 899.98 719.97 885.75 716.03
  Q 877.96 713.87 866.06 712.80
  Q 820.19 708.67 775.74 711.47
  Q 762.44 712.31 761.17 725.39
  Q 754.99 744.06 750.65 763.23
  A 1.64 1.63 25.5 0 1 748.04 764.15
  C 744.52 761.36 740.32 763.17 737.27 766.19
  Q 732.68 770.74 728.00 775.19
  C 726.32 776.79 723.10 778.79 721.21 781.43
  Q 720.94 781.81 720.96 782.28
  L 721.13 785.22
  Q 721.17 785.86 720.61 786.17
  Q 712.06 790.90 702.33 791.07
  C 697.63 791.15 695.21 794.56 694.51 798.95
  A 0.91 0.88 -9.5 0 1 694.02 799.61
  L 683.54 804.68
  Q 683.00 804.94 682.48 804.63
  C 675.67 800.58 672.55 804.19 666.92 807.51
  A 1.52 1.50 -55.7 0 1 665.96 807.70
  Q 655.77 806.25 650.25 807.07
  Q 645.50 807.77 640.93 809.17
  Q 638.49 809.91 639.13 812.24
  Q 640.23 816.24 638.92 819.78
  A 0.70 0.70 0.0 0 1 637.57 819.57
  L 636.88 804.53
  C 636.90 801.03 636.87 797.74 637.28 794.16
  Q 641.62 756.65 635.46 719.36
  C 634.74 714.98 631.50 711.77 628.40 708.91
  A 1.29 1.27 66.9 0 0 627.55 708.56
  L 608.37 708.15
  Q 603.99 706.03 598.17 706.41
  Q 595.68 706.57 593.36 706.08
  Q 588.36 705.03 581.75 705.03
  Q 560.97 705.05 540.20 705.05
  Q 538.22 705.05 536.13 705.55
  Q 534.11 706.04 532.07 706.44
  Q 528.63 707.12 526.06 708.00
  Q 513.74 712.21 501.48 716.64
  Q 491.77 720.15 487.32 727.34
  Q 481.77 736.32 475.95 745.11
  Q 474.24 747.69 473.35 750.78
  Q 470.18 761.83 466.66 768.93
  Q 460.51 781.34 445.93 778.09
  C 443.67 777.58 442.06 777.98 440.55 779.92
  Q 431.05 792.10 415.28 793.61
  A 0.82 0.81 66.0 0 1 414.62 793.35
  L 412.81 791.35
  A 0.93 0.90 -27.3 0 0 411.91 791.08
  Q 402.67 793.30 394.05 789.85
  C 387.98 787.42 384.09 790.46 380.03 795.03
  C 377.89 797.44 374.12 796.92 370.92 795.75
  Q 364.07 793.25 358.87 798.12
  Q 357.08 799.80 355.73 800.04
  C 352.17 800.66 350.37 798.86 350.12 795.28
  C 349.87 791.90 350.52 788.96 347.95 786.19
  Q 344.68 782.66 343.31 777.46
  Q 343.42 763.42 343.65 749.26
  C 344.27 709.55 355.80 672.81 387.71 647.22
  C 400.57 636.90 414.16 626.19 428.09 618.12
  Q 460.04 599.63 496.73 593.24
  Q 556.28 582.86 616.67 581.94
  Q 623.30 581.84 625.66 580.73
  C 630.31 578.53 631.33 574.53 631.56 569.33
  Q 632.35 550.85 633.03 532.38
  C 633.10 530.27 632.10 528.52 630.02 528.21
  Q 623.78 527.28 619.73 525.62
  Q 662.44 527.98 703.80 517.80
  Q 717.69 514.39 717.73 514.38
  Q 746.25 507.79 758.25 505.97
  Q 767.39 504.58 771.00 513.09
  Q 771.74 514.82 773.51 514.18
  Q 775.67 513.41 778.47 513.02
  Q 780.59 512.73 781.12 514.31
  Z"
/>
<path fill="#fff085" d="
  M 18.26 652.42
  L 17.83 660.22
  Q 17.26 659.62 17.14 660.06
  L 17.56 654.72
  Q 18.37 653.90 18.26 652.42
  Z"
/>
<path fill="#fffffe" d="
  M 17.83 660.22
  C 17.77 662.29 17.25 664.49 17.12 666.26
  Q 13.09 718.79 17.38 771.28
  Q 17.20 772.68 16.87 772.24
  Q 12.56 760.45 12.77 747.00
  Q 12.95 734.76 12.80 689.64
  Q 12.77 682.14 13.84 675.92
  Q 15.21 667.94 17.14 660.06
  Q 17.26 659.62 17.83 660.22
  Z"
/>
<path fill="#fff085" d="
  M 608.37 708.15
  Q 579.09 708.70 543.25 710.56
  C 523.25 711.60 502.48 715.17 489.28 731.02
  C 481.30 740.60 476.31 753.23 472.05 765.98
  C 462.63 794.13 461.78 822.43 473.72 850.05
  Q 480.33 865.34 490.45 881.30
  C 495.93 889.94 502.45 896.36 512.32 898.79
  Q 533.51 903.99 553.73 912.08
  C 564.42 916.36 575.22 921.72 582.90 930.86
  C 596.99 947.66 597.55 969.55 585.92 988.21
  C 576.64 1003.11 563.82 1016.86 545.93 1020.22
  Q 508.87 1027.16 471.01 1021.07
  C 460.49 1019.38 450.71 1017.10 441.10 1012.68
  C 418.50 1002.31 398.80 985.10 380.77 968.22
  Q 359.84 948.62 352.62 921.52
  Q 350.76 914.54 349.37 901.81
  Q 342.61 839.90 343.31 777.46
  Q 344.68 782.66 347.95 786.19
  C 350.52 788.96 349.87 791.90 350.12 795.28
  C 350.37 798.86 352.17 800.66 355.73 800.04
  Q 357.08 799.80 358.87 798.12
  Q 364.07 793.25 370.92 795.75
  C 374.12 796.92 377.89 797.44 380.03 795.03
  C 384.09 790.46 387.98 787.42 394.05 789.85
  Q 402.67 793.30 411.91 791.08
  A 0.93 0.90 -27.3 0 1 412.81 791.35
  L 414.62 793.35
  A 0.82 0.81 66.0 0 0 415.28 793.61
  Q 431.05 792.10 440.55 779.92
  C 442.06 777.98 443.67 777.58 445.93 778.09
  Q 460.51 781.34 466.66 768.93
  Q 470.18 761.83 473.35 750.78
  Q 474.24 747.69 475.95 745.11
  Q 481.77 736.32 487.32 727.34
  Q 491.77 720.15 501.48 716.64
  Q 513.74 712.21 526.06 708.00
  Q 528.63 707.12 532.07 706.44
  Q 534.11 706.04 536.13 705.55
  Q 538.22 705.05 540.20 705.05
  Q 560.97 705.05 581.75 705.03
  Q 588.36 705.03 593.36 706.08
  Q 595.68 706.57 598.17 706.41
  Q 603.99 706.03 608.37 708.15
  Z"
/>
<path fill="#fff085" d="
  M 761.17 725.39
  Q 757.75 789.11 759.16 852.50
  Q 759.55 870.25 759.94 888.00
  C 760.44 910.63 759.39 933.38 758.77 955.99
  Q 757.79 991.77 762.32 1027.23
  Q 762.89 1031.68 762.58 1036.32
  Q 762.08 1043.82 761.98 1051.35
  Q 761.94 1054.63 760.83 1057.01
  Q 758.56 1061.88 755.31 1064.57
  Q 727.97 1087.14 693.40 1095.24
  C 665.84 1101.69 648.72 1086.17 641.29 1061.05
  Q 633.55 1034.88 632.30 1007.75
  Q 631.96 1000.58 632.39 987.75
  Q 635.44 896.16 636.88 804.53
  L 637.57 819.57
  A 0.70 0.70 0.0 0 0 638.92 819.78
  Q 640.23 816.24 639.13 812.24
  Q 638.49 809.91 640.93 809.17
  Q 645.50 807.77 650.25 807.07
  Q 655.77 806.25 665.96 807.70
  A 1.52 1.50 -55.7 0 0 666.92 807.51
  C 672.55 804.19 675.67 800.58 682.48 804.63
  Q 683.00 804.94 683.54 804.68
  L 694.02 799.61
  A 0.91 0.88 -9.5 0 0 694.51 798.95
  C 695.21 794.56 697.63 791.15 702.33 791.07
  Q 712.06 790.90 720.61 786.17
  Q 721.17 785.86 721.13 785.22
  L 720.96 782.28
  Q 720.94 781.81 721.21 781.43
  C 723.10 778.79 726.32 776.79 728.00 775.19
  Q 732.68 770.74 737.27 766.19
  C 740.32 763.17 744.52 761.36 748.04 764.15
  A 1.64 1.63 25.5 0 0 750.65 763.23
  Q 754.99 744.06 761.17 725.39
  Z"
/>
<path fill="#fff085" d="
  M 925.58 750.92
  Q 927.65 754.50 928.72 758.27
  Q 930.97 766.12 933.06 774.09
  C 935.54 783.56 941.45 790.56 949.71 795.66
  C 954.48 798.59 953.75 800.85 956.07 805.00
  C 959.50 811.13 963.08 816.15 964.40 823.67
  C 966.82 837.51 967.42 848.10 966.25 861.09
  Q 965.95 864.47 964.56 874.33
  Q 962.35 889.94 963.21 904.50
  C 963.38 907.34 966.52 912.79 963.71 915.06
  A 2.11 2.11 0.0 0 0 963.07 917.50
  C 969.61 933.74 984.20 931.00 998.93 930.98
  C 1004.40 930.97 1010.33 930.00 1016.15 929.82
  Q 1022.82 929.62 1025.72 928.66
  C 1031.42 926.79 1034.53 923.01 1038.86 919.67
  C 1023.09 972.36 986.63 1005.40 933.83 1017.11
  C 899.11 1024.81 850.13 1029.08 832.59 989.17
  C 826.19 974.61 822.08 958.41 818.15 942.79
  C 815.70 933.08 813.59 926.92 818.44 919.47
  C 821.78 914.34 829.14 910.70 834.95 908.93
  Q 867.00 899.15 895.65 881.87
  C 915.83 869.70 930.96 852.03 932.44 827.88
  C 933.52 810.15 932.05 792.28 929.30 774.77
  Q 927.49 763.20 925.58 750.92
  Z"
/>
<path fill="#fff085" d="
  M 17.38 771.28
  Q 18.86 775.83 18.29 780.99
  Q 18.20 779.77 17.55 779.52
  L 16.87 772.24
  Q 17.20 772.68 17.38 771.28
  Z"
/>
<path fill="#fffffe" d="
  M 17.55 779.52
  Q 18.20 779.77 18.29 780.99
  Q 20.27 801.16 22.37 814.99
  C 48.58 987.83 141.18 1143.67 278.73 1249.31
  Q 375.14 1323.36 490.97 1360.58
  Q 491.13 1360.63 491.23 1360.89
  Q 486.25 1361.29 481.69 1359.96
  A 1.63 1.61 78.3 0 1 480.92 1359.45
  C 477.53 1355.36 473.10 1356.13 468.61 1355.52
  Q 468.11 1355.45 467.74 1355.11
  Q 466.11 1353.62 464.33 1352.39
  C 461.88 1350.68 459.02 1351.13 456.16 1350.76
  C 453.33 1350.40 452.30 1349.17 450.17 1347.55
  C 447.44 1345.49 444.01 1346.50 440.94 1344.72
  C 437.06 1342.47 435.30 1341.29 429.83 1341.01
  A 1.81 1.78 65.9 0 1 428.78 1340.60
  L 424.77 1337.32
  Q 424.33 1336.96 423.77 1336.86
  L 418.73 1335.97
  A 0.99 0.95 73.9 0 1 418.16 1335.64
  Q 414.73 1331.52 409.34 1331.28
  A 1.34 1.30 70.1 0 1 408.39 1330.82
  Q 404.99 1326.89 399.80 1326.53
  A 1.60 1.56 -18.1 0 1 398.74 1326.01
  Q 395.11 1322.00 389.71 1321.46
  A 1.56 1.53 -18.3 0 1 388.75 1320.99
  Q 385.37 1317.40 380.48 1316.75
  Q 380.05 1316.69 379.71 1316.41
  L 375.48 1312.90
  A 1.62 1.59 67.6 0 0 374.61 1312.53
  Q 369.86 1311.95 366.71 1308.29
  C 365.17 1306.52 361.24 1307.69 359.36 1305.45
  Q 356.49 1302.02 351.98 1301.67
  Q 351.47 1301.63 351.07 1301.31
  Q 347.35 1298.38 343.50 1295.67
  C 340.34 1293.45 335.87 1292.00 332.57 1288.48
  A 2.02 1.99 76.0 0 0 331.72 1287.96
  Q 324.04 1285.69 318.99 1279.47
  C 317.56 1277.71 313.34 1277.11 311.18 1275.55
  Q 307.29 1272.73 303.91 1269.34
  C 302.11 1267.53 298.54 1266.87 296.30 1265.18
  Q 289.78 1260.26 283.93 1254.57
  Q 282.56 1253.24 279.40 1252.87
  Q 278.91 1252.81 278.51 1252.52
  C 271.45 1247.32 265.46 1239.81 259.41 1234.84
  C 257.39 1233.19 254.84 1233.24 252.74 1231.44
  Q 250.46 1229.49 248.33 1227.42
  Q 216.45 1196.58 185.63 1164.67
  C 181.53 1160.42 175.80 1155.02 171.13 1149.95
  Q 169.26 1147.92 167.81 1144.89
  C 164.09 1137.11 157.42 1131.80 151.87 1125.75
  Q 150.15 1123.89 148.67 1120.91
  Q 145.02 1113.60 138.69 1107.77
  Q 135.59 1104.92 134.27 1100.80
  C 133.03 1096.94 129.31 1093.61 126.68 1090.59
  C 124.63 1088.23 124.70 1085.67 122.90 1083.28
  C 120.31 1079.86 116.36 1075.97 115.06 1071.90
  C 113.95 1068.43 111.16 1065.73 109.75 1063.33
  Q 107.83 1060.09 106.04 1056.79
  Q 105.24 1055.31 102.78 1052.17
  Q 100.37 1049.07 99.43 1045.15
  A 1.93 1.90 -73.9 0 0 98.96 1044.28
  Q 95.58 1040.75 94.68 1035.94
  A 1.84 1.76 20.2 0 0 94.27 1035.10
  Q 91.58 1031.96 90.17 1028.15
  C 88.78 1024.38 86.35 1021.80 85.13 1017.91
  Q 84.54 1016.02 83.31 1014.35
  Q 80.81 1010.92 79.98 1006.70
  A 1.84 1.80 19.6 0 0 79.54 1005.80
  Q 76.58 1002.48 75.62 998.26
  C 74.76 994.48 72.17 993.10 71.26 989.60
  C 70.20 985.57 67.62 983.26 66.48 979.52
  Q 65.02 974.78 62.08 970.75
  A 1.74 1.67 -67.1 0 1 61.77 969.94
  C 61.38 966.46 61.33 963.14 59.30 960.10
  C 58.09 958.29 57.02 957.12 56.72 954.81
  C 55.97 949.23 52.19 946.32 51.55 940.71
  Q 51.17 937.31 50.50 935.93
  C 49.48 933.83 47.83 932.39 47.36 930.11
  C 46.30 925.01 47.13 921.69 43.06 917.67
  Q 42.69 917.31 42.58 916.81
  C 41.74 913.15 42.23 909.18 40.80 905.95
  C 39.51 903.05 37.58 901.09 37.21 897.86
  C 36.85 894.67 37.39 890.10 36.08 887.43
  C 34.84 884.91 32.51 884.05 32.35 880.75
  Q 32.11 876.15 32.01 871.54
  C 31.91 867.61 30.45 865.45 28.02 862.70
  A 1.51 1.47 22.8 0 1 27.66 861.85
  Q 27.09 854.26 27.07 846.76
  C 27.06 842.15 22.84 840.66 22.54 836.15
  C 21.96 827.44 23.81 817.78 19.17 810.55
  C 17.79 808.41 17.72 806.73 17.68 804.38
  Q 17.45 791.97 17.55 779.52
  Z"
/>
<path fill="#fffffe" d="
  M 524.29 1370.27
  Q 524.80 1370.75 524.53 1370.77
  L 512.47 1370.36
  Q 511.96 1370.35 511.58 1370.00
  C 509.86 1368.41 507.82 1365.69 505.25 1365.73
  Q 501.38 1365.79 497.54 1365.32
  A 1.55 1.52 -19.8 0 1 496.69 1364.93
  L 493.03 1361.55
  L 524.29 1370.27
  Z"
/>
<path fill="#fff085" d="
  M 524.29 1370.27
  L 527.21 1371.05
  L 526.82 1371.44
  L 524.53 1370.77
  Q 524.80 1370.75 524.29 1370.27
  Z"
/>
</svg>
