<?xml version="1.0" encoding="UTF-8" standalone="no"?>
<svg
   version="1.1"
   viewBox="0.00 0.00 58.00 57.00"
   id="svg22"
   sodipodi:docname="零钱.svg"
   inkscape:version="1.2.2 (732a01da63, 2022-12-09)"
   xmlns:inkscape="http://www.inkscape.org/namespaces/inkscape"
   xmlns:sodipodi="http://sodipodi.sourceforge.net/DTD/sodipodi-0.dtd"
   xmlns="http://www.w3.org/2000/svg"
   xmlns:svg="http://www.w3.org/2000/svg">
  <defs
     id="defs26" />
  <sodipodi:namedview
     id="namedview24"
     pagecolor="#ffffff"
     bordercolor="#000000"
     borderopacity="0.25"
     inkscape:showpageshadow="2"
     inkscape:pageopacity="0.0"
     inkscape:pagecheckerboard="0"
     inkscape:deskcolor="#d1d1d1"
     showgrid="false"
     inkscape:zoom="18.017544"
     inkscape:cx="31.608082"
     inkscape:cy="30.886563"
     inkscape:window-width="3840"
     inkscape:window-height="2071"
     inkscape:window-x="-9"
     inkscape:window-y="-9"
     inkscape:window-maximized="1"
     inkscape:current-layer="svg22" />
  <path
     fill="#181120"
     d="m 51.364796,40.516638 a 9.74,9.74 0 0 1 -9.774,9.706 l -23.4198,-0.0818 a 9.74,9.74 0 0 1 -9.7059996,-9.7739 l 0.0746,-21.3799 A 9.74,9.74 0 0 1 18.313596,9.2810384 l 23.4198,0.0818 a 9.74,9.74 0 0 1 9.706,9.7738996 z m -22.7326,-16.2548 c 3.58,-4.23 13.38,-3.08 19.16,-2.86 a 0.59,0.59 0 0 0 0.61,-0.57 c 0.35,-7.72 -3.58,-8.52 -10.3,-8.54 -6.23,-0.02 -12.56,0.25 -18.77,-0.05 -5.84,-0.29 -7.67,3.17 -7.71,8.63 -0.04,6.31 0.22,12.72 -0.08,19.01 -0.27,5.83 3.41,7.12 8.7,7.16 q 10.32,0.08 20.68,-0.01 c 5.25,-0.04 8.19,-2.84 7.36,-8.25 q -0.08,-0.49 -0.58,-0.5 c -5.01,-0.13 -12.17,0.67 -16.16,-0.97 -5.13,-2.1 -6.61,-8.7 -2.91,-13.05 z m 19.67,10.66 0.04,-10.3 a 0.35,0.35 0 0 0 -0.35,-0.35 l -12.96,-0.04 a 5.41,5.17 0.2 0 0 -5.43,5.15 v 0.66 a 5.41,5.17 0.2 0 0 5.39,5.19 l 12.96,0.04 a 0.35,0.35 0 0 0 0.35,-0.35 z"
     id="path14" />
  <ellipse
     fill="#181120"
     cx="36.873928"
     cy="29.56946"
     transform="rotate(0.2)"
     rx="2.1199999"
     ry="1.51"
     id="ellipse20" />
</svg>
