<?xml version="1.0" encoding="UTF-8" standalone="no"?>
<!DOCTYPE svg PUBLIC "-//W3C//DTD SVG 1.1//EN" "http://www.w3.org/Graphics/SVG/1.1/DTD/svg11.dtd">
<svg xmlns="http://www.w3.org/2000/svg" version="1.1" viewBox="0.00 0.00 1247.00 1248.00">
<g stroke-width="2.00" fill="none" stroke-linecap="butt">
<path stroke="#fea088" vector-effect="non-scaling-stroke" d="
  M 547.25 9.08
  Q 460.24 21.41 381.57 53.84
  Q 276.54 97.14 195.21 177.81
  C 136.68 235.85 88.90 309.17 55.73 385.67
  Q 14.82 480.02 7.50 582.67
  C 7.29 585.69 7.55 589.53 7.23 592.94
  C 5.58 610.90 6.05 629.48 6.82 647.50
  C 6.87 648.69 7.40 650.04 7.39 651.51
  Q 7.35 658.01 7.83 664.50
  C 21.05 842.54 113.18 1008.16 256.13 1114.62
  Q 384.47 1210.20 544.05 1230.82
  Q 548.60 1231.40 554.94 1231.95
  Q 560.39 1232.42 565.84 1232.95
  C 599.24 1236.20 633.09 1236.19 666.55 1233.72"
/>
<path stroke="#fe8c95" vector-effect="non-scaling-stroke" d="
  M 666.55 1233.72
  Q 673.39 1233.35 691.77 1231.75
  C 781.18 1223.98 868.22 1193.91 944.54 1147.25
  Q 1032.55 1093.43 1099.62 1012.44
  C 1138.36 965.65 1169.82 912.17 1193.05 856.05
  C 1263.43 686.01 1253.85 494.34 1168.83 331.66
  C 1123.90 245.69 1058.33 172.10 979.16 116.09
  Q 863.14 34.00 722.24 12.77
  C 708.58 10.71 691.07 8.56 675.27 7.51
  Q 658.60 6.40 653.25 6.11
  Q 602.65 3.36 547.25 9.08"
/>
<path stroke="#fd2d1e" vector-effect="non-scaling-stroke" d="
  M 666.55 1233.72
  Q 665.45 1233.00 665.63 1232.31
  Q 665.73 1231.92 665.36 1231.74
  Q 650.93 1224.89 635.35 1221.72
  C 628.07 1220.24 620.33 1220.13 612.69 1219.94
  A 0.95 0.94 -67.6 0 1 612.03 1218.35
  Q 614.59 1215.61 618.75 1215.62
  Q 630.46 1215.63 642.13 1214.72
  C 652.36 1213.92 659.87 1208.00 659.74 1197.05
  Q 659.70 1193.69 657.76 1188.69
  C 648.10 1163.80 640.24 1139.69 640.52 1113.24
  Q 640.54 1111.40 641.82 1093.28
  Q 645.07 1047.15 634.20 1002.01
  C 633.12 997.54 637.23 995.26 639.96 992.83
  A 1.45 1.44 74.5 0 0 640.42 992.01
  Q 640.97 989.06 639.51 986.50
  Q 621.74 955.22 609.72 922.24
  C 607.85 917.12 606.88 912.21 613.49 910.75
  Q 621.64 908.95 645.26 904.02
  Q 649.19 903.20 652.67 902.13
  Q 656.33 901.01 659.96 899.83"
/>
<path stroke="#fe8c95" vector-effect="non-scaling-stroke" d="
  M 659.96 899.83
  Q 821.85 899.15 983.75 899.70
  C 1006.46 899.77 1027.47 892.49 1034.41 869.83
  C 1038.24 857.35 1036.79 841.44 1033.67 828.34
  C 1033.06 825.77 1031.26 821.96 1029.08 821.09
  C 1015.06 815.48 1002.06 806.27 996.84 791.55
  C 990.08 772.45 1000.64 753.67 1017.84 744.86
  Q 1024.14 741.64 1030.77 739.22
  Q 1038.21 736.51 1038.48 728.76
  Q 1038.80 719.43 1039.11 684.00
  C 1039.17 677.28 1036.96 674.74 1030.92 671.69
  C 1020.28 666.31 1011.55 659.73 1004.53 649.74
  C 993.68 634.31 993.33 615.50 1004.92 600.66
  C 1010.96 592.93 1017.71 588.87 1027.10 583.59
  C 1029.31 582.34 1031.80 580.18 1032.66 578.14
  C 1043.47 552.52 1042.94 522.37 1017.01 505.75
  C 1011.85 502.45 1004.96 499.10 1002.34 493.38
  C 995.97 479.46 995.08 459.69 1005.28 447.02
  Q 1012.84 437.63 1025.26 432.47
  C 1032.56 429.44 1041.14 427.39 1039.74 417.25
  Q 1036.01 390.15 1032.22 363.05
  C 1031.69 359.27 1031.26 354.94 1029.44 352.09
  C 1027.00 348.23 1022.98 347.73 1017.48 346.58
  Q 1003.31 343.63 988.95 341.90
  Q 980.17 340.84 969.00 340.92
  Q 725.27 342.79 481.54 341.44"
/>
<path stroke="#fd2d1e" vector-effect="non-scaling-stroke" d="
  M 481.54 341.44
  Q 481.94 341.26 482.22 340.87
  Q 482.45 340.54 482.07 340.41
  Q 480.20 339.73 476.26 337.97
  C 466.75 333.70 453.44 334.52 442.73 336.09
  A 0.72 0.71 -87.5 0 1 441.93 335.21
  Q 442.18 334.21 443.01 334.14
  Q 463.23 332.48 483.50 331.43
  Q 544.01 328.28 604.51 324.67
  Q 616.65 323.95 623.29 322.28
  Q 654.41 314.48 666.70 284.60
  A 0.58 0.56 41.8 0 0 666.66 284.07
  Q 666.30 283.48 665.53 283.90
  C 663.24 285.17 658.12 287.15 657.02 283.14
  C 648.91 253.78 652.36 221.40 657.64 191.93
  Q 663.77 157.68 663.75 122.00
  Q 663.72 81.33 660.04 42.79
  C 659.40 36.05 658.42 32.87 652.21 30.33
  C 643.06 26.59 633.80 23.01 624.77 18.99
  C 618.55 16.22 614.08 15.86 606.59 16.46
  Q 600.68 16.94 594.75 17.12
  Q 570.00 17.90 546.23 10.37
  A 0.62 0.62 0.0 0 1 546.36 9.17
  L 547.25 9.08"
/>
<path stroke="#fea088" vector-effect="non-scaling-stroke" d="
  M 481.54 341.44
  Q 368.15 342.23 254.75 341.57
  Q 233.15 341.44 222.85 358.83
  C 208.32 383.35 202.49 414.19 229.02 433.25
  C 234.60 437.25 242.45 440.26 245.97 447.49
  C 252.46 460.86 254.33 477.71 246.93 491.02
  C 241.45 500.87 233.16 507.01 223.78 512.92
  C 220.66 514.88 218.09 517.42 216.79 520.49
  C 208.31 540.59 208.01 562.81 222.81 580.17
  C 227.45 585.60 235.60 591.83 241.11 598.04
  C 252.27 610.62 257.05 624.97 249.32 640.14
  C 245.34 647.95 237.14 657.94 230.18 664.68
  Q 220.56 673.97 217.62 678.60
  C 206.25 696.49 208.86 716.79 222.88 732.12
  Q 230.89 740.88 239.74 752.27
  C 249.89 765.33 255.84 779.65 247.02 795.56
  C 241.53 805.48 234.75 811.99 227.39 819.61
  Q 220.37 826.88 218.02 830.62
  Q 209.81 843.73 213.29 859.49
  C 215.71 870.45 222.71 883.72 231.85 890.80
  C 244.64 900.71 262.59 899.48 279.21 899.41
  C 333.79 899.17 388.42 898.57 443.00 898.82
  Q 540.00 899.27 637.00 899.51
  Q 648.48 899.54 659.96 899.83"
/>
<path stroke="#e99492" vector-effect="non-scaling-stroke" d="
  M 674.65 554.25
  C 674.43 549.93 683.89 539.91 686.92 536.81
  Q 700.99 522.43 715.22 508.22
  C 725.86 497.59 738.40 482.57 740.29 467.77
  C 741.68 456.89 730.97 455.76 723.31 457.43
  Q 712.28 459.83 703.04 466.28
  C 677.75 483.94 655.91 510.60 633.00 533.86
  C 628.83 538.09 624.29 540.27 619.53 535.72
  Q 581.45 499.29 543.30 462.95
  C 533.08 453.22 517.37 455.84 511.75 469.04
  A 1.26 1.23 47.6 0 0 511.72 469.94
  Q 512.59 472.49 514.60 475.16
  Q 544.07 514.35 572.87 548.01
  Q 575.51 551.09 575.89 552.93
  C 576.78 557.25 573.13 560.62 568.75 560.44
  Q 536.10 559.10 503.43 557.68
  Q 495.46 557.33 491.68 558.60
  Q 483.95 561.20 481.63 568.80
  C 478.07 580.49 485.86 590.40 498.00 591.00
  Q 546.50 593.43 595.00 595.94
  C 598.19 596.10 602.24 595.83 604.23 598.46
  Q 605.62 600.30 605.56 602.50
  Q 604.88 629.66 604.33 656.83
  C 604.21 663.24 601.55 665.63 594.97 665.58
  C 564.97 665.37 535.02 664.66 505.01 664.77
  C 495.42 664.80 488.06 668.12 485.50 678.16
  C 482.13 691.39 487.08 699.92 501.25 699.81
  Q 547.74 699.47 594.23 699.21
  C 599.79 699.18 603.40 700.91 603.70 706.75
  Q 605.84 748.50 607.82 790.26
  Q 608.25 799.29 614.83 804.17
  C 623.14 810.32 635.53 807.11 639.54 798.04
  Q 641.14 794.41 641.32 784.24
  Q 642.03 745.62 642.64 707.00
  Q 642.74 700.66 649.37 700.46
  Q 695.44 699.04 729.00 700.10
  C 740.66 700.47 754.04 701.54 761.12 691.96
  C 764.89 686.84 765.51 679.28 764.42 672.96
  C 763.07 665.10 757.49 663.24 749.99 663.29
  Q 703.16 663.61 656.35 664.44
  C 646.72 664.61 644.29 661.01 643.73 651.53
  Q 642.27 627.02 640.81 602.50
  Q 640.53 597.84 644.04 595.59
  Q 646.18 594.23 650.75 594.26
  Q 695.47 594.59 740.18 595.39
  Q 748.18 595.53 751.25 594.72
  C 771.76 589.30 770.83 557.40 749.26 555.54
  Q 746.41 555.30 734.79 557.06
  C 716.77 559.80 698.64 558.21 678.31 556.34
  Q 676.51 556.18 675.10 555.11
  Q 674.68 554.78 674.65 554.25"
/>
</g>
<path fill="#ffffff" d="
  M 8.66 549.92
  Q 11.98 540.79 11.43 529.99
  Q 11.14 524.06 14.23 518.28
  C 16.37 514.26 15.79 506.32 15.89 501.75
  C 15.96 498.70 19.57 496.95 19.73 494.01
  Q 20.05 488.49 20.31 482.98
  Q 20.41 480.78 23.64 477.47
  A 0.50 0.47 -23.3 0 0 23.77 477.17
  L 24.78 465.20
  Q 24.82 464.76 25.13 464.44
  Q 29.22 460.14 28.75 454.20
  C 28.60 452.21 29.17 449.41 30.57 447.97
  C 33.68 444.78 32.95 439.97 33.73 435.98
  A 1.66 1.60 74.2 0 1 34.17 435.16
  Q 37.03 432.33 37.14 430.76
  C 37.41 426.92 37.03 423.52 40.20 420.46
  Q 42.21 418.52 41.60 414.14
  Q 41.52 413.56 41.88 413.10
  L 45.23 408.70
  Q 45.52 408.33 45.58 407.86
  L 46.49 400.80
  A 0.68 0.60 -25.2 0 1 46.63 400.47
  L 50.05 396.24
  Q 50.43 395.77 50.38 395.17
  Q 49.92 390.34 53.62 387.40
  A 1.34 1.28 -15.7 0 0 54.10 386.59
  Q 54.54 383.89 55.17 381.33
  Q 55.54 379.84 56.91 378.01
  Q 59.37 374.75 59.37 370.48
  A 1.23 1.23 0.0 0 1 59.65 369.70
  L 62.86 365.79
  Q 63.25 365.32 63.26 364.71
  Q 63.37 360.14 67.06 357.38
  A 1.24 1.24 0.0 0 0 67.56 356.31
  Q 67.29 351.53 71.22 348.84
  A 1.17 1.15 78.6 0 0 71.71 348.09
  L 72.58 343.25
  A 0.90 0.88 -11.3 0 1 72.98 342.66
  Q 76.84 340.15 76.71 335.54
  A 1.02 1.01 71.1 0 1 77.11 334.71
  Q 80.69 331.93 81.55 327.52
  A 1.85 1.79 72.6 0 1 81.97 326.68
  C 84.55 323.83 85.43 319.83 88.15 317.50
  A 1.51 1.47 75.0 0 0 88.65 316.61
  Q 89.47 311.92 93.25 309.03
  A 0.98 0.97 69.3 0 0 93.63 308.18
  C 93.31 304.26 94.94 303.53 97.08 301.32
  C 98.79 299.57 99.07 297.20 101.05 295.33
  Q 101.43 294.97 101.57 294.46
  Q 102.74 290.23 106.20 287.51
  A 1.06 1.04 -18.6 0 0 106.61 286.70
  C 106.74 282.46 109.49 280.92 111.39 278.22
  Q 112.96 275.99 114.97 274.15
  A 1.39 1.36 73.3 0 0 115.40 273.33
  L 115.69 271.25
  Q 115.77 270.69 116.12 270.25
  Q 119.64 265.81 123.45 261.63
  C 124.43 260.55 124.60 259.80 124.89 258.44
  A 1.78 1.78 0.0 0 1 125.35 257.59
  C 127.50 255.37 128.30 252.72 130.38 250.59
  Q 132.25 248.68 133.93 246.60
  C 135.49 244.66 137.22 243.71 137.62 240.65
  Q 137.68 240.15 138.04 239.78
  C 140.18 237.59 141.66 234.99 143.76 232.93
  Q 149.09 227.71 153.87 221.12
  Q 154.58 220.14 154.63 219.06
  Q 154.65 218.57 155.00 218.22
  C 157.14 216.14 158.78 213.55 160.73 211.61
  Q 172.82 199.56 184.36 186.98
  Q 191.49 179.22 198.39 172.76
  Q 213.47 158.63 228.26 144.22
  C 230.59 141.94 233.51 140.61 236.04 138.28
  A 1.61 1.57 19.1 0 1 236.89 137.88
  Q 238.69 137.61 239.67 136.67
  Q 245.66 130.92 251.87 125.40
  C 253.36 124.08 255.14 124.41 256.50 123.17
  Q 258.17 121.64 260.05 120.40
  C 262.81 118.58 264.47 115.98 267.69 114.52
  Q 268.22 114.28 268.57 113.82
  Q 270.22 111.67 272.98 111.56
  A 1.23 1.23 0.0 0 0 273.78 111.24
  Q 277.89 107.51 282.27 104.15
  C 283.80 102.98 284.69 102.81 286.54 102.56
  A 1.32 1.28 15.2 0 0 287.37 102.10
  C 289.30 99.83 290.32 99.09 293.39 97.53
  Q 295.08 96.66 296.36 95.19
  A 1.12 1.09 -73.2 0 1 297.03 94.82
  Q 301.30 94.18 303.55 90.43
  A 1.13 1.12 -78.2 0 1 304.37 89.89
  L 308.45 89.34
  A 0.49 0.49 0.0 0 0 308.74 89.20
  L 312.43 85.74
  A 2.00 1.94 -71.6 0 1 313.41 85.23
  Q 315.96 84.76 317.95 83.24
  C 320.88 81.01 323.83 80.31 326.50 77.70
  A 1.70 1.70 0.0 0 1 327.48 77.23
  Q 331.89 76.65 334.61 73.08
  Q 334.95 72.63 335.52 72.64
  Q 340.11 72.73 342.60 68.88
  A 1.25 1.24 -78.7 0 1 343.41 68.33
  C 347.81 67.47 348.84 67.73 352.07 64.35
  A 1.42 1.41 -69.6 0 1 352.96 63.94
  C 356.10 63.76 357.80 63.36 360.63 61.47
  Q 364.28 59.03 368.84 58.73
  A 1.27 1.25 17.7 0 0 369.75 58.27
  Q 372.87 54.54 377.76 54.73
  A 1.20 1.16 -62.5 0 0 378.55 54.47
  L 382.48 51.26
  Q 382.95 50.87 383.56 50.84
  C 386.93 50.63 388.72 50.21 391.88 48.22
  Q 394.47 46.58 398.51 46.23
  Q 401.21 46.00 403.75 43.09
  A 1.45 1.45 0.0 0 1 404.55 42.62
  Q 407.51 42.02 410.45 41.73
  C 413.63 41.43 415.29 39.89 417.71 38.15
  A 1.62 1.58 -62.3 0 1 418.64 37.85
  Q 424.25 37.81 428.95 35.05
  C 433.32 32.48 437.98 34.34 441.94 31.12
  C 446.29 27.58 451.63 30.09 456.50 26.81
  C 460.54 24.08 464.27 24.84 468.52 24.14
  Q 470.42 23.82 473.79 22.23
  Q 478.17 20.16 483.10 20.01
  Q 486.70 19.90 488.30 19.29
  C 490.58 18.41 492.36 16.74 494.71 16.38
  Q 500.16 15.56 505.66 15.66
  C 510.21 15.74 512.85 11.71 517.12 11.60
  C 524.58 11.40 530.48 11.89 535.72 8.22
  Q 537.15 7.23 542.75 7.11
  C 554.02 6.88 565.49 7.32 576.70 5.55
  C 597.74 2.23 620.99 1.26 643.46 2.30
  C 652.42 2.72 661.04 6.43 670.12 6.65
  Q 684.43 6.99 698.75 6.96
  C 703.43 6.94 708.46 9.53 712.55 10.39
  C 719.00 11.74 725.11 11.21 731.44 11.83
  C 735.07 12.18 738.11 14.97 741.23 15.29
  C 746.26 15.80 754.62 15.03 757.48 17.23
  C 759.77 18.99 760.65 19.63 763.70 19.79
  C 767.81 20.00 773.39 19.54 776.95 21.90
  Q 779.24 23.42 780.65 23.74
  C 784.98 24.73 790.65 23.65 794.22 26.21
  C 797.38 28.47 799.23 28.54 803.77 28.63
  Q 808.44 28.73 811.83 32.22
  Q 812.23 32.63 812.80 32.69
  L 820.84 33.56
  A 1.91 1.86 -21.4 0 1 821.86 33.99
  Q 826.42 37.93 832.56 37.58
  Q 833.02 37.56 833.40 37.81
  L 838.76 41.27
  A 0.97 0.96 63.8 0 0 839.22 41.43
  Q 841.92 41.67 844.52 42.20
  C 848.02 42.92 849.40 45.84 853.13 45.99
  Q 857.12 46.16 859.80 49.18
  A 1.65 1.63 -12.8 0 0 860.62 49.69
  C 864.51 50.72 867.59 50.46 870.94 53.62
  C 872.69 55.28 875.55 54.14 877.85 55.32
  C 879.26 56.04 880.49 57.69 881.82 58.67
  A 1.48 1.44 62.0 0 0 882.76 58.97
  Q 887.44 58.77 890.21 62.49
  A 1.15 1.14 73.4 0 0 891.07 62.96
  Q 895.92 63.24 899.16 66.84
  A 1.45 1.43 71.3 0 0 900.10 67.31
  Q 904.68 67.66 907.60 71.18
  A 1.44 1.41 -17.9 0 0 908.64 71.70
  Q 913.42 71.90 916.26 75.72
  A 1.14 1.11 71.3 0 0 917.16 76.18
  Q 921.95 76.16 924.53 80.21
  A 1.11 1.10 -16.5 0 0 925.48 80.72
  Q 929.83 80.65 932.34 84.13
  A 1.51 1.44 81.9 0 0 933.01 84.66
  Q 935.57 85.71 937.80 87.22
  C 940.86 89.31 944.07 89.89 946.67 93.06
  A 1.29 1.28 73.3 0 0 947.51 93.52
  C 949.50 93.77 950.72 93.87 952.30 95.26
  Q 955.98 98.51 959.95 101.35
  C 961.45 102.42 963.65 102.25 964.61 103.13
  Q 968.42 106.62 972.38 109.90
  C 974.38 111.56 976.58 110.91 978.28 112.62
  Q 984.81 119.22 992.88 123.75
  Q 995.53 125.24 997.62 127.29
  Q 1001.42 131.03 1005.63 134.25
  Q 1006.61 135.00 1010.96 137.49
  Q 1013.68 139.04 1015.98 141.27
  C 1021.75 146.88 1027.21 152.40 1033.79 157.28
  C 1049.84 169.16 1064.03 184.31 1077.65 198.86
  Q 1081.84 203.33 1085.42 208.01
  C 1088.69 212.30 1091.60 216.58 1095.41 220.51
  Q 1102.05 227.36 1108.16 234.68
  C 1109.45 236.22 1109.62 238.09 1110.78 239.47
  Q 1118.87 249.07 1121.12 251.64
  C 1122.75 253.49 1122.73 255.38 1124.03 257.11
  Q 1126.75 260.74 1129.77 264.10
  Q 1130.88 265.34 1132.08 267.76
  C 1132.99 269.61 1134.30 270.85 1135.22 272.77
  Q 1136.57 275.56 1139.11 277.43
  A 1.86 1.84 -83.7 0 1 1139.72 278.20
  Q 1140.80 280.76 1142.35 283.02
  Q 1143.07 284.07 1144.38 286.68
  C 1145.93 289.78 1148.47 290.37 1149.20 294.04
  Q 1149.40 295.06 1149.89 295.75
  Q 1152.98 300.13 1156.09 304.48
  C 1157.26 306.13 1157.25 307.37 1157.81 309.25
  A 1.49 1.48 7.7 0 0 1158.46 310.10
  Q 1162.41 312.54 1162.06 317.25
  A 1.09 1.09 0.0 0 0 1162.53 318.22
  Q 1166.29 320.74 1166.77 325.22
  Q 1166.82 325.75 1167.19 326.13
  C 1170.21 329.29 1170.50 332.53 1172.84 335.89
  C 1174.71 338.58 1175.34 341.44 1177.19 344.23
  C 1178.95 346.88 1179.44 349.71 1181.18 352.39
  Q 1183.60 356.08 1184.24 360.52
  A 1.42 1.39 17.2 0 0 1184.71 361.39
  Q 1186.50 362.95 1187.46 364.98
  C 1188.42 367.03 1187.28 369.29 1189.22 371.08
  Q 1190.65 372.41 1191.80 373.96
  A 1.60 1.60 0.0 0 1 1192.12 374.95
  Q 1192.03 379.65 1195.56 382.73
  Q 1195.99 383.11 1196.07 383.67
  L 1197.04 391.03
  A 1.64 1.63 15.2 0 0 1197.66 392.10
  Q 1201.48 395.05 1200.96 399.97
  A 1.30 1.28 -58.2 0 0 1201.15 400.80
  C 1202.68 403.32 1204.58 405.30 1205.01 408.25
  Q 1205.33 410.51 1205.35 412.76
  A 1.34 1.30 -65.0 0 0 1205.64 413.59
  L 1208.91 417.70
  A 1.26 1.24 23.2 0 1 1209.17 418.33
  C 1209.59 421.43 1209.13 424.90 1210.82 427.56
  C 1211.87 429.22 1213.23 430.31 1213.54 432.33
  C 1213.94 434.93 1213.54 439.61 1215.07 441.66
  C 1218.79 446.63 1217.66 448.89 1218.72 454.51
  C 1219.37 457.92 1222.40 459.62 1222.47 463.25
  Q 1222.54 467.05 1222.98 470.82
  C 1223.30 473.59 1224.46 474.93 1225.81 477.24
  C 1227.40 479.94 1227.13 484.92 1227.08 488.00
  C 1227.03 490.83 1227.70 492.31 1229.42 494.89
  C 1232.23 499.11 1231.46 507.15 1231.58 512.12
  C 1231.68 516.36 1235.21 519.59 1235.53 524.13
  C 1236.24 534.21 1234.83 543.26 1239.18 553.36
  Q 1240.01 555.29 1240.00 561.50
  Q 1239.93 587.63 1240.76 613.75
  Q 1241.06 623.35 1240.74 633.74
  Q 1240.14 653.46 1240.22 678.50
  Q 1240.24 684.78 1237.94 691.44
  C 1235.38 698.86 1235.88 708.55 1235.54 716.38
  C 1235.50 717.28 1234.98 719.49 1234.52 720.30
  C 1230.60 727.13 1231.96 733.59 1230.95 740.61
  C 1230.46 744.05 1227.36 747.16 1227.27 750.23
  C 1227.15 754.94 1227.54 760.57 1225.04 764.73
  C 1223.04 768.07 1222.77 770.46 1222.59 774.10
  C 1222.39 777.95 1221.66 779.47 1219.94 782.52
  C 1218.42 785.21 1218.49 788.26 1218.18 791.20
  C 1217.80 794.80 1215.75 797.30 1214.20 800.47
  A 1.47 1.46 54.5 0 0 1214.07 801.27
  Q 1214.83 807.80 1210.60 812.58
  A 1.68 1.65 -20.8 0 0 1210.21 813.43
  Q 1209.81 816.36 1209.42 819.16
  C 1209.03 821.98 1207.84 823.18 1206.44 825.49
  C 1204.57 828.58 1205.84 831.90 1203.53 835.37
  Q 1201.04 839.11 1200.68 843.69
  A 1.65 1.63 66.8 0 1 1200.33 844.58
  Q 1197.21 848.50 1196.48 853.34
  C 1195.86 857.39 1193.32 859.12 1192.54 862.92
  Q 1191.77 866.66 1189.16 869.50
  A 1.69 1.65 -19.4 0 0 1188.72 870.39
  Q 1188.07 874.24 1186.06 877.47
  C 1183.88 880.97 1183.58 884.31 1181.43 887.57
  C 1179.69 890.21 1179.07 893.32 1177.60 895.77
  C 1176.57 897.50 1175.62 898.83 1174.94 900.85
  C 1173.77 904.29 1171.69 906.79 1170.32 910.23
  C 1169.49 912.33 1168.07 914.27 1167.23 915.96
  Q 1159.74 930.90 1156.54 935.80
  C 1154.32 939.18 1152.36 943.19 1150.91 945.55
  Q 1144.53 955.94 1137.92 966.18
  C 1135.53 969.88 1132.17 973.98 1129.57 978.11
  Q 1126.49 983.01 1124.73 985.31
  C 1122.37 988.40 1119.97 991.25 1117.83 994.58
  C 1111.95 1003.71 1103.63 1013.12 1098.57 1020.47
  C 1092.74 1028.93 1088.08 1037.39 1080.60 1045.34
  C 1070.71 1055.86 1061.33 1064.73 1049.26 1074.85
  Q 1038.80 1083.62 1028.69 1092.81
  C 1024.04 1097.03 1017.52 1099.38 1013.31 1102.80
  Q 992.46 1119.74 985.77 1124.03
  C 975.67 1130.52 965.92 1137.53 955.50 1143.52
  C 951.09 1146.06 946.73 1149.14 942.53 1151.44
  Q 929.97 1158.32 917.42 1165.24
  C 915.75 1166.16 911.72 1167.80 909.13 1169.58
  C 906.50 1171.39 903.62 1171.91 900.87 1173.56
  Q 898.70 1174.87 896.27 1175.81
  C 893.48 1176.90 891.29 1178.90 888.56 1179.80
  C 884.34 1181.18 880.85 1183.38 876.68 1184.87
  Q 874.68 1185.58 872.02 1187.03
  C 869.04 1188.64 865.85 1189.02 863.02 1190.64
  C 861.14 1191.71 859.80 1192.54 857.56 1193.13
  C 853.09 1194.29 850.24 1197.09 845.26 1197.79
  C 840.82 1198.42 838.20 1200.78 834.11 1201.63
  Q 830.28 1202.42 826.92 1204.36
  C 822.76 1206.76 818.62 1205.98 814.28 1208.33
  Q 810.78 1210.23 806.82 1210.65
  Q 803.83 1210.96 802.33 1211.69
  C 800.36 1212.64 798.94 1214.03 796.73 1214.35
  C 793.06 1214.89 788.60 1214.51 785.37 1216.38
  C 783.48 1217.47 782.17 1218.70 779.88 1218.89
  C 776.05 1219.22 771.55 1218.93 768.09 1220.69
  C 766.12 1221.70 764.64 1222.95 762.37 1223.21
  C 756.46 1223.87 750.28 1222.64 745.10 1226.18
  C 743.95 1226.96 742.19 1227.65 740.85 1227.67
  Q 733.16 1227.81 725.49 1228.26
  C 723.08 1228.40 720.20 1231.20 716.94 1231.72
  C 705.14 1233.61 693.00 1230.68 681.25 1233.86
  Q 674.50 1235.68 672.63 1235.91
  Q 667.86 1236.48 662.25 1236.49
  Q 620.88 1236.54 579.50 1236.49
  C 573.75 1236.48 568.32 1236.68 563.21 1234.25
  Q 558.75 1232.13 556.00 1232.20
  Q 544.62 1232.49 533.26 1231.94
  C 529.06 1231.73 527.20 1228.72 523.53 1228.35
  Q 518.03 1227.80 511.00 1227.79
  Q 508.89 1227.79 506.59 1227.18
  C 503.84 1226.45 500.67 1223.62 497.75 1223.59
  C 492.26 1223.54 485.75 1224.04 482.44 1221.56
  C 476.64 1217.22 470.47 1220.99 464.79 1217.00
  C 461.32 1214.56 458.65 1214.75 454.91 1214.58
  C 450.00 1214.36 447.53 1210.98 442.63 1210.58
  C 439.39 1210.32 436.93 1210.22 434.10 1208.23
  C 430.47 1205.67 424.75 1206.43 422.73 1204.82
  C 418.09 1201.13 414.24 1202.57 409.84 1199.86
  Q 405.73 1197.34 400.85 1196.86
  Q 400.36 1196.81 400.00 1196.47
  Q 396.19 1192.94 390.96 1192.76
  A 1.95 1.87 63.1 0 1 389.90 1192.39
  Q 384.97 1188.74 378.85 1188.23
  A 1.75 1.71 69.1 0 1 377.78 1187.74
  Q 374.52 1184.55 369.98 1184.07
  A 1.61 1.55 67.9 0 1 369.08 1183.67
  Q 365.52 1180.46 360.74 1179.80
  A 1.43 1.43 0.0 0 1 360.00 1179.46
  Q 357.19 1177.05 353.77 1175.92
  C 350.41 1174.80 348.19 1173.15 345.14 1171.85
  Q 343.21 1171.02 340.89 1169.42
  C 338.36 1167.67 335.63 1167.31 333.31 1165.47
  C 331.92 1164.36 331.07 1163.50 329.19 1163.08
  Q 325.48 1162.24 322.72 1159.56
  A 2.09 2.08 -15.3 0 0 321.86 1159.07
  Q 318.35 1158.11 315.36 1156.17
  C 310.06 1152.73 305.90 1150.56 301.40 1147.42
  C 298.78 1145.60 295.29 1145.14 292.94 1143.04
  Q 288.93 1139.45 284.99 1137.41
  Q 281.52 1135.60 279.78 1134.19
  C 277.09 1132.00 275.07 1130.14 271.81 1128.43
  C 267.00 1125.90 263.84 1121.94 259.18 1119.52
  C 251.42 1115.50 245.48 1108.59 238.50 1103.48
  Q 232.44 1099.04 229.04 1095.87
  C 224.14 1091.31 219.54 1086.76 214.30 1082.43
  C 197.34 1068.42 180.62 1053.05 167.04 1035.69
  Q 158.09 1024.25 147.55 1014.23
  C 145.73 1012.50 143.29 1009.11 142.10 1006.81
  C 139.33 1001.43 135.09 997.70 131.40 993.72
  Q 129.84 992.05 128.01 988.62
  Q 125.20 983.34 120.10 978.14
  C 117.07 975.05 115.47 970.32 112.62 966.92
  C 110.68 964.59 108.10 961.94 106.99 959.11
  C 105.10 954.26 101.13 950.68 98.69 946.02
  Q 97.56 943.85 95.51 940.60
  C 93.01 936.63 91.27 932.89 87.93 928.16
  C 85.97 925.38 84.86 922.00 82.71 919.05
  Q 81.51 917.42 80.70 915.22
  C 79.66 912.39 77.61 910.48 76.69 907.84
  C 76.09 906.13 75.92 904.78 74.67 903.30
  Q 72.18 900.35 71.54 896.46
  A 1.72 1.67 21.5 0 0 71.16 895.62
  C 69.34 893.45 68.46 892.19 67.58 889.17
  Q 66.93 886.93 65.49 885.10
  C 63.67 882.80 63.29 881.50 62.78 878.89
  A 1.75 1.73 -72.0 0 0 62.33 877.99
  Q 59.78 875.18 58.92 871.57
  C 58.24 868.72 57.13 867.60 55.44 865.51
  A 1.52 1.42 -69.6 0 1 55.12 864.74
  Q 54.55 859.66 51.28 855.74
  A 1.67 1.67 0.0 0 1 50.90 854.80
  Q 50.51 848.73 46.76 844.02
  A 1.70 1.68 23.8 0 1 46.39 843.09
  Q 45.97 838.15 42.57 834.50
  A 0.88 0.81 -72.7 0 1 42.35 834.04
  L 41.36 826.30
  A 1.25 1.24 -66.7 0 0 41.13 825.72
  L 37.78 821.09
  A 1.59 1.59 0.0 0 1 37.50 820.07
  Q 38.02 813.77 33.87 809.21
  A 1.46 1.45 20.6 0 1 33.48 808.36
  L 32.69 800.30
  Q 32.64 799.72 32.24 799.29
  C 28.78 795.54 28.77 794.25 28.58 789.22
  C 28.40 784.47 24.92 782.52 24.63 777.99
  C 24.32 773.34 24.90 769.13 21.64 764.98
  C 19.20 761.89 19.73 752.94 19.36 748.91
  Q 19.31 748.41 19.00 748.00
  C 17.13 745.56 15.77 743.95 15.76 740.63
  C 15.74 735.93 16.01 731.39 14.34 726.97
  C 13.22 723.98 11.56 721.70 11.59 718.33
  C 11.66 711.40 11.94 703.31 9.51 696.76
  Q 6.96 689.88 6.91 680.75
  Q 6.83 666.59 6.58 652.43
  C 6.47 646.48 3.90 641.38 3.68 635.55
  Q 3.14 621.80 3.45 608.04
  C 3.58 602.00 6.51 597.19 6.60 591.30
  Q 6.93 568.79 6.84 562.01
  Q 6.75 555.15 8.66 549.92
  Z
  M 547.25 9.08
  Q 460.24 21.41 381.57 53.84
  Q 276.54 97.14 195.21 177.81
  C 136.68 235.85 88.90 309.17 55.73 385.67
  Q 14.82 480.02 7.50 582.67
  C 7.29 585.69 7.55 589.53 7.23 592.94
  C 5.58 610.90 6.05 629.48 6.82 647.50
  C 6.87 648.69 7.40 650.04 7.39 651.51
  Q 7.35 658.01 7.83 664.50
  C 21.05 842.54 113.18 1008.16 256.13 1114.62
  Q 384.47 1210.20 544.05 1230.82
  Q 548.60 1231.40 554.94 1231.95
  Q 560.39 1232.42 565.84 1232.95
  C 599.24 1236.20 633.09 1236.19 666.55 1233.72
  Q 673.39 1233.35 691.77 1231.75
  C 781.18 1223.98 868.22 1193.91 944.54 1147.25
  Q 1032.55 1093.43 1099.62 1012.44
  C 1138.36 965.65 1169.82 912.17 1193.05 856.05
  C 1263.43 686.01 1253.85 494.34 1168.83 331.66
  C 1123.90 245.69 1058.33 172.10 979.16 116.09
  Q 863.14 34.00 722.24 12.77
  C 708.58 10.71 691.07 8.56 675.27 7.51
  Q 658.60 6.40 653.25 6.11
  Q 602.65 3.36 547.25 9.08
  Z"
/>
<path fill="#fc192a" d="
  M 666.55 1233.72
  Q 665.45 1233.00 665.63 1232.31
  Q 665.73 1231.92 665.36 1231.74
  Q 650.93 1224.89 635.35 1221.72
  C 628.07 1220.24 620.33 1220.13 612.69 1219.94
  A 0.95 0.94 -67.6 0 1 612.03 1218.35
  Q 614.59 1215.61 618.75 1215.62
  Q 630.46 1215.63 642.13 1214.72
  C 652.36 1213.92 659.87 1208.00 659.74 1197.05
  Q 659.70 1193.69 657.76 1188.69
  C 648.10 1163.80 640.24 1139.69 640.52 1113.24
  Q 640.54 1111.40 641.82 1093.28
  Q 645.07 1047.15 634.20 1002.01
  C 633.12 997.54 637.23 995.26 639.96 992.83
  A 1.45 1.44 74.5 0 0 640.42 992.01
  Q 640.97 989.06 639.51 986.50
  Q 621.74 955.22 609.72 922.24
  C 607.85 917.12 606.88 912.21 613.49 910.75
  Q 621.64 908.95 645.26 904.02
  Q 649.19 903.20 652.67 902.13
  Q 656.33 901.01 659.96 899.83
  Q 821.85 899.15 983.75 899.70
  C 1006.46 899.77 1027.47 892.49 1034.41 869.83
  C 1038.24 857.35 1036.79 841.44 1033.67 828.34
  C 1033.06 825.77 1031.26 821.96 1029.08 821.09
  C 1015.06 815.48 1002.06 806.27 996.84 791.55
  C 990.08 772.45 1000.64 753.67 1017.84 744.86
  Q 1024.14 741.64 1030.77 739.22
  Q 1038.21 736.51 1038.48 728.76
  Q 1038.80 719.43 1039.11 684.00
  C 1039.17 677.28 1036.96 674.74 1030.92 671.69
  C 1020.28 666.31 1011.55 659.73 1004.53 649.74
  C 993.68 634.31 993.33 615.50 1004.92 600.66
  C 1010.96 592.93 1017.71 588.87 1027.10 583.59
  C 1029.31 582.34 1031.80 580.18 1032.66 578.14
  C 1043.47 552.52 1042.94 522.37 1017.01 505.75
  C 1011.85 502.45 1004.96 499.10 1002.34 493.38
  C 995.97 479.46 995.08 459.69 1005.28 447.02
  Q 1012.84 437.63 1025.26 432.47
  C 1032.56 429.44 1041.14 427.39 1039.74 417.25
  Q 1036.01 390.15 1032.22 363.05
  C 1031.69 359.27 1031.26 354.94 1029.44 352.09
  C 1027.00 348.23 1022.98 347.73 1017.48 346.58
  Q 1003.31 343.63 988.95 341.90
  Q 980.17 340.84 969.00 340.92
  Q 725.27 342.79 481.54 341.44
  Q 481.94 341.26 482.22 340.87
  Q 482.45 340.54 482.07 340.41
  Q 480.20 339.73 476.26 337.97
  C 466.75 333.70 453.44 334.52 442.73 336.09
  A 0.72 0.71 -87.5 0 1 441.93 335.21
  Q 442.18 334.21 443.01 334.14
  Q 463.23 332.48 483.50 331.43
  Q 544.01 328.28 604.51 324.67
  Q 616.65 323.95 623.29 322.28
  Q 654.41 314.48 666.70 284.60
  A 0.58 0.56 41.8 0 0 666.66 284.07
  Q 666.30 283.48 665.53 283.90
  C 663.24 285.17 658.12 287.15 657.02 283.14
  C 648.91 253.78 652.36 221.40 657.64 191.93
  Q 663.77 157.68 663.75 122.00
  Q 663.72 81.33 660.04 42.79
  C 659.40 36.05 658.42 32.87 652.21 30.33
  C 643.06 26.59 633.80 23.01 624.77 18.99
  C 618.55 16.22 614.08 15.86 606.59 16.46
  Q 600.68 16.94 594.75 17.12
  Q 570.00 17.90 546.23 10.37
  A 0.62 0.62 0.0 0 1 546.36 9.17
  L 547.25 9.08
  Q 602.65 3.36 653.25 6.11
  Q 658.60 6.40 675.27 7.51
  C 691.07 8.56 708.58 10.71 722.24 12.77
  Q 863.14 34.00 979.16 116.09
  C 1058.33 172.10 1123.90 245.69 1168.83 331.66
  C 1253.85 494.34 1263.43 686.01 1193.05 856.05
  C 1169.82 912.17 1138.36 965.65 1099.62 1012.44
  Q 1032.55 1093.43 944.54 1147.25
  C 868.22 1193.91 781.18 1223.98 691.77 1231.75
  Q 673.39 1233.35 666.55 1233.72
  Z"
/>
<path fill="#fd4011" d="
  M 547.25 9.08
  L 546.36 9.17
  A 0.62 0.62 0.0 0 0 546.23 10.37
  Q 570.00 17.90 594.75 17.12
  Q 600.68 16.94 606.59 16.46
  C 614.08 15.86 618.55 16.22 624.77 18.99
  C 633.80 23.01 643.06 26.59 652.21 30.33
  C 658.42 32.87 659.40 36.05 660.04 42.79
  Q 663.72 81.33 663.75 122.00
  Q 663.77 157.68 657.64 191.93
  C 652.36 221.40 648.91 253.78 657.02 283.14
  C 658.12 287.15 663.24 285.17 665.53 283.90
  Q 666.30 283.48 666.66 284.07
  A 0.58 0.56 41.8 0 1 666.70 284.60
  Q 654.41 314.48 623.29 322.28
  Q 616.65 323.95 604.51 324.67
  Q 544.01 328.28 483.50 331.43
  Q 463.23 332.48 443.01 334.14
  Q 442.18 334.21 441.93 335.21
  A 0.72 0.71 -87.5 0 0 442.73 336.09
  C 453.44 334.52 466.75 333.70 476.26 337.97
  Q 480.20 339.73 482.07 340.41
  Q 482.45 340.54 482.22 340.87
  Q 481.94 341.26 481.54 341.44
  Q 368.15 342.23 254.75 341.57
  Q 233.15 341.44 222.85 358.83
  C 208.32 383.35 202.49 414.19 229.02 433.25
  C 234.60 437.25 242.45 440.26 245.97 447.49
  C 252.46 460.86 254.33 477.71 246.93 491.02
  C 241.45 500.87 233.16 507.01 223.78 512.92
  C 220.66 514.88 218.09 517.42 216.79 520.49
  C 208.31 540.59 208.01 562.81 222.81 580.17
  C 227.45 585.60 235.60 591.83 241.11 598.04
  C 252.27 610.62 257.05 624.97 249.32 640.14
  C 245.34 647.95 237.14 657.94 230.18 664.68
  Q 220.56 673.97 217.62 678.60
  C 206.25 696.49 208.86 716.79 222.88 732.12
  Q 230.89 740.88 239.74 752.27
  C 249.89 765.33 255.84 779.65 247.02 795.56
  C 241.53 805.48 234.75 811.99 227.39 819.61
  Q 220.37 826.88 218.02 830.62
  Q 209.81 843.73 213.29 859.49
  C 215.71 870.45 222.71 883.72 231.85 890.80
  C 244.64 900.71 262.59 899.48 279.21 899.41
  C 333.79 899.17 388.42 898.57 443.00 898.82
  Q 540.00 899.27 637.00 899.51
  Q 648.48 899.54 659.96 899.83
  Q 656.33 901.01 652.67 902.13
  Q 649.19 903.20 645.26 904.02
  Q 621.64 908.95 613.49 910.75
  C 606.88 912.21 607.85 917.12 609.72 922.24
  Q 621.74 955.22 639.51 986.50
  Q 640.97 989.06 640.42 992.01
  A 1.45 1.44 74.5 0 1 639.96 992.83
  C 637.23 995.26 633.12 997.54 634.20 1002.01
  Q 645.07 1047.15 641.82 1093.28
  Q 640.54 1111.40 640.52 1113.24
  C 640.24 1139.69 648.10 1163.80 657.76 1188.69
  Q 659.70 1193.69 659.74 1197.05
  C 659.87 1208.00 652.36 1213.92 642.13 1214.72
  Q 630.46 1215.63 618.75 1215.62
  Q 614.59 1215.61 612.03 1218.35
  A 0.95 0.94 -67.6 0 0 612.69 1219.94
  C 620.33 1220.13 628.07 1220.24 635.35 1221.72
  Q 650.93 1224.89 665.36 1231.74
  Q 665.73 1231.92 665.63 1232.31
  Q 665.45 1233.00 666.55 1233.72
  C 633.09 1236.19 599.24 1236.20 565.84 1232.95
  Q 560.39 1232.42 554.94 1231.95
  Q 548.60 1231.40 544.05 1230.82
  Q 384.47 1210.20 256.13 1114.62
  C 113.18 1008.16 21.05 842.54 7.83 664.50
  Q 7.35 658.01 7.39 651.51
  C 7.40 650.04 6.87 648.69 6.82 647.50
  C 6.05 629.48 5.58 610.90 7.23 592.94
  C 7.55 589.53 7.29 585.69 7.50 582.67
  Q 14.82 480.02 55.73 385.67
  C 88.90 309.17 136.68 235.85 195.21 177.81
  Q 276.54 97.14 381.57 53.84
  Q 460.24 21.41 547.25 9.08
  Z"
/>
<path fill="#ffffff" d="
  M 659.96 899.83
  Q 648.48 899.54 637.00 899.51
  Q 540.00 899.27 443.00 898.82
  C 388.42 898.57 333.79 899.17 279.21 899.41
  C 262.59 899.48 244.64 900.71 231.85 890.80
  C 222.71 883.72 215.71 870.45 213.29 859.49
  Q 209.81 843.73 218.02 830.62
  Q 220.37 826.88 227.39 819.61
  C 234.75 811.99 241.53 805.48 247.02 795.56
  C 255.84 779.65 249.89 765.33 239.74 752.27
  Q 230.89 740.88 222.88 732.12
  C 208.86 716.79 206.25 696.49 217.62 678.60
  Q 220.56 673.97 230.18 664.68
  C 237.14 657.94 245.34 647.95 249.32 640.14
  C 257.05 624.97 252.27 610.62 241.11 598.04
  C 235.60 591.83 227.45 585.60 222.81 580.17
  C 208.01 562.81 208.31 540.59 216.79 520.49
  C 218.09 517.42 220.66 514.88 223.78 512.92
  C 233.16 507.01 241.45 500.87 246.93 491.02
  C 254.33 477.71 252.46 460.86 245.97 447.49
  C 242.45 440.26 234.60 437.25 229.02 433.25
  C 202.49 414.19 208.32 383.35 222.85 358.83
  Q 233.15 341.44 254.75 341.57
  Q 368.15 342.23 481.54 341.44
  Q 725.27 342.79 969.00 340.92
  Q 980.17 340.84 988.95 341.90
  Q 1003.31 343.63 1017.48 346.58
  C 1022.98 347.73 1027.00 348.23 1029.44 352.09
  C 1031.26 354.94 1031.69 359.27 1032.22 363.05
  Q 1036.01 390.15 1039.74 417.25
  C 1041.14 427.39 1032.56 429.44 1025.26 432.47
  Q 1012.84 437.63 1005.28 447.02
  C 995.08 459.69 995.97 479.46 1002.34 493.38
  C 1004.96 499.10 1011.85 502.45 1017.01 505.75
  C 1042.94 522.37 1043.47 552.52 1032.66 578.14
  C 1031.80 580.18 1029.31 582.34 1027.10 583.59
  C 1017.71 588.87 1010.96 592.93 1004.92 600.66
  C 993.33 615.50 993.68 634.31 1004.53 649.74
  C 1011.55 659.73 1020.28 666.31 1030.92 671.69
  C 1036.96 674.74 1039.17 677.28 1039.11 684.00
  Q 1038.80 719.43 1038.48 728.76
  Q 1038.21 736.51 1030.77 739.22
  Q 1024.14 741.64 1017.84 744.86
  C 1000.64 753.67 990.08 772.45 996.84 791.55
  C 1002.06 806.27 1015.06 815.48 1029.08 821.09
  C 1031.26 821.96 1033.06 825.77 1033.67 828.34
  C 1036.79 841.44 1038.24 857.35 1034.41 869.83
  C 1027.47 892.49 1006.46 899.77 983.75 899.70
  Q 821.85 899.15 659.96 899.83
  Z
  M 674.65 554.25
  C 674.43 549.93 683.89 539.91 686.92 536.81
  Q 700.99 522.43 715.22 508.22
  C 725.86 497.59 738.40 482.57 740.29 467.77
  C 741.68 456.89 730.97 455.76 723.31 457.43
  Q 712.28 459.83 703.04 466.28
  C 677.75 483.94 655.91 510.60 633.00 533.86
  C 628.83 538.09 624.29 540.27 619.53 535.72
  Q 581.45 499.29 543.30 462.95
  C 533.08 453.22 517.37 455.84 511.75 469.04
  A 1.26 1.23 47.6 0 0 511.72 469.94
  Q 512.59 472.49 514.60 475.16
  Q 544.07 514.35 572.87 548.01
  Q 575.51 551.09 575.89 552.93
  C 576.78 557.25 573.13 560.62 568.75 560.44
  Q 536.10 559.10 503.43 557.68
  Q 495.46 557.33 491.68 558.60
  Q 483.95 561.20 481.63 568.80
  C 478.07 580.49 485.86 590.40 498.00 591.00
  Q 546.50 593.43 595.00 595.94
  C 598.19 596.10 602.24 595.83 604.23 598.46
  Q 605.62 600.30 605.56 602.50
  Q 604.88 629.66 604.33 656.83
  C 604.21 663.24 601.55 665.63 594.97 665.58
  C 564.97 665.37 535.02 664.66 505.01 664.77
  C 495.42 664.80 488.06 668.12 485.50 678.16
  C 482.13 691.39 487.08 699.92 501.25 699.81
  Q 547.74 699.47 594.23 699.21
  C 599.79 699.18 603.40 700.91 603.70 706.75
  Q 605.84 748.50 607.82 790.26
  Q 608.25 799.29 614.83 804.17
  C 623.14 810.32 635.53 807.11 639.54 798.04
  Q 641.14 794.41 641.32 784.24
  Q 642.03 745.62 642.64 707.00
  Q 642.74 700.66 649.37 700.46
  Q 695.44 699.04 729.00 700.10
  C 740.66 700.47 754.04 701.54 761.12 691.96
  C 764.89 686.84 765.51 679.28 764.42 672.96
  C 763.07 665.10 757.49 663.24 749.99 663.29
  Q 703.16 663.61 656.35 664.44
  C 646.72 664.61 644.29 661.01 643.73 651.53
  Q 642.27 627.02 640.81 602.50
  Q 640.53 597.84 644.04 595.59
  Q 646.18 594.23 650.75 594.26
  Q 695.47 594.59 740.18 595.39
  Q 748.18 595.53 751.25 594.72
  C 771.76 589.30 770.83 557.40 749.26 555.54
  Q 746.41 555.30 734.79 557.06
  C 716.77 559.80 698.64 558.21 678.31 556.34
  Q 676.51 556.18 675.10 555.11
  Q 674.68 554.78 674.65 554.25
  Z"
/>
<path fill="#d22825" d="
  M 675.10 555.11
  Q 676.51 556.18 678.31 556.34
  C 698.64 558.21 716.77 559.80 734.79 557.06
  Q 746.41 555.30 749.26 555.54
  C 770.83 557.40 771.76 589.30 751.25 594.72
  Q 748.18 595.53 740.18 595.39
  Q 695.47 594.59 650.75 594.26
  Q 646.18 594.23 644.04 595.59
  Q 640.53 597.84 640.81 602.50
  Q 642.27 627.02 643.73 651.53
  C 644.29 661.01 646.72 664.61 656.35 664.44
  Q 703.16 663.61 749.99 663.29
  C 757.49 663.24 763.07 665.10 764.42 672.96
  C 765.51 679.28 764.89 686.84 761.12 691.96
  C 754.04 701.54 740.66 700.47 729.00 700.10
  Q 695.44 699.04 649.37 700.46
  Q 642.74 700.66 642.64 707.00
  Q 642.03 745.62 641.32 784.24
  Q 641.14 794.41 639.54 798.04
  C 635.53 807.11 623.14 810.32 614.83 804.17
  Q 608.25 799.29 607.82 790.26
  Q 605.84 748.50 603.70 706.75
  C 603.40 700.91 599.79 699.18 594.23 699.21
  Q 547.74 699.47 501.25 699.81
  C 487.08 699.92 482.13 691.39 485.50 678.16
  C 488.06 668.12 495.42 664.80 505.01 664.77
  C 535.02 664.66 564.97 665.37 594.97 665.58
  C 601.55 665.63 604.21 663.24 604.33 656.83
  Q 604.88 629.66 605.56 602.50
  Q 605.62 600.30 604.23 598.46
  C 602.24 595.83 598.19 596.10 595.00 595.94
  Q 546.50 593.43 498.00 591.00
  C 485.86 590.40 478.07 580.49 481.63 568.80
  Q 483.95 561.20 491.68 558.60
  Q 495.46 557.33 503.43 557.68
  Q 536.10 559.10 568.75 560.44
  C 573.13 560.62 576.78 557.25 575.89 552.93
  Q 575.51 551.09 572.87 548.01
  Q 544.07 514.35 514.60 475.16
  Q 512.59 472.49 511.72 469.94
  A 1.26 1.23 47.6 0 1 511.75 469.04
  C 517.37 455.84 533.08 453.22 543.30 462.95
  Q 581.45 499.29 619.53 535.72
  C 624.29 540.27 628.83 538.09 633.00 533.86
  C 655.91 510.60 677.75 483.94 703.04 466.28
  Q 712.28 459.83 723.31 457.43
  C 730.97 455.76 741.68 456.89 740.29 467.77
  C 738.40 482.57 725.86 497.59 715.22 508.22
  Q 700.99 522.43 686.92 536.81
  C 683.89 539.91 674.43 549.93 674.65 554.25
  Q 674.68 554.78 675.10 555.11
  Z"
/>
</svg>
