<?xml version="1.0" encoding="UTF-8" standalone="no"?>
<svg
   version="1.1"
   viewBox="0.00 0.00 92.00 82.00"
   id="svg36"
   sodipodi:docname="飞猪旅行.svg"
   inkscape:version="1.2.2 (732a01da63, 2022-12-09)"
   xmlns:inkscape="http://www.inkscape.org/namespaces/inkscape"
   xmlns:sodipodi="http://sodipodi.sourceforge.net/DTD/sodipodi-0.dtd"
   xmlns="http://www.w3.org/2000/svg"
   xmlns:svg="http://www.w3.org/2000/svg">
  <defs
     id="defs40" />
  <sodipodi:namedview
     id="namedview38"
     pagecolor="#ffffff"
     bordercolor="#000000"
     borderopacity="0.25"
     inkscape:showpageshadow="2"
     inkscape:pageopacity="0.0"
     inkscape:pagecheckerboard="0"
     inkscape:deskcolor="#d1d1d1"
     showgrid="false"
     inkscape:zoom="12.52439"
     inkscape:cx="46.11003"
     inkscape:cy="41.079845"
     inkscape:window-width="3840"
     inkscape:window-height="2071"
     inkscape:window-x="-9"
     inkscape:window-y="-9"
     inkscape:window-maximized="1"
     inkscape:current-layer="svg36" />
  <g
     stroke-width="2.00"
     fill="none"
     stroke-linecap="butt"
     id="g22">
    <path
       stroke="#feec84"
       vector-effect="non-scaling-stroke"
       d="   M 21.72 74.31   C 30.12 78.61 39.57 80.00 48.79 77.29   Q 70.17 71.02 74.06 47.19   A 2.14 2.13 -9.0 0 1 75.18 45.66   Q 85.18 40.55 88.23 29.67   Q 88.70 28.00 86.96 28.00   L 79.76 27.99   A 0.61 0.60 -66.4 0 1 79.35 26.94   Q 86.87 20.00 88.15 9.75   A 0.76 0.76 0.0 0 0 87.37 8.90   L 71.04 9.47"
       id="path2" />
    <path
       stroke="#fef196"
       vector-effect="non-scaling-stroke"
       d="   M 71.04 9.47   Q 49.11 8.93 41.73 8.98   Q 18.37 9.13 8.36 27.20   C -1.26 44.59 4.77 63.95 21.72 74.31"
       id="path4" />
    <path
       stroke="#fddd1b"
       vector-effect="non-scaling-stroke"
       d="   M 71.04 9.47   Q 67.05 11.38 64.00 16.50   Q 60.60 22.20 52.40 32.95"
       id="path6" />
    <path
       stroke="#917d1a"
       vector-effect="non-scaling-stroke"
       d="   M 52.40 32.95   Q 46.94 35.53 50.15 36.76"
       id="path8" />
    <path
       stroke="#fddd1b"
       vector-effect="non-scaling-stroke"
       d="   M 50.15 36.76   L 49.64 41.28"
       id="path10" />
    <path
       stroke="#f1a848"
       vector-effect="non-scaling-stroke"
       d="   M 49.64 41.28   Q 44.56 36.06 36.11 37.97   C 31.71 38.96 28.46 42.30 29.42 47.00   C 30.81 53.81 40.35 54.19 45.77 52.75"
       id="path12" />
    <path
       stroke="#fddd1b"
       vector-effect="non-scaling-stroke"
       d="   M 45.77 52.75   Q 44.22 55.46 38.91 54.76   Q 38.54 54.71 38.24 54.51   Q 37.85 54.26 37.45 54.52   Q 37.04 54.78 36.56 54.77   Q 34.54 54.74 32.51 55.07   Q 32.17 55.12 32.01 55.29   Q 31.78 55.52 31.77 55.86   Q 31.74 56.33 31.35 56.59   Q 29.74 57.66 28.22 58.82   Q 27.03 59.74 25.46 61.55   Q 23.87 63.38 22.01 64.98   C 20.19 66.53 19.32 68.49 17.47 70.12   A 0.43 0.43 0.0 0 0 17.75 70.87   L 18.09 70.87   Q 18.56 70.87 18.87 71.21   L 21.72 74.31"
       id="path14" />
    <path
       stroke="#f2a335"
       vector-effect="non-scaling-stroke"
       d="   M 45.77 52.75   Q 53.33 48.99 49.64 41.28"
       id="path16" />
    <path
       stroke="#917807"
       vector-effect="non-scaling-stroke"
       d="   M 50.15 36.76   Q 52.56 34.02 55.62 35.21   Q 56.02 35.37 56.45 35.36   Q 57.39 35.33 57.27 34.38   A 0.93 0.92 9.4 0 0 56.74 33.65   Q 54.26 32.49 52.40 32.95"
       id="path18" />
    <path
       stroke="#917d1a"
       vector-effect="non-scaling-stroke"
       d="   M 27.3531 37.6099   A 3.86 2.66 90.4 0 0 30.0399 33.7686   A 3.86 2.66 90.4 0 0 27.4069 29.8901   A 3.86 2.66 90.4 0 0 24.7201 33.7314   A 3.86 2.66 90.4 0 0 27.3531 37.6099"
       id="path20" />
  </g>
  <path
     fill="#fce22d"
     d="   M 71.04 9.47   Q 67.05 11.38 64.00 16.50   Q 60.60 22.20 52.40 32.95   Q 46.94 35.53 50.15 36.76   L 49.64 41.28   Q 44.56 36.06 36.11 37.97   C 31.71 38.96 28.46 42.30 29.42 47.00   C 30.81 53.81 40.35 54.19 45.77 52.75   Q 44.22 55.46 38.91 54.76   Q 38.54 54.71 38.24 54.51   Q 37.85 54.26 37.45 54.52   Q 37.04 54.78 36.56 54.77   Q 34.54 54.74 32.51 55.07   Q 32.17 55.12 32.01 55.29   Q 31.78 55.52 31.77 55.86   Q 31.74 56.33 31.35 56.59   Q 29.74 57.66 28.22 58.82   Q 27.03 59.74 25.46 61.55   Q 23.87 63.38 22.01 64.98   C 20.19 66.53 19.32 68.49 17.47 70.12   A 0.43 0.43 0.0 0 0 17.75 70.87   L 18.09 70.87   Q 18.56 70.87 18.87 71.21   L 21.72 74.31   C 4.77 63.95 -1.26 44.59 8.36 27.20   Q 18.37 9.13 41.73 8.98   Q 49.11 8.93 71.04 9.47   Z   M 27.3531 37.6099   A 3.86 2.66 90.4 0 0 30.0399 33.7686   A 3.86 2.66 90.4 0 0 27.4069 29.8901   A 3.86 2.66 90.4 0 0 24.7201 33.7314   A 3.86 2.66 90.4 0 0 27.3531 37.6099   Z"
     id="path26"
     style="fill:#aa8800" />
  <path
     fill="#fdd808"
     d="   M 21.72 74.31   L 18.87 71.21   Q 18.56 70.87 18.09 70.87   L 17.75 70.87   A 0.43 0.43 0.0 0 1 17.47 70.12   C 19.32 68.49 20.19 66.53 22.01 64.98   Q 23.87 63.38 25.46 61.55   Q 27.03 59.74 28.22 58.82   Q 29.74 57.66 31.35 56.59   Q 31.74 56.33 31.77 55.86   Q 31.78 55.52 32.01 55.29   Q 32.17 55.12 32.51 55.07   Q 34.54 54.74 36.56 54.77   Q 37.04 54.78 37.45 54.52   Q 37.85 54.26 38.24 54.51   Q 38.54 54.71 38.91 54.76   Q 44.22 55.46 45.77 52.75   Q 53.33 48.99 49.64 41.28   L 50.15 36.76   Q 52.56 34.02 55.62 35.21   Q 56.02 35.37 56.45 35.36   Q 57.39 35.33 57.27 34.38   A 0.93 0.92 9.4 0 0 56.74 33.65   Q 54.26 32.49 52.40 32.95   Q 60.60 22.20 64.00 16.50   Q 67.05 11.38 71.04 9.47   L 87.37 8.90   A 0.76 0.76 0.0 0 1 88.15 9.75   Q 86.87 20.00 79.35 26.94   A 0.61 0.60 -66.4 0 0 79.76 27.99   L 86.96 28.00   Q 88.70 28.00 88.23 29.67   Q 85.18 40.55 75.18 45.66   A 2.14 2.13 -9.0 0 0 74.06 47.19   Q 70.17 71.02 48.79 77.29   C 39.57 80.00 30.12 78.61 21.72 74.31   Z"
     id="path28"
     style="fill:#7c916f" />
  <ellipse
     fill="#251706"
     cx="0.00"
     cy="0.00"
     transform="translate(27.38,33.75) rotate(90.4)"
     rx="3.86"
     ry="2.66"
     id="ellipse30" />
  <path
     fill="#251706"
     d="   M 50.15 36.76   Q 46.94 35.53 52.40 32.95   Q 54.26 32.49 56.74 33.65   A 0.93 0.92 9.4 0 1 57.27 34.38   Q 57.39 35.33 56.45 35.36   Q 56.02 35.37 55.62 35.21   Q 52.56 34.02 50.15 36.76   Z"
     id="path32" />
  <path
     fill="#251706"
     d="m 53.000193,59.749265 q 12.958761,1.23 -9.083246,3.81 -7.508814,0.46 -17.52057,-0.7 a 3.7533381,0.92026222 0.0520746 0 1 -2.139608,-0.73 q -0.48444,-0.95 3.310338,-0.98 1.73591,-0.01 3.350708,0.15 12.353213,1.19 22.082378,-1.55 z"
     id="path32-2"
     style="stroke-width:2.00922" />
  <path
     fill="#e66d62"
     d="   M 49.64 41.28   Q 53.33 48.99 45.77 52.75   C 40.35 54.19 30.81 53.81 29.42 47.00   C 28.46 42.30 31.71 38.96 36.11 37.97   Q 44.56 36.06 49.64 41.28   Z"
     id="path34" />
</svg>
